<svg width="32" height="32" viewBox="0 0 32 32" fill="none" xmlns="http://www.w3.org/2000/svg">
<path d="M24.0563 23.1099C14.9765 27.4311 9.34145 23.8156 5.73429 21.6197C5.51108 21.4813 5.1317 21.652 5.46086 22.0301C6.66259 23.4873 10.6009 26.9993 15.7416 26.9993C20.8857 26.9993 23.9461 24.1924 24.3289 23.7028C24.7091 23.2173 24.4405 22.9495 24.0562 23.1099H24.0563ZM26.6064 21.7016C26.3625 21.3841 25.1237 21.3249 24.3441 21.4206C23.5632 21.5137 22.3912 21.9909 22.4931 22.2774C22.5454 22.3848 22.6521 22.3366 23.1885 22.2884C23.7264 22.2347 25.2332 22.0445 25.5472 22.455C25.8626 22.8683 25.0666 24.837 24.9212 25.1546C24.7807 25.4721 24.9749 25.554 25.2387 25.3425C25.4989 25.1311 25.97 24.5836 26.2862 23.8089C26.6002 23.03 26.7916 21.9433 26.6063 21.7016H26.6064Z" fill="#FF9900"/>
<path fill-rule="evenodd" clip-rule="evenodd" d="M17.9525 14.2918C17.9525 15.4256 17.9811 16.3712 17.408 17.3781C16.9455 18.1968 16.2128 18.7003 15.3941 18.7003C14.2766 18.7003 13.6258 17.8489 13.6258 16.5923C13.6258 14.1117 15.8484 13.6614 17.9525 13.6614V14.2918ZM20.8873 21.3855C20.6949 21.5574 20.4166 21.5697 20.1997 21.4551C19.2337 20.6528 19.0617 20.2804 18.5296 19.5149C16.9332 21.144 15.8035 21.6311 13.7323 21.6311C11.2845 21.6311 9.37695 20.1207 9.37695 17.0957C9.37695 14.7339 10.6582 13.1252 12.4796 12.3394C14.0597 11.6434 16.266 11.5206 17.9525 11.3283V10.9517C17.9525 10.2599 18.0056 9.44125 17.6004 8.84367C17.2443 8.30743 16.5648 8.08637 15.9671 8.08637C14.8579 8.08637 13.8673 8.65531 13.6258 9.83418C13.5766 10.0962 13.3843 10.3541 13.1223 10.3664L10.2979 10.0635C10.0606 10.0102 9.79861 9.81787 9.8641 9.4535C10.5149 6.03158 13.6053 5 16.3723 5C17.7886 5 19.6388 5.37662 20.7563 6.4491C22.1726 7.77119 22.0375 9.53538 22.0375 11.4551V15.9905C22.0375 17.3536 22.6023 17.9512 23.1344 18.688C23.3227 18.95 23.3637 19.2653 23.1262 19.4616C22.5327 19.9569 21.4766 20.8779 20.8954 21.3937L20.8872 21.3855" fill="black"/>
</svg>
