<svg width="32" height="32" viewBox="0 0 32 32" fill="none" xmlns="http://www.w3.org/2000/svg">
<path d="M24.4251 11.8415C24.2969 11.945 22.0328 13.2722 22.0328 16.2234C22.0328 19.637 24.9138 20.8446 25 20.8745C24.9867 20.9481 24.5423 22.5284 23.481 24.1385C22.5347 25.5555 21.5464 26.9701 20.0429 26.9701C18.5394 26.9701 18.1524 26.0615 16.4168 26.0615C14.7253 26.0615 14.1239 27 12.7487 27C11.3734 27 10.4138 25.6889 9.31053 24.0787C8.03255 22.1879 7 19.2505 7 16.4626C7 11.991 9.79474 9.61946 12.5453 9.61946C14.0068 9.61946 15.225 10.6178 16.1426 10.6178C17.016 10.6178 18.378 9.55966 20.0407 9.55966C20.6708 9.55966 22.9349 9.61946 24.4251 11.8415ZM19.2513 7.66657C19.939 6.81778 20.4254 5.64006 20.4254 4.46235C20.4254 4.29903 20.4121 4.13341 20.3834 4C19.2646 4.0437 17.9335 4.77518 17.1309 5.74357C16.5008 6.48885 15.9127 7.66657 15.9127 8.86039C15.9127 9.0398 15.9414 9.21922 15.9547 9.27673C16.0254 9.29053 16.1404 9.30663 16.2554 9.30663C17.2592 9.30663 18.5217 8.60736 19.2513 7.66657Z" fill="white"/>
</svg>
