<svg width="20" height="20" viewBox="0 0 20 20" fill="none" xmlns="http://www.w3.org/2000/svg">
<g clip-path="url(#clip0_1176_7551)">
<path fill-rule="evenodd" clip-rule="evenodd" d="M9.99998 19.6667C4.93737 19.6667 0.833313 15.5626 0.833313 10.5C0.833313 5.43743 4.93737 1.33337 9.99998 1.33337C15.0626 1.33337 19.1666 5.43743 19.1666 10.5C19.1666 15.5626 15.0626 19.6667 9.99998 19.6667ZM16.1662 14.7706C17.0072 13.5586 17.5 12.0869 17.5 10.5C17.5 6.3579 14.1421 3.00004 9.99998 3.00004C5.85784 3.00004 2.49998 6.3579 2.49998 10.5C2.49998 12.0869 2.9928 13.5586 3.83373 14.7706C4.77161 13.5318 6.97548 13 9.99998 13C13.0245 13 15.2284 13.5318 16.1662 14.7706ZM14.9705 16.1165C14.7266 15.2395 12.9745 14.6667 9.99998 14.6667C7.0255 14.6667 5.27332 15.2395 5.02941 16.1165C6.35273 17.2885 8.09326 18 9.99998 18C11.9067 18 13.6472 17.2885 14.9705 16.1165ZM9.99998 5.50004C7.98256 5.50004 6.66665 6.96317 6.66665 8.83337C6.66665 11.6895 8.13403 13 9.99998 13C11.8484 13 13.3333 11.7331 13.3333 9.00004C13.3333 7.10136 12.0118 5.50004 9.99998 5.50004ZM8.33331 8.83337C8.33331 10.7244 9.01516 11.3334 9.99998 11.3334C10.9814 11.3334 11.6666 10.7487 11.6666 9.00004C11.6666 7.95872 11.013 7.16671 9.99998 7.16671C8.94476 7.16671 8.33331 7.84656 8.33331 8.83337Z" fill="#262626"/>
</g>
<defs>
<clipPath id="clip0_1176_7551">
<rect width="20" height="20" fill="white"/>
</clipPath>
</defs>
</svg>
