<svg width="20" height="20" viewBox="0 0 20 20" fill="none" xmlns="http://www.w3.org/2000/svg">
<g clip-path="url(#clip0_1404_6481)">
<path fill-rule="evenodd" clip-rule="evenodd" d="M4.16667 1.33333H12.8452L17.5 5.98815V18C17.5 18.9205 16.7538 19.6667 15.8333 19.6667H4.16667C3.24619 19.6667 2.5 18.9205 2.5 18V2.99999C2.5 2.07952 3.24619 1.33333 4.16667 1.33333ZM10.8333 2.99999H4.16667V18H15.8333V8H12.5C11.5795 8 10.8333 7.2538 10.8333 6.33333V2.99999ZM12.5 3.34517V6.33333H15.4882L12.5 3.34517ZM6.66667 14.6667V13H11.6667V14.6667H6.66667ZM6.66667 9.66666V11.3333H13.3333V9.66666H6.66667Z" fill="#FD312E"/>
</g>
<defs>
<clipPath id="clip0_1404_6481">
<rect width="20" height="20" fill="white"/>
</clipPath>
</defs>
</svg>
