<svg width="20" height="20" viewBox="0 0 20 20" fill="none" xmlns="http://www.w3.org/2000/svg">
<g clip-path="url(#clip0_1206_1088)">
<path fill-rule="evenodd" clip-rule="evenodd" d="M4.16667 1.33337H12.8452L17.5 5.9882V18C17.5 18.9205 16.7538 19.6667 15.8333 19.6667H4.16667C3.24619 19.6667 2.5 18.9205 2.5 18V3.00004C2.5 2.07957 3.24619 1.33337 4.16667 1.33337ZM10.8333 3.00004H4.16667V18H15.8333V8.00004H12.5C11.5795 8.00004 10.8333 7.25385 10.8333 6.33337V3.00004ZM12.5 3.34522V6.33337H15.4882L12.5 3.34522ZM6.66667 14.6667V13H11.6667V14.6667H6.66667ZM6.66667 9.66671V11.3334H13.3333V9.66671H6.66667Z" fill="#262626"/>
</g>
<defs>
<clipPath id="clip0_1206_1088">
<rect width="20" height="20" fill="white"/>
</clipPath>
</defs>
</svg>
