<svg width="20" height="20" viewBox="0 0 20 20" fill="none" xmlns="http://www.w3.org/2000/svg">
<g clip-path="url(#clip0_1404_3954)">
<path fill-rule="evenodd" clip-rule="evenodd" d="M7.49992 3.33333H17.4999C18.4204 3.33333 19.1666 4.07952 19.1666 4.99999V15.8333C19.1666 16.7538 18.4204 17.5 17.4999 17.5H7.49992H5.83325H2.49992C1.57944 17.5 0.833252 16.7538 0.833252 15.8333V4.99999C0.833252 4.07952 1.57944 3.33333 2.49992 3.33333H5.83325H7.49992ZM5.83325 4.99999H2.49992V7.5H5.83325V4.99999ZM7.49992 7.5V4.99999H17.4999V7.5H7.49992ZM5.83325 9.16666H2.49992V11.6667H5.83325V9.16666ZM7.49992 11.6667V9.16666H17.4999V11.6667H7.49992ZM5.83325 13.3333H2.49992V15.8333H5.83325V13.3333ZM7.49992 15.8333V13.3333H17.4999V15.8333H7.49992Z" fill="#FD312E"/>
</g>
<defs>
<clipPath id="clip0_1404_3954">
<rect width="20" height="20" fill="white"/>
</clipPath>
</defs>
</svg>
