<svg width="20" height="20" viewBox="0 0 20 20" fill="none" xmlns="http://www.w3.org/2000/svg">
<g clip-path="url(#clip0_1404_7454)">
<path d="M10 18.75L9.41432 19.5605L10 19.9837L10.5857 19.5605L10 18.75ZM15.25 8.02419C15.25 10.7962 13.8485 13.2565 12.3518 15.0816C11.6114 15.9844 10.8691 16.7053 10.3125 17.1997C10.0348 17.4463 9.80496 17.6351 9.64695 17.7605C9.56798 17.8232 9.50709 17.8699 9.46728 17.9C9.44738 17.915 9.43277 17.9259 9.42381 17.9325C9.41933 17.9358 9.41627 17.938 9.41467 17.9392C9.41387 17.9398 9.41344 17.9401 9.41338 17.9401C9.41335 17.9402 9.41341 17.9401 9.41357 17.94C9.41365 17.9399 9.41383 17.9398 9.41387 17.9398C9.41408 17.9396 9.41432 17.9395 10 18.75C10.5857 19.5605 10.586 19.5603 10.5863 19.5601C10.5864 19.56 10.5867 19.5598 10.587 19.5596C10.5875 19.5592 10.5882 19.5587 10.5889 19.5582C10.5903 19.5572 10.5922 19.5558 10.5944 19.5542C10.5988 19.551 10.6047 19.5467 10.612 19.5412C10.6267 19.5304 10.6472 19.5151 10.6731 19.4956C10.7248 19.4565 10.7982 19.4001 10.8902 19.3271C11.0739 19.1813 11.3324 18.9688 11.6406 18.695C12.2559 18.1486 13.0761 17.3523 13.8982 16.3499C15.5265 14.3644 17.25 11.4618 17.25 8.02419H15.25ZM10 2.25C12.8252 2.25 15.25 4.75784 15.25 8.02419H17.25C17.25 3.80798 14.0784 0.25 10 0.25V2.25ZM4.75 8.02419C4.75 4.75784 7.17481 2.25 10 2.25V0.25C5.92163 0.25 2.75 3.80798 2.75 8.02419H4.75ZM10 18.75C10.5857 17.9395 10.5859 17.9396 10.5861 17.9398C10.5862 17.9398 10.5864 17.9399 10.5864 17.94C10.5866 17.9401 10.5867 17.9402 10.5866 17.9401C10.5866 17.9401 10.5861 17.9398 10.5853 17.9392C10.5837 17.938 10.5807 17.9358 10.5762 17.9325C10.5672 17.9259 10.5526 17.915 10.5327 17.9C10.4929 17.8699 10.432 17.8232 10.3531 17.7605C10.195 17.6351 9.9652 17.4463 9.6875 17.1997C9.13085 16.7053 8.38859 15.9844 7.64823 15.0816C6.15149 13.2565 4.75 10.7962 4.75 8.02419H2.75C2.75 11.4618 4.47351 14.3644 6.10177 16.3499C6.92391 17.3523 7.74415 18.1486 8.35937 18.695C8.66761 18.9688 8.92606 19.1813 9.10984 19.3271C9.20177 19.4001 9.27516 19.4565 9.3269 19.4956C9.35278 19.5151 9.37326 19.5304 9.38795 19.5412C9.3953 19.5467 9.4012 19.551 9.40561 19.5542C9.40782 19.5558 9.40965 19.5572 9.4111 19.5582C9.41183 19.5587 9.41246 19.5592 9.413 19.5596C9.41327 19.5598 9.4136 19.56 9.41373 19.5601C9.41404 19.5603 9.41432 19.5605 10 18.75ZM11.5 7.5C11.5 8.32843 10.8284 9 10 9V11C11.933 11 13.5 9.433 13.5 7.5H11.5ZM10 6C10.8284 6 11.5 6.67157 11.5 7.5H13.5C13.5 5.567 11.933 4 10 4V6ZM8.5 7.5C8.5 6.67157 9.17157 6 10 6V4C8.067 4 6.5 5.567 6.5 7.5H8.5ZM10 9C9.17157 9 8.5 8.32843 8.5 7.5H6.5C6.5 9.433 8.067 11 10 11V9Z" fill="#FD312E"/>
</g>
<defs>
<clipPath id="clip0_1404_7454">
<rect width="20" height="20" fill="white"/>
</clipPath>
</defs>
</svg>
