<svg width="20" height="20" viewBox="0 0 20 20" fill="none" xmlns="http://www.w3.org/2000/svg">
<path fill-rule="evenodd" clip-rule="evenodd" d="M11.667 5.83333C11.667 4.91417 10.9195 4.16667 10.0003 4.16667C9.08116 4.16667 8.33366 4.91417 8.33366 5.83333C8.33366 6.7525 9.08116 7.5 10.0003 7.5C10.9195 7.5 11.667 6.7525 11.667 5.83333ZM13.3337 5.83333C13.3337 7.67167 11.8387 9.16667 10.0003 9.16667C8.16199 9.16667 6.66699 7.67167 6.66699 5.83333C6.66699 3.995 8.16199 2.5 10.0003 2.5C11.8387 2.5 13.3337 3.995 13.3337 5.83333ZM4.16699 16.6667C4.16699 13.45 6.78449 10.8333 10.0003 10.8333C13.2162 10.8333 15.8337 13.45 15.8337 16.6667C15.8337 17.1267 15.4612 17.5 15.0003 17.5C14.5395 17.5 14.167 17.1267 14.167 16.6667C14.167 14.3692 12.2978 12.5 10.0003 12.5C7.70283 12.5 5.83366 14.3692 5.83366 16.6667C5.83366 17.1267 5.46116 17.5 5.00033 17.5C4.53949 17.5 4.16699 17.1267 4.16699 16.6667Z" fill="#FD312E"/>
</svg>
