<svg width="20" height="20" viewBox="0 0 20 20" fill="none" xmlns="http://www.w3.org/2000/svg">
<g clip-path="url(#clip0_1176_7556)">
<path fill-rule="evenodd" clip-rule="evenodd" d="M7.49998 3.33337H17.5C18.4205 3.33337 19.1666 4.07957 19.1666 5.00004V15.8334C19.1666 16.7538 18.4205 17.5 17.5 17.5L7.49998 17.5H5.83331L2.49998 17.5C1.5795 17.5 0.833313 16.7538 0.833313 15.8334V5.00004C0.833313 4.07957 1.5795 3.33337 2.49998 3.33337H5.83331H7.49998ZM5.83331 5.00004H2.49998V7.50004H5.83331V5.00004ZM7.49998 7.50004V5.00004H17.5V7.50004H7.49998ZM5.83331 9.16671H2.49998V11.6667H5.83331V9.16671ZM7.49998 11.6667V9.16671H17.5V11.6667H7.49998ZM5.83331 13.3334H2.49998V15.8334H5.83331V13.3334ZM7.49998 15.8334V13.3334H17.5V15.8334H7.49998Z" fill="#262626"/>
</g>
<defs>
<clipPath id="clip0_1176_7556">
<rect width="20" height="20" fill="white"/>
</clipPath>
</defs>
</svg>
