<svg width="20" height="20" viewBox="0 0 20 20" fill="none" xmlns="http://www.w3.org/2000/svg">
<g clip-path="url(#clip0_1404_3493)">
<path fill-rule="evenodd" clip-rule="evenodd" d="M10 19.6667C4.93743 19.6667 0.833374 15.5626 0.833374 10.5C0.833374 5.43738 4.93743 1.33333 10 1.33333C15.0626 1.33333 19.1667 5.43738 19.1667 10.5C19.1667 15.5626 15.0626 19.6667 10 19.6667ZM16.1663 14.7705C17.0072 13.5586 17.5 12.0868 17.5 10.5C17.5 6.35786 14.1422 2.99999 10 2.99999C5.8579 2.99999 2.50004 6.35786 2.50004 10.5C2.50004 12.0868 2.99286 13.5586 3.8338 14.7705C4.77167 13.5317 6.97554 13 10 13C13.0245 13 15.2284 13.5317 16.1663 14.7705ZM14.9706 16.1165C14.7267 15.2395 12.9745 14.6667 10 14.6667C7.02556 14.6667 5.27338 15.2395 5.02947 16.1165C6.35279 17.2885 8.09332 18 10 18C11.9068 18 13.6473 17.2885 14.9706 16.1165ZM10 5.49999C7.98262 5.49999 6.66671 6.96313 6.66671 8.83333C6.66671 11.6895 8.13409 13 10 13C11.8484 13 13.3334 11.733 13.3334 8.99999C13.3334 7.10131 12.0119 5.49999 10 5.49999ZM8.33337 8.83333C8.33337 10.7244 9.01522 11.3333 10 11.3333C10.9815 11.3333 11.6667 10.7487 11.6667 8.99999C11.6667 7.95868 11.0131 7.16666 10 7.16666C8.94482 7.16666 8.33337 7.84652 8.33337 8.83333Z" fill="#FD312E"/>
</g>
<defs>
<clipPath id="clip0_1404_3493">
<rect width="20" height="20" fill="white"/>
</clipPath>
</defs>
</svg>
