<svg width="277" height="60" viewBox="0 0 277 60" fill="none" xmlns="http://www.w3.org/2000/svg">
<path d="M267.638 27.2205H237.221V30.7977H267.638V27.2205Z" fill="white"/>
<path d="M21.8129 11.7664H17.6194L22.3786 23.6944H16.7281L18.762 18.5947L16.6538 13.3117L9.4093 30.8032H13.8886L15.3626 27.1114H23.744L25.2181 30.8032H29.6973L21.8129 11.7664Z" fill="white"/>
<path d="M107.13 14.9084C102.005 14.9084 98.7938 18.5372 98.7938 23.0131C98.7938 27.489 102.005 31.1178 107.13 31.1178C111.009 31.1178 112.723 29.6068 113.78 28.3018L111.443 25.8978C109.912 27.3516 108.678 27.6264 107.13 27.6264C104.701 27.6264 103.182 25.377 103.182 23.0131C103.182 20.6493 104.701 18.3999 107.13 18.3999C109.643 18.3999 110.38 19.9052 110.575 21.7081H105.004C104.867 22.1088 104.793 22.5495 104.793 23.0131C104.793 23.5054 104.879 23.969 105.033 24.3868H114.705V23.0131C114.705 18.5372 112.254 14.9084 107.13 14.9084Z" fill="white"/>
<path d="M80.9657 30.8007H85.4164V15.2267V9.96094H80.9657V30.8007Z" fill="white"/>
<path d="M90.6283 14.9084C88.8114 14.9084 87.5088 15.5667 86.8403 16.0017V19.3557C87.2803 18.7433 88.183 18.3941 88.9257 18.3941C90.3597 18.3884 91.7538 19.2928 91.7538 21.6051V30.7973H96.2045V20.4604C96.2045 17.9076 94.6905 14.9084 90.6283 14.9084Z" fill="white"/>
<path d="M31.7079 30.7973H36.1586V15.2232H31.7079V30.7973ZM41.2434 14.9084C39.5866 14.9084 38.3982 15.3835 37.5869 15.9044V18.9722C37.9925 18.6288 38.4953 18.3999 39.1066 18.3999C40.5178 18.3999 42.2376 19.413 42.2376 21.8283V30.8087H46.6882V20.4718C46.6882 17.9248 45.2999 14.9199 41.2434 14.9199V14.9084Z" fill="white"/>
<path d="M57.6656 14.9105C52.5065 14.9105 49.2727 18.5393 49.2727 23.0152C49.2727 24.1485 49.4784 25.2245 49.8726 26.2033H54.7289C54.0833 25.3733 53.7234 24.2572 53.7234 23.0152C53.7234 20.4682 55.2431 18.4019 57.6713 18.4019C60.0995 18.4019 61.6192 20.4682 61.6192 23.0152C61.6192 25.5622 60.0995 27.6284 57.6713 27.6284H50.6325C52.0437 29.7347 54.489 31.1141 57.6713 31.1141C62.8304 31.1141 66.0642 27.4854 66.0642 23.0095C66.0642 18.5336 62.8304 14.9048 57.6713 14.9048L57.6656 14.9105Z" fill="white"/>
<path d="M117.4 30.7973H121.851V15.2232H117.4V30.7973ZM125.759 14.9084C124.371 14.9084 123.245 16.036 123.245 17.4268C123.245 18.8177 124.371 19.9453 125.759 19.9453C127.147 19.9453 128.273 18.8177 128.273 17.4268C128.273 16.036 127.147 14.9084 125.759 14.9084Z" fill="white"/>
<path d="M77.5248 15.2276V18.7133H67.298V15.2276H69.4976V11.759H73.9026V15.2276H77.5191H77.5248ZM73.9083 20.1384V25.1524C73.9083 26.4345 74.3768 27.0869 75.3252 27.0869C75.9537 27.0869 76.6735 26.8637 77.462 26.4573L78.3818 29.9659C77.8219 30.3265 77.1877 30.6413 76.4736 30.8245C75.7766 31.0248 75.0567 31.1164 74.3825 31.1164C72.9427 31.1164 71.7544 30.6871 70.8574 29.7885C69.9604 28.9128 69.509 27.625 69.509 25.9594V20.1384H73.914H73.9083Z" fill="white"/>
<path d="M171.026 30.8006H175.476V16.5086H171.026V30.8063V30.8006ZM173.248 14.6828C174.637 14.6828 175.762 13.5552 175.762 12.1644C175.762 10.7736 174.637 9.646 173.248 9.646C171.86 9.646 170.734 10.7736 170.734 12.1644C170.734 13.5552 171.86 14.6828 173.248 14.6828Z" fill="white"/>
<path d="M167.955 30.8009V20.6758C167.955 17.3733 165.39 14.9121 160.905 14.9121C158.214 14.9121 155.586 15.5703 154.135 18.1975L156.911 20.0176C156.911 20.0176 157.883 18.4035 160.322 18.4035C162.762 18.4035 163.51 19.7887 163.51 21.1967V21.4886H158.997C155.711 21.4886 153.455 23.1484 153.455 26.1705C153.455 28.5802 154.843 31.1215 158.46 31.1215C159.448 31.1215 161.516 30.8067 162.088 30.5663V27.2809C161.522 27.63 160.339 27.9964 159.608 27.9964C158.014 27.9964 157.26 26.8631 157.26 25.8843C157.26 24.7339 158.391 24.1272 159.699 24.1272H163.516V30.8124H167.967L167.955 30.8009Z" fill="white"/>
<path d="M188.801 15.2285L188.784 22.011V22.0683C188.784 24.4894 187.521 26.0977 185.396 26.0977C183.271 26.0977 182.231 24.4894 182.231 22.0683V22.011C182.231 19.5613 183.271 17.9816 185.396 17.9816C186.173 17.9816 186.83 18.1991 187.356 18.5883V15.5662C186.516 15.1713 185.47 14.9194 184.236 14.9194C181.511 14.9194 177.786 16.3961 177.786 22.0396C177.786 27.6832 181.517 29.1599 184.236 29.1599C186.339 29.1599 187.898 28.4387 188.795 27.4943V28.8737C188.795 29.8639 188.087 32.0846 184.91 32.0846C183.271 32.0846 181.945 31.5352 180.477 30.4763L178.797 33.6243C179.694 34.231 181.442 35.5589 185.179 35.5589C191.395 35.5589 193.246 31.8614 193.246 28.742V15.2285H188.795H188.801ZM188.795 22.0168C188.795 22.0168 188.795 22.0396 188.795 22.0568L188.79 22.0396C188.79 22.0396 188.79 22.0282 188.795 22.0225V22.0168Z" fill="white"/>
<path d="M214.622 30.8009H219.073V15.2269H214.622V30.8009ZM224.158 14.9121C222.501 14.9121 221.313 15.3872 220.501 15.908V18.9759C220.907 18.6325 221.41 18.4035 222.021 18.4035C223.432 18.4035 225.152 19.4166 225.152 21.832V30.8124H229.603V20.4755C229.603 17.9285 228.214 14.9236 224.158 14.9236V14.9121Z" fill="white"/>
<path d="M203.945 14.9142C198.785 14.9142 195.552 18.543 195.552 23.0188C195.552 24.1521 195.757 25.2282 196.152 26.2069H201.008C200.362 25.377 200.002 24.2609 200.002 23.0188C200.002 20.4718 201.522 18.4056 203.95 18.4056C206.378 18.4056 207.898 20.4718 207.898 23.0188C207.898 25.5659 206.378 27.6321 203.95 27.6321H196.911C198.323 29.7384 200.768 31.1178 203.95 31.1178C209.109 31.1178 212.343 27.489 212.343 23.0131C212.343 18.5372 209.109 14.9084 203.95 14.9084L203.945 14.9142Z" fill="white"/>
<path d="M148.039 20.3205C147.651 20.1832 147.108 20.0286 146.651 19.8913L143.211 23.2568C145.285 23.8635 147.399 24.3843 147.399 25.5806C147.399 26.6394 146.239 27.498 144.068 27.498C140.669 27.498 138.949 25.4718 138.949 25.4718L135.875 28.4767C135.875 28.4767 138.835 31.2641 144.068 31.2641C149.302 31.2641 151.964 28.4309 151.964 25.5462C151.964 22.6615 150.519 21.202 148.033 20.3205H148.039ZM140.275 22.1178C140.697 22.3696 141.2 22.5757 141.726 22.7645L145.137 19.4334C143.143 18.8324 141.263 18.1284 141.263 17.0065C141.263 15.3066 143.2 15.1979 144.457 15.1979C145.714 15.1979 147.473 15.942 148.182 16.4571L150.97 13.7326C149.553 12.296 147.136 11.4661 144.32 11.4661C140.532 11.4661 136.521 13 136.521 17.018C136.521 20.664 139.498 21.6541 140.275 22.112V22.1178Z" fill="white"/>
<path d="M192.649 48.8799V38.4229H194.7V41.8284C195.26 41.3133 196.003 41.0214 196.877 41.0214C198.939 41.0214 200.528 42.6526 200.528 45.0508C200.528 47.449 198.945 49.1146 196.877 49.1146C195.928 49.1146 195.151 48.7712 194.58 48.1645L194.472 48.8799H192.655H192.649ZM196.563 47.3231C197.9 47.3231 198.505 46.7336 198.505 45.0508C198.505 43.3681 197.9 42.7957 196.563 42.7957C195.226 42.7957 194.62 43.4024 194.62 45.0508C194.62 46.6992 195.226 47.3231 196.563 47.3231Z" fill="white"/>
<path d="M208.542 41.2571L205.451 49.5507C204.937 50.9187 204.16 51.7142 202.423 51.7142H201.52V49.8483H202.812C203.172 49.8483 203.389 49.7224 203.509 49.4305L203.743 48.9154L200.76 41.2629H202.857L204.268 45.3095C204.394 45.6529 204.52 46.1051 204.657 46.5687L206.445 41.2629H208.542V41.2571Z" fill="white"/>
<path d="M212.504 38.4302H214.601V47.05H219.537V48.8873H212.499V38.4302H212.504Z" fill="white"/>
<path d="M224.849 40.031C222.724 40.031 221.695 41.0098 221.695 43.6426C221.695 46.2755 222.718 47.2829 224.849 47.2829C226.712 47.2829 227.397 46.4587 227.614 45.9607C227.706 45.7432 227.723 45.5543 227.723 45.3254V44.8103H224.695V43.1161H229.603V45.3884C229.603 45.7318 229.574 46.058 229.448 46.4129C229.088 47.3916 227.54 49.1202 224.849 49.1202C221.758 49.1202 219.616 46.8937 219.616 43.6426C219.616 40.3916 221.838 38.1995 224.849 38.1995C227.243 38.1995 229.06 39.4758 229.603 41.8225H227.614C227.26 40.466 226.54 40.031 224.849 40.031Z" fill="white"/>
</svg>
