<svg width="178" height="41" viewBox="0 0 178 41" fill="none" xmlns="http://www.w3.org/2000/svg">
<path d="M171.984 18.647H152.438V21.0318H171.984V18.647Z" fill="#BE0738"/>
<path d="M14.017 8.34424H11.3222L14.3804 16.2963H10.7494L12.0564 12.8964L10.7017 9.37449L6.04639 21.0355H8.92475L9.87197 18.5743H15.2579L16.2051 21.0355H19.0835L14.017 8.34424Z" fill="#1D1D1B"/>
<path d="M68.8414 10.439C65.5482 10.439 63.4849 12.8582 63.4849 15.8421C63.4849 18.826 65.5482 21.2452 68.8414 21.2452C71.3343 21.2452 72.4357 20.2378 73.1149 19.3678L71.6133 17.7652C70.6294 18.7344 69.8363 18.9176 68.8414 18.9176C67.2811 18.9176 66.3045 17.418 66.3045 15.8421C66.3045 14.2662 67.2811 12.7666 68.8414 12.7666C70.4568 12.7666 70.9304 13.7701 71.0553 14.9721H67.4757C67.3875 15.2392 67.3398 15.533 67.3398 15.8421C67.3398 16.1702 67.3949 16.4793 67.494 16.7579H73.7097V15.8421C73.7097 12.8582 72.1346 10.439 68.8414 10.439Z" fill="#1D1D1B"/>
<path d="M52.0285 21.0338H54.8885V10.6511V7.14062H52.0285V21.0338Z" fill="#1D1D1B"/>
<path d="M58.2377 10.439C57.0702 10.439 56.2331 10.8778 55.8035 11.1678V13.4038C56.0862 12.9955 56.6663 12.7628 57.1436 12.7628C58.0651 12.7589 58.9609 13.3618 58.9609 14.9034V21.0315H61.8209V14.1403C61.8209 12.4384 60.848 10.439 58.2377 10.439Z" fill="#1D1D1B"/>
<path d="M20.3755 21.0315H23.2355V10.6488H20.3755V21.0315ZM26.503 10.439C25.4383 10.439 24.6747 10.7557 24.1533 11.1029V13.1482C24.414 12.9192 24.7371 12.7666 25.1299 12.7666C26.0368 12.7666 27.1418 13.442 27.1418 15.0522V21.0391H30.0019V14.1479C30.0019 12.4499 29.1097 10.4466 26.503 10.4466V10.439Z" fill="#1D1D1B"/>
<path d="M37.0558 10.4403C33.7405 10.4403 31.6625 12.8595 31.6625 15.8435C31.6625 16.599 31.7947 17.3163 32.048 17.9688H35.1687C34.7538 17.4156 34.5225 16.6715 34.5225 15.8435C34.5225 14.1454 35.4991 12.768 37.0595 12.768C38.6198 12.768 39.5964 14.1454 39.5964 15.8435C39.5964 17.5415 38.6198 18.919 37.0595 18.919H32.5363C33.4432 20.3232 35.0145 21.2428 37.0595 21.2428C40.3747 21.2428 42.4527 18.8236 42.4527 15.8396C42.4527 12.8557 40.3747 10.4365 37.0595 10.4365L37.0558 10.4403Z" fill="#1D1D1B"/>
<path d="M75.4414 21.0315H78.3014V10.6488H75.4414V21.0315ZM80.8126 10.439C79.9205 10.439 79.1972 11.1907 79.1972 12.1179C79.1972 13.0451 79.9205 13.7968 80.8126 13.7968C81.7048 13.7968 82.428 13.0451 82.428 12.1179C82.428 11.1907 81.7048 10.439 80.8126 10.439Z" fill="#1D1D1B"/>
<path d="M49.8174 10.6517V12.9755H43.2456V10.6517H44.6591V8.33936H47.4897V10.6517H49.8137H49.8174ZM47.4934 13.9256V17.2682C47.4934 18.123 47.7944 18.558 48.4039 18.558C48.8078 18.558 49.2703 18.4092 49.777 18.1382L50.3681 20.4773C50.0083 20.7177 49.6008 20.9276 49.1418 21.0497C48.6939 21.1832 48.2313 21.2443 47.7981 21.2443C46.8729 21.2443 46.1093 20.9581 45.5329 20.359C44.9565 19.7752 44.6664 18.9166 44.6664 17.8063V13.9256H47.4971H47.4934Z" fill="#1D1D1B"/>
<path d="M109.901 21.0337H112.761V11.5058H109.901V21.0375V21.0337ZM111.329 10.2885C112.221 10.2885 112.945 9.53683 112.945 8.6096C112.945 7.68237 112.221 6.93066 111.329 6.93066C110.437 6.93066 109.714 7.68237 109.714 8.6096C109.714 9.53683 110.437 10.2885 111.329 10.2885Z" fill="#1D1D1B"/>
<path d="M107.928 21.034V14.2839C107.928 12.0822 106.279 10.4414 103.397 10.4414C101.668 10.4414 99.9793 10.8802 99.0468 12.6317L100.831 13.8451C100.831 13.8451 101.455 12.769 103.023 12.769C104.591 12.769 105.071 13.6924 105.071 14.6311V14.8257H102.171C100.06 14.8257 98.6099 15.9323 98.6099 17.947C98.6099 19.5534 99.502 21.2476 101.826 21.2476C102.461 21.2476 103.79 21.0378 104.157 20.8775V18.6873C103.794 18.92 103.034 19.1642 102.564 19.1642C101.54 19.1642 101.055 18.4087 101.055 17.7562C101.055 16.9893 101.782 16.5848 102.623 16.5848H105.075V21.0416H107.935L107.928 21.034Z" fill="#1D1D1B"/>
<path d="M121.323 10.6523L121.312 15.174V15.2122C121.312 16.8262 120.501 17.8985 119.135 17.8985C117.77 17.8985 117.101 16.8262 117.101 15.2122V15.174C117.101 13.5409 117.77 12.4877 119.135 12.4877C119.635 12.4877 120.057 12.6327 120.395 12.8922V10.8775C119.855 10.6142 119.183 10.4463 118.39 10.4463C116.639 10.4463 114.245 11.4308 114.245 15.1931C114.245 18.9554 116.642 19.9399 118.39 19.9399C119.741 19.9399 120.743 19.4591 121.32 18.8295V19.7491C121.32 20.4092 120.864 21.8898 118.823 21.8898C117.77 21.8898 116.918 21.5234 115.974 20.8175L114.895 22.9162C115.471 23.3207 116.595 24.2059 118.996 24.2059C122.99 24.2059 124.18 21.7409 124.18 19.6614V10.6523H121.32H121.323ZM121.32 15.1778C121.32 15.1778 121.32 15.1931 121.32 15.2045L121.316 15.1931C121.316 15.1931 121.316 15.1855 121.32 15.1816V15.1778Z" fill="#1D1D1B"/>
<path d="M137.916 21.034H140.776V10.6513H137.916V21.034ZM144.044 10.4414C142.979 10.4414 142.215 10.7581 141.694 11.1053V13.1506C141.955 12.9217 142.278 12.769 142.671 12.769C143.577 12.769 144.682 13.4444 144.682 15.0547V21.0416H147.543V14.1503C147.543 12.4523 146.65 10.449 144.044 10.449V10.4414Z" fill="#1D1D1B"/>
<path d="M131.055 10.4428C127.739 10.4428 125.661 12.862 125.661 15.8459C125.661 16.6014 125.793 17.3188 126.047 17.9713H129.167C128.753 17.418 128.521 16.6739 128.521 15.8459C128.521 14.1479 129.498 12.7704 131.058 12.7704C132.619 12.7704 133.595 14.1479 133.595 15.8459C133.595 17.5439 132.619 18.9214 131.058 18.9214H126.535C127.442 20.3256 129.013 21.2452 131.058 21.2452C134.373 21.2452 136.451 18.826 136.451 15.8421C136.451 12.8582 134.373 10.439 131.058 10.439L131.055 10.4428Z" fill="#1D1D1B"/>
<path d="M95.1297 14.047C94.8801 13.9554 94.5313 13.8524 94.2376 13.7608L92.0274 16.0045C93.3601 16.409 94.7185 16.7562 94.7185 17.5537C94.7185 18.2596 93.9732 18.832 92.5781 18.832C90.3936 18.832 89.2886 17.4812 89.2886 17.4812L87.3134 19.4845C87.3134 19.4845 89.2151 21.3428 92.5781 21.3428C95.9411 21.3428 97.652 19.454 97.652 17.5308C97.652 15.6077 96.7231 14.6347 95.126 14.047H95.1297ZM90.1403 15.2452C90.412 15.4131 90.7351 15.5504 91.0728 15.6764L93.2647 13.4556C91.9833 13.0549 90.7755 12.5856 90.7755 11.8377C90.7755 10.7044 92.0201 10.6319 92.8278 10.6319C93.6355 10.6319 94.7663 11.128 95.2215 11.4714L97.0131 9.65508C96.1026 8.69733 94.5496 8.14404 92.7397 8.14404C90.3055 8.14404 87.7282 9.16667 87.7282 11.8453C87.7282 14.276 89.641 14.9361 90.1403 15.2414V15.2452Z" fill="#1D1D1B"/>
<path d="M123.796 33.0866V26.1152H125.114V28.3856C125.474 28.0422 125.951 27.8476 126.513 27.8476C127.838 27.8476 128.859 28.9351 128.859 30.5339C128.859 32.1327 127.842 33.2431 126.513 33.2431C125.904 33.2431 125.404 33.0141 125.037 32.6097L124.967 33.0866H123.8H123.796ZM126.311 32.0487C127.17 32.0487 127.559 31.6557 127.559 30.5339C127.559 29.4121 127.17 29.0305 126.311 29.0305C125.452 29.0305 125.063 29.4349 125.063 30.5339C125.063 31.6328 125.452 32.0487 126.311 32.0487Z" fill="#1D1D1B"/>
<path d="M134.009 28.0048L132.023 33.5338C131.692 34.4458 131.193 34.9762 130.077 34.9762H129.497V33.7322H130.327C130.558 33.7322 130.697 33.6483 130.774 33.4537L130.925 33.1102L129.009 28.0086H130.356L131.263 30.7063C131.344 30.9353 131.424 31.2367 131.512 31.5458L132.662 28.0086H134.009V28.0048Z" fill="#1D1D1B"/>
<path d="M136.555 26.1201H137.902V31.8667H141.075V33.0915H136.551V26.1201H136.555Z" fill="#1D1D1B"/>
<path d="M144.488 27.1874C143.122 27.1874 142.461 27.8398 142.461 29.5951C142.461 31.3503 143.118 32.0219 144.488 32.0219C145.685 32.0219 146.125 31.4725 146.265 31.1405C146.324 30.9955 146.335 30.8696 146.335 30.7169V30.3735H144.389V29.244H147.542V30.7589C147.542 30.9878 147.524 31.2053 147.443 31.4419C147.212 32.0944 146.217 33.2468 144.488 33.2468C142.502 33.2468 141.125 31.7624 141.125 29.5951C141.125 27.4277 142.553 25.9663 144.488 25.9663C146.026 25.9663 147.194 26.8172 147.542 28.3817H146.265C146.037 27.4773 145.575 27.1874 144.488 27.1874Z" fill="#1D1D1B"/>
</svg>
