<svg width="178" height="74" viewBox="0 0 178 74" fill="none" xmlns="http://www.w3.org/2000/svg">
<path d="M171.984 18.647H152.438V21.0318H171.984V18.647Z" fill="#BE0738"/>
<path d="M14.017 8.34424H11.3222L14.3804 16.2963H10.7494L12.0564 12.8964L10.7017 9.37449L6.04639 21.0355H8.92475L9.87197 18.5743H15.2579L16.2051 21.0355H19.0835L14.017 8.34424Z" fill="#1D1D1B"/>
<path d="M68.8414 10.439C65.5482 10.439 63.4849 12.8582 63.4849 15.8421C63.4849 18.826 65.5482 21.2452 68.8414 21.2452C71.3343 21.2452 72.4357 20.2378 73.1149 19.3678L71.6133 17.7652C70.6294 18.7344 69.8363 18.9176 68.8414 18.9176C67.2811 18.9176 66.3045 17.418 66.3045 15.8421C66.3045 14.2662 67.2811 12.7666 68.8414 12.7666C70.4568 12.7666 70.9304 13.7701 71.0553 14.9721H67.4757C67.3875 15.2392 67.3398 15.533 67.3398 15.8421C67.3398 16.1702 67.3949 16.4793 67.494 16.7579H73.7097V15.8421C73.7097 12.8582 72.1346 10.439 68.8414 10.439Z" fill="#1D1D1B"/>
<path d="M52.0285 21.0338H54.8885V10.6511V7.14062H52.0285V21.0338Z" fill="#1D1D1B"/>
<path d="M58.2377 10.439C57.0702 10.439 56.2331 10.8778 55.8035 11.1678V13.4038C56.0862 12.9955 56.6663 12.7628 57.1436 12.7628C58.0651 12.7589 58.9609 13.3618 58.9609 14.9034V21.0315H61.8209V14.1403C61.8209 12.4384 60.848 10.439 58.2377 10.439Z" fill="#1D1D1B"/>
<path d="M20.3755 21.0315H23.2355V10.6488H20.3755V21.0315ZM26.503 10.439C25.4383 10.439 24.6747 10.7557 24.1533 11.1029V13.1482C24.414 12.9192 24.7371 12.7666 25.1299 12.7666C26.0368 12.7666 27.1418 13.442 27.1418 15.0522V21.0391H30.0019V14.1479C30.0019 12.4499 29.1097 10.4466 26.503 10.4466V10.439Z" fill="#1D1D1B"/>
<path d="M37.0558 10.4403C33.7405 10.4403 31.6625 12.8595 31.6625 15.8435C31.6625 16.599 31.7947 17.3163 32.048 17.9688H35.1687C34.7538 17.4156 34.5225 16.6715 34.5225 15.8435C34.5225 14.1454 35.4991 12.768 37.0595 12.768C38.6198 12.768 39.5964 14.1454 39.5964 15.8435C39.5964 17.5415 38.6198 18.919 37.0595 18.919H32.5363C33.4432 20.3232 35.0145 21.2428 37.0595 21.2428C40.3747 21.2428 42.4527 18.8236 42.4527 15.8396C42.4527 12.8557 40.3747 10.4365 37.0595 10.4365L37.0558 10.4403Z" fill="#1D1D1B"/>
<path d="M75.4414 21.0315H78.3014V10.6488H75.4414V21.0315ZM80.8126 10.439C79.9205 10.439 79.1972 11.1907 79.1972 12.1179C79.1972 13.0451 79.9205 13.7968 80.8126 13.7968C81.7048 13.7968 82.428 13.0451 82.428 12.1179C82.428 11.1907 81.7048 10.439 80.8126 10.439Z" fill="#1D1D1B"/>
<path d="M49.8174 10.6517V12.9755H43.2456V10.6517H44.6591V8.33936H47.4897V10.6517H49.8137H49.8174ZM47.4934 13.9256V17.2682C47.4934 18.123 47.7944 18.558 48.4039 18.558C48.8078 18.558 49.2703 18.4092 49.777 18.1382L50.3681 20.4773C50.0083 20.7177 49.6008 20.9276 49.1418 21.0497C48.6939 21.1832 48.2313 21.2443 47.7981 21.2443C46.8729 21.2443 46.1093 20.9581 45.5329 20.359C44.9565 19.7752 44.6664 18.9166 44.6664 17.8063V13.9256H47.4971H47.4934Z" fill="#1D1D1B"/>
<path d="M109.901 21.0337H112.761V11.5058H109.901V21.0375V21.0337ZM111.329 10.2885C112.221 10.2885 112.945 9.53683 112.945 8.6096C112.945 7.68237 112.221 6.93066 111.329 6.93066C110.437 6.93066 109.714 7.68237 109.714 8.6096C109.714 9.53683 110.437 10.2885 111.329 10.2885Z" fill="#1D1D1B"/>
<path d="M107.928 21.034V14.2839C107.928 12.0822 106.279 10.4414 103.397 10.4414C101.668 10.4414 99.9793 10.8802 99.0468 12.6317L100.831 13.8451C100.831 13.8451 101.455 12.769 103.023 12.769C104.591 12.769 105.071 13.6924 105.071 14.6311V14.8257H102.171C100.06 14.8257 98.6099 15.9323 98.6099 17.947C98.6099 19.5534 99.502 21.2476 101.826 21.2476C102.461 21.2476 103.79 21.0378 104.157 20.8775V18.6873C103.794 18.92 103.034 19.1642 102.564 19.1642C101.54 19.1642 101.055 18.4087 101.055 17.7562C101.055 16.9893 101.782 16.5848 102.623 16.5848H105.075V21.0416H107.935L107.928 21.034Z" fill="#1D1D1B"/>
<path d="M121.323 10.6523L121.312 15.174V15.2122C121.312 16.8262 120.501 17.8985 119.135 17.8985C117.77 17.8985 117.101 16.8262 117.101 15.2122V15.174C117.101 13.5409 117.77 12.4877 119.135 12.4877C119.635 12.4877 120.057 12.6327 120.395 12.8922V10.8775C119.855 10.6142 119.183 10.4463 118.39 10.4463C116.639 10.4463 114.245 11.4308 114.245 15.1931C114.245 18.9554 116.642 19.9399 118.39 19.9399C119.741 19.9399 120.743 19.4591 121.32 18.8295V19.7491C121.32 20.4092 120.864 21.8898 118.823 21.8898C117.77 21.8898 116.918 21.5234 115.974 20.8175L114.895 22.9162C115.471 23.3207 116.595 24.2059 118.996 24.2059C122.99 24.2059 124.18 21.7409 124.18 19.6614V10.6523H121.32H121.323ZM121.32 15.1778C121.32 15.1778 121.32 15.1931 121.32 15.2045L121.316 15.1931C121.316 15.1931 121.316 15.1855 121.32 15.1816V15.1778Z" fill="#1D1D1B"/>
<path d="M137.916 21.034H140.776V10.6513H137.916V21.034ZM144.044 10.4414C142.979 10.4414 142.215 10.7581 141.694 11.1053V13.1506C141.955 12.9217 142.278 12.769 142.671 12.769C143.577 12.769 144.682 13.4444 144.682 15.0547V21.0416H147.543V14.1503C147.543 12.4523 146.65 10.449 144.044 10.449V10.4414Z" fill="#1D1D1B"/>
<path d="M131.055 10.4428C127.739 10.4428 125.661 12.862 125.661 15.8459C125.661 16.6014 125.793 17.3188 126.047 17.9713H129.167C128.753 17.418 128.521 16.6739 128.521 15.8459C128.521 14.1479 129.498 12.7704 131.058 12.7704C132.619 12.7704 133.595 14.1479 133.595 15.8459C133.595 17.5439 132.619 18.9214 131.058 18.9214H126.535C127.442 20.3256 129.013 21.2452 131.058 21.2452C134.373 21.2452 136.451 18.826 136.451 15.8421C136.451 12.8582 134.373 10.439 131.058 10.439L131.055 10.4428Z" fill="#1D1D1B"/>
<path d="M95.1297 14.047C94.8801 13.9554 94.5313 13.8524 94.2376 13.7608L92.0274 16.0045C93.3601 16.409 94.7185 16.7562 94.7185 17.5537C94.7185 18.2596 93.9732 18.832 92.5781 18.832C90.3936 18.832 89.2886 17.4812 89.2886 17.4812L87.3134 19.4845C87.3134 19.4845 89.2151 21.3428 92.5781 21.3428C95.9411 21.3428 97.652 19.454 97.652 17.5308C97.652 15.6077 96.7231 14.6347 95.126 14.047H95.1297ZM90.1403 15.2452C90.412 15.4131 90.7351 15.5504 91.0728 15.6764L93.2647 13.4556C91.9833 13.0549 90.7755 12.5856 90.7755 11.8377C90.7755 10.7044 92.0201 10.6319 92.8278 10.6319C93.6355 10.6319 94.7663 11.128 95.2215 11.4714L97.0131 9.65508C96.1026 8.69733 94.5496 8.14404 92.7397 8.14404C90.3055 8.14404 87.7282 9.16667 87.7282 11.8453C87.7282 14.276 89.641 14.9361 90.1403 15.2414V15.2452Z" fill="#1D1D1B"/>
<path d="M123.796 33.0866V26.1152H125.114V28.3856C125.474 28.0422 125.951 27.8476 126.513 27.8476C127.838 27.8476 128.859 28.9351 128.859 30.5339C128.859 32.1327 127.842 33.2431 126.513 33.2431C125.904 33.2431 125.404 33.0141 125.037 32.6097L124.967 33.0866H123.8H123.796ZM126.311 32.0487C127.17 32.0487 127.559 31.6557 127.559 30.5339C127.559 29.4121 127.17 29.0305 126.311 29.0305C125.452 29.0305 125.063 29.4349 125.063 30.5339C125.063 31.6328 125.452 32.0487 126.311 32.0487Z" fill="#1D1D1B"/>
<path d="M134.009 28.0048L132.023 33.5338C131.692 34.4458 131.193 34.9762 130.077 34.9762H129.497V33.7322H130.327C130.558 33.7322 130.697 33.6483 130.774 33.4537L130.925 33.1102L129.009 28.0086H130.356L131.263 30.7063C131.344 30.9353 131.424 31.2367 131.512 31.5458L132.662 28.0086H134.009V28.0048Z" fill="#1D1D1B"/>
<path d="M136.555 26.1201H137.902V31.8667H141.075V33.0915H136.551V26.1201H136.555Z" fill="#1D1D1B"/>
<path d="M144.488 27.1874C143.122 27.1874 142.461 27.8398 142.461 29.5951C142.461 31.3503 143.118 32.0219 144.488 32.0219C145.685 32.0219 146.125 31.4725 146.265 31.1405C146.324 30.9955 146.335 30.8696 146.335 30.7169V30.3735H144.389V29.244H147.542V30.7589C147.542 30.9878 147.524 31.2053 147.443 31.4419C147.212 32.0944 146.217 33.2468 144.488 33.2468C142.502 33.2468 141.125 31.7624 141.125 29.5951C141.125 27.4277 142.553 25.9663 144.488 25.9663C146.026 25.9663 147.194 26.8172 147.542 28.3817H146.265C146.037 27.4773 145.575 27.1874 144.488 27.1874Z" fill="#1D1D1B"/>
<path d="M35.6223 61.08H37.2783V69.744C37.2783 70.12 37.2583 70.52 37.2183 70.944C37.1783 71.368 37.1303 71.736 37.0743 72.048H35.6223V65.532H34.2783C34.2143 65.86 34.1023 66.164 33.9423 66.444C33.7823 66.716 33.5743 66.956 33.3183 67.164C33.0703 67.372 32.7703 67.536 32.4183 67.656C32.0663 67.768 31.6703 67.824 31.2303 67.824C30.7103 67.824 30.2543 67.744 29.8623 67.584C29.4783 67.416 29.1583 67.196 28.9023 66.924C28.6463 66.644 28.4543 66.324 28.3263 65.964C28.1983 65.596 28.1343 65.208 28.1343 64.8C28.1343 64.408 28.1983 64.032 28.3263 63.672C28.4543 63.312 28.6463 62.996 28.9023 62.724C29.1583 62.452 29.4783 62.236 29.8623 62.076C30.2543 61.908 30.7103 61.824 31.2303 61.824C31.6783 61.824 32.0743 61.884 32.4183 62.004C32.7703 62.124 33.0743 62.288 33.3303 62.496C33.5863 62.696 33.7903 62.936 33.9423 63.216C34.1023 63.496 34.2143 63.792 34.2783 64.104H35.6223V61.08ZM31.2543 63.252C30.7743 63.252 30.4103 63.388 30.1623 63.66C29.9143 63.924 29.7903 64.308 29.7903 64.812C29.7903 65.34 29.9143 65.74 30.1623 66.012C30.4103 66.284 30.7743 66.42 31.2543 66.42C31.7263 66.42 32.0863 66.284 32.3343 66.012C32.5823 65.74 32.7063 65.34 32.7063 64.812C32.7063 64.308 32.5823 63.924 32.3343 63.66C32.0863 63.388 31.7263 63.252 31.2543 63.252ZM45.8376 61.08H47.4936V64.284H49.1256V65.64H47.4936V69.744C47.4936 70.12 47.4736 70.52 47.4336 70.944C47.3936 71.368 47.3456 71.736 47.2896 72.048H45.8376V67.896C45.5816 68.048 45.2616 68.176 44.8776 68.28C44.4936 68.384 44.1016 68.436 43.7016 68.436H40.0416C39.7456 68.436 39.5256 68.368 39.3816 68.232C39.2376 68.096 39.1656 67.856 39.1656 67.512V61.632H40.8336V66.84C40.8336 66.952 40.8496 67.02 40.8816 67.044C40.9136 67.068 40.9736 67.08 41.0616 67.08H43.6776C44.1016 67.08 44.5016 67.044 44.8776 66.972C45.2536 66.892 45.5736 66.788 45.8376 66.66V61.08ZM57.3489 65.532H54.6129V64.14H57.3489V61.08H59.0049V69.744C59.0049 70.12 58.9849 70.52 58.9449 70.944C58.9049 71.368 58.8569 71.736 58.8009 72.048H57.3489V65.532ZM55.3689 61.608V62.964H51.8769V66.876C51.8769 66.98 51.8889 67.048 51.9129 67.08C51.9449 67.104 52.0049 67.116 52.0929 67.116H54.2889C54.5849 67.116 54.8649 67.096 55.1289 67.056C55.4009 67.008 55.6289 66.952 55.8129 66.888L55.9449 68.076C55.7849 68.18 55.5369 68.272 55.2009 68.352C54.8729 68.432 54.5289 68.472 54.1689 68.472H51.1569C50.8529 68.472 50.6289 68.4 50.4849 68.256C50.3489 68.112 50.2809 67.876 50.2809 67.548V61.608H55.3689ZM67.5642 61.08H69.2202V64.452H70.8522V65.82H69.2202V69.744C69.2202 70.12 69.2002 70.52 69.1602 70.944C69.1202 71.368 69.0722 71.736 69.0162 72.048H67.5642V61.08ZM62.7522 61.512H64.4442V63.492C64.4442 63.972 64.4882 64.404 64.5762 64.788C64.6722 65.172 64.8242 65.516 65.0322 65.82C65.2482 66.124 65.5202 66.396 65.8482 66.636C66.1842 66.868 66.5922 67.076 67.0722 67.26L66.2802 68.592C66.0242 68.496 65.7722 68.372 65.5242 68.22C65.2842 68.068 65.0522 67.896 64.8282 67.704C64.6042 67.504 64.4002 67.288 64.2162 67.056C64.0402 66.816 63.8922 66.564 63.7722 66.3C63.5162 66.812 63.1322 67.276 62.6202 67.692C62.1162 68.1 61.5442 68.448 60.9042 68.736L60.2442 67.62C60.7322 67.396 61.1362 67.152 61.4562 66.888C61.7842 66.624 62.0442 66.328 62.2362 66C62.4282 65.664 62.5602 65.292 62.6322 64.884C62.7122 64.476 62.7522 64.016 62.7522 63.504V61.512ZM71.6234 64.8C71.6234 64.408 71.6834 64.032 71.8034 63.672C71.9314 63.312 72.1234 62.996 72.3794 62.724C72.6354 62.444 72.9554 62.224 73.3394 62.064C73.7234 61.896 74.1754 61.812 74.6954 61.812C75.2154 61.812 75.6674 61.896 76.0514 62.064C76.4434 62.224 76.7674 62.444 77.0234 62.724C77.2794 62.996 77.4714 63.312 77.5994 63.672C77.7274 64.032 77.7914 64.408 77.7914 64.8C77.7914 65.208 77.7274 65.596 77.5994 65.964C77.4714 66.332 77.2794 66.656 77.0234 66.936C76.7674 67.208 76.4434 67.424 76.0514 67.584C75.6674 67.744 75.2154 67.824 74.6954 67.824C74.1754 67.824 73.7234 67.744 73.3394 67.584C72.9554 67.424 72.6354 67.208 72.3794 66.936C72.1234 66.656 71.9314 66.332 71.8034 65.964C71.6834 65.596 71.6234 65.208 71.6234 64.8ZM74.7194 63.252C74.2474 63.252 73.8874 63.388 73.6394 63.66C73.3914 63.924 73.2674 64.308 73.2674 64.812C73.2674 65.348 73.3914 65.752 73.6394 66.024C73.8874 66.296 74.2474 66.432 74.7194 66.432C75.1834 66.432 75.5354 66.296 75.7754 66.024C76.0234 65.752 76.1474 65.348 76.1474 64.812C76.1474 64.308 76.0234 63.924 75.7754 63.66C75.5354 63.388 75.1834 63.252 74.7194 63.252ZM78.9674 61.08H80.6234V69.744C80.6234 70.12 80.6034 70.52 80.5634 70.944C80.5234 71.368 80.4754 71.736 80.4194 72.048H78.9674V61.08ZM84.0827 70.068C84.0827 69.708 84.1427 69.384 84.2627 69.096C84.3827 68.8 84.5707 68.548 84.8267 68.34C85.0907 68.132 85.4267 67.972 85.8347 67.86C86.2427 67.748 86.7347 67.692 87.3107 67.692C87.8867 67.692 88.3787 67.748 88.7867 67.86C89.2027 67.972 89.5387 68.132 89.7947 68.34C90.0587 68.548 90.2507 68.8 90.3707 69.096C90.4907 69.384 90.5507 69.708 90.5507 70.068C90.5507 70.428 90.4907 70.752 90.3707 71.04C90.2507 71.336 90.0587 71.588 89.7947 71.796C89.5387 72.004 89.2027 72.164 88.7867 72.276C88.3787 72.388 87.8867 72.444 87.3107 72.444C86.7347 72.444 86.2427 72.388 85.8347 72.276C85.4267 72.164 85.0907 72.004 84.8267 71.796C84.5707 71.588 84.3827 71.336 84.2627 71.04C84.1427 70.752 84.0827 70.428 84.0827 70.068ZM82.3667 65.808H85.8947V63.612H87.5507V65.808H92.2667V67.14H82.3667V65.808ZM83.7227 61.152H90.6827V62.712C90.6827 62.928 90.6707 63.152 90.6467 63.384C90.6307 63.616 90.6027 63.844 90.5627 64.068C90.5227 64.284 90.4747 64.492 90.4187 64.692C90.3627 64.884 90.3027 65.056 90.2387 65.208L88.7267 65.028C88.8387 64.748 88.9147 64.452 88.9547 64.14C89.0027 63.82 89.0267 63.492 89.0267 63.156V62.52H83.7227V61.152ZM85.8107 70.056C85.8107 70.464 85.9347 70.756 86.1827 70.932C86.4387 71.116 86.8147 71.208 87.3107 71.208C87.8147 71.208 88.1907 71.116 88.4387 70.932C88.6947 70.756 88.8227 70.464 88.8227 70.056C88.8227 69.656 88.6947 69.368 88.4387 69.192C88.1907 69.008 87.8147 68.916 87.3107 68.916C86.8147 68.916 86.4387 69.008 86.1827 69.192C85.9347 69.368 85.8107 69.656 85.8107 70.056ZM103.517 61.08H105.173V63.876H106.805V65.184H105.173V67.344C105.173 67.48 105.165 67.636 105.149 67.812C105.141 67.98 105.125 68.156 105.101 68.34C105.085 68.516 105.065 68.692 105.041 68.868C105.017 69.044 104.989 69.196 104.957 69.324H103.517V67.2C103.133 67.432 102.693 67.6 102.197 67.704C101.701 67.8 101.213 67.848 100.733 67.848H96.4973V66.552H98.2973V64.2H99.9173V66.552H100.397C100.941 66.552 101.481 66.512 102.017 66.432C102.561 66.352 103.061 66.196 103.517 65.964V61.08ZM98.6333 68.568H100.289V70.848C100.289 70.92 100.297 70.964 100.313 70.98C100.337 70.996 100.385 71.004 100.457 71.004H105.569V72.348H99.5333C99.2533 72.348 99.0333 72.276 98.8733 72.132C98.7133 71.988 98.6333 71.764 98.6333 71.46V68.568ZM96.9413 61.572H102.605V63.192C102.605 63.608 102.561 64.036 102.473 64.476C102.385 64.916 102.261 65.292 102.101 65.604L100.625 65.388C100.737 65.108 100.813 64.804 100.853 64.476C100.893 64.148 100.913 63.844 100.913 63.564V62.868H96.9413V61.572ZM116.589 61.08V69.84C116.589 70.2 116.569 70.584 116.529 70.992C116.489 71.4 116.437 71.752 116.373 72.048H114.921V68.22C114.673 68.356 114.369 68.472 114.009 68.568C113.649 68.656 113.277 68.7 112.893 68.7L108.981 68.688C108.725 68.688 108.525 68.62 108.381 68.484C108.237 68.348 108.165 68.116 108.165 67.788V64.416H111.537V62.844H108.153V61.572H113.193V63.984C113.193 64.368 113.169 64.7 113.121 64.98C113.081 65.26 113.005 65.484 112.893 65.652H109.857V67.176C109.857 67.264 109.869 67.324 109.893 67.356C109.925 67.38 109.977 67.392 110.049 67.392H112.857C113.273 67.392 113.657 67.356 114.009 67.284C114.369 67.212 114.673 67.12 114.921 67.008V61.08H116.589ZM125.784 61.08H127.452V69.744C127.452 70.12 127.432 70.52 127.392 70.944C127.352 71.368 127.304 71.736 127.248 72.048H125.784V61.08ZM120.816 61.512H122.496V63.576C122.496 64.056 122.548 64.488 122.652 64.872C122.756 65.248 122.916 65.588 123.132 65.892C123.356 66.196 123.64 66.468 123.984 66.708C124.328 66.94 124.74 67.148 125.22 67.332L124.416 68.7C124.168 68.604 123.916 68.48 123.66 68.328C123.404 68.176 123.16 68.004 122.928 67.812C122.696 67.612 122.484 67.396 122.292 67.164C122.1 66.924 121.944 66.672 121.824 66.408C121.568 66.92 121.18 67.384 120.66 67.8C120.14 68.216 119.56 68.56 118.92 68.832L118.26 67.704C118.748 67.48 119.156 67.236 119.484 66.972C119.812 66.708 120.072 66.412 120.264 66.084C120.464 65.748 120.604 65.376 120.684 64.968C120.772 64.56 120.816 64.1 120.816 63.588V61.512ZM133.239 61.32H134.931V62.652C134.931 63.516 135.219 64.192 135.795 64.68C136.379 65.16 137.235 65.492 138.363 65.676L137.739 67.116C137.395 67.052 137.047 66.964 136.695 66.852C136.351 66.732 136.023 66.588 135.711 66.42C135.399 66.244 135.111 66.04 134.847 65.808C134.583 65.576 134.363 65.312 134.187 65.016C133.891 65.52 133.435 65.956 132.819 66.324C132.203 66.684 131.471 66.948 130.623 67.116L130.131 65.928C130.699 65.792 131.179 65.628 131.571 65.436C131.971 65.244 132.291 65.02 132.531 64.764C132.779 64.5 132.959 64.2 133.071 63.864C133.183 63.52 133.239 63.132 133.239 62.7V61.32ZM129.183 68.844H139.083V70.2H129.183V68.844ZM149.502 68.124V72.636H143.61C143.322 72.636 143.094 72.568 142.926 72.432C142.766 72.296 142.686 72.06 142.686 71.724V68.124H149.502ZM140.274 61.512H144.57V62.808H141.894V63.708H144.054V65.028H141.894V65.82C141.894 65.932 141.91 66.004 141.942 66.036C141.974 66.06 142.034 66.072 142.122 66.072H143.058C143.218 66.072 143.39 66.068 143.574 66.06C143.758 66.044 143.934 66.024 144.102 66C144.278 65.976 144.438 65.948 144.582 65.916C144.734 65.884 144.858 65.848 144.954 65.808L145.134 67.02C145.038 67.06 144.91 67.1 144.75 67.14C144.598 67.18 144.426 67.22 144.234 67.26C144.042 67.292 143.838 67.32 143.622 67.344C143.406 67.36 143.19 67.368 142.974 67.368H141.162C140.866 67.368 140.642 67.292 140.49 67.14C140.346 66.988 140.274 66.74 140.274 66.396V61.512ZM147.234 61.2V67.512H145.674V64.872H144.582V63.468H145.674V61.2H147.234ZM149.502 61.08V67.536H147.906V61.08H149.502ZM144.342 71.124C144.342 71.244 144.41 71.304 144.546 71.304H147.846V69.468H144.342V71.124Z" fill="black"/>
</svg>
