<svg width="20" height="20" viewBox="0 0 20 20" fill="none" xmlns="http://www.w3.org/2000/svg">
<path fill-rule="evenodd" clip-rule="evenodd" d="M4.29289 14.7071C3.90237 14.3166 3.90237 13.6834 4.29289 13.2929L7.58579 10L4.29289 6.70711C3.90237 6.31658 3.90237 5.68342 4.29289 5.29289C4.68342 4.90237 5.31658 4.90237 5.70711 5.29289L9.70711 9.29289C10.0976 9.68342 10.0976 10.3166 9.70711 10.7071L5.70711 14.7071C5.31658 15.0976 4.68342 15.0976 4.29289 14.7071Z" fill="black" fill-opacity="0.1"/>
<path fill-rule="evenodd" clip-rule="evenodd" d="M10.2929 14.7071C9.90237 14.3166 9.90237 13.6834 10.2929 13.2929L13.5858 10L10.2929 6.70711C9.90237 6.31658 9.90237 5.68342 10.2929 5.29289C10.6834 4.90237 11.3166 4.90237 11.7071 5.29289L15.7071 9.29289C16.0976 9.68342 16.0976 10.3166 15.7071 10.7071L11.7071 14.7071C11.3166 15.0976 10.6834 15.0976 10.2929 14.7071Z" fill="black" fill-opacity="0.1"/>
</svg>
