<svg width="64" height="64" viewBox="0 0 64 64" fill="none" xmlns="http://www.w3.org/2000/svg">
<path d="M0 6.62608C0 2.9666 2.9666 0 6.62608 0H57.5279C61.1023 0 64 2.89767 64 6.47214C64 7.4769 63.7661 8.46787 63.3167 9.36656L60.1514 15.6972C55.02 25.96 55.02 38.04 60.1514 48.3028L63.3167 54.6334C63.7661 55.5321 64 56.5231 64 57.5279C64 61.1023 61.1023 64 57.5279 64H6.62608C2.9666 64 0 61.0334 0 57.3739C0 56.4676 0.185927 55.5709 0.546283 54.7393L3.36586 48.2326C7.85367 37.8762 7.85367 26.1238 3.36586 15.7674L0.546283 9.26065C0.185927 8.42906 0 7.53239 0 6.62608Z" fill="#E6E1D6"/>
</svg>
