<svg width="65" height="64" viewBox="0 0 65 64" fill="none" xmlns="http://www.w3.org/2000/svg">
<path d="M1 6.62608C1 3.24274 3.74274 0.5 7.12608 0.5H32.5C49.897 0.5 64 14.603 64 32C64 49.397 49.897 63.5 32.5 63.5H7.12608C3.74274 63.5 1 60.7573 1 57.3739C1 56.536 1.1719 55.707 1.50506 54.9382L4.32464 48.4314C8.86741 37.9481 8.86741 26.0519 4.32464 15.5686L1.50506 9.06185C1.1719 8.29301 1 7.464 1 6.62608Z" fill="black" stroke="black"/>
<mask id="path-2-outside-1_1231_15000" maskUnits="userSpaceOnUse" x="14.5" y="21" width="36" height="25" fill="black">
<rect fill="white" x="14.5" y="21" width="36" height="25"/>
<path d="M25.4341 29.792C29.0821 29.792 32.0581 32.416 32.0581 36.768C32.0581 41.408 28.8261 44.48 24.1221 44.48C20.7941 44.48 17.5301 42.464 16.6981 38.56H21.0501C21.4661 40.16 22.4901 40.704 24.1221 40.704C26.6181 40.704 27.7701 39.776 27.7701 37.024C27.7701 34.368 26.6181 33.408 24.2821 33.408C22.6501 33.408 21.6261 33.696 21.1141 35.104H16.9541L17.8501 22.496H30.7781V26.272H21.8821L21.5301 31.232C22.6181 30.272 23.8981 29.792 25.4341 29.792ZM48.7916 22.496V26.272H38.9356V31.392H47.8316V35.104H38.9356V44H34.6156V22.496H48.7916Z"/>
</mask>
<path d="M25.4341 29.792C29.0821 29.792 32.0581 32.416 32.0581 36.768C32.0581 41.408 28.8261 44.48 24.1221 44.48C20.7941 44.48 17.5301 42.464 16.6981 38.56H21.0501C21.4661 40.16 22.4901 40.704 24.1221 40.704C26.6181 40.704 27.7701 39.776 27.7701 37.024C27.7701 34.368 26.6181 33.408 24.2821 33.408C22.6501 33.408 21.6261 33.696 21.1141 35.104H16.9541L17.8501 22.496H30.7781V26.272H21.8821L21.5301 31.232C22.6181 30.272 23.8981 29.792 25.4341 29.792ZM48.7916 22.496V26.272H38.9356V31.392H47.8316V35.104H38.9356V44H34.6156V22.496H48.7916Z" fill="#F6F3EB"/>
<path d="M16.6981 38.56V37.56H15.4626L15.7201 38.7684L16.6981 38.56ZM21.0501 38.56L22.0179 38.3084L21.8234 37.56H21.0501V38.56ZM21.1141 35.104V36.104H21.8146L22.0539 35.4457L21.1141 35.104ZM16.9541 35.104L15.9566 35.0331L15.8805 36.104H16.9541V35.104ZM17.8501 22.496V21.496H16.9187L16.8526 22.4251L17.8501 22.496ZM30.7781 22.496H31.7781V21.496H30.7781V22.496ZM30.7781 26.272V27.272H31.7781V26.272H30.7781ZM21.8821 26.272V25.272H20.9506L20.8846 26.2012L21.8821 26.272ZM21.5301 31.232L20.5326 31.1612L20.3597 33.5984L22.1917 31.9818L21.5301 31.232ZM25.4341 30.792C27.0153 30.792 28.4098 31.3579 29.407 32.3551C30.4001 33.3482 31.0581 34.8285 31.0581 36.768H33.0581C33.0581 34.3555 32.2281 32.3478 30.8212 30.9409C29.4184 29.5381 27.5009 28.792 25.4341 28.792V30.792ZM31.0581 36.768C31.0581 38.8474 30.3393 40.5054 29.1595 41.6446C27.9762 42.7872 26.254 43.48 24.1221 43.48V45.48C26.6943 45.48 28.94 44.6368 30.5488 43.0834C32.1609 41.5266 33.0581 39.3286 33.0581 36.768H31.0581ZM24.1221 43.48C21.1927 43.48 18.3953 41.7258 17.6762 38.3516L15.7201 38.7684C16.665 43.2022 20.3955 45.48 24.1221 45.48V43.48ZM16.6981 39.56H21.0501V37.56H16.6981V39.56ZM20.0823 38.8116C20.3359 39.7869 20.8122 40.5632 21.5815 41.068C22.3241 41.5554 23.212 41.704 24.1221 41.704V39.704C23.4003 39.704 22.9601 39.5806 22.6788 39.396C22.424 39.2288 22.1804 38.9331 22.0179 38.3084L20.0823 38.8116ZM24.1221 41.704C25.4553 41.704 26.6928 41.4639 27.5747 40.6174C28.4649 39.7627 28.7701 38.5067 28.7701 37.024H26.7701C26.7701 38.2933 26.4993 38.8773 26.1896 39.1746C25.8714 39.4801 25.285 39.704 24.1221 39.704V41.704ZM28.7701 37.024C28.7701 35.5792 28.4605 34.3524 27.6043 33.508C26.7499 32.6653 25.5575 32.408 24.2821 32.408V34.408C25.3427 34.408 25.8944 34.6306 26.1999 34.932C26.5037 35.2316 26.7701 35.8128 26.7701 37.024H28.7701ZM24.2821 32.408C23.4379 32.408 22.5853 32.4763 21.8503 32.8241C21.0525 33.2017 20.5058 33.8507 20.1743 34.7623L22.0539 35.4457C22.2344 34.9493 22.4558 34.7503 22.7059 34.6319C23.019 34.4837 23.4943 34.408 24.2821 34.408V32.408ZM21.1141 34.104H16.9541V36.104H21.1141V34.104ZM17.9516 35.1749L18.8476 22.5669L16.8526 22.4251L15.9566 35.0331L17.9516 35.1749ZM17.8501 23.496H30.7781V21.496H17.8501V23.496ZM29.7781 22.496V26.272H31.7781V22.496H29.7781ZM30.7781 25.272H21.8821V27.272H30.7781V25.272ZM20.8846 26.2012L20.5326 31.1612L22.5276 31.3028L22.8796 26.3428L20.8846 26.2012ZM22.1917 31.9818C23.0899 31.1894 24.132 30.792 25.4341 30.792V28.792C23.6642 28.792 22.1464 29.3546 20.8685 30.4822L22.1917 31.9818ZM48.7916 22.496H49.7916V21.496H48.7916V22.496ZM48.7916 26.272V27.272H49.7916V26.272H48.7916ZM38.9356 26.272V25.272H37.9356V26.272H38.9356ZM38.9356 31.392H37.9356V32.392H38.9356V31.392ZM47.8316 31.392H48.8316V30.392H47.8316V31.392ZM47.8316 35.104V36.104H48.8316V35.104H47.8316ZM38.9356 35.104V34.104H37.9356V35.104H38.9356ZM38.9356 44V45H39.9356V44H38.9356ZM34.6156 44H33.6156V45H34.6156V44ZM34.6156 22.496V21.496H33.6156V22.496H34.6156ZM47.7916 22.496V26.272H49.7916V22.496H47.7916ZM48.7916 25.272H38.9356V27.272H48.7916V25.272ZM37.9356 26.272V31.392H39.9356V26.272H37.9356ZM38.9356 32.392H47.8316V30.392H38.9356V32.392ZM46.8316 31.392V35.104H48.8316V31.392H46.8316ZM47.8316 34.104H38.9356V36.104H47.8316V34.104ZM37.9356 35.104V44H39.9356V35.104H37.9356ZM38.9356 43H34.6156V45H38.9356V43ZM35.6156 44V22.496H33.6156V44H35.6156ZM34.6156 23.496H48.7916V21.496H34.6156V23.496Z" fill="black" mask="url(#path-2-outside-1_1231_15000)"/>
</svg>
