<svg width="65" height="64" viewBox="0 0 65 64" fill="none" xmlns="http://www.w3.org/2000/svg">
<circle cx="32.5" cy="32" r="31.5" fill="white" stroke="black"/>
<path d="M28.5485 32.832C31.4925 33.536 32.8365 35.36 32.8365 37.888C32.8365 41.536 29.6045 44.32 24.8045 44.32C20.1325 44.32 17.0605 41.728 16.6125 37.6H20.9325C21.0285 39.808 22.4365 40.544 24.8045 40.544C27.4605 40.544 28.3565 39.584 28.3565 37.632C28.3565 35.808 27.6525 34.944 24.4525 34.944H22.0525V31.296H23.9725C26.8845 31.296 27.7165 30.496 27.7165 28.576C27.7165 26.624 26.8205 25.792 24.6445 25.792C22.2765 25.792 21.1885 26.528 21.0925 28.736H16.7725C17.3485 24.64 20.4525 22.016 24.6765 22.016C29.2205 22.016 32.1965 24.64 32.1965 28.128C32.1965 30.048 31.0125 31.904 28.5485 32.832ZM49.5573 22.496V26.272H39.7013V31.392H48.5973V35.104H39.7013V44H35.3813V22.496H49.5573Z" fill="#262626"/>
</svg>
