<svg width="65" height="64" viewBox="0 0 65 64" fill="none" xmlns="http://www.w3.org/2000/svg">
<path d="M7.12608 0.5H58.0279C61.3262 0.5 64 3.17382 64 6.47214C64 7.39928 63.7841 8.31369 63.3695 9.14296L60.2042 15.4736C55.0024 25.8772 55.0024 38.1228 60.2042 48.5265L63.3695 54.857C63.7841 55.6863 64 56.6007 64 57.5279C64 60.8262 61.3262 63.5 58.0279 63.5H7.12608C3.74274 63.5 1 60.7573 1 57.3739C1 56.536 1.1719 55.707 1.50506 54.9382L4.32464 48.4314C8.86741 37.9481 8.86741 26.0519 4.32464 15.5686L1.50506 9.06185C1.1719 8.29301 1 7.464 1 6.62608C1 3.24274 3.74274 0.5 7.12608 0.5Z" fill="#F0ECE4" stroke="black"/>
<path d="M25.4103 44.48C20.1623 44.48 16.8663 39.904 16.8663 33.216C16.8663 26.592 20.1623 22.016 25.4103 22.016C30.6583 22.016 33.9543 26.592 33.9543 33.216C33.9543 39.904 30.6583 44.48 25.4103 44.48ZM25.4103 40.704C28.6743 40.704 29.6663 38.848 29.6663 33.216C29.6663 27.648 28.6743 25.792 25.4103 25.792C22.1463 25.792 21.1543 27.648 21.1543 33.216C21.1543 38.848 22.1463 40.704 25.4103 40.704ZM44.1863 44H39.8663V27.04L35.2263 30.944V26.464L39.8663 22.496H44.1863V44Z" fill="#262626"/>
</svg>
