<svg width="65" height="64" viewBox="0 0 65 64" fill="none" xmlns="http://www.w3.org/2000/svg">
<circle cx="32.5" cy="32" r="31.5" fill="white" stroke="black"/>
<path d="M23.1759 43.48C17.9279 43.48 14.6319 38.904 14.6319 32.216C14.6319 25.592 17.9279 21.016 23.1759 21.016C28.4239 21.016 31.7199 25.592 31.7199 32.216C31.7199 38.904 28.4239 43.48 23.1759 43.48ZM23.1759 39.704C26.4399 39.704 27.4319 37.848 27.4319 32.216C27.4319 26.648 26.4399 24.792 23.1759 24.792C19.9119 24.792 18.9199 26.648 18.9199 32.216C18.9199 37.848 19.9119 39.704 23.1759 39.704ZM40.5194 30.36C43.4314 30.36 44.2634 29.56 44.2634 27.608C44.2634 25.656 43.3674 24.824 41.1914 24.824C38.8234 24.824 37.7354 25.56 37.6394 27.768H33.3194C33.8954 23.672 36.9994 21.016 41.2234 21.016C45.7674 21.016 48.7434 23.672 48.7434 27.16C48.7434 29.112 47.5594 30.968 45.0634 31.896C48.0394 32.632 49.3834 34.456 49.3834 36.984C49.3834 40.664 46.1514 43.48 41.3514 43.48C36.6794 43.48 33.6074 40.856 33.1594 36.696H37.4794C37.5754 38.936 38.9834 39.672 41.3514 39.672C44.0074 39.672 44.9034 38.712 44.9034 36.728C44.9034 34.904 44.1994 34.04 40.9994 34.04H38.5994V30.36H40.5194Z" fill="#262626"/>
</svg>
