<svg width="65" height="64" viewBox="0 0 65 64" fill="none" xmlns="http://www.w3.org/2000/svg">
<circle cx="32.5" cy="32" r="31.5" fill="#FD312E" stroke="black"/>
<path d="M38.1863 29.472C37.4503 26.688 35.9783 25.792 32.4903 25.792C28.1063 25.792 25.9943 27.808 25.9943 33.216C25.9943 38.688 28.1063 40.704 32.4903 40.704C36.3303 40.704 37.7383 39.008 38.1863 37.984C38.3783 37.536 38.4103 37.152 38.4103 36.672V35.616H32.1703V32.128H42.2823V36.8C42.2823 37.504 42.2183 38.176 41.9623 38.912C41.2263 40.928 38.0263 44.48 32.4903 44.48C26.1223 44.48 21.7063 39.904 21.7063 33.216C21.7063 26.592 26.2823 22.016 32.4903 22.016C37.4183 22.016 41.1623 24.64 42.2823 29.472H38.1863Z" fill="#F6F3EB"/>
</svg>
