<svg width="65" height="64" viewBox="0 0 65 64" fill="none" xmlns="http://www.w3.org/2000/svg">
<circle cx="32.5" cy="32" r="31.5" fill="#FD312E" stroke="black"/>
<path d="M34.1573 29.472H30.0613C29.3253 26.688 27.8533 25.792 24.3653 25.792C19.9813 25.792 17.8693 27.808 17.8693 33.216C17.8693 38.688 19.9813 40.704 24.3653 40.704C28.2053 40.704 29.6133 39.008 30.0613 37.984C30.2533 37.536 30.2853 37.152 30.2853 36.672V35.616H24.0453V32.128H34.1573V36.8C34.1573 37.504 34.0933 38.176 33.8373 38.912C33.1013 40.928 29.9013 44.48 24.3653 44.48C17.9973 44.48 13.5813 39.904 13.5813 33.216C13.5813 26.592 18.1573 22.016 24.3653 22.016C29.2933 22.016 33.0373 24.64 34.1573 29.472ZM50.5885 22.496V26.272H40.7325V31.392H49.6285V35.104H40.7325V44H36.4125V22.496H50.5885Z" fill="#F6F3EB"/>
</svg>
