<svg width="64" height="64" viewBox="0 0 64 64" fill="none" xmlns="http://www.w3.org/2000/svg">
<path d="M0.5 6.62608C0.5 3.24274 3.24274 0.5 6.62608 0.5H57.5279C60.8262 0.5 63.5 3.17382 63.5 6.47214C63.5 7.39928 63.2841 8.31369 62.8695 9.14296L59.7042 15.4736C54.5024 25.8772 54.5024 38.1228 59.7042 48.5264L62.8695 54.857C63.2841 55.6863 63.5 56.6007 63.5 57.5279C63.5 60.8262 60.8262 63.5 57.5279 63.5H6.62608C3.24274 63.5 0.5 60.7573 0.5 57.3739C0.5 56.536 0.671897 55.707 1.00506 54.9382L3.82464 48.4314C8.36741 37.9481 8.36741 26.0519 3.82464 15.5686L1.00506 9.06185C0.671897 8.29301 0.5 7.464 0.5 6.62608Z" fill="#F0ECE4" stroke="black"/>
</svg>
