<svg width="65" height="64" viewBox="0 0 65 64" fill="none" xmlns="http://www.w3.org/2000/svg">
<path d="M7.12608 0.5H32.5C49.897 0.5 64 14.603 64 32C64 49.397 49.897 63.5 32.5 63.5H7.12608C3.74274 63.5 1 60.7573 1 57.3739C1 56.536 1.1719 55.707 1.50506 54.9382L4.32464 48.4314C8.86741 37.9481 8.86741 26.0519 4.32464 15.5686L1.50506 9.06185C1.1719 8.29301 1 7.464 1 6.62608C1 3.24274 3.74274 0.5 7.12608 0.5Z" fill="#A50034" stroke="black"/>
<path d="M26.4103 44.48C21.1623 44.48 17.8663 39.904 17.8663 33.216C17.8663 26.592 21.1623 22.016 26.4103 22.016C31.6583 22.016 34.9543 26.592 34.9543 33.216C34.9543 39.904 31.6583 44.48 26.4103 44.48ZM26.4103 40.704C29.6743 40.704 30.6663 38.848 30.6663 33.216C30.6663 27.648 29.6743 25.792 26.4103 25.792C23.1463 25.792 22.1543 27.648 22.1543 33.216C22.1543 38.848 23.1463 40.704 26.4103 40.704ZM45.1863 44H40.8663V27.04L36.2263 30.944V26.464L40.8663 22.496H45.1863V44Z" fill="#F6F3EB"/>
</svg>
