<svg width="65" height="64" viewBox="0 0 65 64" fill="none" xmlns="http://www.w3.org/2000/svg">
<path d="M1 6.62608C1 3.24274 3.74274 0.5 7.12608 0.5H32.5C49.897 0.5 64 14.603 64 32C64 49.397 49.897 63.5 32.5 63.5H7.12608C3.74274 63.5 1 60.7573 1 57.3739C1 56.536 1.1719 55.707 1.50506 54.9382L4.32464 48.4314C8.86741 37.9481 8.86741 26.0519 4.32464 15.5686L1.50506 9.06185C1.1719 8.29301 1 7.464 1 6.62608Z" fill="#A50034" stroke="black"/>
<path d="M19.0231 26.464L23.6631 22.496H27.9831V44H23.6631V27.04L19.0231 30.944V26.464ZM45.6666 22.496V26.272H35.8106V31.392H44.7066V35.104H35.8106V44H31.4906V22.496H45.6666Z" fill="#F6F3EB"/>
</svg>
