<svg width="65" height="64" viewBox="0 0 65 64" fill="none" xmlns="http://www.w3.org/2000/svg">
<path d="M1 6.62608C1 3.24274 3.74274 0.5 7.12608 0.5H32.5C49.897 0.5 64 14.603 64 32C64 49.397 49.897 63.5 32.5 63.5H7.12608C3.74274 63.5 1 60.7573 1 57.3739C1 56.536 1.1719 55.707 1.50506 54.9382L4.32464 48.4314C8.86741 37.9481 8.86741 26.0519 4.32464 15.5686L1.50506 9.06185C1.1719 8.29301 1 7.464 1 6.62608Z" fill="black" stroke="black"/>
<mask id="path-2-outside-1_1343_8570" maskUnits="userSpaceOnUse" x="14.5" y="21" width="37" height="25" fill="black">
<rect fill="white" x="14.5" y="21" width="37" height="25"/>
<path d="M24.2853 44.48C19.0373 44.48 15.7413 39.904 15.7413 33.216C15.7413 26.592 19.0373 22.016 24.2853 22.016C29.5333 22.016 32.8293 26.592 32.8293 33.216C32.8293 39.904 29.5333 44.48 24.2853 44.48ZM24.2853 40.704C27.5493 40.704 28.5413 38.848 28.5413 33.216C28.5413 27.648 27.5493 25.792 24.2853 25.792C21.0213 25.792 20.0293 27.648 20.0293 33.216C20.0293 38.848 21.0213 40.704 24.2853 40.704ZM35.1573 35.104L36.0533 22.496H48.9813V26.272H40.0853L39.7333 31.232C40.8213 30.272 42.1013 29.792 43.6373 29.792C47.2853 29.792 50.2613 32.416 50.2613 36.768C50.2613 41.408 47.0293 44.48 42.3253 44.48C38.9973 44.48 35.7333 42.464 34.9013 38.56H39.2533C39.6693 40.16 40.6933 40.704 42.3253 40.704C44.8213 40.704 45.9733 39.776 45.9733 37.024C45.9733 34.368 44.8213 33.408 42.4853 33.408C40.8533 33.408 39.8293 33.696 39.3173 35.104H35.1573Z"/>
</mask>
<path d="M24.2853 44.48C19.0373 44.48 15.7413 39.904 15.7413 33.216C15.7413 26.592 19.0373 22.016 24.2853 22.016C29.5333 22.016 32.8293 26.592 32.8293 33.216C32.8293 39.904 29.5333 44.48 24.2853 44.48ZM24.2853 40.704C27.5493 40.704 28.5413 38.848 28.5413 33.216C28.5413 27.648 27.5493 25.792 24.2853 25.792C21.0213 25.792 20.0293 27.648 20.0293 33.216C20.0293 38.848 21.0213 40.704 24.2853 40.704ZM35.1573 35.104L36.0533 22.496H48.9813V26.272H40.0853L39.7333 31.232C40.8213 30.272 42.1013 29.792 43.6373 29.792C47.2853 29.792 50.2613 32.416 50.2613 36.768C50.2613 41.408 47.0293 44.48 42.3253 44.48C38.9973 44.48 35.7333 42.464 34.9013 38.56H39.2533C39.6693 40.16 40.6933 40.704 42.3253 40.704C44.8213 40.704 45.9733 39.776 45.9733 37.024C45.9733 34.368 44.8213 33.408 42.4853 33.408C40.8533 33.408 39.8293 33.696 39.3173 35.104H35.1573Z" fill="#F6F3EB"/>
<path d="M24.2853 43.48C21.9867 43.48 20.1435 42.4929 18.8462 40.7573C17.5291 38.9952 16.7413 36.4082 16.7413 33.216H14.7413C14.7413 36.7118 15.6014 39.7568 17.2443 41.9547C18.907 44.1791 21.3358 45.48 24.2853 45.48V43.48ZM16.7413 33.216C16.7413 30.0577 17.5282 27.4868 18.8451 25.7323C20.1425 24.0035 21.9863 23.016 24.2853 23.016V21.016C21.3362 21.016 18.908 22.3165 17.2454 24.5317C15.6023 26.7212 14.7413 29.7503 14.7413 33.216H16.7413ZM24.2853 23.016C26.5842 23.016 28.428 24.0035 29.7254 25.7323C31.0423 27.4868 31.8293 30.0577 31.8293 33.216H33.8293C33.8293 29.7503 32.9682 26.7212 31.3251 24.5317C29.6625 22.3165 27.2343 21.016 24.2853 21.016V23.016ZM31.8293 33.216C31.8293 36.4082 31.0414 38.9952 29.7243 40.7573C28.427 42.4929 26.5838 43.48 24.2853 43.48V45.48C27.2347 45.48 29.6635 44.1791 31.3262 41.9547C32.9691 39.7568 33.8293 36.7118 33.8293 33.216H31.8293ZM24.2853 41.704C25.1874 41.704 26.0234 41.5772 26.756 41.2294C27.5091 40.872 28.0877 40.312 28.5091 39.5617C29.3068 38.1415 29.5413 36.0245 29.5413 33.216H27.5413C27.5413 36.0395 27.2797 37.6665 26.7654 38.5823C26.5308 39 26.2494 39.256 25.8985 39.4226C25.5271 39.5988 25.0151 39.704 24.2853 39.704V41.704ZM29.5413 33.216C29.5413 30.4386 29.3067 28.3367 28.5077 26.9237C28.0857 26.1775 27.5068 25.6206 26.7547 25.265C26.0228 24.9189 25.1875 24.792 24.2853 24.792V26.792C25.015 26.792 25.5277 26.8971 25.8998 27.073C26.2517 27.2394 26.5328 27.4945 26.7668 27.9083C27.2798 28.8153 27.5413 30.4254 27.5413 33.216H29.5413ZM24.2853 24.792C23.383 24.792 22.5477 24.9189 21.8158 25.265C21.0637 25.6206 20.4848 26.1775 20.0628 26.9237C19.2638 28.3367 19.0293 30.4386 19.0293 33.216H21.0293C21.0293 30.4254 21.2907 28.8153 21.8037 27.9083C22.0377 27.4945 22.3188 27.2394 22.6707 27.073C23.0428 26.8971 23.5555 26.792 24.2853 26.792V24.792ZM19.0293 33.216C19.0293 36.0245 19.2637 38.1415 20.0614 39.5617C20.4828 40.312 21.0614 40.872 21.8145 41.2294C22.5471 41.5772 23.3831 41.704 24.2853 41.704V39.704C23.5554 39.704 23.0434 39.5988 22.672 39.4226C22.3211 39.256 22.0397 39 21.8051 38.5823C21.2908 37.6665 21.0293 36.0395 21.0293 33.216H19.0293ZM35.1573 35.104L34.1598 35.0331L34.0837 36.104H35.1573V35.104ZM36.0533 22.496V21.496H35.1218L35.0558 22.4251L36.0533 22.496ZM48.9813 22.496H49.9813V21.496H48.9813V22.496ZM48.9813 26.272V27.272H49.9813V26.272H48.9813ZM40.0853 26.272V25.272H39.1537L39.0878 26.2012L40.0853 26.272ZM39.7333 31.232L38.7358 31.1612L38.5628 33.5984L40.3949 31.9818L39.7333 31.232ZM34.9013 38.56V37.56H33.6657L33.9232 38.7684L34.9013 38.56ZM39.2533 38.56L40.2211 38.3084L40.0265 37.56H39.2533V38.56ZM39.3173 35.104V36.104H40.0177L40.257 35.4457L39.3173 35.104ZM36.1547 35.1749L37.0507 22.5669L35.0558 22.4251L34.1598 35.0331L36.1547 35.1749ZM36.0533 23.496H48.9813V21.496H36.0533V23.496ZM47.9813 22.496V26.272H49.9813V22.496H47.9813ZM48.9813 25.272H40.0853V27.272H48.9813V25.272ZM39.0878 26.2012L38.7358 31.1612L40.7307 31.3028L41.0827 26.3428L39.0878 26.2012ZM40.3949 31.9818C41.293 31.1894 42.3351 30.792 43.6373 30.792V28.792C41.8674 28.792 40.3495 29.3546 39.0716 30.4822L40.3949 31.9818ZM43.6373 30.792C45.2184 30.792 46.613 31.3579 47.6101 32.3551C48.6032 33.3482 49.2613 34.8285 49.2613 36.768H51.2613C51.2613 34.3555 50.4313 32.3478 49.0244 30.9409C47.6216 29.5381 45.7041 28.792 43.6373 28.792V30.792ZM49.2613 36.768C49.2613 38.8474 48.5425 40.5054 47.3626 41.6446C46.1793 42.7872 44.4571 43.48 42.3253 43.48V45.48C44.8974 45.48 47.1432 44.6368 48.7519 43.0834C50.364 41.5266 51.2613 39.3286 51.2613 36.768H49.2613ZM42.3253 43.48C39.3958 43.48 36.5984 41.7258 35.8793 38.3516L33.9232 38.7684C34.8681 43.2022 38.5987 45.48 42.3253 45.48V43.48ZM34.9013 39.56H39.2533V37.56H34.9013V39.56ZM38.2854 38.8116C38.539 39.7869 39.0154 40.5632 39.7846 41.068C40.5272 41.5554 41.4151 41.704 42.3253 41.704V39.704C41.6034 39.704 41.1633 39.5806 40.8819 39.396C40.6271 39.2288 40.3835 38.9331 40.2211 38.3084L38.2854 38.8116ZM42.3253 41.704C43.6584 41.704 44.8959 41.4639 45.7778 40.6174C46.6681 39.7627 46.9733 38.5067 46.9733 37.024H44.9733C44.9733 38.2933 44.7024 38.8773 44.3927 39.1746C44.0746 39.4801 43.4881 39.704 42.3253 39.704V41.704ZM46.9733 37.024C46.9733 35.5792 46.6637 34.3524 45.8074 33.508C44.953 32.6653 43.7607 32.408 42.4853 32.408V34.408C43.5458 34.408 44.0975 34.6306 44.4031 34.932C44.7068 35.2316 44.9733 35.8128 44.9733 37.024H46.9733ZM42.4853 32.408C41.641 32.408 40.7884 32.4763 40.0535 32.8241C39.2556 33.2017 38.7089 33.8507 38.3775 34.7623L40.257 35.4457C40.4376 34.9493 40.6589 34.7503 40.909 34.6319C41.2221 34.4837 41.6975 34.408 42.4853 34.408V32.408ZM39.3173 34.104H35.1573V36.104H39.3173V34.104Z" fill="black" mask="url(#path-2-outside-1_1343_8570)"/>
</svg>
