<svg width="57" height="56" viewBox="0 0 57 56" fill="none" xmlns="http://www.w3.org/2000/svg">
<circle cx="28.5" cy="28" r="28" fill="#262626"/>
<g clip-path="url(#clip0_1700_59564)">
<path d="M40.1722 21.3377V25.6927C40.1722 25.6927 36.4083 25.8977 33.4286 23.4126V33.3893C33.4286 33.7753 33.3924 34.1493 33.32 34.5353C32.9581 36.3087 31.4501 40.7963 25.5148 41.3151C25.2133 41.3392 24.9117 41.3392 24.6101 41.3151C22.9212 41.1703 17.8665 40.2293 16.8652 34.1493C16.7446 33.4496 16.7325 32.7378 16.8411 32.0381C17.1427 29.9632 19.29 24.2571 26.3472 24.9447V29.2756C26.3472 29.2756 23.3193 28.5517 21.8475 30.8921C21.0754 32.1226 20.991 33.6667 21.6424 34.9575C22.137 35.9468 23.1383 36.9601 25.0926 37.0325C25.9129 37.0325 28.5187 36.743 29.0977 33.522V14.6665H33.4286C33.4286 14.6665 33.4286 20.9155 40.1842 21.3377H40.1722Z" fill="white"/>
</g>
<defs>
<clipPath id="clip0_1700_59564">
<rect width="32" height="32" fill="white" transform="translate(12.5 12)"/>
</clipPath>
</defs>
</svg>
