<svg width="57" height="56" viewBox="0 0 57 56" fill="none" xmlns="http://www.w3.org/2000/svg">
<circle cx="28.5" cy="28" r="28" fill="#262626"/>
<path fill-rule="evenodd" clip-rule="evenodd" d="M39.9637 18.2874C41.2263 18.6238 42.2198 19.6224 42.5561 20.8953C43.1667 23.1979 43.1615 27.9997 43.1615 27.9997C43.1615 27.9997 43.1615 32.8014 42.5509 35.104C42.2146 36.3717 41.2211 37.3704 39.9586 37.7119C37.6715 38.3276 28.4974 38.3276 28.4974 38.3276C28.4974 38.3276 19.3233 38.3276 17.0362 37.7119C15.7737 37.3756 14.7802 36.3769 14.4439 35.104C13.8333 32.8014 13.8333 27.9997 13.8333 27.9997C13.8333 27.9997 13.8333 23.1979 14.4491 20.8901C14.7854 19.6224 15.7789 18.6238 17.0414 18.2823C19.3285 17.6665 28.5026 17.6665 28.5026 17.6665C28.5026 17.6665 37.6715 17.6665 39.9637 18.2874ZM33.1698 27.9997L25.5015 23.6377V32.3617L33.1698 27.9997Z" fill="white"/>
</svg>
