<svg width="57" height="56" viewBox="0 0 57 56" fill="none" xmlns="http://www.w3.org/2000/svg">
<circle cx="28.5" cy="28" r="28" fill="#262626"/>
<path d="M28.5 23.7778C26.2177 23.7778 24.2778 25.7178 24.2778 28.0001C24.2778 30.2823 26.2177 32.2223 28.5 32.2223C30.7823 32.2223 32.7222 30.2823 32.7222 28.0001C32.7222 25.7178 30.7823 23.7778 28.5 23.7778Z" fill="white"/>
<path d="M33.9121 15.3335H23.203C19.0576 15.3335 15.8333 18.5577 15.8333 22.588V33.2971C15.8333 37.4426 19.0576 40.6668 23.203 40.6668H33.9121C37.9424 40.6668 41.1667 37.4426 41.1667 33.2971V22.588C41.1667 18.5577 37.9424 15.3335 33.9121 15.3335ZM28.5 34.6789C24.8151 34.6789 21.9364 31.685 21.9364 28.1153C21.9364 24.5456 24.8151 21.4365 28.5 21.4365C32.1848 21.4365 35.0636 24.4305 35.0636 28.0002C35.0636 31.5699 32.1848 34.6789 28.5 34.6789ZM35.2939 22.8183C34.4879 22.8183 33.797 22.1274 33.797 21.3214C33.797 20.5153 34.4879 19.8244 35.2939 19.8244C36.1 19.8244 36.7909 20.5153 36.7909 21.3214C36.7909 22.1274 36.1 22.8183 35.2939 22.8183Z" fill="white"/>
</svg>
