<svg width="57" height="56" viewBox="0 0 57 56" fill="none" xmlns="http://www.w3.org/2000/svg">
<circle cx="28.5" cy="28" r="28" fill="#262626"/>
<path d="M27.9531 16.4688V39.5156H35.2811V37.4702H30.0468V16.4688H27.9531Z" fill="white"/>
<path d="M20.6093 22.766C22.3487 22.766 23.766 21.3487 23.766 19.6254C23.766 17.9021 22.3487 16.4688 20.6093 16.4688C18.8699 16.4688 17.4688 17.886 17.4688 19.6254C17.4688 21.3648 18.886 22.766 20.6093 22.766Z" fill="white"/>
<path d="M30.0469 6.01611C29.7731 6.01611 29.2577 6 29 6C16.8726 6 7 15.8726 7 28.0161C7 33.8946 9.28697 39.4187 13.4261 43.5739C17.5974 47.7291 23.1215 50.0161 29 50.0161C34.8785 50.0161 40.4026 47.7291 44.5739 43.5739C48.713 39.4187 51 33.8946 51 28.0161V27.0176H50.1303H35.2972V29.063H48.9063V29.3529C48.2138 39.7247 39.549 47.9546 29 47.9546C23.6691 47.9546 18.6603 45.877 14.8917 42.1083C11.123 38.3397 9.04539 33.3309 9.04539 28C9.04539 22.6691 11.123 17.6603 14.8917 13.8917C18.6603 10.123 23.6691 8.04539 29 8.04539C29.2416 8.04539 29.8053 8.04539 30.0469 8.04539V6.01611Z" fill="white"/>
</svg>
