<svg width="148" height="32" viewBox="0 0 148 32" fill="none" xmlns="http://www.w3.org/2000/svg">
<path d="M142.998 14.5176H126.746V16.4255H142.998V14.5176Z" fill="#BE0738"/>
<path d="M11.6546 6.27539H9.41394L11.9568 12.637H8.93774L10.0245 9.91715L8.89805 7.0996L5.02734 16.4284H7.42059L8.20816 14.4594H12.6863L13.4739 16.4284H15.8672L11.6546 6.27539Z" fill="#1D1D1B"/>
<path d="M57.2389 7.95117C54.5007 7.95117 52.7852 9.88653 52.7852 12.2737C52.7852 14.6608 54.5007 16.5962 57.2389 16.5962C59.3116 16.5962 60.2274 15.7903 60.7921 15.0943L59.5436 13.8122C58.7255 14.5875 58.0662 14.7341 57.2389 14.7341C55.9416 14.7341 55.1296 13.5344 55.1296 12.2737C55.1296 11.0129 55.9416 9.81326 57.2389 9.81326C58.5821 9.81326 58.9759 10.6161 59.0796 11.5777H56.1033C56.0301 11.7914 55.9904 12.0264 55.9904 12.2737C55.9904 12.5362 56.0362 12.7835 56.1186 13.0063H61.2867V12.2737C61.2867 9.88653 59.9771 7.95117 57.2389 7.95117Z" fill="#1D1D1B"/>
<path d="M43.2596 16.427H45.6376V8.1209V5.3125H43.2596V16.427Z" fill="#1D1D1B"/>
<path d="M48.4223 7.95117C47.4516 7.95117 46.7556 8.30222 46.3984 8.53422V10.323C46.6335 9.99642 47.1158 9.81021 47.5126 9.81021C48.2788 9.80716 49.0237 10.2895 49.0237 11.5227V16.4252H51.4017V10.9122C51.4017 9.55074 50.5927 7.95117 48.4223 7.95117Z" fill="#1D1D1B"/>
<path d="M16.9414 16.4252H19.3194V8.11907H16.9414V16.4252ZM22.0362 7.95117C21.151 7.95117 20.516 8.20454 20.0825 8.48233V10.1185C20.2993 9.93537 20.5679 9.81326 20.8945 9.81326C21.6485 9.81326 22.5674 10.3536 22.5674 11.6418V16.4313H24.9453V10.9183C24.9453 9.5599 24.2036 7.95728 22.0362 7.95728V7.95117Z" fill="#1D1D1B"/>
<path d="M30.8105 7.95227C28.0539 7.95227 26.3262 9.88763 26.3262 12.2748C26.3262 12.8792 26.4361 13.4531 26.6467 13.9751H29.2414C28.8965 13.5324 28.7042 12.9372 28.7042 12.2748C28.7042 10.9164 29.5161 9.81436 30.8135 9.81436C32.1109 9.81436 32.9229 10.9164 32.9229 12.2748C32.9229 13.6332 32.1109 14.7352 30.8135 14.7352H27.0527C27.8067 15.8585 29.1132 16.5942 30.8135 16.5942C33.57 16.5942 35.2978 14.6589 35.2978 12.2717C35.2978 9.88457 33.57 7.94922 30.8135 7.94922L30.8105 7.95227Z" fill="#1D1D1B"/>
<path d="M62.7266 16.4252H65.1045V8.11907H62.7266V16.4252ZM67.1925 7.95117C66.4507 7.95117 65.8494 8.55254 65.8494 9.29432C65.8494 10.0361 66.4507 10.6375 67.1925 10.6375C67.9343 10.6375 68.5357 10.0361 68.5357 9.29432C68.5357 8.55254 67.9343 7.95117 67.1925 7.95117Z" fill="#1D1D1B"/>
<path d="M41.4212 8.12137V9.9804H35.957V8.12137H37.1323V6.27148H39.4858V8.12137H41.4181H41.4212ZM39.4889 10.7405V13.4146C39.4889 14.0984 39.7392 14.4464 40.2459 14.4464C40.5817 14.4464 40.9664 14.3273 41.3876 14.1106L41.8791 15.9818C41.5799 16.1741 41.2411 16.342 40.8595 16.4397C40.4871 16.5466 40.1025 16.5954 39.7423 16.5954C38.973 16.5954 38.3381 16.3665 37.8588 15.8872C37.3795 15.4202 37.1384 14.7333 37.1384 13.845V10.7405H39.492H39.4889Z" fill="#1D1D1B"/>
<path d="M91.3783 16.427H93.7563V8.80461H91.3783V16.43V16.427ZM92.5658 7.83083C93.3076 7.83083 93.909 7.22946 93.909 6.48768C93.909 5.7459 93.3076 5.14453 92.5658 5.14453C91.824 5.14453 91.2227 5.7459 91.2227 6.48768C91.2227 7.22946 91.824 7.83083 92.5658 7.83083Z" fill="#1D1D1B"/>
<path d="M89.7378 16.4272V11.0271C89.7378 9.26575 88.3671 7.95312 85.9708 7.95312C84.5331 7.95312 83.1289 8.30417 82.3535 9.70532L83.8371 10.6761C83.8371 10.6761 84.356 9.81522 85.6595 9.81522C86.9629 9.81522 87.3628 10.5539 87.3628 11.3049V11.4606H84.9513C83.196 11.4606 81.9902 12.3458 81.9902 13.9576C81.9902 15.2428 82.732 16.5981 84.6643 16.5981C85.1924 16.5981 86.2975 16.4302 86.6027 16.302V14.5498C86.3005 14.736 85.6686 14.9314 85.2779 14.9314C84.4262 14.9314 84.0233 14.327 84.0233 13.805C84.0233 13.1914 84.6277 12.8678 85.3267 12.8678H87.3659V16.4333H89.7439L89.7378 16.4272Z" fill="#1D1D1B"/>
<path d="M100.876 8.12187L100.867 11.7392V11.7697C100.867 13.061 100.192 13.9188 99.0563 13.9188C97.9207 13.9188 97.3652 13.061 97.3652 11.7697V11.7392C97.3652 10.4327 97.9207 9.59018 99.0563 9.59018C99.4715 9.59018 99.8225 9.70618 100.103 9.91375V8.30198C99.6546 8.09135 99.096 7.95703 98.4366 7.95703C96.9805 7.95703 94.9902 8.7446 94.9902 11.7545C94.9902 14.7643 96.9836 15.5519 98.4366 15.5519C99.56 15.5519 100.393 15.1673 100.873 14.6636V15.3993C100.873 15.9274 100.494 17.1118 98.7968 17.1118C97.9207 17.1118 97.2125 16.8188 96.428 16.254L95.5306 17.933C96.0098 18.2565 96.9439 18.9647 98.9403 18.9647C102.262 18.9647 103.251 16.9928 103.251 15.3291V8.12187H100.873H100.876ZM100.873 11.7423C100.873 11.7423 100.873 11.7545 100.873 11.7636L100.87 11.7545C100.87 11.7545 100.87 11.7484 100.873 11.7453V11.7423Z" fill="#1D1D1B"/>
<path d="M114.672 16.4272H117.05V8.12102H114.672V16.4272ZM119.767 7.95312C118.881 7.95312 118.246 8.20649 117.813 8.48428V10.1205C118.03 9.93732 118.298 9.81522 118.625 9.81522C119.379 9.81522 120.298 10.3555 120.298 11.6437V16.4333H122.676V10.9203C122.676 9.56185 121.934 7.95923 119.767 7.95923V7.95312Z" fill="#1D1D1B"/>
<path d="M108.967 7.95422C106.21 7.95422 104.482 9.88958 104.482 12.2767C104.482 12.8811 104.592 13.455 104.803 13.977H107.398C107.053 13.5344 106.86 12.9391 106.86 12.2767C106.86 10.9183 107.672 9.81632 108.97 9.81632C110.267 9.81632 111.079 10.9183 111.079 12.2767C111.079 13.6351 110.267 14.7371 108.97 14.7371H105.209C105.963 15.8605 107.269 16.5962 108.97 16.5962C111.726 16.5962 113.454 14.6608 113.454 12.2737C113.454 9.88653 111.726 7.95117 108.97 7.95117L108.967 7.95422Z" fill="#1D1D1B"/>
<path d="M79.0967 10.8376C78.8891 10.7644 78.5991 10.6819 78.3549 10.6087L76.5172 12.4036C77.6253 12.7272 78.7548 13.005 78.7548 13.643C78.7548 14.2077 78.1351 14.6656 76.9751 14.6656C75.1588 14.6656 74.24 13.585 74.24 13.585L72.5977 15.1876C72.5977 15.1876 74.1789 16.6742 76.9751 16.6742C79.7713 16.6742 81.1938 15.1632 81.1938 13.6247C81.1938 12.0861 80.4215 11.3077 79.0936 10.8376H79.0967ZM74.9482 11.7961C75.1741 11.9305 75.4427 12.0403 75.7235 12.1411L77.5459 10.3645C76.4806 10.0439 75.4763 9.66847 75.4763 9.07016C75.4763 8.16353 76.5111 8.10554 77.1827 8.10554C77.8542 8.10554 78.7945 8.50237 79.173 8.77711L80.6626 7.32407C79.9056 6.55786 78.6143 6.11523 77.1094 6.11523C75.0855 6.11523 72.9426 6.93333 72.9426 9.07627C72.9426 11.0208 74.533 11.5489 74.9482 11.7931V11.7961Z" fill="#1D1D1B"/>
<path d="M102.932 26.0693V20.4922H104.028V22.3085C104.327 22.0338 104.724 21.8781 105.191 21.8781C106.293 21.8781 107.141 22.7481 107.141 24.0271C107.141 25.3062 106.296 26.1945 105.191 26.1945C104.684 26.1945 104.269 26.0113 103.963 25.6877L103.905 26.0693H102.935H102.932ZM105.023 25.239C105.737 25.239 106.061 24.9246 106.061 24.0271C106.061 23.1296 105.737 22.8244 105.023 22.8244C104.308 22.8244 103.985 23.148 103.985 24.0271C103.985 24.9063 104.308 25.239 105.023 25.239Z" fill="#1D1D1B"/>
<path d="M111.423 22.0039L109.772 26.4271C109.497 27.1567 109.082 27.581 108.154 27.581H107.671V26.5859H108.361C108.554 26.5859 108.67 26.5187 108.734 26.363L108.859 26.0883L107.266 22.007H108.386L109.14 24.1652C109.207 24.3483 109.274 24.5895 109.347 24.8367L110.303 22.007H111.423V22.0039Z" fill="#1D1D1B"/>
<path d="M113.54 20.4961H114.66V25.0933H117.298V26.0732H113.537V20.4961H113.54Z" fill="#1D1D1B"/>
<path d="M120.136 21.3499C119 21.3499 118.451 21.8719 118.451 23.2761C118.451 24.6803 118.997 25.2175 120.136 25.2175C121.131 25.2175 121.497 24.778 121.613 24.5124C121.662 24.3964 121.671 24.2956 121.671 24.1735V23.8988H120.054V22.9952H122.676V24.2071C122.676 24.3903 122.661 24.5643 122.593 24.7535C122.401 25.2755 121.574 26.1974 120.136 26.1974C118.485 26.1974 117.34 25.01 117.34 23.2761C117.34 21.5422 118.527 20.373 120.136 20.373C121.415 20.373 122.386 21.0538 122.676 22.3053H121.613C121.424 21.5819 121.04 21.3499 120.136 21.3499Z" fill="#1D1D1B"/>
</svg>
