<svg width="183" height="16" viewBox="0 0 183 16" fill="none" xmlns="http://www.w3.org/2000/svg">
<path d="M5.952 12L3.712 6.624L3.296 5.536H3.28L3.312 6.656V12H1.2V1.248H3.52L6.496 8.576L6.88 9.584H6.912L7.296 8.576L10.272 1.248H12.576V12H10.464V6.656L10.496 5.536H10.48L10.08 6.624L7.84 12H5.952ZM21.1253 12H19.5733L19.3013 11.408C18.7413 11.872 17.9893 12.16 17.0933 12.16C15.2853 12.16 14.4213 11.264 14.4213 9.616C14.4213 7.952 15.4293 7.152 17.9093 7.152C18.2133 7.152 18.5973 7.152 19.0453 7.2V7.072C19.0453 6.112 18.6933 5.728 17.6053 5.728C16.9173 5.728 16.1013 5.92 15.2853 6.352L14.6933 4.896C15.6533 4.4 16.6613 4.096 17.7973 4.096C20.2933 4.096 21.1253 4.88 21.1253 7.36V12ZM17.5413 10.528C17.9893 10.528 18.6133 10.288 19.0453 9.984V8.752C18.7093 8.704 18.3413 8.688 17.8453 8.688C16.8373 8.688 16.5013 8.928 16.5013 9.568C16.5013 10.192 16.8533 10.528 17.5413 10.528ZM24.976 6.336C24.976 6.576 25.12 6.784 25.616 6.992C26.176 7.232 26.784 7.344 27.408 7.584C28.56 8.016 29.216 8.608 29.216 9.824C29.216 11.36 28.208 12.16 25.84 12.16C24.624 12.16 23.6 11.904 22.64 11.44L23.328 9.872C24.048 10.272 24.88 10.496 25.84 10.496C26.784 10.496 27.136 10.288 27.136 9.856C27.136 9.552 26.832 9.28 26.24 9.056C25.728 8.88 25.2 8.8 24.608 8.56C23.52 8.16 22.896 7.616 22.896 6.48C22.896 4.96 23.92 4.096 26.24 4.096C27.392 4.096 28.32 4.384 29.072 4.816L28.384 6.368C27.712 5.968 27.056 5.76 26.4 5.76C25.392 5.76 24.976 5.968 24.976 6.336ZM32.8354 6.336C32.8354 6.576 32.9794 6.784 33.4754 6.992C34.0354 7.232 34.6434 7.344 35.2674 7.584C36.4194 8.016 37.0754 8.608 37.0754 9.824C37.0754 11.36 36.0674 12.16 33.6994 12.16C32.4834 12.16 31.4594 11.904 30.4994 11.44L31.1874 9.872C31.9074 10.272 32.7394 10.496 33.6994 10.496C34.6434 10.496 34.9954 10.288 34.9954 9.856C34.9954 9.552 34.6914 9.28 34.0994 9.056C33.5874 8.88 33.0594 8.8 32.4674 8.56C31.3794 8.16 30.7554 7.616 30.7554 6.48C30.7554 4.96 31.7794 4.096 34.0994 4.096C35.2514 4.096 36.1794 4.384 36.9314 4.816L36.2434 6.368C35.5714 5.968 34.9154 5.76 34.2594 5.76C33.2514 5.76 32.8354 5.968 32.8354 6.336ZM45.0628 12H43.5108L43.2388 11.408C42.6788 11.872 41.9268 12.16 41.0308 12.16C39.2228 12.16 38.3588 11.264 38.3588 9.616C38.3588 7.952 39.3668 7.152 41.8468 7.152C42.1508 7.152 42.5348 7.152 42.9828 7.2V7.072C42.9828 6.112 42.6308 5.728 41.5428 5.728C40.8548 5.728 40.0388 5.92 39.2228 6.352L38.6308 4.896C39.5908 4.4 40.5988 4.096 41.7348 4.096C44.2308 4.096 45.0628 4.88 45.0628 7.36V12ZM41.4788 10.528C41.9268 10.528 42.5508 10.288 42.9828 9.984V8.752C42.6468 8.704 42.2788 8.688 41.7828 8.688C40.7748 8.688 40.4388 8.928 40.4388 9.568C40.4388 10.192 40.7908 10.528 41.4788 10.528ZM53.7615 4.256V11.936C53.7615 14.432 52.4655 15.488 49.9055 15.488C48.9455 15.488 48.0175 15.328 47.2495 15.024L47.6655 13.424C48.4175 13.696 49.1855 13.84 49.8255 13.84C51.1695 13.84 51.6815 13.376 51.6815 12.176V11.52C51.2495 11.888 50.5135 12.16 49.6655 12.16C47.7935 12.16 46.5775 10.896 46.5775 8.128C46.5775 5.36 47.8415 4.096 50.0655 4.096C50.8175 4.096 51.4415 4.32 51.9375 4.784L52.1775 4.256H53.7615ZM50.3055 5.728C49.2175 5.728 48.6575 6.384 48.6575 8.128C48.6575 9.856 49.2335 10.528 50.3215 10.528C50.8335 10.528 51.2815 10.368 51.6815 10.064V6.176C51.2815 5.872 50.8335 5.728 50.3055 5.728ZM59.3428 12.16C56.5908 12.16 55.3588 10.896 55.3588 8.128C55.3588 5.328 56.4948 4.096 58.9427 4.096C61.3748 4.096 62.5108 5.328 62.5108 8.128V8.752H57.5028C57.6148 9.92 58.1268 10.496 59.3428 10.496C60.2868 10.496 60.9908 10.256 61.8868 9.744L62.4468 11.312C61.6148 11.808 60.5588 12.16 59.3428 12.16ZM60.3668 7.2C60.2548 6.32 59.8548 5.76 58.9427 5.76C58.0468 5.76 57.6308 6.32 57.5188 7.2H60.3668ZM73.7046 10.448C74.7446 10.448 75.7846 10.144 76.7446 9.632L77.2726 11.296C76.2486 11.856 74.9686 12.16 73.6886 12.16C70.0886 12.16 68.4086 10.16 68.4086 6.624C68.4086 2.832 70.1046 1.088 73.4486 1.088C75.0486 1.088 76.4086 1.712 77.2246 2.592L76.0566 3.904C75.4166 3.2 74.5526 2.8 73.4486 2.8C71.5126 2.8 70.5206 3.984 70.5206 6.624C70.5206 9.136 71.5126 10.448 73.7046 10.448ZM80.8681 4.736C81.4281 4.304 82.2121 4.08 83.0281 4.08C84.7881 4.08 85.6681 4.992 85.6681 6.816V12H83.5881V7.184C83.5881 6.096 83.2841 5.744 82.5321 5.744C81.9081 5.744 81.4281 5.888 80.8681 6.192V12H78.7881V0.927999L80.8681 0.704V4.736ZM93.8909 12H92.3389L92.0669 11.408C91.5069 11.872 90.7549 12.16 89.8589 12.16C88.0509 12.16 87.1869 11.264 87.1869 9.616C87.1869 7.952 88.1949 7.152 90.6749 7.152C90.9789 7.152 91.3629 7.152 91.8109 7.2V7.072C91.8109 6.112 91.4589 5.728 90.3709 5.728C89.6829 5.728 88.8669 5.92 88.0509 6.352L87.4589 4.896C88.4189 4.4 89.4269 4.096 90.5629 4.096C93.0589 4.096 93.8909 4.88 93.8909 7.36V12ZM90.3069 10.528C90.7549 10.528 91.3789 10.288 91.8109 9.984V8.752C91.4749 8.704 91.1069 8.688 90.6109 8.688C89.6029 8.688 89.2669 8.928 89.2669 9.568C89.2669 10.192 89.6189 10.528 90.3069 10.528ZM95.9016 4.256H97.9816V12H95.9016V4.256ZM95.9016 0.927999H97.9816V2.784H95.9016V0.927999ZM101.685 4.256L101.877 5.072C102.469 4.448 103.221 4.096 104.069 4.096C104.501 4.096 104.885 4.176 105.317 4.384V6.112C104.917 5.904 104.517 5.76 104.005 5.76C103.285 5.76 102.629 6.096 102.165 6.528V12H100.085V4.256H101.685Z" fill="#F6F3EB"/>
</svg>
