<svg width="183" height="16" viewBox="0 0 183 16" fill="none" xmlns="http://www.w3.org/2000/svg">
<path d="M3.95849 15.9847C1.32923 15.9847 0 14.6803 0 12.1151V0.738281H2.68768V4.28901H7.31809L6.17874 6.60785H2.68768V12.1151C2.68768 13.1731 3.22814 13.7238 4.17759 13.7238H7.40573L6.23717 15.9992H3.94388L3.95849 15.9847Z" fill="white"/>
<path d="M9.2168 2.34783V0H11.9045V2.34783H9.2168ZM9.2168 16V4.28986H11.9045V15.9855H9.2168V16Z" fill="white"/>
<path d="M14.6504 2.34783V0H17.3381V2.34783H14.6504ZM14.6504 16V4.28986H17.3381V15.9855H14.6504V16Z" fill="white"/>
<path d="M22.5099 4.28906V11.9847C22.5099 13.0717 22.9627 13.6369 24.029 13.6369H27.5054V4.28906H30.1931V15.9847H23.5031C21.093 15.9847 19.793 14.7528 19.793 12.1151V4.28906H22.5099Z" fill="white"/>
<path d="M40.2282 15.9847V8.23109C40.2282 7.14413 39.7754 6.57892 38.7091 6.57892H35.2326V15.9847H32.5449V4.28906H39.2349C41.6451 4.28906 42.9451 5.52095 42.9451 8.15863V15.9847H40.2282Z" fill="white"/>
<path d="M48.9189 7.63649L48.9628 8.30316C49.2549 8.08577 49.5616 7.91185 49.883 7.76693C50.4673 7.54954 51.0223 7.43359 51.5628 7.43359C52.1032 7.43359 52.5561 7.50606 52.892 7.63649C53.228 7.78142 53.4763 7.96983 53.6662 8.23069L53.71 8.30316C54.0168 8.07127 54.3527 7.89736 54.7179 7.76693C55.0392 7.65099 55.346 7.57852 55.6381 7.52055C55.9303 7.46258 56.2224 7.43359 56.5145 7.43359C57.055 7.43359 57.4932 7.50606 57.8438 7.63649C58.1943 7.78142 58.4719 7.96983 58.6764 8.24519C58.8809 8.50606 59.0123 8.83939 59.1 9.2162C59.173 9.59301 59.2168 10.0278 59.2168 10.5061V15.9843H57.3325V10.8974C57.3325 10.6075 57.3325 10.3466 57.3033 10.1003C57.2741 9.85388 57.2303 9.65098 57.1426 9.47707C57.055 9.30316 56.9235 9.15823 56.7483 9.05678C56.573 8.95533 56.3393 8.91185 56.0325 8.91185C55.682 8.91185 55.3752 8.95533 55.0831 9.05678C54.8055 9.14374 54.5426 9.27417 54.3235 9.43359L54.1336 9.56403C54.1628 9.85388 54.192 10.1727 54.192 10.5061V15.9843H52.3224V10.8974C52.3224 10.6075 52.3224 10.3466 52.2931 10.1003C52.2785 9.85388 52.2201 9.65098 52.1325 9.47707C52.0448 9.30316 51.9134 9.15823 51.7381 9.05678C51.5628 8.95533 51.3145 8.91185 51.0223 8.91185C50.6718 8.91185 50.365 8.95533 50.0875 9.05678C49.81 9.14374 49.5616 9.27417 49.3425 9.43359L49.2111 9.52055V15.9988H47.3414V9.86838L47.1953 7.65099H48.9335L48.9189 7.63649Z" fill="white"/>
<path d="M61.0723 4.11523H62.9712V5.7819H61.0723V4.11523ZM61.0869 7.63697H62.9566V15.9848H61.0869V7.63697Z" fill="white"/>
<path d="M66.5351 7.63649L66.6081 8.30316C66.7688 8.18722 66.9295 8.10026 67.1048 7.99881C67.2801 7.89736 67.4699 7.83939 67.6598 7.76693C68.3025 7.54954 68.9014 7.43359 69.4565 7.43359C70.0116 7.43359 70.4644 7.50606 70.8295 7.63649C71.1947 7.76693 71.4723 7.96983 71.6768 8.23069C71.8812 8.49156 72.0273 8.81041 72.1004 9.18722C72.1734 9.56403 72.2172 9.99881 72.2172 10.4916V15.9698H70.3475V10.8829C70.3475 10.593 70.3329 10.3321 70.2891 10.0858C70.2599 9.83939 70.1868 9.63649 70.0846 9.46258C69.9823 9.28867 69.8363 9.14374 69.6464 9.04229C69.4565 8.94084 69.2082 8.89736 68.9014 8.89736C68.5509 8.89736 68.2149 8.94084 67.9228 9.04229C67.6306 9.12925 67.3677 9.25968 67.1486 9.4191L66.8126 9.63649V15.9843H64.9429V9.85388L64.7969 7.63649H66.5351Z" fill="white"/>
<path d="M74.0859 4.11523H75.9848V5.7819H74.0859V4.11523ZM74.1005 7.63697H75.9702V15.9848H74.1005V7.63697Z" fill="white"/>
</svg>
