<svg width="183" height="16" viewBox="0 0 183 16" fill="none" xmlns="http://www.w3.org/2000/svg">
<path d="M73.9599 15.9862C71.3297 15.9862 70 14.6819 70 12.1167V0.740234H72.6886V4.29086H77.3207L76.181 6.60964H72.6886V12.1167C72.6886 13.1747 73.2293 13.7254 74.1791 13.7254H77.4084L76.2394 16.0007H73.9453L73.9599 15.9862Z" fill="white"/>
<path d="M79.2207 2.34776V0H81.9093V2.34776H79.2207ZM79.2207 15.9996V4.28974H81.9093V15.9851H79.2207V15.9996Z" fill="white"/>
<path d="M84.6562 2.34776V0H87.3449V2.34776H84.6562ZM84.6562 15.9996V4.28974H87.3449V15.9851H84.6562V15.9996Z" fill="white"/>
<path d="M92.5187 4.28906V11.9845C92.5187 13.0714 92.9716 13.6366 94.0383 13.6366H97.516V4.28906H100.205V15.9844H93.5123C91.1013 15.9844 89.8008 14.7525 89.8008 12.1149V4.28906H92.5187Z" fill="white"/>
<path d="M110.241 15.9844V8.23098C110.241 7.14406 109.788 6.57886 108.721 6.57886H105.243V15.9844H102.555V4.28906H109.247C111.658 4.28906 112.959 5.52091 112.959 8.15852V15.9844H110.241Z" fill="white"/>
</svg>
