<svg width="183" height="16" viewBox="0 0 183 16" fill="none" xmlns="http://www.w3.org/2000/svg">
<path d="M6.56 3.248H8.592L10.416 9.68L10.768 11.184H10.816L11.12 9.68L12.784 3.248H14.912L11.808 14H9.744L7.952 7.584L7.616 6.064H7.552L7.184 7.568L5.392 14H3.328L0.224 3.248H2.352L4.016 9.68L4.336 11.168H4.384L4.72 9.664L6.56 3.248ZM16.2766 6.256H18.3566V14H16.2766V6.256ZM16.2766 2.928H18.3566V4.784H16.2766V2.928ZM22.316 6.896C22.94 6.4 23.74 6.08 24.7 6.08C26.46 6.08 27.34 6.992 27.34 8.832V14H25.26V9.2C25.26 8.112 24.956 7.744 24.204 7.744C23.58 7.744 23.1 7.904 22.54 8.208V14H20.46V6.256H22.012L22.316 6.896ZM32.8428 14.16C30.0908 14.16 28.8588 12.896 28.8588 10.128C28.8588 7.328 29.9948 6.096 32.4427 6.096C34.8748 6.096 36.0108 7.328 36.0108 10.128V10.752H31.0028C31.1148 11.92 31.6268 12.496 32.8428 12.496C33.7868 12.496 34.4908 12.256 35.3868 11.744L35.9468 13.312C35.1148 13.808 34.0588 14.16 32.8428 14.16ZM33.8668 9.2C33.7548 8.32 33.3548 7.76 32.4427 7.76C31.5468 7.76 31.1308 8.32 31.0188 9.2H33.8668ZM47.2046 12.448C48.2446 12.448 49.2846 12.144 50.2446 11.632L50.7726 13.296C49.7486 13.856 48.4686 14.16 47.1886 14.16C43.5886 14.16 41.9086 12.16 41.9086 8.624C41.9086 4.832 43.6046 3.088 46.9486 3.088C48.5486 3.088 49.9086 3.712 50.7246 4.592L49.5566 5.904C48.9166 5.2 48.0526 4.8 46.9486 4.8C45.0126 4.8 44.0206 5.984 44.0206 8.624C44.0206 11.136 45.0126 12.448 47.2046 12.448ZM55.9521 14.16C53.2001 14.16 51.9681 12.896 51.9681 10.128C51.9681 7.328 53.1041 6.096 55.5521 6.096C57.9841 6.096 59.1201 7.328 59.1201 10.128V10.752H54.1121C54.2241 11.92 54.7361 12.496 55.9521 12.496C56.8961 12.496 57.6001 12.256 58.4961 11.744L59.0561 13.312C58.2241 13.808 57.1681 14.16 55.9521 14.16ZM56.9761 9.2C56.8641 8.32 56.4641 7.76 55.5521 7.76C54.6561 7.76 54.2401 8.32 54.1281 9.2H56.9761ZM62.9656 2.704V11.696C62.9656 12.32 63.1256 12.432 63.7496 12.432V14.112C63.5096 14.16 63.3976 14.16 63.0936 14.16C61.6216 14.16 60.8856 13.408 60.8856 11.696V2.928L62.9656 2.704ZM67.325 2.704V11.696C67.325 12.32 67.485 12.432 68.109 12.432V14.112C67.869 14.16 67.757 14.16 67.453 14.16C65.981 14.16 65.245 13.408 65.245 11.696V2.928L67.325 2.704ZM76.0471 14H74.4951L74.2231 13.408C73.6631 13.872 72.9111 14.16 72.0151 14.16C70.2071 14.16 69.3431 13.264 69.3431 11.616C69.3431 9.952 70.3511 9.152 72.8311 9.152C73.1351 9.152 73.5191 9.152 73.9671 9.2V9.072C73.9671 8.112 73.6151 7.728 72.5271 7.728C71.8391 7.728 71.0231 7.92 70.2071 8.352L69.6151 6.896C70.5751 6.4 71.5831 6.096 72.7191 6.096C75.2151 6.096 76.0471 6.88 76.0471 9.36V14ZM72.4631 12.528C72.9111 12.528 73.5351 12.288 73.9671 11.984V10.752C73.6311 10.704 73.2631 10.688 72.7671 10.688C71.7591 10.688 71.4231 10.928 71.4231 11.568C71.4231 12.192 71.7751 12.528 72.4631 12.528ZM79.4819 6.256L79.6739 7.072C80.2659 6.448 81.0179 6.096 81.8659 6.096C82.2979 6.096 82.6819 6.176 83.1139 6.384V8.112C82.7139 7.904 82.3139 7.76 81.8019 7.76C81.0819 7.76 80.4259 8.096 79.9619 8.528V14H77.8819V6.256H79.4819Z" fill="#F6F3EB"/>
</svg>
