<svg width="183" height="16" viewBox="0 0 183 16" fill="none" xmlns="http://www.w3.org/2000/svg">
<path d="M10.208 7.624C10.208 11.272 8.208 13 4.608 13H1.2V2.248H4.608C8.192 2.248 10.208 4.024 10.208 7.624ZM3.312 3.96V11.288H4.592C6.784 11.288 8.096 10.168 8.096 7.624C8.096 5.08 6.784 3.96 4.592 3.96H3.312ZM12.1048 5.256H14.1848V13H12.1048V5.256ZM12.1048 1.928H14.1848V3.784H12.1048V1.928ZM18.3041 7.336C18.3041 7.576 18.4481 7.784 18.9441 7.992C19.5041 8.232 20.1121 8.344 20.7361 8.584C21.8881 9.016 22.5441 9.608 22.5441 10.824C22.5441 12.36 21.5361 13.16 19.1681 13.16C17.9521 13.16 16.9281 12.904 15.9681 12.44L16.6561 10.872C17.3761 11.272 18.2081 11.496 19.1681 11.496C20.1121 11.496 20.4641 11.288 20.4641 10.856C20.4641 10.552 20.1601 10.28 19.5681 10.056C19.0561 9.88 18.5281 9.8 17.9361 9.56C16.8481 9.16 16.2241 8.616 16.2241 7.48C16.2241 5.96 17.2481 5.096 19.5681 5.096C20.7201 5.096 21.6481 5.384 22.4001 5.816L21.7121 7.368C21.0401 6.968 20.3841 6.76 19.7281 6.76C18.7201 6.76 18.3041 6.968 18.3041 7.336ZM26.2275 5.736C26.7875 5.304 27.5715 5.08 28.3875 5.08C30.1475 5.08 31.0275 5.992 31.0275 7.816V13H28.9475V8.184C28.9475 7.096 28.6435 6.744 27.8915 6.744C27.2675 6.744 26.7875 6.888 26.2275 7.192V13H24.1475V1.928L26.2275 1.704V5.736ZM38.7543 5.256L39.8103 9.176L40.1463 10.584H40.1783L40.4343 9.176L41.3463 5.256H43.3783L41.1543 13H39.1063L38.1303 9.272L37.7623 7.704H37.7303L37.3783 9.272L36.4023 13H34.3703L32.1303 5.256H34.1783L35.0903 9.176L35.3623 10.584H35.3943L35.7143 9.176L36.7543 5.256H38.7543ZM50.7815 13H49.2295L48.9575 12.408C48.3975 12.872 47.6455 13.16 46.7495 13.16C44.9415 13.16 44.0775 12.264 44.0775 10.616C44.0775 8.952 45.0855 8.152 47.5655 8.152C47.8695 8.152 48.2535 8.152 48.7015 8.2V8.072C48.7015 7.112 48.3495 6.728 47.2615 6.728C46.5735 6.728 45.7575 6.92 44.9415 7.352L44.3495 5.896C45.3095 5.4 46.3175 5.096 47.4535 5.096C49.9495 5.096 50.7815 5.88 50.7815 8.36V13ZM47.1975 11.528C47.6455 11.528 48.2695 11.288 48.7015 10.984V9.752C48.3655 9.704 47.9975 9.688 47.5015 9.688C46.4935 9.688 46.1575 9.928 46.1575 10.568C46.1575 11.192 46.5095 11.528 47.1975 11.528ZM54.6323 7.336C54.6323 7.576 54.7763 7.784 55.2723 7.992C55.8323 8.232 56.4403 8.344 57.0643 8.584C58.2163 9.016 58.8723 9.608 58.8723 10.824C58.8723 12.36 57.8643 13.16 55.4963 13.16C54.2803 13.16 53.2563 12.904 52.2963 12.44L52.9843 10.872C53.7043 11.272 54.5363 11.496 55.4963 11.496C56.4403 11.496 56.7923 11.288 56.7923 10.856C56.7923 10.552 56.4883 10.28 55.8963 10.056C55.3843 9.88 54.8563 9.8 54.2643 9.56C53.1763 9.16 52.5523 8.616 52.5523 7.48C52.5523 5.96 53.5763 5.096 55.8963 5.096C57.0483 5.096 57.9763 5.384 58.7283 5.816L58.0403 7.368C57.3683 6.968 56.7123 6.76 56.0563 6.76C55.0483 6.76 54.6323 6.968 54.6323 7.336ZM62.5556 5.736C63.1156 5.304 63.8996 5.08 64.7156 5.08C66.4756 5.08 67.3556 5.992 67.3556 7.816V13H65.2756V8.184C65.2756 7.096 64.9716 6.744 64.2196 6.744C63.5956 6.744 63.1156 6.888 62.5556 7.192V13H60.4756V1.928L62.5556 1.704V5.736ZM72.8584 13.16C70.1064 13.16 68.8744 11.896 68.8744 9.128C68.8744 6.328 70.0104 5.096 72.4584 5.096C74.8904 5.096 76.0264 6.328 76.0264 9.128V9.752H71.0184C71.1304 10.92 71.6424 11.496 72.8584 11.496C73.8024 11.496 74.5064 11.256 75.4024 10.744L75.9624 12.312C75.1304 12.808 74.0744 13.16 72.8584 13.16ZM73.8824 8.2C73.7704 7.32 73.3704 6.76 72.4584 6.76C71.5624 6.76 71.1464 7.32 71.0344 8.2H73.8824ZM79.2319 5.256L79.4239 6.072C80.0159 5.448 80.7679 5.096 81.6159 5.096C82.0479 5.096 82.4319 5.176 82.8639 5.384V7.112C82.4639 6.904 82.0639 6.76 81.5519 6.76C80.8319 6.76 80.1759 7.096 79.7119 7.528V13H77.6319V5.256H79.2319Z" fill="#F6F3EB"/>
</svg>
