<svg width="183" height="16" viewBox="0 0 183 16" fill="none" xmlns="http://www.w3.org/2000/svg">
<path d="M21 15.9065V0H28.1309C31.3082 0 33.0413 1.92523 33.0413 5.14019C33.0413 8.35514 31.3082 10.2991 28.1128 10.2991H23.6357V15.9065H21ZM23.6357 7.88785H27.9865C29.6293 7.88785 30.3514 6.76635 30.3514 5.14019C30.3514 3.51402 29.521 2.41121 27.9865 2.41121H23.6357V7.88785Z" fill="white"/>
<path d="M37.3374 4.28125V11.9261C37.3374 13.0102 37.7707 13.571 38.7817 13.571H42.1034V4.28125H44.6669V15.9074H38.2942C36.0015 15.9074 34.7559 14.6738 34.7559 12.057V4.28125H37.3374Z" fill="white"/>
<path d="M46.9243 15.9074V8.28125C46.9243 6.01957 48.3505 4.28125 50.8598 4.28125H53.983L52.8637 6.58032H51.1487C50.1016 6.58032 49.4698 7.2719 49.4698 8.35602V15.9074H46.9062H46.9243Z" fill="white"/>
<path d="M54.9941 2.33645V0H57.5576V2.33645H54.9941ZM54.9941 15.9065V4.28037H57.5576V15.9065H54.9941Z" fill="white"/>
<path d="M67.0522 0H72.0348L70.8433 2.42991H67.5758C64.3082 2.42991 62.6112 4.4486 62.6112 7.94392C62.6112 11.4393 64.3082 13.4579 67.5758 13.4579H72.0348L70.8433 15.8878H67.0522C63.0625 15.8318 59.8672 13.0093 59.8672 7.94392C59.8672 2.8785 63.0806 0.0560748 67.0522 0Z" fill="white"/>
<path d="M76.5842 15.9066C74.2554 15.9066 73.0098 14.3365 73.0098 12.3926C73.0098 10.4486 74.2735 8.87854 76.5842 8.87854H80.7364V8.11219C80.7364 7.06546 80.2309 6.48602 79.1658 6.48602H73.8583L74.9234 4.26172H79.1658C81.8376 4.26172 83.2457 5.6262 83.2457 8.11219V15.8879H76.5842V15.9066ZM76.8009 11.0281C75.9704 11.0281 75.5913 11.6636 75.5913 12.3739C75.5913 13.0841 75.9885 13.701 76.7828 13.701H80.7364V11.0281H76.8009Z" fill="white"/>
<path d="M85.4673 15.9074V8.28125C85.4673 6.01957 86.8934 4.28125 89.4028 4.28125H92.5259L91.4067 6.58032H89.6916C88.6446 6.58032 88.0127 7.2719 88.0127 8.35602V15.9074H85.4492H85.4673Z" fill="white"/>
<path d="M97.5629 15.9068C94.1509 15.9068 92.2734 13.2526 92.2734 9.9442C92.2734 6.63579 94.2412 3.96289 97.7615 3.96289C101.282 3.96289 103.25 6.41149 103.25 10.0377V11.2339H94.9092C95.0897 12.7292 96.227 13.6638 97.6171 13.6638H102.546L101.462 15.8881H97.5449L97.5629 15.9068ZM100.65 9.047C100.506 7.23392 99.5668 6.22457 97.7796 6.22457C96.1006 6.22457 94.9453 7.45822 94.8911 9.047H100.65Z" fill="white"/>
<path d="M103.285 0H106.318V0.635514H105.199V3.98131H104.441V0.635514H103.303V0H103.285Z" fill="white"/>
<path d="M106.752 0H108.106L108.828 3.34579H108.864L109.55 0H110.868V3.98131H110.11V0.616822H110.056L109.334 3.96262H108.323L107.582 0.616822H107.528V3.96262H106.752V0Z" fill="white"/>
<path d="M114.28 0H113.955V15.8878H114.28V0Z" fill="white"/>
<path d="M122.421 15.8874L121.79 13.9809H119.082L118.45 15.8874H117.312L119.714 8.99023H121.176L123.559 15.8874H122.403H122.421ZM120.4 9.85005L119.371 13.1024H121.501L120.49 9.85005H120.4Z" fill="white"/>
<path d="M126.266 15.9996C125.851 15.9996 125.49 15.9435 125.201 15.85C124.912 15.7379 124.677 15.5884 124.515 15.3828C124.352 15.1771 124.208 14.8968 124.136 14.5977C124.063 14.28 124.027 13.9061 124.027 13.4762C124.027 11.8127 124.768 10.9902 126.23 10.9902C126.627 10.9902 126.952 11.0463 127.205 11.1585C127.457 11.2706 127.656 11.4388 127.8 11.6444C127.945 11.85 128.035 12.1117 128.107 12.3921C128.161 12.6725 128.198 12.9902 128.198 13.3267V13.7566H125.111C125.111 14.2426 125.201 14.579 125.363 14.8033C125.58 15.0837 125.923 15.2145 126.428 15.2145C126.771 15.2145 127.06 15.1771 127.295 15.0837C127.53 14.9902 127.728 14.9155 127.909 14.822L128.125 15.5136C128.125 15.5136 127.927 15.6257 127.8 15.6818C127.656 15.7379 127.512 15.794 127.349 15.85C127.187 15.9061 127.006 15.9435 126.826 15.9622C126.645 15.9809 126.464 15.9996 126.284 15.9996H126.266ZM127.114 13.0089C127.114 12.5603 127.042 12.2239 126.898 12.0183C126.753 11.8127 126.519 11.7005 126.212 11.7005C125.869 11.7005 125.616 11.7753 125.454 11.9435C125.291 12.1117 125.183 12.3547 125.129 12.6912L125.092 13.0089H127.096H127.114Z" fill="white"/>
<path d="M129.986 11.1024L130.058 11.6818C130.202 11.4762 130.383 11.3267 130.563 11.2519C130.87 11.065 131.177 10.9902 131.502 10.9902C131.646 10.9902 131.791 10.9902 131.899 11.0276C132.026 11.065 132.116 11.0837 132.206 11.1211L131.953 11.9996C131.809 11.9061 131.61 11.8687 131.376 11.8687C131.105 11.8687 130.852 11.9435 130.636 12.1117C130.563 12.1678 130.473 12.2239 130.419 12.28C130.365 12.336 130.274 12.4108 130.202 12.4856V15.9061H129.173V12.4482L129.047 11.1024H130.004H129.986Z" fill="white"/>
<path d="M134.445 15.9999C134.029 15.9999 133.686 15.9438 133.416 15.8316C133.145 15.7195 132.928 15.5513 132.766 15.327C132.603 15.1027 132.495 14.841 132.423 14.5232C132.351 14.2055 132.314 13.8503 132.314 13.4578C132.314 12.598 132.495 11.9812 132.874 11.5699C133.253 11.1587 133.849 10.9531 134.679 10.9531C135.077 10.9531 135.42 11.0092 135.69 11.1213C135.961 11.2335 136.178 11.4017 136.358 11.626C136.539 11.8503 136.647 12.112 136.719 12.4298C136.792 12.7475 136.828 13.1027 136.828 13.4952C136.828 14.3363 136.629 14.9718 136.25 15.3643C135.871 15.7756 135.275 15.9625 134.463 15.9625L134.445 15.9999ZM134.445 15.2335C134.697 15.2335 134.914 15.1961 135.077 15.1213C135.239 15.0466 135.383 14.9344 135.474 14.7849C135.582 14.6354 135.636 14.4485 135.69 14.2242C135.726 13.9999 135.745 13.7382 135.745 13.4391C135.745 13.2148 135.744 12.9905 135.69 12.7849C135.654 12.5793 135.6 12.3924 135.528 12.2428C135.438 12.0933 135.329 11.9625 135.203 11.869C135.058 11.7756 134.896 11.7382 134.661 11.7382C134.409 11.7382 134.21 11.7756 134.029 11.8503C133.849 11.9251 133.723 12.0372 133.632 12.2055C133.524 12.355 133.47 12.5606 133.416 12.7849C133.38 13.0092 133.362 13.2709 133.362 13.5699C133.362 13.8129 133.362 14.0185 133.398 14.2242C133.434 14.4298 133.47 14.598 133.56 14.7662C133.632 14.9157 133.759 15.0466 133.885 15.1213C134.029 15.2148 134.21 15.2522 134.427 15.2522L134.445 15.2335Z" fill="white"/>
<path d="M141.232 8.99023V9.86874H139.21V15.8874H138.145V9.86874H136.123V8.99023H141.232Z" fill="white"/>
<path d="M142.66 15.9999C142.244 15.9999 141.901 15.9438 141.631 15.8316C141.36 15.7195 141.143 15.5513 140.981 15.327C140.818 15.1027 140.71 14.841 140.638 14.5232C140.565 14.2055 140.529 13.8503 140.529 13.4578C140.529 12.598 140.71 11.9812 141.089 11.5699C141.468 11.1587 142.064 10.9531 142.894 10.9531C143.291 10.9531 143.634 11.0092 143.905 11.1213C144.176 11.2335 144.393 11.4017 144.573 11.626C144.754 11.8503 144.862 12.112 144.934 12.4298C145.006 12.7475 145.043 13.1027 145.043 13.4952C145.043 14.3363 144.844 14.9718 144.465 15.3643C144.086 15.7756 143.49 15.9625 142.678 15.9625L142.66 15.9999ZM142.66 15.2335C142.912 15.2335 143.129 15.1961 143.291 15.1213C143.454 15.0466 143.598 14.9344 143.689 14.7849C143.797 14.6354 143.851 14.4485 143.905 14.2242C143.941 13.9999 143.959 13.7382 143.959 13.4391C143.959 13.2148 143.959 12.9905 143.905 12.7849C143.869 12.5793 143.815 12.3924 143.743 12.2428C143.652 12.0933 143.544 11.9625 143.418 11.869C143.273 11.7756 143.111 11.7382 142.876 11.7382C142.623 11.7382 142.425 11.7756 142.244 11.8503C142.064 11.9251 141.937 12.0372 141.847 12.2055C141.739 12.355 141.685 12.5606 141.631 12.7849C141.594 13.0092 141.576 13.2709 141.576 13.5699C141.576 13.8129 141.576 14.0185 141.612 14.2242C141.649 14.4298 141.685 14.598 141.775 14.7662C141.847 14.9157 141.974 15.0466 142.1 15.1213C142.244 15.2148 142.425 15.2522 142.641 15.2522L142.66 15.2335Z" fill="white"/>
<path d="M149.717 11.1016L150.457 15.1389H150.547L151.45 11.1016H152.479L151.215 15.8866H149.771L149.031 11.8492H148.922L148.164 15.8866H146.702L145.492 11.1016H146.575L147.442 15.1389H147.532L148.29 11.1016H149.735H149.717Z" fill="white"/>
<path d="M155.061 15.9996C154.646 15.9996 154.285 15.9435 153.996 15.85C153.707 15.7379 153.472 15.5884 153.31 15.3828C153.147 15.1771 153.003 14.8968 152.931 14.5977C152.858 14.28 152.822 13.9061 152.822 13.4762C152.822 11.8127 153.562 10.9902 155.025 10.9902C155.422 10.9902 155.747 11.0463 156 11.1585C156.252 11.2706 156.451 11.4388 156.595 11.6444C156.74 11.85 156.83 12.1117 156.902 12.3921C156.956 12.6725 156.992 12.9902 156.992 13.3267V13.7566H153.905C153.905 14.2426 153.996 14.579 154.158 14.8033C154.375 15.0837 154.718 15.2145 155.223 15.2145C155.566 15.2145 155.855 15.1771 156.09 15.0837C156.325 14.9902 156.523 14.9155 156.704 14.822L156.92 15.5136C156.92 15.5136 156.722 15.6257 156.595 15.6818C156.451 15.7379 156.306 15.794 156.144 15.85C155.982 15.9061 155.801 15.9435 155.62 15.9622C155.44 15.9809 155.259 15.9996 155.079 15.9996H155.061ZM155.909 13.0089C155.909 12.5603 155.837 12.2239 155.693 12.0183C155.548 11.8127 155.314 11.7005 155.007 11.7005C154.664 11.7005 154.411 11.7753 154.248 11.9435C154.086 12.1117 153.978 12.3547 153.923 12.6912L153.887 13.0089H155.891H155.909Z" fill="white"/>
<path d="M158.798 11.1024L158.87 11.6818C159.015 11.4762 159.195 11.3267 159.376 11.2519C159.683 11.065 159.99 10.9902 160.315 10.9902C160.459 10.9902 160.603 10.9902 160.712 11.0276C160.838 11.065 160.928 11.0837 161.019 11.1211L160.766 11.9996C160.621 11.9061 160.423 11.8687 160.188 11.8687C159.917 11.8687 159.665 11.9435 159.448 12.1117C159.376 12.1678 159.286 12.2239 159.231 12.28C159.177 12.336 159.087 12.4108 159.015 12.4856V15.9061H157.986V12.4482L157.859 11.1024H158.816H158.798Z" fill="white"/>
</svg>
