<svg width="183" height="16" viewBox="0 0 183 16" fill="none" xmlns="http://www.w3.org/2000/svg">
<path d="M115.334 0V0.634777H114.158V3.97669H113.373V0.634777H112.197V0H115.334Z" fill="white"/>
<path d="M120.059 0V3.97669H119.256V0.616107H119.218L118.453 3.97669H117.389L116.623 0.616107H116.586V3.97669H115.783V0H117.183L117.93 3.34191H117.968L118.696 0H120.059Z" fill="white"/>
<path d="M26 15.8881V0H33.3746C36.6605 0 38.4528 1.923 38.4528 5.13422C38.4528 8.34545 36.6605 10.2871 33.3559 10.2871H28.7258V15.8881H26ZM28.7258 7.8787H33.2253C34.9242 7.8787 35.671 6.7585 35.671 5.13422C35.671 3.50994 34.8122 2.40842 33.2253 2.40842H28.7258V7.8787Z" fill="white"/>
<path d="M42.9725 4.27344V11.9281C42.9725 13.011 43.4206 13.571 44.4661 13.571H47.9014V4.27344H50.5525V15.8861H43.962C41.591 15.8861 40.3027 14.6539 40.3027 12.0401V4.27344H42.9725Z" fill="white"/>
<path d="M52.8077 15.8861V8.2688C52.8077 6.00974 54.2827 4.27344 56.8778 4.27344H60.1077L58.9501 6.56984H57.1765C56.0936 6.56984 55.4402 7.26062 55.4402 8.32481V15.8674H52.7891L52.8077 15.8861Z" fill="white"/>
<path d="M61.5859 2.33374V0H64.2371V2.33374H61.5859ZM61.5859 15.8881V4.27541H64.2371V15.8881H61.5859Z" fill="white"/>
<path d="M74.3173 0H79.4702L78.238 2.42709H74.8588C71.4795 2.42709 69.7059 4.44344 69.7059 7.93471C69.7059 11.426 71.4608 13.4423 74.8588 13.4423H79.4702L78.238 15.8694H74.3173C70.21 15.8134 66.8867 12.9943 66.8867 7.93471C66.8867 2.87516 70.21 0.0560097 74.3173 0Z" fill="white"/>
<path d="M84.6048 15.8872C82.1964 15.8872 80.9082 14.3189 80.9082 12.3773C80.9082 10.4356 82.2151 8.86733 84.6048 8.86733H88.8989V8.10186C88.8989 7.05635 88.3762 6.47758 87.2746 6.47758H81.7857L82.8872 4.25586H87.2746C90.0378 4.25586 91.494 5.63743 91.494 8.10186V15.8685H84.6048V15.8872ZM84.8289 11.0144C83.9701 11.0144 83.578 11.6491 83.578 12.3586C83.578 13.0681 83.9887 13.6842 84.8102 13.6842H88.8989V11.0144H84.8289Z" fill="white"/>
<path d="M93.7706 15.8861V8.2688C93.7706 6.00974 95.2455 4.27344 97.8407 4.27344H101.071L99.913 6.56984H98.1394C97.0565 6.56984 96.4031 7.26062 96.4031 8.32481V15.8674H93.752L93.7706 15.8861Z" fill="white"/>
<path d="M106.222 15.8871C102.694 15.8871 100.752 13.236 100.752 9.9314C100.752 6.62683 102.787 3.95703 106.446 3.95703C110.106 3.95703 112.122 6.40279 112.122 10.0247V11.2196H103.496C103.683 12.7132 104.878 13.6467 106.297 13.6467H111.394L110.274 15.8684H106.222V15.8871ZM109.415 9.03525C109.265 7.22426 108.295 6.21609 106.446 6.21609C104.71 6.21609 103.496 7.4483 103.459 9.03525H109.415Z" fill="white"/>
<path d="M135.422 0L133.593 7.01988H131.95L130.605 0.896155H130.512L129.224 7.01988H127.581L125.695 0H126.909L128.365 6.1424H128.458L129.747 0H131.427L132.753 6.1424H132.846L134.265 0H135.422Z" fill="white"/>
<path d="M140.335 7.02025C140.204 7.02025 140.092 7.05759 139.924 7.05759C139.663 7.05759 139.457 7.02025 139.308 6.9269C139.14 6.83355 139.028 6.70286 138.935 6.5535C138.766 6.70286 138.542 6.83355 138.244 6.96424C137.964 7.07626 137.684 7.13227 137.366 7.13227C137.049 7.13227 136.787 7.09493 136.582 7.00158C136.377 6.9269 136.209 6.79621 136.097 6.66552C135.966 6.51616 135.891 6.3668 135.835 6.1801C135.779 5.99341 135.779 5.80671 135.779 5.58267C135.779 5.26528 135.817 5.02257 135.929 4.8172C136.022 4.6305 136.19 4.46247 136.358 4.35045C136.545 4.23844 136.769 4.16376 137.03 4.12642C137.292 4.08908 137.572 4.07041 137.889 4.07041C138.169 4.07041 138.468 4.07041 138.766 4.10775V3.86504C138.766 3.49164 138.692 3.21159 138.542 3.04356C138.393 2.8942 138.113 2.80085 137.702 2.80085C137.422 2.80085 137.142 2.83819 136.881 2.91287C136.619 2.98755 136.395 3.0809 136.209 3.17425L135.966 2.48346C136.227 2.35278 136.545 2.24076 136.881 2.14741C137.217 2.05406 137.59 1.99805 137.982 1.99805C138.337 1.99805 138.636 2.03539 138.879 2.0914C139.121 2.16608 139.308 2.2781 139.457 2.44612C139.588 2.61415 139.7 2.81952 139.775 3.0809C139.831 3.34228 139.868 3.65967 139.868 4.03307V5.65735C139.868 5.88139 139.905 6.04942 139.98 6.1241C140.055 6.21744 140.167 6.25478 140.316 6.25478V7.00158L140.335 7.02025ZM137.889 4.8172C137.516 4.8172 137.273 4.87321 137.124 5.0039C136.993 5.13459 136.918 5.32129 136.918 5.564C136.918 5.80671 136.974 6.01208 137.068 6.14277C137.18 6.27345 137.385 6.32946 137.665 6.32946C137.833 6.32946 138.038 6.29212 138.244 6.21744C138.449 6.14277 138.636 6.03075 138.785 5.90006V4.87321C138.636 4.83587 138.486 4.8172 138.318 4.8172C138.169 4.8172 138.038 4.8172 137.889 4.8172Z" fill="white"/>
<path d="M142.496 2.96838V5.17143C142.496 5.33946 142.496 5.47015 142.496 5.61951C142.496 5.76887 142.552 5.88089 142.608 5.97424C142.664 6.06759 142.738 6.14227 142.832 6.19828C142.925 6.25429 143.074 6.27296 143.261 6.27296C143.429 6.27296 143.597 6.27296 143.765 6.21695C143.914 6.17961 144.064 6.1236 144.194 6.06759L144.381 6.81438C143.914 7.03842 143.429 7.13177 142.906 7.13177C142.589 7.13177 142.327 7.09443 142.141 7.00108C141.935 6.9264 141.786 6.79571 141.674 6.66502C141.562 6.51566 141.469 6.32897 141.45 6.1236C141.413 5.91823 141.375 5.69419 141.375 5.43281V2.94971H140.535V2.24026L141.357 2.14691V1.17607L142.458 0.970703V2.12824H144.194V2.94971H142.458L142.496 2.96838Z" fill="white"/>
<path d="M147.259 7.13227C146.829 7.13227 146.456 7.07626 146.157 6.96424C145.858 6.85222 145.616 6.70286 145.429 6.47882C145.242 6.25479 145.112 5.99341 145.018 5.67602C144.944 5.35863 144.906 4.96656 144.906 4.53715C144.906 2.85686 145.672 1.99805 147.221 1.99805C147.651 1.99805 147.987 2.07273 148.267 2.18475C148.528 2.31544 148.734 2.48346 148.902 2.68883C149.051 2.8942 149.163 3.13691 149.219 3.43563C149.275 3.71568 149.312 4.05174 149.312 4.38779V4.8172H146.064C146.064 5.30262 146.157 5.65735 146.325 5.88139C146.549 6.16144 146.923 6.29212 147.464 6.29212C147.819 6.29212 148.136 6.23611 148.379 6.16144C148.622 6.06809 148.846 5.97474 149.014 5.90006L149.238 6.59084C149.238 6.59084 149.051 6.70286 148.902 6.75887C148.752 6.81488 148.603 6.87089 148.416 6.90823C148.248 6.96424 148.043 7.00158 147.856 7.03892C147.669 7.07626 147.464 7.09493 147.277 7.09493M148.173 4.05174C148.173 3.58499 148.099 3.24893 147.949 3.04356C147.8 2.83819 147.557 2.74484 147.24 2.74484C146.885 2.74484 146.605 2.81952 146.437 2.98755C146.269 3.15558 146.157 3.41696 146.101 3.75302L146.064 4.07041H148.173V4.05174Z" fill="white"/>
<path d="M151.179 2.14718L151.235 2.72594C151.403 2.53924 151.59 2.38988 151.777 2.29653C152.113 2.10984 152.43 2.03516 152.766 2.03516C152.915 2.03516 153.065 2.03516 153.196 2.09117C153.326 2.10984 153.438 2.14718 153.513 2.18452L153.233 3.062C153.084 2.98732 152.878 2.93131 152.635 2.93131C152.355 2.93131 152.094 3.00599 151.851 3.17402C151.702 3.26737 151.553 3.39806 151.385 3.54742V7.03869H150.302V3.52875L150.152 2.16585H151.161L151.179 2.14718Z" fill="white"/>
<path d="M126.385 15.886V8.88477H128.887C129.689 8.88477 130.287 9.05279 130.698 9.40752C131.108 9.76225 131.314 10.3037 131.314 11.0131C131.314 11.3679 131.258 11.6853 131.146 11.984C131.034 12.264 130.866 12.4881 130.66 12.6934C130.455 12.8988 130.231 13.0295 129.951 13.1415C129.671 13.2349 129.372 13.2909 129.036 13.2909H127.505V15.9233H126.403L126.385 15.886ZM128.849 12.3574C129.036 12.3574 129.204 12.3574 129.372 12.2827C129.521 12.2453 129.671 12.152 129.783 12.04C129.895 11.928 129.988 11.7786 130.063 11.6106C130.137 11.4425 130.175 11.2372 130.175 10.9945C130.175 10.7518 130.137 10.5837 130.063 10.4157C129.988 10.2663 129.876 10.1356 129.764 10.0236C129.633 9.93028 129.503 9.8556 129.353 9.81826C129.185 9.78092 129.036 9.76225 128.868 9.76225H127.505V12.3574H128.868H128.849Z" fill="white"/>
<path d="M136.335 14.6005L136.429 15.8887H135.421L135.365 15.4966C135.365 15.4966 135.178 15.6273 135.085 15.6647C134.991 15.7207 134.879 15.758 134.786 15.7954C134.431 15.926 134.076 15.9821 133.722 15.9821C133.404 15.9821 133.143 15.9447 132.938 15.8514C132.732 15.7767 132.583 15.646 132.452 15.4966C132.34 15.3473 132.265 15.1606 132.209 14.9365C132.153 14.7125 132.135 14.4698 132.135 14.1711V10.9785H133.236V13.9657C133.236 14.1337 133.236 14.2831 133.255 14.4138C133.274 14.5631 133.311 14.6752 133.367 14.7872C133.423 14.8992 133.516 14.9739 133.61 15.0299C133.722 15.0859 133.871 15.1232 134.058 15.1232C134.244 15.1232 134.431 15.1046 134.599 15.0486C134.767 14.9925 134.917 14.9179 135.047 14.8432C135.103 14.7872 135.178 14.7498 135.234 14.7125V10.9785H136.317V14.5631L136.335 14.6005Z" fill="white"/>
<path d="M138.465 11.0133L138.521 11.6107C138.689 11.4053 138.858 11.2746 139.044 11.1813C139.38 10.9946 139.698 10.9199 140.034 10.9199C140.183 10.9199 140.332 10.9199 140.463 10.9573C140.594 10.9946 140.706 11.0319 140.781 11.0506L140.5 11.9468C140.351 11.8534 140.146 11.8161 139.903 11.8161C139.623 11.8161 139.362 11.8908 139.119 12.0401C138.97 12.1335 138.82 12.2642 138.671 12.4135V15.9048H137.569V12.3948L137.42 11.0319H138.447L138.465 11.0133Z" fill="white"/>
<path d="M141.359 8.94141H142.461V9.91224H141.359V8.94141ZM141.378 10.9951H142.461V15.8679H141.378V10.9951Z" fill="white"/>
<path d="M146.776 11.0154V11.8556H145.077V15.907H143.994V11.8556H143.266V11.0154H143.994V10.4367C143.994 10.0633 144.031 9.76456 144.124 9.52185C144.218 9.27914 144.348 9.07377 144.517 8.92441C144.685 8.77505 144.89 8.6817 145.133 8.60702C145.375 8.55101 145.637 8.51367 145.935 8.51367C146.141 8.51367 146.327 8.51367 146.514 8.55101C146.701 8.56968 146.888 8.62569 147.037 8.6817L146.813 9.46584C146.57 9.37249 146.327 9.31648 146.047 9.31648C145.693 9.31648 145.45 9.40983 145.301 9.57786C145.151 9.74589 145.077 10.0259 145.077 10.418V10.9968H146.776V11.0154Z" fill="white"/>
<path d="M147.262 8.94141H148.363V9.91224H147.262V8.94141ZM147.262 10.9951H148.345V15.8679H147.262V10.9951Z" fill="white"/>
<path d="M151.701 15.9984C151.253 15.9984 150.898 15.9424 150.581 15.8303C150.282 15.7183 150.04 15.569 149.853 15.3449C149.666 15.1209 149.517 14.8595 149.442 14.5421C149.367 14.2247 149.33 13.8327 149.33 13.4032C149.33 11.723 150.114 10.8828 151.664 10.8828C152.075 10.8828 152.429 10.9388 152.691 11.0508C152.952 11.1815 153.176 11.3309 153.325 11.5549C153.475 11.779 153.587 12.0217 153.643 12.3204C153.699 12.6004 153.718 12.9365 153.718 13.2726V13.702H150.469C150.469 14.1874 150.562 14.5421 150.73 14.7662C150.936 15.0462 151.309 15.1769 151.851 15.1769C152.224 15.1769 152.523 15.1209 152.765 15.0462C153.008 14.9529 153.213 14.8595 153.419 14.7848L153.643 15.4756C153.643 15.4756 153.437 15.5876 153.307 15.6436C153.157 15.7183 152.989 15.7557 152.821 15.8117C152.635 15.8677 152.467 15.905 152.261 15.9237C152.075 15.961 151.888 15.961 151.701 15.961M152.597 12.9178C152.597 12.4511 152.504 12.115 152.355 11.9097C152.205 11.7043 151.963 11.5923 151.645 11.5923C151.29 11.5923 151.01 11.6856 150.842 11.835C150.674 12.003 150.562 12.2457 150.506 12.5818L150.469 12.8992H152.597V12.9178Z" fill="white"/>
<path d="M155.622 11.0133L155.697 11.6107C155.846 11.4053 156.033 11.2746 156.238 11.1813C156.556 10.9946 156.892 10.9199 157.228 10.9199C157.377 10.9199 157.527 10.9199 157.657 10.9573C157.788 10.9946 157.881 11.0319 157.975 11.0506L157.713 11.9468C157.564 11.8534 157.359 11.8161 157.116 11.8161C156.817 11.8161 156.574 11.8908 156.332 12.0401C156.182 12.1335 156.033 12.2642 155.865 12.4135V15.9048H154.782V12.3948L154.633 11.0319H155.641L155.622 11.0133Z" fill="white"/>
<path d="M122.746 0H122.41V15.8881H122.746V0Z" fill="white"/>
</svg>
