<svg width="183" height="16" viewBox="0 0 183 16" fill="none" xmlns="http://www.w3.org/2000/svg">
<g clip-path="url(#clip0_1329_18117)">
<path d="M89.3338 0V0.634777H88.1576V3.97669H87.3735V0.634777H86.1973V0H89.3338Z" fill="white"/>
<path d="M94.0586 0V3.97669H93.2558V0.616107H93.2185L92.453 3.97669H91.3888L90.6234 0.616107H90.586V3.97669H89.7832V0H91.1834L91.9302 3.34191H91.9676L92.6957 0H94.0586Z" fill="white"/>
<path d="M0 15.8881V0H7.37461C10.6605 0 12.4528 1.923 12.4528 5.13422C12.4528 8.34545 10.6605 10.2871 7.35594 10.2871H2.72581V15.8881H0ZM2.72581 7.8787H7.22525C8.92421 7.8787 9.67101 6.7585 9.67101 5.13422C9.67101 3.50994 8.81219 2.40842 7.22525 2.40842H2.72581V7.8787Z" fill="white"/>
<path d="M16.9725 4.27344V11.9281C16.9725 13.011 17.4206 13.571 18.4661 13.571H21.9014V4.27344H24.5525V15.8861H17.962C15.591 15.8861 14.3027 14.6539 14.3027 12.0401V4.27344H16.9725Z" fill="white"/>
<path d="M26.8077 15.8861V8.2688C26.8077 6.00974 28.2827 4.27344 30.8778 4.27344H34.1077L32.9501 6.56984H31.1765C30.0936 6.56984 29.4402 7.26062 29.4402 8.32481V15.8674H26.7891L26.8077 15.8861Z" fill="white"/>
<path d="M35.5859 2.33374V0H38.2371V2.33374H35.5859ZM35.5859 15.8881V4.27541H38.2371V15.8881H35.5859Z" fill="white"/>
<path d="M48.3173 0H53.4702L52.238 2.42709H48.8588C45.4795 2.42709 43.7059 4.44344 43.7059 7.93471C43.7059 11.426 45.4608 13.4423 48.8588 13.4423H53.4702L52.238 15.8694H48.3173C44.21 15.8134 40.8867 12.9943 40.8867 7.93471C40.8867 2.87517 44.21 0.0560097 48.3173 0Z" fill="white"/>
<path d="M58.6048 15.8872C56.1964 15.8872 54.9082 14.3189 54.9082 12.3773C54.9082 10.4356 56.2151 8.86733 58.6048 8.86733H62.8989V8.10186C62.8989 7.05635 62.3762 6.47758 61.2746 6.47758H55.7857L56.8872 4.25586H61.2746C64.0378 4.25586 65.494 5.63743 65.494 8.10186V15.8685H58.6048V15.8872ZM58.8289 11.0144C57.9701 11.0144 57.578 11.6491 57.578 12.3586C57.578 13.0681 57.9887 13.6842 58.8102 13.6842H62.8989V11.0144H58.8289Z" fill="white"/>
<path d="M67.7706 15.8861V8.2688C67.7706 6.00974 69.2455 4.27344 71.8407 4.27344H75.0706L73.913 6.56984H72.1394C71.0565 6.56984 70.4031 7.26062 70.4031 8.32481V15.8674H67.752L67.7706 15.8861Z" fill="white"/>
<path d="M80.2222 15.8871C76.6936 15.8871 74.752 13.236 74.752 9.9314C74.752 6.62683 76.787 3.95703 80.4463 3.95703C84.1056 3.95703 86.1219 6.40279 86.1219 10.0247V11.2196H77.4964C77.6831 12.7132 78.878 13.6467 80.2969 13.6467H85.3938L84.2736 15.8684H80.2222V15.8871ZM83.4148 9.03525C83.2654 7.22426 82.2946 6.21609 80.4463 6.21609C78.71 6.21609 77.4964 7.4483 77.4591 9.03525H83.4148Z" fill="white"/>
<path d="M109.422 0L107.593 7.01988H105.95L104.605 0.896155H104.512L103.224 7.01988H101.581L99.6953 0H100.909L102.365 6.1424H102.458L103.747 0H105.427L106.753 6.1424H106.846L108.265 0H109.422Z" fill="white"/>
<path d="M114.335 7.02025C114.204 7.02025 114.092 7.05759 113.924 7.05759C113.663 7.05759 113.457 7.02025 113.308 6.9269C113.14 6.83355 113.028 6.70286 112.935 6.5535C112.766 6.70286 112.542 6.83355 112.244 6.96424C111.964 7.07626 111.684 7.13227 111.366 7.13227C111.049 7.13227 110.787 7.09493 110.582 7.00158C110.377 6.9269 110.209 6.79621 110.097 6.66552C109.966 6.51616 109.891 6.3668 109.835 6.1801C109.779 5.99341 109.779 5.80671 109.779 5.58267C109.779 5.26528 109.817 5.02257 109.929 4.8172C110.022 4.6305 110.19 4.46247 110.358 4.35045C110.545 4.23844 110.769 4.16376 111.03 4.12642C111.292 4.08908 111.572 4.07041 111.889 4.07041C112.169 4.07041 112.468 4.07041 112.766 4.10775V3.86504C112.766 3.49164 112.692 3.21159 112.542 3.04356C112.393 2.8942 112.113 2.80085 111.702 2.80085C111.422 2.80085 111.142 2.83819 110.881 2.91287C110.619 2.98755 110.395 3.0809 110.209 3.17425L109.966 2.48346C110.227 2.35278 110.545 2.24076 110.881 2.14741C111.217 2.05406 111.59 1.99805 111.982 1.99805C112.337 1.99805 112.636 2.03539 112.879 2.0914C113.121 2.16608 113.308 2.2781 113.457 2.44612C113.588 2.61415 113.7 2.81952 113.775 3.0809C113.831 3.34228 113.868 3.65967 113.868 4.03307V5.65735C113.868 5.88139 113.905 6.04942 113.98 6.1241C114.055 6.21745 114.167 6.25478 114.316 6.25478V7.00158L114.335 7.02025ZM111.889 4.8172C111.516 4.8172 111.273 4.87321 111.124 5.0039C110.993 5.13459 110.918 5.32129 110.918 5.564C110.918 5.80671 110.974 6.01208 111.068 6.14277C111.18 6.27345 111.385 6.32946 111.665 6.32946C111.833 6.32946 112.038 6.29212 112.244 6.21744C112.449 6.14276 112.636 6.03075 112.785 5.90006V4.87321C112.636 4.83587 112.486 4.8172 112.318 4.8172C112.169 4.8172 112.038 4.8172 111.889 4.8172Z" fill="white"/>
<path d="M116.496 2.96838V5.17143C116.496 5.33946 116.496 5.47015 116.496 5.61951C116.496 5.76887 116.552 5.88089 116.608 5.97424C116.664 6.06759 116.738 6.14227 116.832 6.19828C116.925 6.25429 117.074 6.27296 117.261 6.27296C117.429 6.27296 117.597 6.27296 117.765 6.21695C117.914 6.17961 118.064 6.1236 118.194 6.06759L118.381 6.81438C117.914 7.03842 117.429 7.13177 116.906 7.13177C116.589 7.13177 116.327 7.09443 116.141 7.00108C115.935 6.9264 115.786 6.79571 115.674 6.66502C115.562 6.51566 115.469 6.32897 115.45 6.1236C115.413 5.91823 115.375 5.69419 115.375 5.43281V2.94971H114.535V2.24026L115.357 2.14691V1.17607L116.458 0.970703V2.12824H118.194V2.94971H116.458L116.496 2.96838Z" fill="white"/>
<path d="M121.259 7.13227C120.829 7.13227 120.456 7.07626 120.157 6.96424C119.858 6.85222 119.616 6.70286 119.429 6.47882C119.242 6.25479 119.112 5.99341 119.018 5.67602C118.944 5.35863 118.906 4.96656 118.906 4.53715C118.906 2.85686 119.672 1.99805 121.221 1.99805C121.651 1.99805 121.987 2.07273 122.267 2.18475C122.528 2.31544 122.734 2.48346 122.902 2.68883C123.051 2.8942 123.163 3.13691 123.219 3.43563C123.275 3.71568 123.312 4.05174 123.312 4.38779V4.8172H120.064C120.064 5.30262 120.157 5.65735 120.325 5.88139C120.549 6.16144 120.923 6.29212 121.464 6.29212C121.819 6.29212 122.136 6.23611 122.379 6.16144C122.622 6.06809 122.846 5.97474 123.014 5.90006L123.238 6.59084C123.238 6.59084 123.051 6.70286 122.902 6.75887C122.752 6.81488 122.603 6.87089 122.416 6.90823C122.248 6.96424 122.043 7.00158 121.856 7.03892C121.669 7.07626 121.464 7.09493 121.277 7.09493M122.173 4.05174C122.173 3.58499 122.099 3.24893 121.949 3.04356C121.8 2.83819 121.557 2.74484 121.24 2.74484C120.885 2.74484 120.605 2.81952 120.437 2.98755C120.269 3.15558 120.157 3.41696 120.101 3.75302L120.064 4.07041H122.173V4.05174Z" fill="white"/>
<path d="M125.179 2.14718L125.235 2.72594C125.403 2.53924 125.59 2.38988 125.777 2.29653C126.113 2.10984 126.43 2.03516 126.766 2.03516C126.915 2.03516 127.065 2.03516 127.196 2.09117C127.326 2.10984 127.438 2.14718 127.513 2.18452L127.233 3.062C127.084 2.98732 126.878 2.93131 126.635 2.93131C126.355 2.93131 126.094 3.00599 125.851 3.17402C125.702 3.26737 125.553 3.39806 125.385 3.54742V7.03869H124.302V3.52875L124.152 2.16585H125.161L125.179 2.14718Z" fill="white"/>
<path d="M100.385 15.886V8.88477H102.887C103.689 8.88477 104.287 9.05279 104.698 9.40752C105.108 9.76225 105.314 10.3037 105.314 11.0131C105.314 11.3679 105.258 11.6853 105.146 11.984C105.034 12.264 104.866 12.4881 104.66 12.6934C104.455 12.8988 104.231 13.0295 103.951 13.1415C103.671 13.2349 103.372 13.2909 103.036 13.2909H101.505V15.9233H100.403L100.385 15.886ZM102.849 12.3574C103.036 12.3574 103.204 12.3574 103.372 12.2827C103.521 12.2453 103.671 12.152 103.783 12.04C103.895 11.928 103.988 11.7786 104.063 11.6106C104.137 11.4425 104.175 11.2372 104.175 10.9945C104.175 10.7518 104.137 10.5837 104.063 10.4157C103.988 10.2663 103.876 10.1356 103.764 10.0236C103.633 9.93028 103.503 9.8556 103.353 9.81826C103.185 9.78092 103.036 9.76225 102.868 9.76225H101.505V12.3574H102.868H102.849Z" fill="white"/>
<path d="M110.335 14.6005L110.429 15.8887H109.421L109.365 15.4966C109.365 15.4966 109.178 15.6273 109.085 15.6647C108.991 15.7207 108.879 15.758 108.786 15.7954C108.431 15.926 108.076 15.9821 107.722 15.9821C107.404 15.9821 107.143 15.9447 106.938 15.8514C106.732 15.7767 106.583 15.646 106.452 15.4966C106.34 15.3473 106.265 15.1606 106.209 14.9365C106.153 14.7125 106.135 14.4698 106.135 14.1711V10.9785H107.236V13.9657C107.236 14.1337 107.236 14.2831 107.255 14.4138C107.274 14.5631 107.311 14.6752 107.367 14.7872C107.423 14.8992 107.516 14.9739 107.61 15.0299C107.722 15.0859 107.871 15.1232 108.058 15.1232C108.244 15.1232 108.431 15.1046 108.599 15.0486C108.767 14.9925 108.917 14.9179 109.047 14.8432C109.103 14.7872 109.178 14.7498 109.234 14.7125V10.9785H110.317V14.5631L110.335 14.6005Z" fill="white"/>
<path d="M112.465 11.0133L112.521 11.6107C112.689 11.4053 112.858 11.2746 113.044 11.1813C113.38 10.9946 113.698 10.9199 114.034 10.9199C114.183 10.9199 114.332 10.9199 114.463 10.9573C114.594 10.9946 114.706 11.0319 114.781 11.0506L114.5 11.9468C114.351 11.8534 114.146 11.8161 113.903 11.8161C113.623 11.8161 113.362 11.8908 113.119 12.0401C112.97 12.1335 112.82 12.2642 112.671 12.4135V15.9048H111.569V12.3948L111.42 11.0319H112.447L112.465 11.0133Z" fill="white"/>
<path d="M115.359 8.94141H116.461V9.91224H115.359V8.94141ZM115.378 10.9951H116.461V15.8679H115.378V10.9951Z" fill="white"/>
<path d="M120.776 11.0154V11.8556H119.077V15.907H117.994V11.8556H117.266V11.0154H117.994V10.4367C117.994 10.0633 118.031 9.76456 118.124 9.52185C118.218 9.27914 118.348 9.07377 118.517 8.92441C118.685 8.77505 118.89 8.6817 119.133 8.60702C119.375 8.55101 119.637 8.51367 119.935 8.51367C120.141 8.51367 120.327 8.51367 120.514 8.55101C120.701 8.56968 120.888 8.62569 121.037 8.6817L120.813 9.46584C120.57 9.37249 120.327 9.31648 120.047 9.31648C119.693 9.31648 119.45 9.40983 119.301 9.57786C119.151 9.74589 119.077 10.0259 119.077 10.418V10.9968H120.776V11.0154Z" fill="white"/>
<path d="M121.262 8.94141H122.363V9.91224H121.262V8.94141ZM121.262 10.9951H122.345V15.8679H121.262V10.9951Z" fill="white"/>
<path d="M125.701 15.9984C125.253 15.9984 124.898 15.9424 124.581 15.8303C124.282 15.7183 124.04 15.569 123.853 15.3449C123.666 15.1209 123.517 14.8595 123.442 14.5421C123.367 14.2247 123.33 13.8327 123.33 13.4032C123.33 11.723 124.114 10.8828 125.664 10.8828C126.075 10.8828 126.429 10.9388 126.691 11.0508C126.952 11.1815 127.176 11.3309 127.325 11.5549C127.475 11.779 127.587 12.0217 127.643 12.3204C127.699 12.6004 127.718 12.9365 127.718 13.2726V13.702H124.469C124.469 14.1874 124.562 14.5421 124.73 14.7662C124.936 15.0462 125.309 15.1769 125.851 15.1769C126.224 15.1769 126.523 15.1209 126.765 15.0462C127.008 14.9529 127.213 14.8595 127.419 14.7848L127.643 15.4756C127.643 15.4756 127.437 15.5876 127.307 15.6436C127.157 15.7183 126.989 15.7557 126.821 15.8117C126.635 15.8677 126.467 15.905 126.261 15.9237C126.075 15.961 125.888 15.961 125.701 15.961M126.597 12.9178C126.597 12.4511 126.504 12.115 126.355 11.9097C126.205 11.7043 125.963 11.5923 125.645 11.5923C125.29 11.5923 125.01 11.6856 124.842 11.835C124.674 12.003 124.562 12.2457 124.506 12.5818L124.469 12.8992H126.597V12.9178Z" fill="white"/>
<path d="M129.622 11.0133L129.697 11.6107C129.846 11.4053 130.033 11.2746 130.238 11.1813C130.556 10.9946 130.892 10.9199 131.228 10.9199C131.377 10.9199 131.527 10.9199 131.657 10.9573C131.788 10.9946 131.881 11.0319 131.975 11.0506L131.713 11.9468C131.564 11.8534 131.359 11.8161 131.116 11.8161C130.817 11.8161 130.574 11.8908 130.332 12.0401C130.182 12.1335 130.033 12.2642 129.865 12.4135V15.9048H128.782V12.3948L128.633 11.0319H129.641L129.622 11.0133Z" fill="white"/>
<path d="M96.7462 0H96.4102V15.8881H96.7462V0Z" fill="white"/>
</g>
<defs>
<clipPath id="clip0_1329_18117">
<rect width="183" height="16" fill="white"/>
</clipPath>
</defs>
</svg>
