<svg width="183" height="16" viewBox="0 0 183 16" fill="none" xmlns="http://www.w3.org/2000/svg">
<g clip-path="url(#clip0_1329_18138)">
<path d="M7.43766 15.6637H3.68924L0 0.078125H2.70281L5.64236 13.099L8.9173 0.078125H11.5609L14.8556 13.099L17.7952 0.078125H20.498L16.8087 15.6637H13.0603L10.2391 4.16193L7.41794 15.6637H7.43766Z" fill="white"/>
<path d="M23.9914 15.6646C21.6437 15.6646 20.3613 14.1258 20.3613 12.2319C20.3613 10.3379 21.6437 8.79909 23.9914 8.79909H28.1936V8.0494C28.1936 7.02352 27.6806 6.47112 26.6153 6.47112H21.2294L22.3145 4.28125H26.6153C29.3378 4.28125 30.7583 5.62279 30.7583 8.0494V15.6646H23.9914ZM24.2084 10.8706C23.3601 10.8706 22.9852 11.5019 22.9852 12.1924C22.9852 12.8829 23.3995 13.4945 24.1887 13.4945H28.2133V10.8706H24.2281H24.2084Z" fill="white"/>
<path d="M32.2561 15.6672L33.3609 13.5168H37.9576C38.727 13.5168 39.161 13.1616 39.161 12.4514C39.161 11.9977 38.8651 11.6425 38.293 11.4847L34.8208 10.5377C33.203 10.1037 32.335 8.97919 32.335 7.47982C32.335 5.58588 33.5581 4.22461 35.6099 4.22461H40.9958L39.9305 6.31584H35.9847C35.2942 6.31584 34.88 6.65122 34.88 7.34172C34.88 7.85466 35.1759 8.20978 35.7283 8.34788L39.3781 9.3343C40.6999 9.68942 41.6666 10.7942 41.6666 12.333C41.6666 14.3059 40.4237 15.608 38.2535 15.608H32.2363L32.2561 15.6672Z" fill="white"/>
<path d="M50.8234 15.6637V8.44303C50.8234 7.12122 50.3105 6.50963 48.9689 6.50963H45.8913V15.6439H43.2871V0.078125H45.8913V4.26058H49.3635C52.0071 4.26058 53.4276 5.68103 53.4276 8.2852V15.6637H50.8234Z" fill="white"/>
<path d="M58.5158 15.6637V2.46528H53.2285L54.4122 0.078125H66.8215L65.6378 2.46528H61.2186V15.6637H58.5158Z" fill="white"/>
<path d="M71.44 3.96484C75.2082 3.96484 77.3586 6.41118 77.3586 9.98205C77.3586 13.5529 75.2082 15.9993 71.44 15.9993C67.6719 15.9993 65.5215 13.5529 65.5215 9.98205C65.5215 6.41118 67.6719 3.96484 71.44 3.96484ZM71.44 13.7107C73.6299 13.7107 74.7544 12.2903 74.7544 9.98205C74.7544 7.67381 73.6299 6.27308 71.44 6.27308C69.2502 6.27308 68.1257 7.67381 68.1257 9.98205C68.1257 12.2903 69.2502 13.7107 71.44 13.7107Z" fill="white"/>
<path d="M94.0286 4.26172L91.1877 15.6648H87.6957L85.9399 8.62173L84.2235 15.6648H80.7513L77.8906 4.26172H80.4948L82.5466 13.3369L84.7562 4.26172H87.163L89.3726 13.3369L91.3652 4.26172H94.0089H94.0286Z" fill="white"/>
<path d="M99.9853 15.6641C96.5328 15.6641 94.6191 13.0599 94.6191 9.82442C94.6191 6.58894 96.6117 3.94531 100.202 3.94531C103.793 3.94531 105.786 6.3522 105.786 9.90333V11.087H97.322C97.5192 12.547 98.6635 13.4742 100.064 13.4742H105.075L103.97 15.6641H100.005H99.9853ZM103.122 8.93664C102.984 7.16107 102.017 6.17464 100.222 6.17464C98.5057 6.17464 97.3417 7.37808 97.2825 8.93664H103.122Z" fill="white"/>
<path d="M107.383 15.6648V8.1877C107.383 5.9781 108.823 4.26172 111.368 4.26172H114.544L113.42 6.5305H111.684C110.618 6.5305 109.967 7.20127 109.967 8.26661V15.6648H107.363H107.383Z" fill="white"/>
<path d="M114.584 0H117.701V0.631314H116.537V3.94571H115.748V0.631314H114.584V0Z" fill="white"/>
<path d="M118.117 0H119.518L120.248 3.33412H120.288L120.998 0H122.359V3.94571H121.57V0.611585H121.511L120.761 3.94571H119.715L118.946 0.611585H118.887V3.94571H118.098V0H118.117Z" fill="white"/>
</g>
<defs>
<clipPath id="clip0_1329_18138">
<rect width="183" height="16" fill="white"/>
</clipPath>
</defs>
</svg>
