<svg width="183" height="16" viewBox="0 0 183 16" fill="none" xmlns="http://www.w3.org/2000/svg">
<path d="M56.56 3.248H58.592L60.416 9.68L60.768 11.184H60.816L61.12 9.68L62.784 3.248H64.912L61.808 14H59.744L57.952 7.584L57.616 6.064H57.552L57.184 7.568L55.392 14H53.328L50.224 3.248H52.352L54.016 9.68L54.336 11.168H54.384L54.72 9.664L56.56 3.248ZM66.2766 6.256H68.3566V14H66.2766V6.256ZM66.2766 2.928H68.3566V4.784H66.2766V2.928ZM72.316 6.896C72.94 6.4 73.74 6.08 74.7 6.08C76.46 6.08 77.34 6.992 77.34 8.832V14H75.26V9.2C75.26 8.112 74.956 7.744 74.204 7.744C73.58 7.744 73.1 7.904 72.54 8.208V14H70.46V6.256H72.012L72.316 6.896ZM82.8428 14.16C80.0908 14.16 78.8588 12.896 78.8588 10.128C78.8588 7.328 79.9948 6.096 82.4427 6.096C84.8748 6.096 86.0108 7.328 86.0108 10.128V10.752H81.0028C81.1148 11.92 81.6268 12.496 82.8428 12.496C83.7868 12.496 84.4908 12.256 85.3868 11.744L85.9468 13.312C85.1148 13.808 84.0588 14.16 82.8428 14.16ZM83.8668 9.2C83.7548 8.32 83.3548 7.76 82.4427 7.76C81.5468 7.76 81.1308 8.32 81.0188 9.2H83.8668ZM97.2046 12.448C98.2446 12.448 99.2846 12.144 100.245 11.632L100.773 13.296C99.7486 13.856 98.4686 14.16 97.1886 14.16C93.5886 14.16 91.9086 12.16 91.9086 8.624C91.9086 4.832 93.6046 3.088 96.9486 3.088C98.5486 3.088 99.9086 3.712 100.725 4.592L99.5566 5.904C98.9166 5.2 98.0526 4.8 96.9486 4.8C95.0126 4.8 94.0206 5.984 94.0206 8.624C94.0206 11.136 95.0126 12.448 97.2046 12.448ZM105.952 14.16C103.2 14.16 101.968 12.896 101.968 10.128C101.968 7.328 103.104 6.096 105.552 6.096C107.984 6.096 109.12 7.328 109.12 10.128V10.752H104.112C104.224 11.92 104.736 12.496 105.952 12.496C106.896 12.496 107.6 12.256 108.496 11.744L109.056 13.312C108.224 13.808 107.168 14.16 105.952 14.16ZM106.976 9.2C106.864 8.32 106.464 7.76 105.552 7.76C104.656 7.76 104.24 8.32 104.128 9.2H106.976ZM112.966 2.704V11.696C112.966 12.32 113.126 12.432 113.75 12.432V14.112C113.51 14.16 113.398 14.16 113.094 14.16C111.622 14.16 110.886 13.408 110.886 11.696V2.928L112.966 2.704ZM117.325 2.704V11.696C117.325 12.32 117.485 12.432 118.109 12.432V14.112C117.869 14.16 117.757 14.16 117.453 14.16C115.981 14.16 115.245 13.408 115.245 11.696V2.928L117.325 2.704ZM126.047 14H124.495L124.223 13.408C123.663 13.872 122.911 14.16 122.015 14.16C120.207 14.16 119.343 13.264 119.343 11.616C119.343 9.952 120.351 9.152 122.831 9.152C123.135 9.152 123.519 9.152 123.967 9.2V9.072C123.967 8.112 123.615 7.728 122.527 7.728C121.839 7.728 121.023 7.92 120.207 8.352L119.615 6.896C120.575 6.4 121.583 6.096 122.719 6.096C125.215 6.096 126.047 6.88 126.047 9.36V14ZM122.463 12.528C122.911 12.528 123.535 12.288 123.967 11.984V10.752C123.631 10.704 123.263 10.688 122.767 10.688C121.759 10.688 121.423 10.928 121.423 11.568C121.423 12.192 121.775 12.528 122.463 12.528ZM129.482 6.256L129.674 7.072C130.266 6.448 131.018 6.096 131.866 6.096C132.298 6.096 132.682 6.176 133.114 6.384V8.112C132.714 7.904 132.314 7.76 131.802 7.76C131.082 7.76 130.426 8.096 129.962 8.528V14H127.882V6.256H129.482Z" fill="#F6F3EB"/>
</svg>
