<svg width="183" height="16" viewBox="0 0 183 16" fill="none" xmlns="http://www.w3.org/2000/svg">
<g clip-path="url(#clip0_1865_41772)">
<path d="M138.899 0.0195312V0.639949H137.725V4.00524H136.923V0.639949H135.768V0.0195312H138.899Z" fill="white"/>
<path d="M143.636 0.0195312V4.00524H142.834V0.621148H142.797L142.052 4.00524H140.97L140.206 0.621148H140.15V4.00524H139.367V0.0195312H140.765L141.511 3.38483H141.567L142.257 0.0195312H143.636Z" fill="white"/>
<path d="M39 15.9993V0H41.7216V15.9805H39V15.9993Z" fill="white"/>
<path d="M51.8614 15.9986V8.2528C51.8614 7.16237 51.414 6.59835 50.3701 6.59835H46.94V15.9986H44.293V4.30469H50.8734C53.2408 4.30469 54.5271 5.54552 54.5271 8.1776V15.9986H51.8614Z" fill="white"/>
<path d="M56.3008 15.9986L57.4193 13.799H62.0982C62.8812 13.799 63.3286 13.4229 63.3286 12.7085C63.3286 12.2385 63.0303 11.8625 62.4524 11.7309L58.9292 10.7721C57.2888 10.3209 56.4126 9.17402 56.4126 7.63238C56.4126 5.67713 57.6616 4.30469 59.7308 4.30469H65.2114L64.1302 6.44795H60.1223C59.4139 6.44795 59.0038 6.78636 59.0038 7.50078C59.0038 8.02719 59.302 8.3844 59.8613 8.53481L63.5709 9.55003C64.9131 9.92605 65.9011 11.0541 65.9011 12.6333C65.9011 14.6638 64.6335 15.9798 62.4338 15.9798H56.3194L56.3008 15.9986Z" fill="white"/>
<path d="M71.5289 16.0011C68.9377 16.0011 67.6328 14.6851 67.6328 12.1282V0.753906H70.2799V4.30721H74.8284L73.7099 6.61967H70.2799V12.1282C70.2799 13.1811 70.8205 13.7263 71.7526 13.7263H74.9402L73.7845 16.0011H71.5289Z" fill="white"/>
<path d="M79.4898 15.9998C77.0851 15.9998 75.7988 14.4206 75.7988 12.4653C75.7988 10.5101 77.1037 8.93084 79.4898 8.93084H83.7773V8.16002C83.7773 7.10719 83.2554 6.52437 82.1555 6.52437H76.675L77.7748 4.28711H82.1555C84.9145 4.28711 86.3685 5.65955 86.3685 8.16002V15.981H79.4898V15.9998ZM79.7135 11.0929C78.856 11.0929 78.4645 11.7321 78.4645 12.4465C78.4645 13.161 78.8747 13.7814 79.6949 13.7814H83.7773V11.0929H79.7135Z" fill="white"/>
<path d="M92.4075 15.9993L86.4609 0H89.4995L94.0666 13.104L98.6897 0H101.672L95.7443 15.9805H92.3889L92.4075 15.9993Z" fill="white"/>
<path d="M102.902 2.35007V0H105.549V2.35007H102.902ZM102.902 15.9993V4.30532H105.549V15.9993H102.902Z" fill="white"/>
<path d="M112.782 15.9979C109.259 15.9979 107.32 13.3282 107.32 10.0005C107.32 6.67285 109.352 3.98438 112.987 3.98438C116.622 3.98438 118.654 6.44724 118.654 10.0945V11.2978H110.042C110.228 12.8018 111.403 13.7418 112.838 13.7418H117.927L116.809 15.9791H112.764L112.782 15.9979ZM115.97 9.09812C115.821 7.27447 114.851 6.25924 113.006 6.25924C111.272 6.25924 110.079 7.50007 110.023 9.09812H115.97Z" fill="white"/>
<path d="M135.749 4.30469L132.86 15.9986H129.318L127.528 8.77921L125.795 15.9986H122.271L119.363 4.30469H122.01L124.098 13.6109L126.354 4.30469H128.796L131.051 13.6109L133.083 4.30469H135.768H135.749Z" fill="white"/>
</g>
<defs>
<clipPath id="clip0_1865_41772">
<rect width="183" height="16" fill="white"/>
</clipPath>
</defs>
</svg>
