<svg width="183" height="16" viewBox="0 0 183 16" fill="none" xmlns="http://www.w3.org/2000/svg">
<g clip-path="url(#clip0_1865_41880)">
<path d="M116.395 0V0.50048H115.444V3.17492H114.795V0.50048H113.844V0H116.395Z" fill="white"/>
<path d="M120.229 0V3.17492H119.579V0.48484H119.532L118.913 3.17492H118.058L117.424 0.48484H117.392V3.17492H116.742V0H117.883L118.486 2.69008H118.517L119.104 0H120.213H120.229Z" fill="white"/>
<path d="M72.7153 0L71.7168 1.92372H66.7879C65.8528 1.92372 65.3615 2.56496 65.3615 3.25312C65.3615 3.94128 65.6626 4.50432 66.4709 4.75456L70.3538 5.89628C72.3191 6.4906 73.0957 7.75744 73.0957 9.21196C73.0957 11.2452 71.8753 12.731 69.4346 12.731H63.0317L64.0302 10.8072H69.2286C70.1637 10.8072 70.8135 10.338 70.8135 9.41528C70.8135 8.69584 70.4965 8.1328 69.7199 7.91384L65.6309 6.74084C64.0143 6.27164 63 5.11428 63 3.4408C63.0792 1.6422 64.3313 0.01564 66.7562 0.01564H72.7312L72.7153 0Z" fill="white"/>
<path d="M77.5955 12.7304C75.4877 12.7304 74.4258 11.6825 74.4258 9.64931V0.59375H76.5812V3.42459H80.2898L79.3706 5.27011H76.5812V9.64931C76.5812 10.4939 77.025 10.9318 77.7857 10.9318H80.3691L79.434 12.746H77.5955V12.7304Z" fill="white"/>
<path d="M83.698 15.9847L85.0768 12.7316L81.0195 3.42578H83.3018L86.1387 10.3074L88.8647 3.42578H91.1152L85.8217 16.0003H83.698V15.9847Z" fill="white"/>
<path d="M94.4918 12.731C93.1605 12.731 92.3047 11.9177 92.3047 10.4788V0H94.4443V10.2286C94.4443 10.6821 94.6662 10.9167 95.1099 10.9167H96.3461L95.4269 12.731H94.4918Z" fill="white"/>
<path d="M101.131 12.7299C98.2624 12.7299 96.6934 10.6028 96.6934 7.95967C96.6934 5.31651 98.3416 3.17383 101.305 3.17383C104.269 3.17383 105.917 5.12883 105.917 8.03787V9.00755H98.9122C99.0707 10.1962 100.022 10.9469 101.179 10.9469H105.315L104.396 12.7299H101.115H101.131ZM103.714 7.22459C103.603 5.77007 102.811 4.97243 101.305 4.97243C99.8948 4.97243 98.9122 5.95775 98.8805 7.22459H103.714Z" fill="white"/>
<path d="M107.33 12.7316V6.63198C107.33 4.81774 108.519 3.42578 110.642 3.42578H113.273L112.338 5.2713H110.912C110.04 5.2713 109.501 5.8187 109.501 6.6789V12.7316H107.362H107.33Z" fill="white"/>
</g>
<defs>
<clipPath id="clip0_1865_41880">
<rect width="183" height="16" fill="white"/>
</clipPath>
</defs>
</svg>
