<svg width="183" height="16" viewBox="0 0 183 16" fill="none" xmlns="http://www.w3.org/2000/svg">
<path d="M6.064 10.448C7.104 10.448 8.144 10.144 9.104 9.632L9.632 11.296C8.608 11.856 7.328 12.16 6.048 12.16C2.448 12.16 0.768 10.16 0.768 6.624C0.768 2.832 2.464 1.088 5.808 1.088C7.408 1.088 8.768 1.712 9.584 2.592L8.416 3.904C7.776 3.2 6.912 2.8 5.808 2.8C3.872 2.8 2.88 3.984 2.88 6.624C2.88 9.136 3.872 10.448 6.064 10.448ZM10.8275 8.128C10.8275 5.328 12.0435 4.096 14.6515 4.096C17.2275 4.096 18.4595 5.36 18.4595 8.128C18.4595 10.896 17.2275 12.16 14.6515 12.16C12.0435 12.16 10.8275 10.928 10.8275 8.128ZM12.9075 8.128C12.9075 9.664 13.3555 10.496 14.6515 10.496C15.9475 10.496 16.3795 9.664 16.3795 8.128C16.3795 6.592 15.9475 5.76 14.6515 5.76C13.3555 5.76 12.9075 6.592 12.9075 8.128ZM21.9098 4.896C22.5338 4.4 23.3338 4.08 24.2938 4.08C26.0538 4.08 26.9338 4.992 26.9338 6.832V12H24.8538V7.2C24.8538 6.112 24.5498 5.744 23.7977 5.744C23.1738 5.744 22.6938 5.904 22.1338 6.208V12H20.0538V4.256H21.6058L21.9098 4.896ZM30.9165 12L27.9725 4.256H30.1165L31.3325 7.712L31.9725 9.696H32.0205L32.6125 7.712L33.8285 4.256H35.9725L33.0285 12H30.9165ZM40.5615 12.16C37.8095 12.16 36.5775 10.896 36.5775 8.128C36.5775 5.328 37.7135 4.096 40.1615 4.096C42.5935 4.096 43.7295 5.328 43.7295 8.128V8.752H38.7215C38.8335 9.92 39.3455 10.496 40.5615 10.496C41.5055 10.496 42.2095 10.256 43.1055 9.744L43.6655 11.312C42.8335 11.808 41.7775 12.16 40.5615 12.16ZM41.5855 7.2C41.4735 6.32 41.0735 5.76 40.1615 5.76C39.2655 5.76 38.8495 6.32 38.7375 7.2H41.5855ZM46.935 4.256L47.127 5.072C47.719 4.448 48.471 4.096 49.319 4.096C49.751 4.096 50.135 4.176 50.567 4.384V6.112C50.167 5.904 49.767 5.76 49.255 5.76C48.535 5.76 47.879 6.096 47.415 6.528V12H45.335V4.256H46.935ZM54.6949 5.92V9.168C54.6949 10.192 54.9829 10.496 55.7349 10.496C56.2629 10.496 56.8069 10.288 57.3029 10.048L57.6709 11.568C56.9189 11.952 56.0229 12.16 55.1909 12.16C53.3189 12.16 52.6149 11.296 52.6149 9.44V5.92H51.3669V4.256H52.6149V2.768L54.6949 2.4V4.256H57.3989V5.92H54.6949ZM59.1204 4.256H61.2004V12H59.1204V4.256ZM59.1204 0.927999H61.2004V2.784H59.1204V0.927999ZM66.7598 10.528C67.8478 10.528 68.4078 9.872 68.4078 8.128C68.4078 6.4 67.8318 5.728 66.7438 5.728C66.2318 5.728 65.7838 5.888 65.3838 6.192V10.08C65.7838 10.384 66.2318 10.528 66.7598 10.528ZM64.8878 12H63.3038V0.927999L65.3838 0.704V4.736C65.8158 4.368 66.5518 4.096 67.3998 4.096C69.2718 4.096 70.4878 5.36 70.4878 8.128C70.4878 10.896 69.1918 12.16 66.9998 12.16C66.2478 12.16 65.6238 11.936 65.1278 11.472L64.8878 12ZM74.325 0.704V9.696C74.325 10.32 74.485 10.432 75.109 10.432V12.112C74.869 12.16 74.757 12.16 74.453 12.16C72.981 12.16 72.245 11.408 72.245 9.696V0.927999L74.325 0.704ZM80.1084 12.16C77.3564 12.16 76.1244 10.896 76.1244 8.128C76.1244 5.328 77.2604 4.096 79.7084 4.096C82.1404 4.096 83.2764 5.328 83.2764 8.128V8.752H78.2684C78.3804 9.92 78.8924 10.496 80.1084 10.496C81.0524 10.496 81.7564 10.256 82.6524 9.744L83.2124 11.312C82.3804 11.808 81.3244 12.16 80.1084 12.16ZM81.1324 7.2C81.0204 6.32 80.6204 5.76 79.7084 5.76C78.8124 5.76 78.3964 6.32 78.2844 7.2H81.1324ZM91.7183 2.96V6.064H93.7503C94.8543 6.064 95.4943 5.552 95.4943 4.512C95.4943 3.472 94.8543 2.96 93.7503 2.96H91.7183ZM89.6063 12V1.248H93.7663C96.3423 1.248 97.6863 2.32 97.6863 4.512C97.6863 5.856 96.9503 6.944 95.7343 7.44L98.1023 12H95.8623L93.6703 7.776H91.7183V12H89.6063ZM103.187 12.16C100.435 12.16 99.2025 10.896 99.2025 8.128C99.2025 5.328 100.339 4.096 102.786 4.096C105.219 4.096 106.355 5.328 106.355 8.128V8.752H101.347C101.459 9.92 101.971 10.496 103.187 10.496C104.131 10.496 104.835 10.256 105.731 9.744L106.291 11.312C105.459 11.808 104.403 12.16 103.187 12.16ZM104.211 7.2C104.099 6.32 103.699 5.76 102.786 5.76C101.891 5.76 101.475 6.32 101.363 7.2H104.211ZM113.368 4.256V5.92H110.776V12H108.696V5.92H107.32V4.256H108.68V3.616C108.68 1.616 109.704 0.704 111.96 0.704C112.648 0.704 113.224 0.832 113.8 1.072L113.336 2.672C112.824 2.464 112.392 2.384 112.024 2.384C111.176 2.384 110.776 2.8 110.776 3.776V4.256H113.368ZM116.201 4.256L116.393 5.072C116.985 4.448 117.737 4.096 118.585 4.096C119.017 4.096 119.401 4.176 119.833 4.384V6.112C119.433 5.904 119.033 5.76 118.521 5.76C117.801 5.76 117.145 6.096 116.681 6.528V12H114.601V4.256H116.201ZM121.027 4.256H123.107V12H121.027V4.256ZM121.027 0.927999H123.107V2.784H121.027V0.927999ZM132.074 4.256V11.936C132.074 14.432 130.778 15.488 128.218 15.488C127.258 15.488 126.33 15.328 125.562 15.024L125.978 13.424C126.73 13.696 127.498 13.84 128.138 13.84C129.482 13.84 129.994 13.376 129.994 12.176V11.52C129.562 11.888 128.826 12.16 127.978 12.16C126.106 12.16 124.89 10.896 124.89 8.128C124.89 5.36 126.154 4.096 128.378 4.096C129.13 4.096 129.754 4.32 130.25 4.784L130.49 4.256H132.074ZM128.618 5.728C127.53 5.728 126.97 6.384 126.97 8.128C126.97 9.856 127.546 10.528 128.634 10.528C129.146 10.528 129.594 10.368 129.994 10.064V6.176C129.594 5.872 129.146 5.728 128.618 5.728ZM137.655 12.16C134.903 12.16 133.671 10.896 133.671 8.128C133.671 5.328 134.807 4.096 137.255 4.096C139.687 4.096 140.823 5.328 140.823 8.128V8.752H135.815C135.927 9.92 136.439 10.496 137.655 10.496C138.599 10.496 139.303 10.256 140.199 9.744L140.759 11.312C139.927 11.808 138.871 12.16 137.655 12.16ZM138.679 7.2C138.567 6.32 138.167 5.76 137.255 5.76C136.359 5.76 135.943 6.32 135.831 7.2H138.679ZM144.029 4.256L144.221 5.072C144.813 4.448 145.565 4.096 146.413 4.096C146.845 4.096 147.229 4.176 147.661 4.384V6.112C147.261 5.904 146.861 5.76 146.349 5.76C145.629 5.76 144.973 6.096 144.509 6.528V12H142.429V4.256H144.029ZM154.953 12H153.401L153.129 11.408C152.569 11.872 151.817 12.16 150.921 12.16C149.113 12.16 148.249 11.264 148.249 9.616C148.249 7.952 149.257 7.152 151.737 7.152C152.041 7.152 152.425 7.152 152.873 7.2V7.072C152.873 6.112 152.521 5.728 151.433 5.728C150.745 5.728 149.929 5.92 149.113 6.352L148.521 4.896C149.481 4.4 150.489 4.096 151.625 4.096C154.121 4.096 154.953 4.88 154.953 7.36V12ZM151.369 10.528C151.817 10.528 152.441 10.288 152.873 9.984V8.752C152.537 8.704 152.169 8.688 151.673 8.688C150.665 8.688 150.329 8.928 150.329 9.568C150.329 10.192 150.681 10.528 151.369 10.528ZM159.476 5.92V9.168C159.476 10.192 159.764 10.496 160.516 10.496C161.044 10.496 161.588 10.288 162.084 10.048L162.452 11.568C161.7 11.952 160.804 12.16 159.972 12.16C158.1 12.16 157.396 11.296 157.396 9.44V5.92H156.148V4.256H157.396V2.768L159.476 2.4V4.256H162.18V5.92H159.476ZM163.312 8.128C163.312 5.328 164.528 4.096 167.136 4.096C169.712 4.096 170.944 5.36 170.944 8.128C170.944 10.896 169.712 12.16 167.136 12.16C164.528 12.16 163.312 10.928 163.312 8.128ZM165.392 8.128C165.392 9.664 165.84 10.496 167.136 10.496C168.432 10.496 168.864 9.664 168.864 8.128C168.864 6.592 168.432 5.76 167.136 5.76C165.84 5.76 165.392 6.592 165.392 8.128ZM174.138 4.256L174.33 5.072C174.922 4.448 175.674 4.096 176.522 4.096C176.954 4.096 177.338 4.176 177.77 4.384V6.112C177.37 5.904 176.97 5.76 176.458 5.76C175.738 5.76 175.082 6.096 174.618 6.528V12H172.538V4.256H174.138Z" fill="#F6F3EB"/>
</svg>
