<svg width="183" height="16" viewBox="0 0 183 16" fill="none" xmlns="http://www.w3.org/2000/svg">
<g clip-path="url(#clip0_1329_18140)">
<path d="M52.4776 0V0.505429H51.5452V3.19052H50.8973V0.505429H49.9492V0H52.4618H52.4776Z" fill="white"/>
<path d="M56.2707 0V3.17473H55.6228V0.489635H55.5912L54.9907 3.17473H54.1532L53.5369 0.489635H53.4895V3.17473H52.8574V0H53.9952L54.5957 2.68509H54.6273L55.2119 0H56.3023H56.2707Z" fill="white"/>
<path d="M9.60772 0L8.62798 1.92695H3.76092C2.84439 1.92695 2.33872 2.57453 2.33872 3.2695C2.33872 3.96446 2.63896 4.53307 3.44487 4.7542L7.2848 5.89141C9.22846 6.47581 10.0028 7.75518 10.0028 9.20829C10.0028 11.2458 8.80181 12.7305 6.38407 12.7305H0.0316043L1.01134 10.8036H6.13124C7.04777 10.8036 7.71146 10.3297 7.71146 9.41362C7.71146 8.68707 7.39541 8.13426 6.63691 7.89734L2.59155 6.71273C0.995536 6.23889 0 5.08588 0 3.41165C0.0790108 1.62685 1.31158 0 3.71351 0H9.60772Z" fill="white"/>
<path d="M14.4119 12.7319C12.326 12.7319 11.2988 11.6894 11.2988 9.65191V0.601562H13.4163V3.42881H17.0666L16.1659 5.27678H13.4163V9.65191C13.4163 10.489 13.843 10.9313 14.5857 10.9313H17.1298L16.2133 12.7319H14.4119Z" fill="white"/>
<path d="M20.4477 15.9845L21.8067 12.7308L17.793 3.42773H20.0527L22.8655 10.2984L25.5518 3.42773H27.7799L22.5494 16.0003H20.4477V15.9845Z" fill="white"/>
<path d="M31.1141 12.7305C29.8025 12.7305 28.9492 11.925 28.9492 10.4719V0H31.0667V10.2349C31.0667 10.693 31.2879 10.9299 31.7146 10.9299H32.9314L32.0306 12.7305H31.1141Z" fill="white"/>
<path d="M37.6721 12.7296C34.8435 12.7296 33.2949 10.6131 33.2949 7.95961C33.2949 5.30611 34.9225 3.17383 37.8459 3.17383C40.7693 3.17383 42.4128 5.13237 42.4128 8.03859V9.00206H35.4914C35.6494 10.2025 36.5976 10.9448 37.7353 10.9448H41.8281L40.9274 12.7296H37.6879H37.6721ZM40.2321 7.23306C40.1215 5.77995 39.3313 4.97442 37.8617 4.97442C36.4712 4.97442 35.5072 5.95369 35.4598 7.23306H40.2321Z" fill="white"/>
<path d="M43.7715 12.7308V6.63405C43.7715 4.81767 44.9566 3.42773 47.0267 3.42773H49.6183L48.7018 5.27571H47.2954C46.4262 5.27571 45.9048 5.82852 45.9048 6.69723V12.7466H43.7873L43.7715 12.7308Z" fill="white"/>
<path d="M59.542 9.85338C59.3998 9.7744 59.226 9.69543 59.0521 9.63225C58.8625 9.56907 58.6887 9.4901 58.4991 9.42692C58.3094 9.36374 58.1198 9.28477 57.9302 9.22159C57.7405 9.14262 57.5667 9.06365 57.3929 8.98467C57.1875 8.87411 56.9978 8.76355 56.8398 8.65298C56.6818 8.54242 56.5396 8.41606 56.429 8.25812C56.3184 8.11596 56.2393 7.94222 56.1761 7.73689C56.1129 7.54736 56.0971 7.31044 56.0971 7.04193C56.0971 6.71024 56.1603 6.41014 56.3026 6.14163C56.429 5.88892 56.6344 5.66779 56.8714 5.49405C57.1243 5.32031 57.4245 5.19395 57.7722 5.09918C58.1198 5.00442 58.4991 4.95703 58.9257 4.95703C59.3524 4.95703 59.7632 5.00442 60.1583 5.08339C60.5691 5.16236 60.9326 5.30451 61.2802 5.49405L60.8536 6.39435C60.6165 6.26799 60.3321 6.17322 60.0003 6.07845C59.6684 5.98368 59.305 5.9363 58.9099 5.9363C58.3884 5.9363 57.9776 6.03107 57.7089 6.2206C57.4403 6.41014 57.2981 6.66286 57.2981 6.97875C57.2981 7.23146 57.3613 7.43679 57.5035 7.59474C57.6457 7.75269 57.8196 7.87905 58.025 7.97381C58.1672 8.03699 58.3252 8.11596 58.4832 8.17914C58.6571 8.24232 58.8309 8.3055 59.0047 8.38447C59.1785 8.44765 59.3682 8.52663 59.5578 8.58981C59.7474 8.66878 59.9212 8.74775 60.0951 8.82673C60.2689 8.92149 60.4427 9.03206 60.5849 9.12682C60.743 9.23739 60.8694 9.36374 60.98 9.5059C61.0906 9.64805 61.1854 9.82179 61.2486 10.0271C61.3118 10.2325 61.3434 10.4694 61.3434 10.7537C61.3434 11.0854 61.2802 11.3855 61.138 11.654C60.9958 11.9067 60.8062 12.1278 60.5691 12.3173C60.3163 12.4911 60.0319 12.6332 59.6684 12.728C59.3208 12.8228 58.9257 12.8702 58.4991 12.8702C58.0724 12.8702 57.6299 12.8228 57.1875 12.728C56.745 12.6332 56.35 12.4911 55.9707 12.3016L56.4132 11.4013C56.7608 11.575 57.1085 11.7014 57.4245 11.7803C57.7564 11.8593 58.0882 11.9067 58.4674 11.9067C59.0521 11.9067 59.4788 11.8119 59.7474 11.6066C60.0161 11.4013 60.1425 11.1485 60.1425 10.8326C60.1425 10.5957 60.0793 10.4062 59.9528 10.2482C59.8264 10.0903 59.6684 9.96394 59.4946 9.86917L59.542 9.85338Z" fill="white"/>
<path d="M65.7686 12.7286V9.49069C65.7686 9.31695 65.7686 9.14321 65.737 9.00106C65.7211 8.84311 65.6737 8.71675 65.6105 8.60619C65.5473 8.49563 65.4525 8.40086 65.3419 8.33768C65.2155 8.2745 65.0575 8.24291 64.8678 8.24291C64.6466 8.24291 64.4412 8.2745 64.2515 8.32189C64.0619 8.38507 63.9039 8.46404 63.7617 8.55881L63.5563 8.70096V12.7444H62.3711V4.86286L63.5563 4.7207V7.76907C63.7143 7.65851 63.8881 7.57954 64.0777 7.53215C64.4886 7.39 64.8678 7.32682 65.2155 7.32682C65.5631 7.32682 65.8476 7.37421 66.0846 7.45318C66.3058 7.54795 66.4797 7.67431 66.6219 7.83225C66.7483 7.9902 66.8431 8.19553 66.8905 8.43245C66.9379 8.66937 66.9695 8.95367 66.9695 9.25377V12.7444H65.7844L65.7686 12.7286Z" fill="white"/>
<path d="M70.3027 12.8546C69.8286 12.8546 69.4336 12.7915 69.1175 12.6651C68.8015 12.5388 68.5486 12.3492 68.3748 12.1123C68.1852 11.8754 68.0588 11.5753 67.9798 11.2278C67.9007 10.8803 67.8691 10.4854 67.8691 10.059C67.8691 9.11131 68.0746 8.41634 68.5012 7.97409C68.9279 7.53184 69.6074 7.29492 70.5555 7.29492C71.0138 7.29492 71.4088 7.3581 71.7249 7.48446C72.0409 7.61082 72.2937 7.80035 72.4834 8.03727C72.673 8.27419 72.8152 8.57429 72.8942 8.92177C72.9732 9.26926 73.0206 9.66412 73.0206 10.0906C73.0206 11.0383 72.7994 11.7174 72.3728 12.1755C71.9303 12.6177 71.2508 12.8389 70.3185 12.8389L70.3027 12.8546ZM70.3027 12.0175C70.5871 12.0175 70.8241 11.9701 71.0296 11.8912C71.2192 11.8122 71.3772 11.6858 71.4878 11.5121C71.5985 11.3384 71.6775 11.133 71.7249 10.8803C71.7723 10.6276 71.7881 10.3433 71.7881 10.0116C71.7881 9.75889 71.7723 9.52197 71.7407 9.28505C71.7091 9.04813 71.6459 8.85859 71.551 8.68485C71.4562 8.51111 71.3298 8.36896 71.1718 8.27419C71.0138 8.17942 70.8083 8.11624 70.5555 8.11624C70.2711 8.11624 70.034 8.16363 69.8444 8.2426C69.6548 8.33737 69.4968 8.46373 69.3861 8.63747C69.2755 8.81121 69.1965 9.01654 69.1491 9.26926C69.1017 9.52197 69.0859 9.80627 69.0859 10.138C69.0859 10.4065 69.0859 10.6434 69.1333 10.8645C69.1649 11.0856 69.2281 11.291 69.3229 11.4489C69.4177 11.6227 69.5442 11.749 69.7022 11.8438C69.8602 11.9386 70.0656 11.9859 70.3185 11.9859L70.3027 12.0175Z" fill="white"/>
<path d="M76.2924 12.8546C75.8025 12.8546 75.4074 12.7915 75.0756 12.6809C74.7438 12.5703 74.4909 12.3966 74.2855 12.1597C74.0801 11.9228 73.9379 11.6385 73.8588 11.2752C73.7798 10.9277 73.7324 10.517 73.7324 10.0432C73.7324 8.21101 74.5699 7.29492 76.2608 7.29492C76.719 7.29492 77.0983 7.3581 77.3827 7.48446C77.6672 7.61082 77.9042 7.80035 78.0622 8.02148C78.2202 8.2584 78.3467 8.52691 78.4099 8.8428C78.4731 9.15869 78.5047 9.50618 78.5047 9.88525V10.3591H74.9492C74.9492 10.8961 75.0598 11.2752 75.2494 11.5121C75.4865 11.8122 75.8973 11.9701 76.4662 11.9701C76.8612 11.9701 77.1931 11.9228 77.4617 11.828C77.7304 11.7332 77.9516 11.6385 78.157 11.5437L78.4099 12.3018C78.315 12.365 78.1886 12.4282 78.0306 12.4914C77.8726 12.5545 77.6988 12.6177 77.5091 12.6651C77.3195 12.7125 77.1141 12.7599 76.9087 12.7915C76.6874 12.8231 76.482 12.8389 76.2766 12.8389L76.2924 12.8546ZM77.2721 9.55356C77.2721 9.04813 77.1931 8.68485 77.0193 8.44793C76.8455 8.22681 76.5926 8.10045 76.245 8.10045C75.8499 8.10045 75.5655 8.19522 75.3758 8.36896C75.1862 8.5427 75.0756 8.82701 75.0124 9.19028L74.965 9.53777H77.2721V9.55356Z" fill="white"/>
<path d="M82.7082 12.8561C81.5072 12.8561 80.6381 12.5087 80.1008 11.8611C79.5636 11.1977 79.2949 10.2184 79.2949 8.92328C79.2949 7.62811 79.5952 6.58567 80.2114 5.93808C80.8119 5.3063 81.6811 4.97461 82.803 4.97461C83.2771 4.97461 83.7353 5.05358 84.1936 5.22732C84.6519 5.38527 85.0153 5.65378 85.2997 5.98547L84.5886 6.69623C84.3674 6.45931 84.1304 6.26977 83.8459 6.14341C83.5773 6.01706 83.2297 5.93808 82.8346 5.93808C82.0445 5.93808 81.4598 6.1908 81.0964 6.71202C80.7329 7.23325 80.5433 7.99139 80.5433 9.01804C80.5433 9.94993 80.7171 10.6449 81.0648 11.1187C81.4124 11.5926 81.9813 11.8295 82.7398 11.8295C83.1981 11.8295 83.6089 11.7821 83.9724 11.6873C84.3358 11.5926 84.6677 11.482 84.9521 11.3557L85.2523 12.2875C84.9363 12.4455 84.557 12.5876 84.0988 12.6982C83.6405 12.8088 83.1665 12.8561 82.6766 12.8561H82.7082Z" fill="white"/>
<path d="M90.9091 12.7441C90.7827 12.7599 90.6405 12.7757 90.4667 12.7757C90.1822 12.7757 89.961 12.7283 89.803 12.6335C89.645 12.5388 89.5028 12.4124 89.4079 12.2229C89.2183 12.3966 88.9655 12.5388 88.6652 12.6651C88.365 12.7915 88.0332 12.8546 87.7013 12.8546C87.3695 12.8546 87.0534 12.8073 86.8322 12.7283C86.611 12.6335 86.4213 12.523 86.2949 12.365C86.1685 12.2071 86.0737 12.0333 86.0263 11.8438C85.9789 11.6543 85.9473 11.4331 85.9473 11.212C85.9473 10.8803 86.0105 10.596 86.1211 10.3749C86.2317 10.1538 86.3897 9.98002 86.5952 9.85366C86.8006 9.7273 87.0376 9.64833 87.3221 9.60094C87.6065 9.55356 87.9225 9.53777 88.2702 9.53777C88.4282 9.53777 88.5862 9.53777 88.7442 9.53777C88.9023 9.53777 89.0603 9.55356 89.2183 9.56935V9.31664C89.2183 9.11131 89.2025 8.92177 89.1709 8.77962C89.1393 8.63747 89.0761 8.51111 88.9813 8.43214C88.8865 8.33737 88.7759 8.27419 88.6178 8.22681C88.4756 8.17942 88.286 8.16363 88.0648 8.16363C87.7487 8.16363 87.4643 8.19522 87.1798 8.27419C86.8954 8.35316 86.6584 8.44793 86.4371 8.5585L86.1685 7.80035C86.4529 7.6582 86.7848 7.54764 87.164 7.43707C87.5433 7.34231 87.9383 7.29492 88.365 7.29492C88.7442 7.29492 89.0761 7.32651 89.3447 7.40548C89.6134 7.48446 89.8188 7.61082 89.9768 7.78456C90.1348 7.9583 90.2455 8.19522 90.3245 8.46373C90.3877 8.74803 90.4351 9.09551 90.4351 9.50618V11.291C90.4351 11.5437 90.4825 11.7016 90.5615 11.7964C90.6405 11.8912 90.7669 11.9228 90.925 11.9228V12.7441H90.9091ZM88.2386 10.3591C87.8435 10.3591 87.5591 10.4223 87.4169 10.5644C87.2588 10.7066 87.1956 10.9119 87.1956 11.1804C87.1956 11.4489 87.2588 11.67 87.3695 11.8122C87.4801 11.9543 87.7013 12.0333 88.0174 12.0333C88.207 12.0333 88.4124 11.9859 88.6336 11.907C88.8549 11.8122 89.0445 11.7016 89.2183 11.5595V10.4381C89.0445 10.4065 88.8865 10.3907 88.7285 10.3749C88.5704 10.3749 88.4124 10.3749 88.2544 10.3749L88.2386 10.3591Z" fill="white"/>
<path d="M92.5845 7.42128L92.6635 8.06886C92.8373 7.84774 93.0269 7.68979 93.2482 7.59502C93.5958 7.40548 93.9593 7.29492 94.3227 7.29492C94.4965 7.29492 94.6388 7.31072 94.781 7.34231C94.9232 7.3739 95.0338 7.40548 95.1286 7.43707L94.8284 8.41634C94.6546 8.32158 94.4333 8.27419 94.1805 8.27419C93.8645 8.27419 93.58 8.35316 93.3272 8.5427C93.2324 8.60588 93.1534 8.65326 93.0744 8.73224C92.9953 8.79542 92.9163 8.87439 92.8215 8.95336V12.7283H91.6364V8.90598L91.4941 7.42128H92.5845Z" fill="white"/>
<path d="M97.6889 12.8546C97.199 12.8546 96.8039 12.7915 96.4721 12.6809C96.1402 12.5703 95.8874 12.3966 95.682 12.1597C95.4766 11.9228 95.3343 11.6385 95.2553 11.2752C95.1763 10.9277 95.1289 10.517 95.1289 10.0432C95.1289 8.21101 95.9664 7.29492 97.6573 7.29492C98.1155 7.29492 98.4948 7.3581 98.7792 7.48446C99.0636 7.61082 99.3007 7.80035 99.4587 8.02148C99.6167 8.2584 99.7431 8.52691 99.8063 8.8428C99.8696 9.15869 99.9012 9.50618 99.9012 9.88525V10.3591H96.3457C96.3457 10.8961 96.4563 11.2752 96.6459 11.5121C96.8829 11.8122 97.2938 11.9701 97.8627 11.9701C98.2577 11.9701 98.5896 11.9228 98.8582 11.828C99.1269 11.7332 99.3481 11.6385 99.5535 11.5437L99.8063 12.3018C99.7115 12.365 99.5851 12.4282 99.4271 12.4914C99.2691 12.5545 99.0952 12.6177 98.9056 12.6651C98.716 12.7125 98.5106 12.7599 98.3051 12.7915C98.0839 12.8231 97.8785 12.8389 97.6731 12.8389L97.6889 12.8546ZM98.6686 9.55356C98.6686 9.04813 98.5896 8.68485 98.4158 8.44793C98.2419 8.22681 97.9891 8.10045 97.6415 8.10045C97.2464 8.10045 96.962 8.19522 96.7723 8.36896C96.5827 8.5427 96.4721 8.82701 96.4089 9.19028L96.3615 9.53777H98.6686V9.55356Z" fill="white"/>
</g>
<defs>
<clipPath id="clip0_1329_18140">
<rect width="183" height="16" fill="white"/>
</clipPath>
</defs>
</svg>
