<svg width="183" height="16" viewBox="0 0 183 16" fill="none" xmlns="http://www.w3.org/2000/svg">
<g clip-path="url(#clip0_1329_18118)">
<path d="M7.30119 0.0390625H12.3887L11.1848 2.42748H7.8449C4.50499 2.42748 2.77678 4.40813 2.77678 7.86454C2.77678 11.321 4.52441 13.3016 7.8449 13.3016H12.3887L11.1848 15.69H7.32061C3.26224 15.6512 0 12.855 0 7.86454C0 2.8741 3.24282 0.0778986 7.30119 0.0390625Z" fill="#221E1F"/>
<path d="M18.8365 3.92188C22.623 3.92188 24.7784 6.38797 24.7784 9.96089C24.7784 13.5338 22.623 15.9999 18.8365 15.9999C15.0499 15.9999 12.8945 13.5338 12.8945 9.96089C12.8945 6.38797 15.0499 3.92188 18.8365 3.92188ZM18.8365 13.7086C21.0307 13.7086 22.1764 12.2911 22.1764 9.96089C22.1764 7.63073 21.0307 6.23263 18.8365 6.23263C16.6422 6.23263 15.4966 7.63073 15.4966 9.96089C15.4966 12.2911 16.6228 13.7086 18.8365 13.7086Z" fill="#221E1F"/>
<path d="M26.4082 15.6891V8.17429C26.4082 5.94121 27.8646 4.23242 30.4277 4.23242H33.6123L32.4666 6.50434H30.719C29.651 6.50434 29.0102 7.18397 29.0102 8.25196V15.6891H26.4082Z" fill="#221E1F"/>
<path d="M38.9325 15.69C35.7867 15.69 33.3789 13.6317 33.3789 9.96169C33.3789 6.29168 35.8062 4.23337 38.9325 4.23337H41.1656V0.0390625H43.7676V15.69H38.9325ZM41.1656 6.44702H39.2626C37.1072 6.44702 36.0392 7.82571 36.0392 9.96169C36.0392 12.0977 37.146 13.4764 39.2626 13.4764H41.1656V6.46644V6.44702Z" fill="#221E1F"/>
<path d="M45.0898 15.6899L53.3619 2.36912H45.8277L47.0122 0.0195312H58.0611L49.789 13.3403H58.0999L56.896 15.6899H45.0898Z" fill="#221E1F"/>
<path d="M64.2752 15.6891C60.7993 15.6891 58.877 13.0871 58.877 9.80544C58.877 6.52378 60.877 3.90234 64.4888 3.90234C68.1005 3.90234 70.1006 6.3296 70.1006 9.90253V11.087H61.5955C61.7897 12.5628 62.9547 13.4755 64.3528 13.4755H69.3821L68.2753 15.6697H64.2946L64.2752 15.6891ZM67.4209 8.9122C67.2656 7.12574 66.3141 6.13542 64.4888 6.13542C62.78 6.13542 61.5955 7.33934 61.5372 8.9122H67.4209Z" fill="#221E1F"/>
<path d="M71.7109 15.6891V8.17429C71.7109 5.94121 73.1673 4.23242 75.7305 4.23242H78.915L77.7694 6.50434H76.0218C74.9538 6.50434 74.313 7.18397 74.313 8.25196V15.6891H71.7109Z" fill="#221E1F"/>
<path d="M84.6236 3.92188C88.4295 3.92188 90.5655 6.38797 90.5655 9.96089C90.5655 13.5338 88.4101 15.9999 84.6236 15.9999C80.837 15.9999 78.6816 13.5338 78.6816 9.96089C78.6816 6.38797 80.837 3.92188 84.6236 3.92188ZM84.6236 13.7086C86.8178 13.7086 87.9635 12.2911 87.9635 9.96089C87.9635 7.63073 86.8372 6.23263 84.6236 6.23263C82.4099 6.23263 81.2837 7.63073 81.2837 9.96089C81.2837 12.2911 82.4099 13.7086 84.6236 13.7086Z" fill="#221E1F"/>
<path d="M90.2382 0H93.3451V0.640796H92.18V3.96129H91.3838V0.640796H90.2188V0H90.2382Z" fill="#221E1F"/>
<path d="M93.7888 0H95.1869L95.9248 3.32049H95.9637L96.6627 0H98.022V3.94187H97.2258V0.621378H97.1676L96.4103 3.94187H95.3617L94.6044 0.621378H94.5461V3.94187H93.75V0H93.7888Z" fill="#221E1F"/>
</g>
<defs>
<clipPath id="clip0_1329_18118">
<rect width="183" height="16" fill="white"/>
</clipPath>
</defs>
</svg>
