<svg width="183" height="16" viewBox="0 0 183 16" fill="none" xmlns="http://www.w3.org/2000/svg">
<path d="M37.952 13L35.712 7.624L35.296 6.536H35.28L35.312 7.656V13H33.2V2.248H35.52L38.496 9.576L38.88 10.584H38.912L39.296 9.576L42.272 2.248H44.576V13H42.464V7.656L42.496 6.536H42.48L42.08 7.624L39.84 13H37.952ZM46.9173 5.256H48.9973V13H46.9173V5.256ZM46.9173 1.928H48.9973V3.784H46.9173V1.928ZM54.7646 11.496C55.5966 11.496 56.2846 11.272 56.9886 10.888L57.4526 12.472C56.7326 12.904 55.8046 13.16 54.7646 13.16C51.9966 13.16 50.7806 11.928 50.7806 9.128C50.7806 6.328 51.9966 5.096 54.6046 5.096C55.8366 5.096 56.8126 5.464 57.5326 6.184L56.4766 7.544C56.0126 7.048 55.3886 6.76 54.6846 6.76C53.5166 6.76 52.8606 7.384 52.8606 9.128C52.8606 10.856 53.4846 11.496 54.7646 11.496ZM60.4975 5.256L60.6895 6.072C61.2815 5.448 62.0335 5.096 62.8815 5.096C63.3135 5.096 63.6975 5.176 64.1295 5.384V7.112C63.7295 6.904 63.3295 6.76 62.8175 6.76C62.0975 6.76 61.4415 7.096 60.9775 7.528V13H58.8975V5.256H60.4975ZM64.7025 9.128C64.7025 6.328 65.9185 5.096 68.5265 5.096C71.1025 5.096 72.3345 6.36 72.3345 9.128C72.3345 11.896 71.1025 13.16 68.5265 13.16C65.9185 13.16 64.7025 11.928 64.7025 9.128ZM66.7825 9.128C66.7825 10.664 67.2305 11.496 68.5265 11.496C69.8225 11.496 70.2545 10.664 70.2545 9.128C70.2545 7.592 69.8225 6.76 68.5265 6.76C67.2305 6.76 66.7825 7.592 66.7825 9.128ZM79.8168 5.256L80.8728 9.176L81.2088 10.584H81.2408L81.4968 9.176L82.4088 5.256H84.4408L82.2168 13H80.1688L79.1928 9.272L78.8248 7.704H78.7928L78.4408 9.272L77.4648 13H75.4328L73.1928 5.256H75.2408L76.1528 9.176L76.4248 10.584H76.4568L76.7768 9.176L77.8168 5.256H79.8168ZM91.844 13H90.292L90.02 12.408C89.46 12.872 88.708 13.16 87.812 13.16C86.004 13.16 85.14 12.264 85.14 10.616C85.14 8.952 86.148 8.152 88.628 8.152C88.932 8.152 89.316 8.152 89.764 8.2V8.072C89.764 7.112 89.412 6.728 88.324 6.728C87.636 6.728 86.82 6.92 86.004 7.352L85.412 5.896C86.372 5.4 87.38 5.096 88.516 5.096C91.012 5.096 91.844 5.88 91.844 8.36V13ZM88.26 11.528C88.708 11.528 89.332 11.288 89.764 10.984V9.752C89.428 9.704 89.06 9.688 88.564 9.688C87.556 9.688 87.22 9.928 87.22 10.568C87.22 11.192 87.572 11.528 88.26 11.528ZM95.8228 13L92.8788 5.256H95.0228L96.2388 8.712L96.8788 10.696H96.9268L97.5188 8.712L98.7348 5.256H100.879L97.9348 13H95.8228ZM105.468 13.16C102.716 13.16 101.484 11.896 101.484 9.128C101.484 6.328 102.62 5.096 105.068 5.096C107.5 5.096 108.636 6.328 108.636 9.128V9.752H103.628C103.74 10.92 104.252 11.496 105.468 11.496C106.412 11.496 107.116 11.256 108.012 10.744L108.572 12.312C107.74 12.808 106.684 13.16 105.468 13.16ZM106.492 8.2C106.38 7.32 105.98 6.76 105.068 6.76C104.172 6.76 103.756 7.32 103.644 8.2H106.492ZM119.382 13.16C115.99 13.16 114.534 11 114.534 7.624C114.534 3.896 116.262 2.088 119.382 2.088C122.534 2.088 124.214 3.912 124.214 7.624C124.214 11.384 122.582 13.16 119.382 13.16ZM122.102 7.624C122.102 4.872 121.174 3.8 119.382 3.8C117.59 3.8 116.646 4.872 116.646 7.624C116.646 10.392 117.59 11.448 119.382 11.448C121.174 11.448 122.102 10.392 122.102 7.624ZM128.088 13L125.144 5.256H127.288L128.504 8.712L129.144 10.696H129.192L129.784 8.712L131 5.256H133.144L130.2 13H128.088ZM137.733 13.16C134.981 13.16 133.749 11.896 133.749 9.128C133.749 6.328 134.885 5.096 137.333 5.096C139.765 5.096 140.901 6.328 140.901 9.128V9.752H135.893C136.005 10.92 136.517 11.496 137.733 11.496C138.677 11.496 139.381 11.256 140.277 10.744L140.837 12.312C140.005 12.808 138.949 13.16 137.733 13.16ZM138.757 8.2C138.645 7.32 138.245 6.76 137.333 6.76C136.437 6.76 136.021 7.32 135.909 8.2H138.757ZM144.363 5.896C144.987 5.4 145.787 5.08 146.747 5.08C148.507 5.08 149.387 5.992 149.387 7.832V13H147.307V8.2C147.307 7.112 147.003 6.744 146.251 6.744C145.627 6.744 145.147 6.904 144.587 7.208V13H142.507V5.256H144.059L144.363 5.896Z" fill="#F6F3EB"/>
</svg>
