<svg width="183" height="16" viewBox="0 0 183 16" fill="none" xmlns="http://www.w3.org/2000/svg">
<path d="M24 15.869V0H31.2439C34.4716 0 36.2322 1.92069 36.2322 5.12806C36.2322 8.33542 34.4716 10.2748 31.2256 10.2748H26.6775V15.869H24ZM26.6775 7.86923H31.0972C32.7661 7.86923 33.4996 6.75039 33.4996 5.12806C33.4996 3.50573 32.656 2.40552 31.0972 2.40552H26.6775V7.86923Z" fill="white"/>
<path d="M40.5971 4.26953V11.8964C40.5971 12.9779 41.0372 13.5373 42.0642 13.5373H45.4386V4.26953H48.0428V15.8683H41.5691C39.24 15.8683 37.9746 14.6375 37.9746 12.0269V4.26953H40.5971Z" fill="white"/>
<path d="M50.3347 15.8683V8.26009C50.3347 6.00375 51.7835 4.26953 54.3327 4.26953H57.5053L56.3683 6.56317H54.6261C53.5624 6.56317 52.9206 7.25313 52.9206 8.33468V15.8683H50.3164H50.3347Z" fill="white"/>
<path d="M58.5312 2.33093V0H61.1354V2.33093H58.5312ZM58.5312 15.869V4.27027H61.1354V15.869H58.5312Z" fill="white"/>
<path d="M70.7833 0H75.8449L74.6345 2.42417H71.3152C67.9958 2.42417 66.2719 4.4381 66.2719 7.92518C66.2719 11.4123 67.9958 13.4262 71.3152 13.4262H75.8449L74.6345 15.8504H70.7833C66.7304 15.7944 63.4844 12.9786 63.4844 7.92518C63.4844 2.87171 66.7487 0.0559424 70.7833 0Z" fill="white"/>
<path d="M80.4671 15.8693C78.1013 15.8693 76.8359 14.3029 76.8359 12.3636C76.8359 10.4243 78.1197 8.85788 80.4671 8.85788H84.6851V8.09333C84.6851 7.04908 84.1716 6.471 83.0896 6.471H77.6979L78.7799 4.25195H83.0896C85.8037 4.25195 87.2342 5.61322 87.2342 8.09333V15.8507H80.4671V15.8693ZM80.6871 11.0023C79.8435 11.0023 79.4584 11.6364 79.4584 12.345C79.4584 13.0536 79.8619 13.6689 80.6688 13.6689H84.6851V11.0023H80.6871Z" fill="white"/>
<path d="M89.489 15.8683V8.26009C89.489 6.00375 90.9378 4.26953 93.487 4.26953H96.6596L95.5226 6.56317H93.7804C92.7167 6.56317 92.0748 7.25313 92.0748 8.33468V15.8683H89.4707H89.489Z" fill="white"/>
<path d="M101.776 15.8689C98.3096 15.8689 96.4023 13.2209 96.4023 9.92032C96.4023 6.61971 98.4013 3.95312 101.977 3.95312C105.554 3.95312 107.553 6.39594 107.553 10.0136V11.207H99.0798C99.2632 12.6988 100.419 13.6312 101.831 13.6312H106.837L105.737 15.8502H101.757L101.776 15.8689ZM104.912 9.02524C104.765 7.21643 103.811 6.20947 101.996 6.20947C100.29 6.20947 99.1165 7.4402 99.0615 9.02524H104.912Z" fill="white"/>
<path d="M107.588 0H110.669V0.634014H109.532V3.97191H108.762V0.634014H107.606V0H107.588Z" fill="white"/>
<path d="M111.109 0H112.485L113.218 3.3379H113.255L113.952 0H115.291V3.97191H114.52V0.615367H114.465L113.732 3.95326H112.705L111.953 0.615367H111.898V3.95326H111.109V0Z" fill="white"/>
<path d="M118.758 0H118.428V15.8504H118.758V0Z" fill="white"/>
<path d="M126.387 6.90045L125.745 4.99841H122.994L122.353 6.90045H121.197L123.655 0.0195312H125.14L127.561 6.90045H126.387ZM124.333 0.877315L123.288 4.12198H125.452L124.425 0.877315H124.333Z" fill="white"/>
<path d="M130.292 7.01315C129.87 7.01315 129.503 6.95721 129.21 6.86397C128.916 6.75208 128.678 6.6029 128.513 6.39778C128.348 6.19266 128.201 5.91295 128.128 5.61459C128.054 5.29758 128.018 4.92463 128.018 4.49574C128.018 2.83611 128.769 2.01562 130.255 2.01562C130.658 2.01562 130.989 2.07157 131.245 2.18345C131.502 2.29534 131.704 2.46316 131.85 2.66829C131.997 2.87341 132.089 3.13447 132.162 3.41419C132.217 3.6939 132.254 4.0109 132.254 4.34656V4.77545H129.118C129.118 5.26029 129.21 5.59594 129.375 5.81971C129.595 6.09942 129.943 6.22995 130.457 6.22995C130.805 6.22995 131.099 6.19266 131.337 6.09942C131.575 6.00619 131.777 5.9316 131.96 5.83836L132.181 6.52831C132.181 6.52831 131.979 6.6402 131.85 6.69614C131.704 6.75208 131.557 6.80803 131.392 6.86397C131.227 6.91991 131.044 6.95721 130.86 6.97585C130.677 6.9945 130.493 7.01315 130.31 7.01315H130.292ZM131.154 4.02955C131.154 3.58201 131.08 3.24636 130.933 3.04124C130.787 2.83611 130.548 2.72423 130.237 2.72423C129.888 2.72423 129.631 2.79882 129.466 2.96665C129.301 3.13447 129.191 3.37689 129.136 3.71255L129.1 4.02955H131.135H131.154Z" fill="white"/>
<path d="M134.071 2.12751L134.144 2.70558C134.291 2.50046 134.474 2.35128 134.658 2.27669C134.969 2.09021 135.281 2.01562 135.611 2.01562C135.758 2.01562 135.905 2.01562 136.015 2.05292C136.143 2.09021 136.235 2.10886 136.327 2.14616L136.07 3.02259C135.923 2.92935 135.721 2.89206 135.483 2.89206C135.208 2.89206 134.951 2.96665 134.731 3.13447C134.658 3.19042 134.566 3.24636 134.511 3.3023C134.456 3.35824 134.364 3.43283 134.291 3.50742V6.91991H133.246V3.47013L133.117 2.12751H134.089H134.071Z" fill="white"/>
<path d="M138.602 7.01333C138.18 7.01333 137.831 6.95739 137.556 6.84551C137.281 6.73362 137.061 6.5658 136.896 6.34203C136.731 6.11826 136.621 5.85719 136.548 5.54018C136.474 5.22318 136.438 4.86888 136.438 4.47728C136.438 3.61949 136.621 3.00413 137.006 2.59388C137.391 2.18364 137.996 1.97852 138.84 1.97852C139.243 1.97852 139.592 2.03446 139.867 2.14634C140.142 2.25823 140.362 2.42606 140.545 2.64982C140.729 2.87359 140.839 3.13466 140.912 3.45167C140.986 3.76867 141.022 4.12298 141.022 4.51457C141.022 5.35371 140.821 5.98772 140.435 6.37932C140.05 6.78957 139.445 6.97604 138.62 6.97604L138.602 7.01333ZM138.602 6.24879C138.858 6.24879 139.078 6.21149 139.243 6.1369C139.408 6.06231 139.555 5.95043 139.647 5.80125C139.757 5.65207 139.812 5.46559 139.867 5.24182C139.904 5.01805 139.922 4.75699 139.922 4.45863C139.922 4.23486 139.922 4.01109 139.867 3.80597C139.83 3.60085 139.775 3.41437 139.702 3.26519C139.61 3.11601 139.5 2.98548 139.372 2.89224C139.225 2.799 139.06 2.76171 138.822 2.76171C138.565 2.76171 138.363 2.799 138.18 2.87359C137.996 2.94818 137.868 3.06007 137.776 3.2279C137.666 3.37708 137.611 3.5822 137.556 3.80597C137.519 4.02974 137.501 4.2908 137.501 4.58916C137.501 4.83158 137.501 5.0367 137.538 5.24182C137.575 5.44695 137.611 5.61477 137.703 5.7826C137.776 5.93178 137.905 6.06231 138.033 6.1369C138.18 6.23014 138.363 6.26744 138.583 6.26744L138.602 6.24879Z" fill="white"/>
<path d="M122.959 15.8692H121.877V8.98828H125.93V9.86471H122.959V11.8973H125.71V12.7551H122.959V15.8692Z" fill="white"/>
<path d="M130.917 14.6004L131.009 15.8684H130.037L129.982 15.4954C129.982 15.4954 129.799 15.626 129.707 15.6633C129.615 15.7006 129.505 15.7565 129.414 15.7752C129.23 15.8497 129.065 15.887 128.9 15.9243C128.735 15.9616 128.57 15.9803 128.405 15.9803C128.093 15.9803 127.855 15.943 127.653 15.8684C127.451 15.7938 127.305 15.6819 127.195 15.5327C127.085 15.3836 126.993 15.1971 126.956 14.992C126.919 14.7682 126.883 14.5258 126.883 14.2461V11.1133H127.946V14.0409C127.946 14.2088 127.946 14.3579 127.965 14.4885C127.965 14.619 128.02 14.7495 128.075 14.8428C128.13 14.9547 128.203 15.0293 128.313 15.0852C128.423 15.1411 128.552 15.1784 128.735 15.1784C128.937 15.1784 129.102 15.1598 129.267 15.1038C129.432 15.0479 129.579 14.992 129.707 14.8987C129.762 14.8428 129.817 14.8055 129.872 14.7682V11.1133H130.936V14.619L130.917 14.6004Z" fill="white"/>
<path d="M132.971 11.0963L133.045 11.6743C133.191 11.4692 133.375 11.32 133.558 11.2454C133.87 11.059 134.182 10.9844 134.512 10.9844C134.658 10.9844 134.805 10.9844 134.915 11.0217C135.044 11.059 135.135 11.0776 135.227 11.1149L134.97 11.9913C134.823 11.8981 134.622 11.8608 134.383 11.8608C134.108 11.8608 133.851 11.9354 133.631 12.1032C133.558 12.1592 133.466 12.2151 133.411 12.2711C133.356 12.327 133.265 12.4016 133.191 12.4762V15.8887H132.146V12.4389L132.018 11.0963H132.99H132.971Z" fill="white"/>
<path d="M136.675 11.0963L136.712 11.4692C136.712 11.4692 136.895 11.3573 136.987 11.3014C137.079 11.2454 137.189 11.2081 137.299 11.1708C137.665 11.0403 137.996 10.9844 138.307 10.9844C138.619 10.9844 138.876 11.0217 139.078 11.0963C139.279 11.1708 139.426 11.2827 139.554 11.4319C139.664 11.5811 139.756 11.7676 139.793 11.9913C139.829 12.2151 139.866 12.4575 139.866 12.7372V15.87H138.821V12.961C138.821 12.7932 138.821 12.644 138.784 12.5135C138.784 12.3829 138.729 12.2524 138.674 12.1592C138.619 12.0659 138.527 11.9727 138.436 11.9167C138.326 11.8608 138.197 11.8235 138.014 11.8235C137.812 11.8235 137.629 11.8422 137.464 11.8981C137.299 11.954 137.152 12.0286 137.024 12.1032L136.84 12.2338V15.87H135.795V12.3643L135.703 11.0963H136.675Z" fill="white"/>
<path d="M141.002 9.0625H142.066V10.0135H141.002V9.0625ZM141.002 11.0764H142.047V15.8502H141.002V11.0764Z" fill="white"/>
<path d="M144.635 11.9168V14.0799C144.635 14.2477 144.635 14.3969 144.635 14.5274C144.635 14.658 144.672 14.7698 144.727 14.8631C144.782 14.9563 144.856 15.0309 144.947 15.0869C145.039 15.1428 145.186 15.1614 145.369 15.1614C145.534 15.1614 145.681 15.1428 145.846 15.1055C145.993 15.0682 146.139 15.0123 146.268 14.9563L146.451 15.6836C146.011 15.8887 145.534 16.0006 145.039 16.0006C144.727 16.0006 144.489 15.9633 144.305 15.8887C144.122 15.8141 143.975 15.7022 143.865 15.553C143.755 15.4039 143.682 15.236 143.645 15.0309C143.608 14.8258 143.59 14.602 143.59 14.3596V11.9354H142.783V11.2268L143.572 11.1336V10.1826L144.635 9.99609V11.1336H146.323V11.9541H144.635V11.9168Z" fill="white"/>
<path d="M151.199 14.6004L151.29 15.8684H150.318L150.263 15.4954C150.263 15.4954 150.08 15.626 149.988 15.6633C149.897 15.7006 149.787 15.7565 149.695 15.7752C149.511 15.8497 149.346 15.887 149.181 15.9243C149.016 15.9616 148.851 15.9803 148.686 15.9803C148.374 15.9803 148.136 15.943 147.934 15.8684C147.733 15.7938 147.586 15.6819 147.476 15.5327C147.366 15.3836 147.274 15.1971 147.237 14.992C147.201 14.7682 147.164 14.5258 147.164 14.2461V11.1133H148.228V14.0409C148.228 14.2088 148.228 14.3579 148.246 14.4885C148.246 14.619 148.301 14.7495 148.356 14.8428C148.411 14.9547 148.484 15.0293 148.595 15.0852C148.705 15.1411 148.833 15.1784 149.016 15.1784C149.218 15.1784 149.383 15.1598 149.548 15.1038C149.713 15.0479 149.86 14.992 149.988 14.8987C150.043 14.8428 150.098 14.8055 150.153 14.7682V11.1133H151.217V14.619L151.199 14.6004Z" fill="white"/>
<path d="M153.254 11.0963L153.328 11.6743C153.474 11.4692 153.658 11.32 153.841 11.2454C154.153 11.059 154.465 10.9844 154.795 10.9844C154.942 10.9844 155.088 10.9844 155.198 11.0217C155.327 11.059 155.418 11.0776 155.51 11.1149L155.253 11.9913C155.107 11.8981 154.905 11.8608 154.667 11.8608C154.391 11.8608 154.135 11.9354 153.915 12.1032C153.841 12.1592 153.75 12.2151 153.695 12.2711C153.64 12.327 153.548 12.4016 153.474 12.4762V15.8887H152.429V12.4389L152.301 11.0963H153.273H153.254Z" fill="white"/>
<path d="M157.876 15.9819C157.454 15.9819 157.087 15.926 156.794 15.8327C156.5 15.7208 156.262 15.5717 156.097 15.3665C155.932 15.1614 155.785 14.8817 155.712 14.5833C155.638 14.2663 155.602 13.8934 155.602 13.4645C155.602 11.8049 156.353 10.9844 157.839 10.9844C158.242 10.9844 158.572 11.0403 158.829 11.1522C159.086 11.2641 159.288 11.4319 159.434 11.637C159.581 11.8422 159.673 12.1032 159.746 12.3829C159.801 12.6626 159.838 12.9797 159.838 13.3153V13.7442H156.702C156.702 14.229 156.794 14.5647 156.959 14.7885C157.179 15.0682 157.527 15.1987 158.041 15.1987C158.389 15.1987 158.683 15.1614 158.921 15.0682C159.159 14.9749 159.361 14.9003 159.544 14.8071L159.765 15.4971C159.765 15.4971 159.563 15.6089 159.434 15.6649C159.288 15.7208 159.141 15.7768 158.976 15.8327C158.811 15.8887 158.628 15.926 158.444 15.9446C158.261 15.9633 158.077 15.9819 157.894 15.9819H157.876ZM158.738 12.9983C158.738 12.5508 158.664 12.2151 158.517 12.01C158.371 11.8049 158.132 11.693 157.821 11.693C157.472 11.693 157.215 11.7676 157.05 11.9354C156.885 12.1032 156.775 12.3456 156.72 12.6813L156.684 12.9983H158.719H158.738Z" fill="white"/>
</svg>
