<svg width="183" height="16" viewBox="0 0 183 16" fill="none" xmlns="http://www.w3.org/2000/svg">
<path d="M0 15.9065V0H7.13088C10.3082 0 12.0413 1.92523 12.0413 5.14019C12.0413 8.35514 10.3082 10.2991 7.11283 10.2991H2.63572V15.9065H0ZM2.63572 7.88785H6.98646C8.62927 7.88785 9.35139 6.76635 9.35139 5.14019C9.35139 3.51402 8.52095 2.41121 6.98646 2.41121H2.63572V7.88785Z" fill="#231F20"/>
<path d="M16.3374 4.28125V11.9261C16.3374 13.0102 16.7707 13.571 17.7817 13.571H21.1034V4.28125H23.6669V15.9074H17.2942C15.0015 15.9074 13.7559 14.6738 13.7559 12.057V4.28125H16.3374Z" fill="#231F20"/>
<path d="M25.9243 15.9074V8.28125C25.9243 6.01957 27.3505 4.28125 29.8598 4.28125H32.983L31.8637 6.58032H30.1487C29.1016 6.58032 28.4698 7.2719 28.4698 8.35602V15.9074H25.9062H25.9243Z" fill="#231F20"/>
<path d="M33.9941 2.33645V0H36.5576V2.33645H33.9941ZM33.9941 15.9065V4.28037H36.5576V15.9065H33.9941Z" fill="#231F20"/>
<path d="M46.0522 0H51.0348L49.8433 2.42991H46.5758C43.3082 2.42991 41.6112 4.4486 41.6112 7.94392C41.6112 11.4393 43.3082 13.4579 46.5758 13.4579H51.0348L49.8433 15.8878H46.0522C42.0625 15.8318 38.8672 13.0093 38.8672 7.94392C38.8672 2.8785 42.0806 0.0560748 46.0522 0Z" fill="#231F20"/>
<path d="M55.5842 15.9066C53.2554 15.9066 52.0098 14.3365 52.0098 12.3926C52.0098 10.4486 53.2735 8.87854 55.5842 8.87854H59.7364V8.11219C59.7364 7.06546 59.2309 6.48602 58.1658 6.48602H52.8583L53.9234 4.26172H58.1658C60.8376 4.26172 62.2457 5.6262 62.2457 8.11219V15.8879H55.5842V15.9066ZM55.8009 11.0281C54.9704 11.0281 54.5913 11.6636 54.5913 12.3739C54.5913 13.0841 54.9885 13.701 55.7828 13.701H59.7364V11.0281H55.8009Z" fill="#231F20"/>
<path d="M64.4673 15.9074V8.28125C64.4673 6.01957 65.8934 4.28125 68.4028 4.28125H71.5259L70.4067 6.58032H68.6916C67.6446 6.58032 67.0127 7.2719 67.0127 8.35602V15.9074H64.4492H64.4673Z" fill="#231F20"/>
<path d="M76.5629 15.9068C73.1509 15.9068 71.2734 13.2526 71.2734 9.9442C71.2734 6.63579 73.2412 3.96289 76.7615 3.96289C80.2818 3.96289 82.2496 6.41149 82.2496 10.0377V11.2339H73.9092C74.0897 12.7292 75.227 13.6638 76.6171 13.6638H81.5455L80.4623 15.8881H76.5449L76.5629 15.9068ZM79.65 9.047C79.5055 7.23392 78.5668 6.22457 76.7796 6.22457C75.1006 6.22457 73.9453 7.45822 73.8911 9.047H79.65Z" fill="#231F20"/>
<path d="M82.2852 0H85.318V0.635514H84.1988V3.98131H83.4405V0.635514H82.3032V0H82.2852Z" fill="#231F20"/>
<path d="M85.752 0H87.1059L87.828 3.34579H87.8641L88.5501 0H89.868V3.98131H89.1098V0.616822H89.0556L88.3335 3.96262H87.3226L86.5824 0.616822H86.5282V3.96262H85.752V0Z" fill="#231F20"/>
<path d="M93.28 0H92.9551V15.8878H93.28V0Z" fill="#231F20"/>
<path d="M101.421 15.8874L100.79 13.9809H98.0817L97.4498 15.8874H96.3125L98.7135 8.99023H100.176L102.559 15.8874H101.403H101.421ZM99.3995 9.85005L98.3705 13.1024H100.501L99.4898 9.85005H99.3995Z" fill="#231F20"/>
<path d="M105.266 15.9996C104.851 15.9996 104.49 15.9435 104.201 15.85C103.912 15.7379 103.677 15.5884 103.515 15.3828C103.352 15.1771 103.208 14.8968 103.136 14.5977C103.063 14.28 103.027 13.9061 103.027 13.4762C103.027 11.8127 103.768 10.9902 105.23 10.9902C105.627 10.9902 105.952 11.0463 106.205 11.1585C106.457 11.2706 106.656 11.4388 106.8 11.6444C106.945 11.85 107.035 12.1117 107.107 12.3921C107.161 12.6725 107.198 12.9902 107.198 13.3267V13.7566H104.111C104.111 14.2426 104.201 14.579 104.363 14.8033C104.58 15.0837 104.923 15.2145 105.428 15.2145C105.771 15.2145 106.06 15.1771 106.295 15.0837C106.53 14.9902 106.728 14.9155 106.909 14.822L107.125 15.5136C107.125 15.5136 106.927 15.6257 106.8 15.6818C106.656 15.7379 106.512 15.794 106.349 15.85C106.187 15.9061 106.006 15.9435 105.826 15.9622C105.645 15.9809 105.464 15.9996 105.284 15.9996H105.266ZM106.114 13.0089C106.114 12.5603 106.042 12.2239 105.898 12.0183C105.753 11.8127 105.519 11.7005 105.212 11.7005C104.869 11.7005 104.616 11.7753 104.454 11.9435C104.291 12.1117 104.183 12.3547 104.129 12.6912L104.092 13.0089H106.096H106.114Z" fill="#231F20"/>
<path d="M108.986 11.1024L109.058 11.6818C109.202 11.4762 109.383 11.3267 109.563 11.2519C109.87 11.065 110.177 10.9902 110.502 10.9902C110.646 10.9902 110.791 10.9902 110.899 11.0276C111.026 11.065 111.116 11.0837 111.206 11.1211L110.953 11.9996C110.809 11.9061 110.61 11.8687 110.376 11.8687C110.105 11.8687 109.852 11.9435 109.636 12.1117C109.563 12.1678 109.473 12.2239 109.419 12.28C109.365 12.336 109.274 12.4108 109.202 12.4856V15.9061H108.173V12.4482L108.047 11.1024H109.004H108.986Z" fill="#231F20"/>
<path d="M113.445 15.9999C113.029 15.9999 112.686 15.9438 112.416 15.8316C112.145 15.7195 111.928 15.5513 111.766 15.327C111.603 15.1027 111.495 14.841 111.423 14.5232C111.351 14.2055 111.314 13.8503 111.314 13.4578C111.314 12.598 111.495 11.9812 111.874 11.5699C112.253 11.1587 112.849 10.9531 113.679 10.9531C114.077 10.9531 114.42 11.0092 114.69 11.1213C114.961 11.2335 115.178 11.4017 115.358 11.626C115.539 11.8503 115.647 12.112 115.719 12.4298C115.792 12.7475 115.828 13.1027 115.828 13.4952C115.828 14.3363 115.629 14.9718 115.25 15.3643C114.871 15.7756 114.275 15.9625 113.463 15.9625L113.445 15.9999ZM113.445 15.2335C113.697 15.2335 113.914 15.1961 114.077 15.1213C114.239 15.0466 114.383 14.9344 114.474 14.7849C114.582 14.6354 114.636 14.4485 114.69 14.2242C114.726 13.9999 114.745 13.7382 114.745 13.4391C114.745 13.2148 114.744 12.9905 114.69 12.7849C114.654 12.5793 114.6 12.3924 114.528 12.2428C114.438 12.0933 114.329 11.9625 114.203 11.869C114.058 11.7756 113.896 11.7382 113.661 11.7382C113.409 11.7382 113.21 11.7756 113.029 11.8503C112.849 11.9251 112.723 12.0372 112.632 12.2055C112.524 12.355 112.47 12.5606 112.416 12.7849C112.38 13.0092 112.362 13.2709 112.362 13.5699C112.362 13.8129 112.362 14.0185 112.398 14.2242C112.434 14.4298 112.47 14.598 112.56 14.7662C112.632 14.9157 112.759 15.0466 112.885 15.1213C113.029 15.2148 113.21 15.2522 113.427 15.2522L113.445 15.2335Z" fill="#231F20"/>
<path d="M120.232 8.99023V9.86874H118.21V15.8874H117.145V9.86874H115.123V8.99023H120.232Z" fill="#231F20"/>
<path d="M121.66 15.9999C121.244 15.9999 120.901 15.9438 120.631 15.8316C120.36 15.7195 120.143 15.5513 119.981 15.327C119.818 15.1027 119.71 14.841 119.638 14.5232C119.565 14.2055 119.529 13.8503 119.529 13.4578C119.529 12.598 119.71 11.9812 120.089 11.5699C120.468 11.1587 121.064 10.9531 121.894 10.9531C122.291 10.9531 122.634 11.0092 122.905 11.1213C123.176 11.2335 123.393 11.4017 123.573 11.626C123.754 11.8503 123.862 12.112 123.934 12.4298C124.006 12.7475 124.043 13.1027 124.043 13.4952C124.043 14.3363 123.844 14.9718 123.465 15.3643C123.086 15.7756 122.49 15.9625 121.678 15.9625L121.66 15.9999ZM121.66 15.2335C121.912 15.2335 122.129 15.1961 122.291 15.1213C122.454 15.0466 122.598 14.9344 122.689 14.7849C122.797 14.6354 122.851 14.4485 122.905 14.2242C122.941 13.9999 122.959 13.7382 122.959 13.4391C122.959 13.2148 122.959 12.9905 122.905 12.7849C122.869 12.5793 122.815 12.3924 122.743 12.2428C122.652 12.0933 122.544 11.9625 122.418 11.869C122.273 11.7756 122.111 11.7382 121.876 11.7382C121.623 11.7382 121.425 11.7756 121.244 11.8503C121.064 11.9251 120.937 12.0372 120.847 12.2055C120.739 12.355 120.685 12.5606 120.631 12.7849C120.594 13.0092 120.576 13.2709 120.576 13.5699C120.576 13.8129 120.576 14.0185 120.612 14.2242C120.649 14.4298 120.685 14.598 120.775 14.7662C120.847 14.9157 120.974 15.0466 121.1 15.1213C121.244 15.2148 121.425 15.2522 121.641 15.2522L121.66 15.2335Z" fill="#231F20"/>
<path d="M128.717 11.1016L129.457 15.1389H129.547L130.45 11.1016H131.479L130.215 15.8866H128.771L128.031 11.8492H127.922L127.164 15.8866H125.702L124.492 11.1016H125.575L126.442 15.1389H126.532L127.29 11.1016H128.735H128.717Z" fill="#231F20"/>
<path d="M134.061 15.9996C133.646 15.9996 133.285 15.9435 132.996 15.85C132.707 15.7379 132.472 15.5884 132.31 15.3828C132.147 15.1771 132.003 14.8968 131.931 14.5977C131.858 14.28 131.822 13.9061 131.822 13.4762C131.822 11.8127 132.562 10.9902 134.025 10.9902C134.422 10.9902 134.747 11.0463 135 11.1585C135.252 11.2706 135.451 11.4388 135.595 11.6444C135.74 11.85 135.83 12.1117 135.902 12.3921C135.956 12.6725 135.992 12.9902 135.992 13.3267V13.7566H132.905C132.905 14.2426 132.996 14.579 133.158 14.8033C133.375 15.0837 133.718 15.2145 134.223 15.2145C134.566 15.2145 134.855 15.1771 135.09 15.0837C135.325 14.9902 135.523 14.9155 135.704 14.822L135.92 15.5136C135.92 15.5136 135.722 15.6257 135.595 15.6818C135.451 15.7379 135.306 15.794 135.144 15.85C134.982 15.9061 134.801 15.9435 134.62 15.9622C134.44 15.9809 134.259 15.9996 134.079 15.9996H134.061ZM134.909 13.0089C134.909 12.5603 134.837 12.2239 134.693 12.0183C134.548 11.8127 134.314 11.7005 134.007 11.7005C133.664 11.7005 133.411 11.7753 133.248 11.9435C133.086 12.1117 132.978 12.3547 132.923 12.6912L132.887 13.0089H134.891H134.909Z" fill="#231F20"/>
<path d="M137.798 11.1024L137.87 11.6818C138.015 11.4762 138.195 11.3267 138.376 11.2519C138.683 11.065 138.99 10.9902 139.315 10.9902C139.459 10.9902 139.603 10.9902 139.712 11.0276C139.838 11.065 139.928 11.0837 140.019 11.1211L139.766 11.9996C139.621 11.9061 139.423 11.8687 139.188 11.8687C138.917 11.8687 138.665 11.9435 138.448 12.1117C138.376 12.1678 138.286 12.2239 138.231 12.28C138.177 12.336 138.087 12.4108 138.015 12.4856V15.9061H136.986V12.4482L136.859 11.1024H137.816H137.798Z" fill="#231F20"/>
</svg>
