<svg width="183" height="16" viewBox="0 0 183 16" fill="none" xmlns="http://www.w3.org/2000/svg">
<path d="M57.9585 15.9847C55.3292 15.9847 54 14.6803 54 12.1151V0.738281H56.6877V4.28901H61.3181L60.1787 6.60785H56.6877V12.1151C56.6877 13.1731 57.2281 13.7238 58.1776 13.7238H61.4057L60.2372 15.9992H57.9439L57.9585 15.9847Z" fill="white"/>
<path d="M63.2168 2.34783V0H65.9045V2.34783H63.2168ZM63.2168 16V4.28986H65.9045V15.9855H63.2168V16Z" fill="white"/>
<path d="M68.6504 2.34783V0H71.3381V2.34783H68.6504ZM68.6504 16V4.28986H71.3381V15.9855H68.6504V16Z" fill="white"/>
<path d="M76.5099 4.28906V11.9847C76.5099 13.0717 76.9627 13.6369 78.029 13.6369H81.5054V4.28906H84.1931V15.9847H77.5031C75.093 15.9847 73.793 14.7528 73.793 12.1151V4.28906H76.5099Z" fill="white"/>
<path d="M94.2282 15.9847V8.23109C94.2282 7.14413 93.7754 6.57892 92.7091 6.57892H89.2326V15.9847H86.5449V4.28906H93.2349C95.6451 4.28906 96.9451 5.52095 96.9451 8.15863V15.9847H94.2282Z" fill="white"/>
<path d="M102.919 7.63649L102.963 8.30316C103.255 8.08577 103.562 7.91185 103.883 7.76693C104.467 7.54954 105.022 7.43359 105.563 7.43359C106.103 7.43359 106.556 7.50606 106.892 7.63649C107.228 7.78142 107.476 7.96983 107.666 8.23069L107.71 8.30316C108.017 8.07127 108.353 7.89736 108.718 7.76693C109.039 7.65099 109.346 7.57852 109.638 7.52055C109.93 7.46258 110.222 7.43359 110.515 7.43359C111.055 7.43359 111.493 7.50606 111.844 7.63649C112.194 7.78142 112.472 7.96983 112.676 8.24519C112.881 8.50606 113.012 8.83939 113.1 9.2162C113.173 9.59301 113.217 10.0278 113.217 10.5061V15.9843H111.333V10.8974C111.333 10.6075 111.333 10.3466 111.303 10.1003C111.274 9.85388 111.23 9.65098 111.143 9.47707C111.055 9.30316 110.924 9.15823 110.748 9.05678C110.573 8.95533 110.339 8.91185 110.033 8.91185C109.682 8.91185 109.375 8.95533 109.083 9.05678C108.806 9.14374 108.543 9.27417 108.324 9.43359L108.134 9.56403C108.163 9.85388 108.192 10.1727 108.192 10.5061V15.9843H106.322V10.8974C106.322 10.6075 106.322 10.3466 106.293 10.1003C106.279 9.85388 106.22 9.65098 106.132 9.47707C106.045 9.30316 105.913 9.15823 105.738 9.05678C105.563 8.95533 105.314 8.91185 105.022 8.91185C104.672 8.91185 104.365 8.95533 104.087 9.05678C103.81 9.14374 103.562 9.27417 103.343 9.43359L103.211 9.52055V15.9988H101.341V9.86838L101.195 7.65099H102.934L102.919 7.63649Z" fill="white"/>
<path d="M115.072 4.11523H116.971V5.7819H115.072V4.11523ZM115.087 7.63697H116.957V15.9848H115.087V7.63697Z" fill="white"/>
<path d="M120.535 7.63649L120.608 8.30316C120.769 8.18722 120.929 8.10026 121.105 7.99881C121.28 7.89736 121.47 7.83939 121.66 7.76693C122.303 7.54954 122.901 7.43359 123.456 7.43359C124.012 7.43359 124.464 7.50606 124.83 7.63649C125.195 7.76693 125.472 7.96983 125.677 8.23069C125.881 8.49156 126.027 8.81041 126.1 9.18722C126.173 9.56403 126.217 9.99881 126.217 10.4916V15.9698H124.348V10.8829C124.348 10.593 124.333 10.3321 124.289 10.0858C124.26 9.83939 124.187 9.63649 124.085 9.46258C123.982 9.28867 123.836 9.14374 123.646 9.04229C123.456 8.94084 123.208 8.89736 122.901 8.89736C122.551 8.89736 122.215 8.94084 121.923 9.04229C121.631 9.12925 121.368 9.25968 121.149 9.4191L120.813 9.63649V15.9843H118.943V9.85388L118.797 7.63649H120.535Z" fill="white"/>
<path d="M128.086 4.11523H129.985V5.7819H128.086V4.11523ZM128.101 7.63697H129.97V15.9848H128.101V7.63697Z" fill="white"/>
</svg>
