<svg width="183" height="16" viewBox="0 0 183 16" fill="none" xmlns="http://www.w3.org/2000/svg">
<path d="M49.3012 0.0390625H54.3887L53.1848 2.42748H49.8449C46.505 2.42748 44.7768 4.40813 44.7768 7.86454C44.7768 11.321 46.5244 13.3016 49.8449 13.3016H54.3887L53.1848 15.69H49.3206C45.2622 15.6512 42 12.855 42 7.86454C42 2.8741 45.2428 0.0778986 49.3012 0.0390625Z" fill="white"/>
<path d="M60.8365 3.92188C64.6424 3.92188 66.7784 6.38797 66.7784 9.96089C66.7784 13.5338 64.623 15.9999 60.8365 15.9999C57.0499 15.9999 54.8945 13.5338 54.8945 9.96089C54.8945 6.38797 57.0499 3.92188 60.8365 3.92188ZM60.8365 13.7086C63.0307 13.7086 64.1764 12.2911 64.1764 9.96089C64.1764 7.63073 63.0307 6.23263 60.8365 6.23263C58.6422 6.23263 57.4966 7.63073 57.4966 9.96089C57.4966 12.2911 58.6228 13.7086 60.8365 13.7086Z" fill="white"/>
<path d="M68.4082 15.6891V8.17429C68.4082 5.94121 69.8646 4.23242 72.4277 4.23242H75.6123L74.4666 6.50434H72.719C71.651 6.50434 71.0102 7.18397 71.0102 8.25196V15.6891H68.4082Z" fill="white"/>
<path d="M80.9325 15.69C77.7867 15.69 75.3789 13.6317 75.3789 9.96169C75.3789 6.29168 77.8062 4.23337 80.9325 4.23337H83.1656V0.0390625H85.7676V15.69H80.9325ZM83.1656 6.44702H81.2626C79.1072 6.44702 78.0392 7.82571 78.0392 9.96169C78.0392 12.0977 79.146 13.4764 81.2626 13.4764H83.1656V6.46644V6.44702Z" fill="white"/>
<path d="M87.0898 15.6899L95.3619 2.36912H87.8277L89.0122 0.0195312H100.061L91.789 13.3403H100.1L98.896 15.6899H87.0898Z" fill="white"/>
<path d="M106.256 15.6891C102.78 15.6891 100.857 13.0871 100.857 9.80544C100.857 6.52378 102.857 3.90234 106.469 3.90234C110.081 3.90234 112.081 6.3296 112.081 9.90253V11.087H103.576C103.77 12.5628 104.935 13.4755 106.333 13.4755H111.363L110.256 15.6697H106.275L106.256 15.6891ZM109.401 8.9122C109.246 7.12574 108.295 6.13542 106.469 6.13542C104.76 6.13542 103.576 7.33934 103.518 8.9122H109.401Z" fill="white"/>
<path d="M113.711 15.6891V8.17429C113.711 5.94121 115.167 4.23242 117.73 4.23242H120.915L119.769 6.50434H118.022C116.954 6.50434 116.313 7.18397 116.313 8.25196V15.6891H113.711Z" fill="white"/>
<path d="M126.624 3.92188C130.43 3.92188 132.566 6.38797 132.566 9.96089C132.566 13.5338 130.41 15.9999 126.624 15.9999C122.837 15.9999 120.682 13.5338 120.682 9.96089C120.682 6.38797 122.837 3.92188 126.624 3.92188ZM126.624 13.7086C128.818 13.7086 129.963 12.2911 129.963 9.96089C129.963 7.63073 128.818 6.23263 126.624 6.23263C124.429 6.23263 123.284 7.63073 123.284 9.96089C123.284 12.2911 124.41 13.7086 126.624 13.7086Z" fill="white"/>
<path d="M132.238 0H135.345V0.640796H134.18V3.96129H133.384V0.640796H132.219V0H132.238Z" fill="white"/>
<path d="M135.789 0H137.187L137.925 3.32049H137.964L138.663 0H140.022V3.94187H139.226V0.621378H139.168L138.41 3.94187H137.362L136.604 0.621378H136.546V3.94187H135.75V0H135.789Z" fill="white"/>
</svg>
