<svg width="183" height="16" viewBox="0 0 183 16" fill="none" xmlns="http://www.w3.org/2000/svg">
<g clip-path="url(#clip0_1865_41694)">
<path d="M28 15.9066V0H35.2085C38.4204 0 40.1723 1.92525 40.1723 5.14022C40.1723 8.35519 38.4204 10.2991 35.1902 10.2991H30.6644V15.9066H28ZM30.6644 7.8879H35.0625C36.7232 7.8879 37.4531 6.7664 37.4531 5.14022C37.4531 3.51404 36.6137 2.41123 35.0625 2.41123H30.6644V7.8879Z" fill="white"/>
<path d="M44.5159 4.2793V11.9242C44.5159 13.0083 44.9539 13.5691 45.9759 13.5691H49.3337V4.2793H51.9251V15.9055H45.4831C43.1655 15.9055 41.9062 14.6719 41.9062 12.055V4.2793H44.5159Z" fill="white"/>
<path d="M54.2057 15.9055V8.27932C54.2057 6.01762 55.6474 4.2793 58.1841 4.2793H61.3412L60.2098 6.57838H58.4761C57.4176 6.57838 56.7789 7.26997 56.7789 8.35409V15.9055H54.1875H54.2057Z" fill="white"/>
<path d="M62.3633 2.33646V0H64.9547V2.33646H62.3633ZM62.3633 15.9066V4.2804H64.9547V15.9066H62.3633Z" fill="white"/>
<path d="M74.5542 0H79.5911L78.3866 2.42992H75.0835C71.7803 2.42992 70.0649 4.44862 70.0649 7.94397C70.0649 11.4393 71.7803 13.458 75.0835 13.458H79.5911L78.3866 15.8879H74.5542C70.5211 15.8319 67.291 13.0094 67.291 7.94397C67.291 2.87852 70.5394 0.0560751 74.5542 0Z" fill="white"/>
<path d="M84.1895 15.9066C81.8354 15.9066 80.5762 14.3365 80.5762 12.3926C80.5762 10.4487 81.8536 8.87857 84.1895 8.87857H88.3869V8.11221C88.3869 7.06547 87.8759 6.48603 86.7992 6.48603H81.4339L82.5106 4.26172H86.7992C89.5001 4.26172 90.9235 5.62621 90.9235 8.11221V15.888H84.1895V15.9066ZM84.4085 11.0281C83.5691 11.0281 83.1858 11.6636 83.1858 12.3739C83.1858 13.0842 83.5873 13.701 84.3903 13.701H88.3869V11.0281H84.4085Z" fill="white"/>
<path d="M93.1686 15.9055V8.27932C93.1686 6.01762 94.6103 4.2793 97.147 4.2793H100.304L99.1727 6.57838H97.439C96.3805 6.57838 95.7418 7.26997 95.7418 8.35409V15.9055H93.1504H93.1686Z" fill="white"/>
<path d="M105.396 15.9069C101.947 15.9069 100.049 13.2527 100.049 9.94423C100.049 6.6358 102.038 3.96289 105.597 3.96289C109.155 3.96289 111.144 6.4115 111.144 10.0377V11.234H102.713C102.896 12.7293 104.045 13.6639 105.451 13.6639H110.433L109.338 15.8882H105.378L105.396 15.9069ZM108.517 9.04703C108.371 7.23394 107.422 6.22459 105.615 6.22459C103.918 6.22459 102.75 7.45824 102.695 9.04703H108.517Z" fill="white"/>
<path d="M111.18 0H114.246V0.635518H113.114V3.98133H112.348V0.635518H111.198V0H111.18Z" fill="white"/>
<path d="M114.686 0H116.054L116.784 3.34581H116.821L117.514 0H118.846V3.98133H118.08V0.616826H118.025L117.295 3.96264H116.273L115.525 0.616826H115.47V3.96264H114.686V0Z" fill="white"/>
<path d="M122.295 0H121.967V15.8879H122.295V0Z" fill="white"/>
<path d="M130.543 6.89724L129.905 4.99068H127.167L126.529 6.89724H125.379L127.843 0H129.321L131.73 6.89724H130.562H130.543ZM128.5 0.859818L127.459 4.11217H129.613L128.591 0.859818H128.5Z" fill="white"/>
<path d="M132.387 0.0742188H133.445V1.0275H132.387V0.0742188ZM132.387 2.09292H133.427V6.878H132.387V2.11161V2.09292Z" fill="white"/>
<path d="M135.488 2.11215L135.561 2.69159C135.707 2.48598 135.89 2.33645 136.072 2.26168C136.382 2.07477 136.692 2 137.021 2C137.167 2 137.313 2 137.422 2.03738C137.55 2.07477 137.641 2.09346 137.733 2.13084L137.477 3.00935C137.331 2.91589 137.13 2.87851 136.893 2.87851C136.619 2.87851 136.364 2.95328 136.145 3.1215C136.072 3.17758 135.981 3.23365 135.926 3.28973C135.871 3.3458 135.78 3.42057 135.707 3.49534V6.91592H134.667V3.45795L134.539 2.11215H135.506H135.488Z" fill="white"/>
<path d="M125.508 15.8875V8.99023H127.898C128.665 8.99023 129.231 9.15846 129.632 9.49491C130.034 9.83136 130.234 10.3547 130.234 11.065C130.234 11.4202 130.18 11.7379 130.07 12.0183C129.961 12.2987 129.815 12.523 129.614 12.7099C129.413 12.8968 129.194 13.0463 128.92 13.1398C128.647 13.2333 128.355 13.2893 128.044 13.2893H126.585V15.8688H125.508V15.8875ZM127.862 12.4295C128.026 12.4295 128.19 12.4108 128.355 12.3547C128.519 12.2987 128.647 12.2239 128.756 12.1117C128.866 11.9996 128.957 11.8688 129.03 11.7005C129.103 11.5323 129.139 11.3267 129.139 11.0837C129.139 10.8594 129.103 10.6725 129.03 10.523C128.957 10.3734 128.866 10.2426 128.738 10.1491C128.628 10.0557 128.482 9.98089 128.336 9.94351C128.19 9.90613 128.026 9.88744 127.862 9.88744H126.566V12.4482H127.862V12.4295Z" fill="white"/>
<path d="M135.07 14.6164L135.161 15.8875H134.194L134.139 15.5136C134.139 15.5136 133.956 15.6445 133.865 15.6819C133.774 15.7193 133.664 15.7753 133.573 15.794C133.391 15.8688 133.226 15.9062 133.062 15.9436C132.898 15.9809 132.734 15.9996 132.569 15.9996C132.259 15.9996 132.022 15.9622 131.821 15.8875C131.62 15.8127 131.474 15.7006 131.365 15.551C131.255 15.4015 131.164 15.2146 131.128 15.009C131.091 14.7847 131.055 14.5417 131.055 14.2613V11.1211H132.113V14.0557C132.113 14.2239 132.113 14.3735 132.131 14.5043C132.131 14.6351 132.186 14.766 132.241 14.8594C132.296 14.9716 132.369 15.0464 132.478 15.1024C132.588 15.1585 132.715 15.1959 132.898 15.1959C133.099 15.1959 133.263 15.1772 133.427 15.1211C133.591 15.065 133.737 15.009 133.865 14.9155C133.92 14.8594 133.975 14.8221 134.029 14.7847V11.1211H135.088V14.6351L135.07 14.6164Z" fill="white"/>
<path d="M137.113 11.1024L137.186 11.6818C137.332 11.4762 137.515 11.3267 137.697 11.2519C138.007 11.065 138.317 10.9902 138.646 10.9902C138.792 10.9902 138.938 10.9902 139.047 11.0276C139.175 11.065 139.266 11.0837 139.358 11.1211L139.102 11.9996C138.956 11.9061 138.755 11.8687 138.518 11.8687C138.244 11.8687 137.989 11.9435 137.77 12.1117C137.697 12.1678 137.606 12.2239 137.551 12.28C137.496 12.336 137.405 12.4108 137.332 12.4856V15.9062H136.292V12.4482L136.164 11.1024H137.131H137.113Z" fill="white"/>
<path d="M139.812 9.06641H140.871V10.0197H139.812V9.06641ZM139.812 11.0851H140.853V15.8702H139.812V11.0851Z" fill="white"/>
<path d="M145.015 11.104V11.9265H143.372V15.9078H142.332V11.9265H141.639V11.104H142.332V10.5246C142.332 10.1694 142.369 9.87037 142.46 9.60869C142.551 9.36569 142.679 9.17878 142.843 9.02924C143.007 8.87971 143.19 8.78625 143.427 8.73018C143.664 8.6741 143.902 8.63672 144.194 8.63672C144.376 8.63672 144.559 8.63672 144.759 8.6741C144.942 8.69279 145.106 8.74887 145.252 8.80494L145.033 9.59C144.924 9.53392 144.796 9.49654 144.668 9.47785C144.54 9.47785 144.413 9.44046 144.303 9.44046C143.975 9.44046 143.737 9.51523 143.591 9.68345C143.445 9.85168 143.391 10.1134 143.391 10.5059V11.0853H145.033L145.015 11.104Z" fill="white"/>
<path d="M145.709 9.06641H146.767V10.0197H145.709V9.06641ZM145.709 11.0851H146.749V15.8702H145.709V11.0851Z" fill="white"/>
<path d="M149.997 15.9996C149.578 15.9996 149.213 15.9435 148.921 15.8501C148.629 15.7379 148.391 15.5884 148.227 15.3828C148.063 15.1772 147.917 14.8968 147.844 14.5977C147.771 14.28 147.734 13.9061 147.734 13.4762C147.734 11.8127 148.483 10.9902 149.961 10.9902C150.362 10.9902 150.691 11.0463 150.946 11.1585C151.202 11.2706 151.402 11.4388 151.548 11.6444C151.694 11.8501 151.786 12.1117 151.859 12.3921C151.913 12.6725 151.95 12.9902 151.95 13.3267V13.7566H148.829C148.829 14.2426 148.921 14.579 149.085 14.8033C149.304 15.0837 149.651 15.2146 150.162 15.2146C150.508 15.2146 150.8 15.1772 151.037 15.0837C151.275 14.9903 151.475 14.9155 151.658 14.822L151.877 15.5136C151.877 15.5136 151.676 15.6258 151.548 15.6819C151.402 15.7379 151.256 15.794 151.092 15.8501C150.928 15.9061 150.746 15.9435 150.563 15.9622C150.381 15.9809 150.198 15.9996 150.016 15.9996H149.997ZM150.855 13.0089C150.855 12.5603 150.782 12.2239 150.636 12.0183C150.49 11.8127 150.253 11.7005 149.943 11.7005C149.596 11.7005 149.34 11.7753 149.176 11.9435C149.012 12.1117 148.902 12.3547 148.848 12.6912L148.811 13.0089H150.837H150.855Z" fill="white"/>
<path d="M153.756 11.1024L153.829 11.6818C153.975 11.4762 154.157 11.3267 154.34 11.2519C154.65 11.065 154.96 10.9902 155.289 10.9902C155.435 10.9902 155.581 10.9902 155.69 11.0276C155.818 11.065 155.909 11.0837 156 11.1211L155.745 11.9996C155.599 11.9061 155.398 11.8687 155.161 11.8687C154.887 11.8687 154.632 11.9435 154.413 12.1117C154.34 12.1678 154.248 12.2239 154.194 12.28C154.139 12.336 154.048 12.4108 153.975 12.4856V15.9062H152.934V12.4482L152.807 11.1024H153.774H153.756Z" fill="white"/>
</g>
<defs>
<clipPath id="clip0_1865_41694">
<rect width="183" height="16" fill="white"/>
</clipPath>
</defs>
</svg>
