<svg width="183" height="16" viewBox="0 0 183 16" fill="none" xmlns="http://www.w3.org/2000/svg">
<g clip-path="url(#clip0_1329_18143)">
<path d="M53.3954 0V0.50048H52.4445V3.17492H51.7947V0.50048H50.8438V0H53.3954Z" fill="#221E1F"/>
<path d="M57.2289 0V3.17492H56.5791V0.48484H56.5316L55.9135 3.17492H55.0576L54.4237 0.48484H54.392V3.17492H53.7422V0H54.8833L55.4856 2.69008H55.5173L56.1037 0H57.2131H57.2289Z" fill="#221E1F"/>
<path d="M9.71532 0L8.71684 1.92372H3.78786C2.85279 1.92372 2.36147 2.56496 2.36147 3.25312C2.36147 3.94128 2.6626 4.50432 3.47089 4.75456L7.35384 5.89628C9.3191 6.4906 10.0957 7.75744 10.0957 9.21196C10.0957 11.2452 8.87533 12.731 6.43461 12.731H0.0316983L1.03017 10.8072H6.22858C7.16366 10.8072 7.81346 10.338 7.81346 9.41528C7.81346 8.69584 7.49648 8.1328 6.71989 7.91384L2.6309 6.74084C1.01432 6.27164 0 5.11428 0 3.4408C0.079244 1.6422 1.3313 0.01564 3.75617 0.01564H9.73116L9.71532 0Z" fill="#221E1F"/>
<path d="M14.5955 12.7304C12.4877 12.7304 11.4258 11.6825 11.4258 9.64931V0.59375H13.5812V3.42459H17.2898L16.3706 5.27011H13.5812V9.64931C13.5812 10.4939 14.025 10.9318 14.7857 10.9318H17.3691L16.434 12.746H14.5955V12.7304Z" fill="#221E1F"/>
<path d="M20.698 15.9847L22.0768 12.7316L18.0195 3.42578H20.3018L23.1387 10.3074L25.8647 3.42578H28.1152L22.8217 16.0003H20.698V15.9847Z" fill="#221E1F"/>
<path d="M31.4918 12.731C30.1605 12.731 29.3047 11.9177 29.3047 10.4788V0H31.4443V10.2286C31.4443 10.6821 31.6662 10.9167 32.1099 10.9167H33.3461L32.4269 12.731H31.4918Z" fill="#221E1F"/>
<path d="M38.131 12.7299C35.2624 12.7299 33.6934 10.6028 33.6934 7.95967C33.6934 5.31651 35.3416 3.17383 38.3054 3.17383C41.2691 3.17383 42.9174 5.12883 42.9174 8.03787V9.00755H35.9122C36.0707 10.1962 37.0216 10.9469 38.1786 10.9469H42.3151L41.3959 12.7299H38.1152H38.131ZM40.7144 7.22459C40.6034 5.77007 39.811 4.97243 38.3054 4.97243C36.8948 4.97243 35.9122 5.95775 35.8805 7.22459H40.7144Z" fill="#221E1F"/>
<path d="M44.3301 12.7316V6.63198C44.3301 4.81774 45.5187 3.42578 47.6425 3.42578H50.2734L49.3383 5.2713H47.9119C47.0402 5.2713 46.5014 5.8187 46.5014 6.6789V12.7316H44.3618H44.3301Z" fill="#221E1F"/>
</g>
<defs>
<clipPath id="clip0_1329_18143">
<rect width="183" height="16" fill="white"/>
</clipPath>
</defs>
</svg>
