<svg width="183" height="16" viewBox="0 0 183 16" fill="none" xmlns="http://www.w3.org/2000/svg">
<path d="M8.064 10.448C9.104 10.448 10.144 10.144 11.104 9.632L11.632 11.296C10.608 11.856 9.328 12.16 8.048 12.16C4.448 12.16 2.768 10.16 2.768 6.624C2.768 2.832 4.464 1.088 7.808 1.088C9.408 1.088 10.768 1.712 11.584 2.592L10.416 3.904C9.776 3.2 8.912 2.8 7.808 2.8C5.872 2.8 4.88 3.984 4.88 6.624C4.88 9.136 5.872 10.448 8.064 10.448ZM12.8275 8.128C12.8275 5.328 14.0435 4.096 16.6515 4.096C19.2275 4.096 20.4595 5.36 20.4595 8.128C20.4595 10.896 19.2275 12.16 16.6515 12.16C14.0435 12.16 12.8275 10.928 12.8275 8.128ZM14.9075 8.128C14.9075 9.664 15.3555 10.496 16.6515 10.496C17.9475 10.496 18.3795 9.664 18.3795 8.128C18.3795 6.592 17.9475 5.76 16.6515 5.76C15.3555 5.76 14.9075 6.592 14.9075 8.128ZM23.9098 4.896C24.5338 4.4 25.3338 4.08 26.2938 4.08C28.0538 4.08 28.9338 4.992 28.9338 6.832V12H26.8538V7.2C26.8538 6.112 26.5498 5.744 25.7977 5.744C25.1738 5.744 24.6938 5.904 24.1338 6.208V12H22.0538V4.256H23.6058L23.9098 4.896ZM32.9165 12L29.9725 4.256H32.1165L33.3325 7.712L33.9725 9.696H34.0205L34.6125 7.712L35.8285 4.256H37.9725L35.0285 12H32.9165ZM42.5615 12.16C39.8095 12.16 38.5775 10.896 38.5775 8.128C38.5775 5.328 39.7135 4.096 42.1615 4.096C44.5935 4.096 45.7295 5.328 45.7295 8.128V8.752H40.7215C40.8335 9.92 41.3455 10.496 42.5615 10.496C43.5055 10.496 44.2095 10.256 45.1055 9.744L45.6655 11.312C44.8335 11.808 43.7775 12.16 42.5615 12.16ZM43.5855 7.2C43.4735 6.32 43.0735 5.76 42.1615 5.76C41.2655 5.76 40.8495 6.32 40.7375 7.2H43.5855ZM48.935 4.256L49.127 5.072C49.719 4.448 50.471 4.096 51.319 4.096C51.751 4.096 52.135 4.176 52.567 4.384V6.112C52.167 5.904 51.767 5.76 51.255 5.76C50.535 5.76 49.879 6.096 49.415 6.528V12H47.335V4.256H48.935ZM56.6949 5.92V9.168C56.6949 10.192 56.9829 10.496 57.7349 10.496C58.2629 10.496 58.8069 10.288 59.3029 10.048L59.6709 11.568C58.9189 11.952 58.0229 12.16 57.1909 12.16C55.3189 12.16 54.6149 11.296 54.6149 9.44V5.92H53.3669V4.256H54.6149V2.768L56.6949 2.4V4.256H59.3989V5.92H56.6949ZM61.1204 4.256H63.2004V12H61.1204V4.256ZM61.1204 0.927999H63.2004V2.784H61.1204V0.927999ZM68.7598 10.528C69.8478 10.528 70.4078 9.872 70.4078 8.128C70.4078 6.4 69.8318 5.728 68.7438 5.728C68.2318 5.728 67.7838 5.888 67.3838 6.192V10.08C67.7838 10.384 68.2318 10.528 68.7598 10.528ZM66.8878 12H65.3038V0.927999L67.3838 0.704V4.736C67.8158 4.368 68.5518 4.096 69.3998 4.096C71.2718 4.096 72.4878 5.36 72.4878 8.128C72.4878 10.896 71.1918 12.16 68.9998 12.16C68.2478 12.16 67.6238 11.936 67.1278 11.472L66.8878 12ZM76.325 0.704V9.696C76.325 10.32 76.485 10.432 77.109 10.432V12.112C76.869 12.16 76.757 12.16 76.453 12.16C74.981 12.16 74.245 11.408 74.245 9.696V0.927999L76.325 0.704ZM82.1084 12.16C79.3564 12.16 78.1244 10.896 78.1244 8.128C78.1244 5.328 79.2604 4.096 81.7084 4.096C84.1404 4.096 85.2764 5.328 85.2764 8.128V8.752H80.2684C80.3804 9.92 80.8924 10.496 82.1084 10.496C83.0524 10.496 83.7564 10.256 84.6524 9.744L85.2124 11.312C84.3804 11.808 83.3244 12.16 82.1084 12.16ZM83.1324 7.2C83.0204 6.32 82.6204 5.76 81.7084 5.76C80.8124 5.76 80.3964 6.32 80.2844 7.2H83.1324ZM93.7183 2.96V6.064H95.7503C96.8543 6.064 97.4943 5.552 97.4943 4.512C97.4943 3.472 96.8543 2.96 95.7503 2.96H93.7183ZM91.6063 12V1.248H95.7663C98.3423 1.248 99.6863 2.32 99.6863 4.512C99.6863 5.856 98.9503 6.944 97.7343 7.44L100.102 12H97.8623L95.6703 7.776H93.7183V12H91.6063ZM105.187 12.16C102.435 12.16 101.203 10.896 101.203 8.128C101.203 5.328 102.339 4.096 104.786 4.096C107.219 4.096 108.355 5.328 108.355 8.128V8.752H103.347C103.459 9.92 103.971 10.496 105.187 10.496C106.131 10.496 106.835 10.256 107.731 9.744L108.291 11.312C107.459 11.808 106.403 12.16 105.187 12.16ZM106.211 7.2C106.099 6.32 105.699 5.76 104.786 5.76C103.891 5.76 103.475 6.32 103.363 7.2H106.211ZM115.368 4.256V5.92H112.776V12H110.696V5.92H109.32V4.256H110.68V3.616C110.68 1.616 111.704 0.704 113.96 0.704C114.648 0.704 115.224 0.832 115.8 1.072L115.336 2.672C114.824 2.464 114.392 2.384 114.024 2.384C113.176 2.384 112.776 2.8 112.776 3.776V4.256H115.368ZM118.201 4.256L118.393 5.072C118.985 4.448 119.737 4.096 120.585 4.096C121.017 4.096 121.401 4.176 121.833 4.384V6.112C121.433 5.904 121.033 5.76 120.521 5.76C119.801 5.76 119.145 6.096 118.681 6.528V12H116.601V4.256H118.201ZM123.027 4.256H125.107V12H123.027V4.256ZM123.027 0.927999H125.107V2.784H123.027V0.927999ZM134.074 4.256V11.936C134.074 14.432 132.778 15.488 130.218 15.488C129.258 15.488 128.33 15.328 127.562 15.024L127.978 13.424C128.73 13.696 129.498 13.84 130.138 13.84C131.482 13.84 131.994 13.376 131.994 12.176V11.52C131.562 11.888 130.826 12.16 129.978 12.16C128.106 12.16 126.89 10.896 126.89 8.128C126.89 5.36 128.154 4.096 130.378 4.096C131.13 4.096 131.754 4.32 132.25 4.784L132.49 4.256H134.074ZM130.618 5.728C129.53 5.728 128.97 6.384 128.97 8.128C128.97 9.856 129.546 10.528 130.634 10.528C131.146 10.528 131.594 10.368 131.994 10.064V6.176C131.594 5.872 131.146 5.728 130.618 5.728ZM139.655 12.16C136.903 12.16 135.671 10.896 135.671 8.128C135.671 5.328 136.807 4.096 139.255 4.096C141.687 4.096 142.823 5.328 142.823 8.128V8.752H137.815C137.927 9.92 138.439 10.496 139.655 10.496C140.599 10.496 141.303 10.256 142.199 9.744L142.759 11.312C141.927 11.808 140.871 12.16 139.655 12.16ZM140.679 7.2C140.567 6.32 140.167 5.76 139.255 5.76C138.359 5.76 137.943 6.32 137.831 7.2H140.679ZM146.029 4.256L146.221 5.072C146.813 4.448 147.565 4.096 148.413 4.096C148.845 4.096 149.229 4.176 149.661 4.384V6.112C149.261 5.904 148.861 5.76 148.349 5.76C147.629 5.76 146.973 6.096 146.509 6.528V12H144.429V4.256H146.029ZM156.953 12H155.401L155.129 11.408C154.569 11.872 153.817 12.16 152.921 12.16C151.113 12.16 150.249 11.264 150.249 9.616C150.249 7.952 151.257 7.152 153.737 7.152C154.041 7.152 154.425 7.152 154.873 7.2V7.072C154.873 6.112 154.521 5.728 153.433 5.728C152.745 5.728 151.929 5.92 151.113 6.352L150.521 4.896C151.481 4.4 152.489 4.096 153.625 4.096C156.121 4.096 156.953 4.88 156.953 7.36V12ZM153.369 10.528C153.817 10.528 154.441 10.288 154.873 9.984V8.752C154.537 8.704 154.169 8.688 153.673 8.688C152.665 8.688 152.329 8.928 152.329 9.568C152.329 10.192 152.681 10.528 153.369 10.528ZM161.476 5.92V9.168C161.476 10.192 161.764 10.496 162.516 10.496C163.044 10.496 163.588 10.288 164.084 10.048L164.452 11.568C163.7 11.952 162.804 12.16 161.972 12.16C160.1 12.16 159.396 11.296 159.396 9.44V5.92H158.148V4.256H159.396V2.768L161.476 2.4V4.256H164.18V5.92H161.476ZM165.312 8.128C165.312 5.328 166.528 4.096 169.136 4.096C171.712 4.096 172.944 5.36 172.944 8.128C172.944 10.896 171.712 12.16 169.136 12.16C166.528 12.16 165.312 10.928 165.312 8.128ZM167.392 8.128C167.392 9.664 167.84 10.496 169.136 10.496C170.432 10.496 170.864 9.664 170.864 8.128C170.864 6.592 170.432 5.76 169.136 5.76C167.84 5.76 167.392 6.592 167.392 8.128ZM176.138 4.256L176.33 5.072C176.922 4.448 177.674 4.096 178.522 4.096C178.954 4.096 179.338 4.176 179.77 4.384V6.112C179.37 5.904 178.97 5.76 178.458 5.76C177.738 5.76 177.082 6.096 176.618 6.528V12H174.538V4.256H176.138Z" fill="#F6F3EB"/>
</svg>
