<svg width="183" height="16" viewBox="0 0 183 16" fill="none" xmlns="http://www.w3.org/2000/svg">
<path d="M37.4377 15.6637H33.6892L30 0.078125H32.7028L35.6424 13.099L38.9173 0.078125H41.5609L44.8556 13.099L47.7952 0.078125H50.498L46.8087 15.6637H43.0603L40.2391 4.16193L37.4179 15.6637H37.4377Z" fill="white"/>
<path d="M53.9914 15.6646C51.6437 15.6646 50.3613 14.1258 50.3613 12.2319C50.3613 10.3379 51.6437 8.79909 53.9914 8.79909H58.1936V8.0494C58.1936 7.02352 57.6806 6.47112 56.6153 6.47112H51.2294L52.3145 4.28125H56.6153C59.3378 4.28125 60.7583 5.62279 60.7583 8.0494V15.6646H53.9914ZM54.2084 10.8706C53.3601 10.8706 52.9852 11.5019 52.9852 12.1924C52.9852 12.8829 53.3995 13.4945 54.1887 13.4945H58.2133V10.8706H54.2281H54.2084Z" fill="white"/>
<path d="M62.2561 15.6672L63.3609 13.5168H67.9576C68.727 13.5168 69.161 13.1616 69.161 12.4514C69.161 11.9977 68.8651 11.6425 68.293 11.4847L64.8208 10.5377C63.203 10.1037 62.335 8.97919 62.335 7.47982C62.335 5.58588 63.5581 4.22461 65.6099 4.22461H70.9958L69.9305 6.31584H65.9847C65.2942 6.31584 64.88 6.65122 64.88 7.34172C64.88 7.85466 65.1759 8.20978 65.7283 8.34788L69.3781 9.3343C70.6999 9.68942 71.6666 10.7942 71.6666 12.333C71.6666 14.3059 70.4237 15.608 68.2535 15.608H62.2363L62.2561 15.6672Z" fill="white"/>
<path d="M80.8234 15.6637V8.44303C80.8234 7.12122 80.3105 6.50963 78.9689 6.50963H75.8913V15.6439H73.2871V0.078125H75.8913V4.26058H79.3635C82.0071 4.26058 83.4276 5.68103 83.4276 8.2852V15.6637H80.8234Z" fill="white"/>
<path d="M88.5158 15.6637V2.46528H83.2285L84.4122 0.078125H96.8215L95.6378 2.46528H91.2186V15.6637H88.5158Z" fill="white"/>
<path d="M101.44 3.96484C105.208 3.96484 107.359 6.41118 107.359 9.98205C107.359 13.5529 105.208 15.9993 101.44 15.9993C97.6719 15.9993 95.5215 13.5529 95.5215 9.98205C95.5215 6.41118 97.6719 3.96484 101.44 3.96484ZM101.44 13.7107C103.63 13.7107 104.754 12.2903 104.754 9.98205C104.754 7.67381 103.63 6.27308 101.44 6.27308C99.2502 6.27308 98.1257 7.67381 98.1257 9.98205C98.1257 12.2903 99.2502 13.7107 101.44 13.7107Z" fill="white"/>
<path d="M124.029 4.26172L121.188 15.6648H117.696L115.94 8.62173L114.223 15.6648H110.751L107.891 4.26172H110.495L112.547 13.3369L114.756 4.26172H117.163L119.373 13.3369L121.365 4.26172H124.009H124.029Z" fill="white"/>
<path d="M129.985 15.6641C126.533 15.6641 124.619 13.0599 124.619 9.82442C124.619 6.58894 126.612 3.94531 130.202 3.94531C133.793 3.94531 135.786 6.3522 135.786 9.90334V11.087H127.322C127.519 12.547 128.663 13.4742 130.064 13.4742H135.075L133.97 15.6641H130.005H129.985ZM133.122 8.93664C132.984 7.16107 132.017 6.17464 130.222 6.17464C128.506 6.17464 127.342 7.37808 127.282 8.93664H133.122Z" fill="white"/>
<path d="M137.383 15.6648V8.1877C137.383 5.9781 138.823 4.26172 141.368 4.26172H144.544L143.42 6.5305H141.684C140.618 6.5305 139.967 7.20127 139.967 8.26661V15.6648H137.363H137.383Z" fill="white"/>
<path d="M144.584 0H147.701V0.631314H146.537V3.94571H145.748V0.631314H144.584V0Z" fill="white"/>
<path d="M148.117 0H149.518L150.248 3.33412H150.288L150.998 0H152.359V3.94571H151.57V0.611585H151.511L150.761 3.94571H149.715L148.946 0.611585H148.887V3.94571H148.098V0H148.117Z" fill="white"/>
</svg>
