<svg width="183" height="16" viewBox="0 0 183 16" fill="none" xmlns="http://www.w3.org/2000/svg">
<g clip-path="url(#clip0_1329_18109)">
<path d="M0 15.9062V0H7.20827C10.4201 0 12.1719 1.92519 12.1719 5.14006C12.1719 8.35494 10.4201 10.2988 7.19002 10.2988H2.66432V15.9062H0ZM2.66432 7.88766H7.06228C8.72292 7.88766 9.45287 6.76619 9.45287 5.14006C9.45287 3.51394 8.61343 2.41116 7.06228 2.41116H2.66432V7.88766Z" fill="white"/>
<path d="M16.5158 4.2793V11.924C16.5158 13.0081 16.9538 13.5688 17.9757 13.5688H21.3335V4.2793H23.9248V15.9052H17.483C15.1654 15.9052 13.9062 14.6716 13.9062 12.0548V4.2793H16.5158Z" fill="white"/>
<path d="M26.2057 15.9052V8.2792C26.2057 6.01757 27.6474 4.2793 30.184 4.2793H33.341L32.2096 6.57831H30.476C29.4175 6.57831 28.7788 7.26988 28.7788 8.35397V15.9052H26.1875H26.2057Z" fill="white"/>
<path d="M34.3613 2.33639V0H36.9527V2.33639H34.3613ZM34.3613 15.9062V4.28027H36.9527V15.9062H34.3613Z" fill="white"/>
<path d="M46.5521 0H51.5887L50.3843 2.42985H47.0813C43.7783 2.42985 42.0629 4.44849 42.0629 7.94374C42.0629 11.439 43.7783 13.4576 47.0813 13.4576H51.5887L50.3843 15.8875H46.5521C42.5191 15.8314 39.2891 13.009 39.2891 7.94374C39.2891 2.87844 42.5373 0.0560734 46.5521 0Z" fill="white"/>
<path d="M56.1875 15.9043C53.8334 15.9043 52.5742 14.3343 52.5742 12.3904C52.5742 10.4465 53.8516 8.87648 56.1875 8.87648H60.3847V8.11014C60.3847 7.06344 59.8737 6.48401 58.7971 6.48401H53.4319L54.5086 4.25977H58.7971C61.4979 4.25977 62.9213 5.62422 62.9213 8.11014V15.8857H56.1875V15.9043ZM56.4065 11.026C55.567 11.026 55.1838 11.6615 55.1838 12.3717C55.1838 13.082 55.5853 13.6988 56.3882 13.6988H60.3847V11.026H56.4065Z" fill="white"/>
<path d="M65.1667 15.9052V8.2792C65.1667 6.01757 66.6083 4.2793 69.1449 4.2793H72.302L71.1705 6.57831H69.4369C68.3785 6.57831 67.7398 7.26988 67.7398 8.35397V15.9052H65.1484H65.1667Z" fill="white"/>
<path d="M77.3938 15.9046C73.9447 15.9046 72.0469 13.2504 72.0469 9.9421C72.0469 6.63377 74.036 3.96094 77.5945 3.96094C81.153 3.96094 83.1421 6.40948 83.1421 10.0356V11.2318H74.7112C74.8937 12.7271 76.0434 13.6616 77.4485 13.6616H82.4304L81.3355 15.8859H77.3755L77.3938 15.9046ZM80.5143 9.04493C80.3683 7.23189 79.4194 6.22257 77.6128 6.22257C75.9156 6.22257 74.7477 7.45618 74.6929 9.04493H80.5143Z" fill="white"/>
<path d="M83.1777 0H86.2435V0.635499H85.1121V3.98121H84.3457V0.635499H83.196V0H83.1777Z" fill="white"/>
<path d="M86.6816 0H88.0503L88.7803 3.34571H88.8167L89.5102 0H90.8424V3.98121H90.0759V0.616808H90.0212L89.2912 3.96252H88.2693L87.5211 0.616808H87.4663V3.96252H86.6816V0Z" fill="white"/>
<path d="M94.2914 0H93.9629V15.8875H94.2914V0Z" fill="white"/>
<path d="M102.541 6.89703L101.903 4.99054H99.1653L98.5266 6.89703H97.377L99.8405 0H101.319L103.728 6.89703H102.56H102.541ZM100.497 0.859793L99.4573 4.11205H101.611L100.589 0.859793H100.497Z" fill="white"/>
<path d="M104.385 0.0742188H105.443V1.02747H104.385V0.0742188ZM104.385 2.09286H105.425V6.8778H104.385V2.11155V2.09286Z" fill="white"/>
<path d="M107.488 2.11215L107.561 2.69157C107.707 2.48597 107.889 2.33644 108.072 2.26168C108.382 2.07476 108.692 2 109.021 2C109.167 2 109.313 2 109.422 2.03738C109.55 2.07476 109.641 2.09346 109.733 2.13084L109.477 3.00932C109.331 2.91587 109.13 2.87848 108.893 2.87848C108.619 2.87848 108.364 2.95325 108.145 3.12147C108.072 3.17754 107.981 3.23362 107.926 3.28969C107.871 3.34576 107.78 3.42053 107.707 3.49529V6.91577H106.667V3.45791L106.539 2.11215H107.506H107.488Z" fill="white"/>
<path d="M97.5059 15.8873V8.99023H99.8965C100.663 8.99023 101.229 9.15845 101.63 9.4949C102.032 9.83134 102.232 10.3547 102.232 11.065C102.232 11.4201 102.178 11.7378 102.068 12.0182C101.959 12.2986 101.813 12.5229 101.612 12.7098C101.411 12.8967 101.192 13.0462 100.918 13.1397C100.645 13.2331 100.353 13.2892 100.042 13.2892H98.5825V15.8686H97.5059V15.8873ZM99.86 12.4294C100.024 12.4294 100.188 12.4107 100.353 12.3546C100.517 12.2986 100.645 12.2238 100.754 12.1117C100.864 11.9995 100.955 11.8687 101.028 11.7005C101.101 11.5322 101.137 11.3266 101.137 11.0836C101.137 10.8593 101.101 10.6724 101.028 10.5229C100.955 10.3734 100.864 10.2425 100.736 10.1491C100.626 10.0556 100.48 9.98087 100.334 9.94348C100.188 9.9061 100.024 9.88741 99.86 9.88741H98.5643V12.4481H99.86V12.4294Z" fill="white"/>
<path d="M107.067 14.6163L107.159 15.8873H106.192L106.137 15.5135C106.137 15.5135 105.954 15.6444 105.863 15.6817C105.772 15.7191 105.662 15.7752 105.571 15.7939C105.389 15.8686 105.224 15.906 105.06 15.9434C104.896 15.9808 104.732 15.9995 104.567 15.9995C104.257 15.9995 104.02 15.9621 103.819 15.8873C103.618 15.8126 103.472 15.7004 103.363 15.5509C103.253 15.4014 103.162 15.2145 103.126 15.0089C103.089 14.7846 103.053 14.5416 103.053 14.2612V11.1211H104.111V14.0556C104.111 14.2238 104.111 14.3734 104.129 14.5042C104.129 14.635 104.184 14.7659 104.239 14.8593C104.294 14.9715 104.367 15.0462 104.476 15.1023C104.586 15.1584 104.713 15.1958 104.896 15.1958C105.097 15.1958 105.261 15.1771 105.425 15.121C105.589 15.0649 105.735 15.0089 105.863 14.9154C105.918 14.8593 105.973 14.8219 106.027 14.7846V11.1211H107.086V14.635L107.067 14.6163Z" fill="white"/>
<path d="M109.113 11.1024L109.186 11.6818C109.332 11.4762 109.514 11.3267 109.697 11.2519C110.007 11.065 110.317 10.9902 110.646 10.9902C110.792 10.9902 110.938 10.9902 111.047 11.0276C111.175 11.065 111.266 11.0837 111.358 11.1211L111.102 11.9996C110.956 11.9061 110.755 11.8687 110.518 11.8687C110.244 11.8687 109.989 11.9435 109.77 12.1117C109.697 12.1678 109.606 12.2238 109.551 12.2799C109.496 12.336 109.405 12.4108 109.332 12.4855V15.906H108.292V12.4481L108.164 11.1024H109.131H109.113Z" fill="white"/>
<path d="M111.811 9.06641H112.869V10.0197H111.811V9.06641ZM111.811 11.085H112.851V15.87H111.811V11.085Z" fill="white"/>
<path d="M117.011 11.102V11.9244H115.368V15.9056H114.328V11.9244H113.635V11.102H114.328V10.5226C114.328 10.1674 114.365 9.86838 114.456 9.6067C114.547 9.36372 114.675 9.17681 114.839 9.02728C115.003 8.87775 115.186 8.7843 115.423 8.72822C115.66 8.67215 115.898 8.63477 116.19 8.63477C116.372 8.63477 116.555 8.63477 116.755 8.67215C116.938 8.69084 117.102 8.74691 117.248 8.80299L117.029 9.58801C116.92 9.53194 116.792 9.49456 116.664 9.47587C116.536 9.47587 116.409 9.43849 116.299 9.43849C115.971 9.43849 115.733 9.51325 115.587 9.68147C115.441 9.84969 115.387 10.1114 115.387 10.5039V11.0833H117.029L117.011 11.102Z" fill="white"/>
<path d="M117.707 9.06641H118.765V10.0197H117.707V9.06641ZM117.707 11.085H118.747V15.87H117.707V11.085Z" fill="white"/>
<path d="M121.993 15.9995C121.574 15.9995 121.209 15.9434 120.917 15.8499C120.625 15.7378 120.387 15.5883 120.223 15.3827C120.059 15.177 119.913 14.8967 119.84 14.5976C119.767 14.2799 119.73 13.9061 119.73 13.4762C119.73 11.8126 120.479 10.9902 121.957 10.9902C122.358 10.9902 122.687 11.0463 122.942 11.1585C123.198 11.2706 123.398 11.4388 123.544 11.6444C123.69 11.85 123.782 12.1117 123.855 12.3921C123.909 12.6724 123.946 12.9902 123.946 13.3266V13.7565H120.825C120.825 14.2425 120.917 14.5789 121.081 14.8032C121.3 15.0836 121.647 15.2144 122.158 15.2144C122.504 15.2144 122.796 15.177 123.033 15.0836C123.271 14.9901 123.471 14.9154 123.654 14.8219L123.873 15.5135C123.873 15.5135 123.672 15.6256 123.544 15.6817C123.398 15.7378 123.252 15.7939 123.088 15.8499C122.924 15.906 122.742 15.9434 122.559 15.9621C122.377 15.9808 122.194 15.9995 122.012 15.9995H121.993ZM122.851 13.0089C122.851 12.5603 122.778 12.2238 122.632 12.0182C122.486 11.8126 122.249 11.7005 121.939 11.7005C121.592 11.7005 121.336 11.7753 121.172 11.9435C121.008 12.1117 120.898 12.3547 120.844 12.6911L120.807 13.0089H122.833H122.851Z" fill="white"/>
<path d="M125.754 11.1024L125.827 11.6818C125.973 11.4762 126.155 11.3267 126.338 11.2519C126.648 11.065 126.958 10.9902 127.287 10.9902C127.433 10.9902 127.579 10.9902 127.688 11.0276C127.816 11.065 127.907 11.0837 127.998 11.1211L127.743 11.9996C127.597 11.9061 127.396 11.8687 127.159 11.8687C126.885 11.8687 126.63 11.9435 126.411 12.1117C126.338 12.1678 126.246 12.2238 126.192 12.2799C126.137 12.336 126.046 12.4108 125.973 12.4855V15.906H124.932V12.4481L124.805 11.1024H125.772H125.754Z" fill="white"/>
</g>
<defs>
<clipPath id="clip0_1329_18109">
<rect width="183" height="16" fill="white"/>
</clipPath>
</defs>
</svg>
