<svg width="183" height="16" viewBox="0 0 183 16" fill="none" xmlns="http://www.w3.org/2000/svg">
<path d="M5.952 13L3.712 7.624L3.296 6.536H3.28L3.312 7.656V13H1.2V2.248H3.52L6.496 9.576L6.88 10.584H6.912L7.296 9.576L10.272 2.248H12.576V13H10.464V7.656L10.496 6.536H10.48L10.08 7.624L7.84 13H5.952ZM14.9173 5.256H16.9973V13H14.9173V5.256ZM14.9173 1.928H16.9973V3.784H14.9173V1.928ZM22.7646 11.496C23.5966 11.496 24.2846 11.272 24.9886 10.888L25.4526 12.472C24.7326 12.904 23.8046 13.16 22.7646 13.16C19.9966 13.16 18.7806 11.928 18.7806 9.128C18.7806 6.328 19.9966 5.096 22.6046 5.096C23.8366 5.096 24.8126 5.464 25.5326 6.184L24.4766 7.544C24.0126 7.048 23.3886 6.76 22.6846 6.76C21.5166 6.76 20.8606 7.384 20.8606 9.128C20.8606 10.856 21.4846 11.496 22.7646 11.496ZM28.4975 5.256L28.6895 6.072C29.2815 5.448 30.0335 5.096 30.8815 5.096C31.3135 5.096 31.6975 5.176 32.1295 5.384V7.112C31.7295 6.904 31.3295 6.76 30.8175 6.76C30.0975 6.76 29.4415 7.096 28.9775 7.528V13H26.8975V5.256H28.4975ZM32.7025 9.128C32.7025 6.328 33.9185 5.096 36.5265 5.096C39.1025 5.096 40.3345 6.36 40.3345 9.128C40.3345 11.896 39.1025 13.16 36.5265 13.16C33.9185 13.16 32.7025 11.928 32.7025 9.128ZM34.7825 9.128C34.7825 10.664 35.2305 11.496 36.5265 11.496C37.8225 11.496 38.2545 10.664 38.2545 9.128C38.2545 7.592 37.8225 6.76 36.5265 6.76C35.2305 6.76 34.7825 7.592 34.7825 9.128ZM47.8168 5.256L48.8728 9.176L49.2088 10.584H49.2408L49.4968 9.176L50.4088 5.256H52.4408L50.2168 13H48.1688L47.1928 9.272L46.8248 7.704H46.7928L46.4408 9.272L45.4648 13H43.4328L41.1928 5.256H43.2408L44.1528 9.176L44.4248 10.584H44.4568L44.7768 9.176L45.8168 5.256H47.8168ZM59.844 13H58.292L58.02 12.408C57.46 12.872 56.708 13.16 55.812 13.16C54.004 13.16 53.14 12.264 53.14 10.616C53.14 8.952 54.148 8.152 56.628 8.152C56.932 8.152 57.316 8.152 57.764 8.2V8.072C57.764 7.112 57.412 6.728 56.324 6.728C55.636 6.728 54.82 6.92 54.004 7.352L53.412 5.896C54.372 5.4 55.38 5.096 56.516 5.096C59.012 5.096 59.844 5.88 59.844 8.36V13ZM56.26 11.528C56.708 11.528 57.332 11.288 57.764 10.984V9.752C57.428 9.704 57.06 9.688 56.564 9.688C55.556 9.688 55.22 9.928 55.22 10.568C55.22 11.192 55.572 11.528 56.26 11.528ZM63.8228 13L60.8788 5.256H63.0228L64.2388 8.712L64.8788 10.696H64.9268L65.5188 8.712L66.7348 5.256H68.8788L65.9348 13H63.8228ZM73.4678 13.16C70.7158 13.16 69.4838 11.896 69.4838 9.128C69.4838 6.328 70.6198 5.096 73.0677 5.096C75.4998 5.096 76.6358 6.328 76.6358 9.128V9.752H71.6278C71.7398 10.92 72.2518 11.496 73.4678 11.496C74.4118 11.496 75.1158 11.256 76.0118 10.744L76.5718 12.312C75.7398 12.808 74.6838 13.16 73.4678 13.16ZM74.4918 8.2C74.3798 7.32 73.9798 6.76 73.0677 6.76C72.1718 6.76 71.7558 7.32 71.6438 8.2H74.4918ZM87.3816 13.16C83.9896 13.16 82.5336 11 82.5336 7.624C82.5336 3.896 84.2616 2.088 87.3816 2.088C90.5336 2.088 92.2136 3.912 92.2136 7.624C92.2136 11.384 90.5816 13.16 87.3816 13.16ZM90.1016 7.624C90.1016 4.872 89.1736 3.8 87.3816 3.8C85.5896 3.8 84.6456 4.872 84.6456 7.624C84.6456 10.392 85.5896 11.448 87.3816 11.448C89.1736 11.448 90.1016 10.392 90.1016 7.624ZM96.0884 13L93.1444 5.256H95.2884L96.5044 8.712L97.1444 10.696H97.1924L97.7844 8.712L99.0004 5.256H101.144L98.2004 13H96.0884ZM105.733 13.16C102.981 13.16 101.749 11.896 101.749 9.128C101.749 6.328 102.885 5.096 105.333 5.096C107.765 5.096 108.901 6.328 108.901 9.128V9.752H103.893C104.005 10.92 104.517 11.496 105.733 11.496C106.677 11.496 107.381 11.256 108.277 10.744L108.837 12.312C108.005 12.808 106.949 13.16 105.733 13.16ZM106.757 8.2C106.645 7.32 106.245 6.76 105.333 6.76C104.437 6.76 104.021 7.32 103.909 8.2H106.757ZM112.363 5.896C112.987 5.4 113.787 5.08 114.747 5.08C116.507 5.08 117.387 5.992 117.387 7.832V13H115.307V8.2C115.307 7.112 115.003 6.744 114.251 6.744C113.627 6.744 113.147 6.904 112.587 7.208V13H110.507V5.256H112.059L112.363 5.896Z" fill="#F6F3EB"/>
</svg>
