<svg width="183" height="16" viewBox="0 0 183 16" fill="none" xmlns="http://www.w3.org/2000/svg">
<path d="M3.312 12H1.2V1.248H3.312V5.552H3.984L7.664 1.248H10.176L5.712 6.368L9.952 12H7.456L3.984 7.232H3.312V12ZM11.4798 4.256H13.5598V12H11.4798V4.256ZM11.4798 0.927999H13.5598V2.784H11.4798V0.927999ZM17.4711 4.736C18.1911 4.304 18.9431 4.08 19.7271 4.08C20.6231 4.08 21.2951 4.304 21.6951 4.928C22.3991 4.416 23.1991 4.08 24.1751 4.08C25.9831 4.08 26.6391 4.96 26.6391 6.832V12H24.5591V7.2C24.5591 6.112 24.3351 5.744 23.6791 5.744C23.1671 5.744 22.6551 5.92 22.1591 6.224C22.1751 6.4 22.1911 6.592 22.1911 6.832V12H20.1271V7.2C20.1271 6.112 19.8871 5.744 19.2311 5.744C18.7511 5.744 18.2551 5.888 17.7431 6.192V12H15.6631V4.256H17.2151L17.4711 4.736ZM32.1396 10.496C32.9716 10.496 33.6596 10.272 34.3636 9.888L34.8276 11.472C34.1076 11.904 33.1796 12.16 32.1396 12.16C29.3716 12.16 28.1556 10.928 28.1556 8.128C28.1556 5.328 29.3716 4.096 31.9796 4.096C33.2116 4.096 34.1876 4.464 34.9076 5.184L33.8516 6.544C33.3876 6.048 32.7636 5.76 32.0596 5.76C30.8916 5.76 30.2356 6.384 30.2356 8.128C30.2356 9.856 30.8596 10.496 32.1396 10.496ZM38.3525 4.736C38.9125 4.304 39.6965 4.08 40.5125 4.08C42.2725 4.08 43.1525 4.992 43.1525 6.816V12H41.0725V7.184C41.0725 6.096 40.7685 5.744 40.0165 5.744C39.3925 5.744 38.9125 5.888 38.3525 6.192V12H36.2725V0.927999L38.3525 0.704V4.736ZM45.1673 4.256H47.2473V12H45.1673V4.256ZM45.1673 0.927999H47.2473V2.784H45.1673V0.927999ZM56.187 2.96V6.064H58.219C59.323 6.064 59.963 5.552 59.963 4.512C59.963 3.472 59.323 2.96 58.219 2.96H56.187ZM54.075 12V1.248H58.235C60.811 1.248 62.155 2.32 62.155 4.512C62.155 5.856 61.419 6.944 60.203 7.44L62.571 12H60.331L58.139 7.776H56.187V12H54.075ZM67.6553 12.16C64.9033 12.16 63.6713 10.896 63.6713 8.128C63.6713 5.328 64.8073 4.096 67.2552 4.096C69.6873 4.096 70.8233 5.328 70.8233 8.128V8.752H65.8153C65.9273 9.92 66.4393 10.496 67.6553 10.496C68.5993 10.496 69.3033 10.256 70.1993 9.744L70.7593 11.312C69.9273 11.808 68.8713 12.16 67.6553 12.16ZM68.6793 7.2C68.5673 6.32 68.1673 5.76 67.2552 5.76C66.3593 5.76 65.9433 6.32 65.8313 7.2H68.6793ZM77.8368 4.256V5.92H75.2448V12H73.1648V5.92H71.7888V4.256H73.1488V3.616C73.1488 1.616 74.1728 0.704 76.4288 0.704C77.1168 0.704 77.6928 0.832 78.2688 1.072L77.8048 2.672C77.2928 2.464 76.8608 2.384 76.4928 2.384C75.6448 2.384 75.2448 2.8 75.2448 3.776V4.256H77.8368ZM80.6694 4.256L80.8614 5.072C81.4534 4.448 82.2054 4.096 83.0534 4.096C83.4854 4.096 83.8694 4.176 84.3014 4.384V6.112C83.9014 5.904 83.5014 5.76 82.9894 5.76C82.2694 5.76 81.6134 6.096 81.1494 6.528V12H79.0694V4.256H80.6694ZM85.4954 4.256H87.5754V12H85.4954V4.256ZM85.4954 0.927999H87.5754V2.784H85.4954V0.927999ZM96.5428 4.256V11.936C96.5428 14.432 95.2468 15.488 92.6868 15.488C91.7268 15.488 90.7988 15.328 90.0308 15.024L90.4468 13.424C91.1988 13.696 91.9668 13.84 92.6068 13.84C93.9508 13.84 94.4628 13.376 94.4628 12.176V11.52C94.0308 11.888 93.2948 12.16 92.4468 12.16C90.5748 12.16 89.3588 10.896 89.3588 8.128C89.3588 5.36 90.6228 4.096 92.8468 4.096C93.5988 4.096 94.2228 4.32 94.7188 4.784L94.9588 4.256H96.5428ZM93.0868 5.728C91.9988 5.728 91.4388 6.384 91.4388 8.128C91.4388 9.856 92.0148 10.528 93.1028 10.528C93.6148 10.528 94.0628 10.368 94.4628 10.064V6.176C94.0628 5.872 93.6148 5.728 93.0868 5.728ZM102.124 12.16C99.372 12.16 98.14 10.896 98.14 8.128C98.14 5.328 99.276 4.096 101.724 4.096C104.156 4.096 105.292 5.328 105.292 8.128V8.752H100.284C100.396 9.92 100.908 10.496 102.124 10.496C103.068 10.496 103.772 10.256 104.668 9.744L105.228 11.312C104.396 11.808 103.34 12.16 102.124 12.16ZM103.148 7.2C103.036 6.32 102.636 5.76 101.724 5.76C100.828 5.76 100.412 6.32 100.3 7.2H103.148ZM108.498 4.256L108.69 5.072C109.282 4.448 110.034 4.096 110.882 4.096C111.314 4.096 111.698 4.176 112.13 4.384V6.112C111.73 5.904 111.33 5.76 110.818 5.76C110.098 5.76 109.442 6.096 108.978 6.528V12H106.898V4.256H108.498ZM119.422 12H117.87L117.598 11.408C117.038 11.872 116.286 12.16 115.39 12.16C113.582 12.16 112.718 11.264 112.718 9.616C112.718 7.952 113.726 7.152 116.206 7.152C116.51 7.152 116.894 7.152 117.342 7.2V7.072C117.342 6.112 116.99 5.728 115.902 5.728C115.214 5.728 114.398 5.92 113.582 6.352L112.99 4.896C113.95 4.4 114.958 4.096 116.094 4.096C118.59 4.096 119.422 4.88 119.422 7.36V12ZM115.838 10.528C116.286 10.528 116.91 10.288 117.342 9.984V8.752C117.006 8.704 116.638 8.688 116.142 8.688C115.134 8.688 114.798 8.928 114.798 9.568C114.798 10.192 115.15 10.528 115.838 10.528ZM123.945 5.92V9.168C123.945 10.192 124.233 10.496 124.985 10.496C125.513 10.496 126.057 10.288 126.553 10.048L126.921 11.568C126.169 11.952 125.273 12.16 124.441 12.16C122.569 12.16 121.865 11.296 121.865 9.44V5.92H120.617V4.256H121.865V2.768L123.945 2.4V4.256H126.649V5.92H123.945ZM127.781 8.128C127.781 5.328 128.997 4.096 131.605 4.096C134.181 4.096 135.413 5.36 135.413 8.128C135.413 10.896 134.181 12.16 131.605 12.16C128.997 12.16 127.781 10.928 127.781 8.128ZM129.861 8.128C129.861 9.664 130.309 10.496 131.605 10.496C132.901 10.496 133.333 9.664 133.333 8.128C133.333 6.592 132.901 5.76 131.605 5.76C130.309 5.76 129.861 6.592 129.861 8.128ZM138.607 4.256L138.799 5.072C139.391 4.448 140.143 4.096 140.991 4.096C141.423 4.096 141.807 4.176 142.239 4.384V6.112C141.839 5.904 141.439 5.76 140.927 5.76C140.207 5.76 139.551 6.096 139.087 6.528V12H137.007V4.256H138.607Z" fill="#F6F3EB"/>
</svg>
