<svg width="183" height="16" viewBox="0 0 183 16" fill="none" xmlns="http://www.w3.org/2000/svg">
<g clip-path="url(#clip0_1329_18110)">
<path d="M0 15.9066V0H7.20848C10.4204 0 12.1723 1.92524 12.1723 5.14022C12.1723 8.35519 10.4204 10.2991 7.19023 10.2991H2.6644V15.9066H0ZM2.6644 7.8879H7.06249C8.72318 7.8879 9.45315 6.7664 9.45315 5.14022C9.45315 3.51404 8.61368 2.41123 7.06249 2.41123H2.6644V7.8879Z" fill="white"/>
<path d="M16.5159 4.2793V11.9242C16.5159 13.0083 16.9539 13.5691 17.9759 13.5691H21.3337V4.2793H23.9251V15.9055H17.4831C15.1655 15.9055 13.9062 14.6719 13.9062 12.055V4.2793H16.5159Z" fill="white"/>
<path d="M26.2057 15.9055V8.27932C26.2057 6.01762 27.6474 4.2793 30.1841 4.2793H33.3412L32.2098 6.57838H30.4761C29.4176 6.57838 28.7789 7.26997 28.7789 8.35409V15.9055H26.1875H26.2057Z" fill="white"/>
<path d="M34.3633 2.33646V0H36.9547V2.33646H34.3633ZM34.3633 15.9066V4.2804H36.9547V15.9066H34.3633Z" fill="white"/>
<path d="M46.5542 0H51.5911L50.3866 2.42992H47.0835C43.7803 2.42992 42.0649 4.44862 42.0649 7.94397C42.0649 11.4393 43.7803 13.458 47.0835 13.458H51.5911L50.3866 15.8879H46.5542C42.5211 15.8319 39.291 13.0094 39.291 7.94397C39.291 2.87852 42.5394 0.0560751 46.5542 0Z" fill="white"/>
<path d="M56.1895 15.9066C53.8354 15.9066 52.5762 14.3365 52.5762 12.3926C52.5762 10.4487 53.8536 8.87857 56.1895 8.87857H60.3869V8.11221C60.3869 7.06547 59.8759 6.48603 58.7992 6.48603H53.4339L54.5106 4.26172H58.7992C61.5001 4.26172 62.9235 5.62621 62.9235 8.11221V15.888H56.1895V15.9066ZM56.4085 11.0281C55.5691 11.0281 55.1858 11.6636 55.1858 12.3739C55.1858 13.0842 55.5873 13.701 56.3903 13.701H60.3869V11.0281H56.4085Z" fill="white"/>
<path d="M65.1686 15.9055V8.27932C65.1686 6.01762 66.6103 4.2793 69.147 4.2793H72.3041L71.1727 6.57838H69.439C68.3805 6.57838 67.7418 7.26997 67.7418 8.35409V15.9055H65.1504H65.1686Z" fill="white"/>
<path d="M77.3959 15.9069C73.9468 15.9069 72.0488 13.2527 72.0488 9.94423C72.0488 6.6358 74.038 3.96289 77.5966 3.96289C81.1552 3.96289 83.1444 6.4115 83.1444 10.0377V11.234H74.7132C74.8957 12.7293 76.0454 13.6639 77.4506 13.6639H82.4327L81.3377 15.8882H77.3776L77.3959 15.9069ZM80.5165 9.04703C80.3705 7.23394 79.4216 6.22459 77.6149 6.22459C75.9177 6.22459 74.7497 7.45824 74.695 9.04703H80.5165Z" fill="white"/>
<path d="M83.1797 0H86.2456V0.635518H85.1141V3.98133H84.3476V0.635518H83.1979V0H83.1797Z" fill="white"/>
<path d="M86.6855 0H88.0542L88.7842 3.34581H88.8207L89.5142 0H90.8464V3.98133H90.0799V0.616826H90.0252L89.2952 3.96264H88.2732L87.525 0.616826H87.4703V3.96264H86.6855V0Z" fill="white"/>
<path d="M94.2953 0H93.9668V15.8879H94.2953V0Z" fill="white"/>
<path d="M102.543 6.89724L101.905 4.99068H99.1673L98.5286 6.89724H97.3789L99.8426 0H101.321L103.73 6.89724H102.562H102.543ZM100.5 0.859818L99.4593 4.11217H101.613L100.591 0.859818H100.5Z" fill="white"/>
<path d="M104.387 0.0742188H105.445V1.0275H104.387V0.0742188ZM104.387 2.09292H105.427V6.878H104.387V2.11161V2.09292Z" fill="white"/>
<path d="M107.488 2.11215L107.561 2.69159C107.707 2.48598 107.89 2.33645 108.072 2.26168C108.382 2.07477 108.692 2 109.021 2C109.167 2 109.313 2 109.422 2.03738C109.55 2.07477 109.641 2.09346 109.733 2.13084L109.477 3.00935C109.331 2.91589 109.13 2.87851 108.893 2.87851C108.619 2.87851 108.364 2.95328 108.145 3.1215C108.072 3.17758 107.981 3.23365 107.926 3.28973C107.871 3.3458 107.78 3.42057 107.707 3.49534V6.91592H106.667V3.45795L106.539 2.11215H107.506H107.488Z" fill="white"/>
<path d="M97.5078 15.8875V8.99023H99.8985C100.665 8.99023 101.231 9.15846 101.632 9.49491C102.034 9.83136 102.234 10.3547 102.234 11.065C102.234 11.4202 102.18 11.7379 102.07 12.0183C101.961 12.2987 101.815 12.523 101.614 12.7099C101.413 12.8968 101.194 13.0463 100.92 13.1398C100.647 13.2333 100.355 13.2893 100.044 13.2893H98.5845V15.8688H97.5078V15.8875ZM99.862 12.4295C100.026 12.4295 100.19 12.4108 100.355 12.3547C100.519 12.2987 100.647 12.2239 100.756 12.1117C100.866 11.9996 100.957 11.8688 101.03 11.7005C101.103 11.5323 101.139 11.3267 101.139 11.0837C101.139 10.8594 101.103 10.6725 101.03 10.523C100.957 10.3734 100.866 10.2426 100.738 10.1491C100.628 10.0557 100.482 9.98089 100.336 9.94351C100.19 9.90613 100.026 9.88744 99.862 9.88744H98.5663V12.4482H99.862V12.4295Z" fill="white"/>
<path d="M107.07 14.6164L107.161 15.8875H106.194L106.139 15.5136C106.139 15.5136 105.956 15.6445 105.865 15.6819C105.774 15.7193 105.664 15.7753 105.573 15.794C105.391 15.8688 105.226 15.9062 105.062 15.9436C104.898 15.9809 104.734 15.9996 104.569 15.9996C104.259 15.9996 104.022 15.9622 103.821 15.8875C103.62 15.8127 103.474 15.7006 103.365 15.551C103.255 15.4015 103.164 15.2146 103.128 15.009C103.091 14.7847 103.055 14.5417 103.055 14.2613V11.1211H104.113V14.0557C104.113 14.2239 104.113 14.3735 104.131 14.5043C104.131 14.6351 104.186 14.766 104.241 14.8594C104.296 14.9716 104.369 15.0464 104.478 15.1024C104.588 15.1585 104.715 15.1959 104.898 15.1959C105.099 15.1959 105.263 15.1772 105.427 15.1211C105.591 15.065 105.737 15.009 105.865 14.9155C105.92 14.8594 105.975 14.8221 106.029 14.7847V11.1211H107.088V14.6351L107.07 14.6164Z" fill="white"/>
<path d="M109.113 11.1024L109.186 11.6818C109.332 11.4762 109.515 11.3267 109.697 11.2519C110.007 11.065 110.317 10.9902 110.646 10.9902C110.792 10.9902 110.938 10.9902 111.047 11.0276C111.175 11.065 111.266 11.0837 111.358 11.1211L111.102 11.9996C110.956 11.9061 110.755 11.8687 110.518 11.8687C110.244 11.8687 109.989 11.9435 109.77 12.1117C109.697 12.1678 109.606 12.2239 109.551 12.28C109.496 12.336 109.405 12.4108 109.332 12.4856V15.9062H108.292V12.4482L108.164 11.1024H109.131H109.113Z" fill="white"/>
<path d="M111.812 9.06641H112.871V10.0197H111.812V9.06641ZM111.812 11.0851H112.853V15.8702H111.812V11.0851Z" fill="white"/>
<path d="M117.015 11.104V11.9265H115.372V15.9078H114.332V11.9265H113.639V11.104H114.332V10.5246C114.332 10.1694 114.369 9.87037 114.46 9.60869C114.551 9.36569 114.679 9.17878 114.843 9.02924C115.007 8.87971 115.19 8.78625 115.427 8.73018C115.664 8.6741 115.902 8.63672 116.194 8.63672C116.376 8.63672 116.559 8.63672 116.759 8.6741C116.942 8.69279 117.106 8.74887 117.252 8.80494L117.033 9.59C116.924 9.53392 116.796 9.49654 116.668 9.47785C116.54 9.47785 116.413 9.44046 116.303 9.44046C115.975 9.44046 115.737 9.51523 115.591 9.68345C115.445 9.85168 115.391 10.1134 115.391 10.5059V11.0853H117.033L117.015 11.104Z" fill="white"/>
<path d="M117.709 9.06641H118.767V10.0197H117.709V9.06641ZM117.709 11.0851H118.749V15.8702H117.709V11.0851Z" fill="white"/>
<path d="M121.997 15.9996C121.578 15.9996 121.213 15.9435 120.921 15.8501C120.629 15.7379 120.391 15.5884 120.227 15.3828C120.063 15.1772 119.917 14.8968 119.844 14.5977C119.771 14.28 119.734 13.9061 119.734 13.4762C119.734 11.8127 120.483 10.9902 121.961 10.9902C122.362 10.9902 122.691 11.0463 122.946 11.1585C123.202 11.2706 123.402 11.4388 123.548 11.6444C123.694 11.8501 123.786 12.1117 123.859 12.3921C123.913 12.6725 123.95 12.9902 123.95 13.3267V13.7566H120.829C120.829 14.2426 120.921 14.579 121.085 14.8033C121.304 15.0837 121.651 15.2146 122.162 15.2146C122.508 15.2146 122.8 15.1772 123.037 15.0837C123.275 14.9903 123.475 14.9155 123.658 14.822L123.877 15.5136C123.877 15.5136 123.676 15.6258 123.548 15.6819C123.402 15.7379 123.256 15.794 123.092 15.8501C122.928 15.9061 122.746 15.9435 122.563 15.9622C122.381 15.9809 122.198 15.9996 122.016 15.9996H121.997ZM122.855 13.0089C122.855 12.5603 122.782 12.2239 122.636 12.0183C122.49 11.8127 122.253 11.7005 121.943 11.7005C121.596 11.7005 121.34 11.7753 121.176 11.9435C121.012 12.1117 120.902 12.3547 120.848 12.6912L120.811 13.0089H122.837H122.855Z" fill="white"/>
<path d="M125.756 11.1024L125.829 11.6818C125.975 11.4762 126.157 11.3267 126.34 11.2519C126.65 11.065 126.96 10.9902 127.289 10.9902C127.435 10.9902 127.581 10.9902 127.69 11.0276C127.818 11.065 127.909 11.0837 128 11.1211L127.745 11.9996C127.599 11.9061 127.398 11.8687 127.161 11.8687C126.887 11.8687 126.632 11.9435 126.413 12.1117C126.34 12.1678 126.248 12.2239 126.194 12.28C126.139 12.336 126.048 12.4108 125.975 12.4856V15.9062H124.934V12.4482L124.807 11.1024H125.774H125.756Z" fill="white"/>
</g>
<defs>
<clipPath id="clip0_1329_18110">
<rect width="183" height="16" fill="white"/>
</clipPath>
</defs>
</svg>
