<svg width="183" height="16" viewBox="0 0 183 16" fill="none" xmlns="http://www.w3.org/2000/svg">
<path d="M44.952 12L42.712 6.624L42.296 5.536H42.28L42.312 6.656V12H40.2V1.248H42.52L45.496 8.576L45.88 9.584H45.912L46.296 8.576L49.272 1.248H51.576V12H49.464V6.656L49.496 5.536H49.48L49.08 6.624L46.84 12H44.952ZM60.1253 12H58.5733L58.3013 11.408C57.7413 11.872 56.9893 12.16 56.0933 12.16C54.2853 12.16 53.4213 11.264 53.4213 9.616C53.4213 7.952 54.4293 7.152 56.9093 7.152C57.2133 7.152 57.5973 7.152 58.0453 7.2V7.072C58.0453 6.112 57.6933 5.728 56.6053 5.728C55.9173 5.728 55.1013 5.92 54.2853 6.352L53.6933 4.896C54.6533 4.4 55.6613 4.096 56.7973 4.096C59.2933 4.096 60.1253 4.88 60.1253 7.36V12ZM56.5413 10.528C56.9893 10.528 57.6133 10.288 58.0453 9.984V8.752C57.7093 8.704 57.3413 8.688 56.8453 8.688C55.8373 8.688 55.5013 8.928 55.5013 9.568C55.5013 10.192 55.8533 10.528 56.5413 10.528ZM63.976 6.336C63.976 6.576 64.12 6.784 64.616 6.992C65.176 7.232 65.784 7.344 66.408 7.584C67.56 8.016 68.216 8.608 68.216 9.824C68.216 11.36 67.208 12.16 64.84 12.16C63.624 12.16 62.6 11.904 61.64 11.44L62.328 9.872C63.048 10.272 63.88 10.496 64.84 10.496C65.784 10.496 66.136 10.288 66.136 9.856C66.136 9.552 65.832 9.28 65.24 9.056C64.728 8.88 64.2 8.8 63.608 8.56C62.52 8.16 61.896 7.616 61.896 6.48C61.896 4.96 62.92 4.096 65.24 4.096C66.392 4.096 67.32 4.384 68.072 4.816L67.384 6.368C66.712 5.968 66.056 5.76 65.4 5.76C64.392 5.76 63.976 5.968 63.976 6.336ZM71.8354 6.336C71.8354 6.576 71.9794 6.784 72.4754 6.992C73.0354 7.232 73.6434 7.344 74.2674 7.584C75.4194 8.016 76.0754 8.608 76.0754 9.824C76.0754 11.36 75.0674 12.16 72.6994 12.16C71.4834 12.16 70.4594 11.904 69.4994 11.44L70.1874 9.872C70.9074 10.272 71.7394 10.496 72.6994 10.496C73.6434 10.496 73.9954 10.288 73.9954 9.856C73.9954 9.552 73.6914 9.28 73.0994 9.056C72.5874 8.88 72.0594 8.8 71.4674 8.56C70.3794 8.16 69.7554 7.616 69.7554 6.48C69.7554 4.96 70.7794 4.096 73.0994 4.096C74.2514 4.096 75.1794 4.384 75.9314 4.816L75.2434 6.368C74.5714 5.968 73.9154 5.76 73.2594 5.76C72.2514 5.76 71.8354 5.968 71.8354 6.336ZM84.0628 12H82.5108L82.2388 11.408C81.6788 11.872 80.9268 12.16 80.0308 12.16C78.2228 12.16 77.3588 11.264 77.3588 9.616C77.3588 7.952 78.3668 7.152 80.8468 7.152C81.1508 7.152 81.5348 7.152 81.9828 7.2V7.072C81.9828 6.112 81.6308 5.728 80.5428 5.728C79.8548 5.728 79.0388 5.92 78.2228 6.352L77.6308 4.896C78.5908 4.4 79.5988 4.096 80.7348 4.096C83.2308 4.096 84.0628 4.88 84.0628 7.36V12ZM80.4788 10.528C80.9268 10.528 81.5508 10.288 81.9828 9.984V8.752C81.6468 8.704 81.2788 8.688 80.7828 8.688C79.7748 8.688 79.4388 8.928 79.4388 9.568C79.4388 10.192 79.7908 10.528 80.4788 10.528ZM92.7615 4.256V11.936C92.7615 14.432 91.4655 15.488 88.9055 15.488C87.9455 15.488 87.0175 15.328 86.2495 15.024L86.6655 13.424C87.4175 13.696 88.1855 13.84 88.8255 13.84C90.1695 13.84 90.6815 13.376 90.6815 12.176V11.52C90.2495 11.888 89.5135 12.16 88.6655 12.16C86.7935 12.16 85.5775 10.896 85.5775 8.128C85.5775 5.36 86.8415 4.096 89.0655 4.096C89.8175 4.096 90.4415 4.32 90.9375 4.784L91.1775 4.256H92.7615ZM89.3055 5.728C88.2175 5.728 87.6575 6.384 87.6575 8.128C87.6575 9.856 88.2335 10.528 89.3215 10.528C89.8335 10.528 90.2815 10.368 90.6815 10.064V6.176C90.2815 5.872 89.8335 5.728 89.3055 5.728ZM98.3428 12.16C95.5908 12.16 94.3588 10.896 94.3588 8.128C94.3588 5.328 95.4948 4.096 97.9427 4.096C100.375 4.096 101.511 5.328 101.511 8.128V8.752H96.5028C96.6148 9.92 97.1268 10.496 98.3428 10.496C99.2868 10.496 99.9908 10.256 100.887 9.744L101.447 11.312C100.615 11.808 99.5588 12.16 98.3428 12.16ZM99.3668 7.2C99.2548 6.32 98.8548 5.76 97.9427 5.76C97.0468 5.76 96.6308 6.32 96.5188 7.2H99.3668ZM112.705 10.448C113.745 10.448 114.785 10.144 115.745 9.632L116.273 11.296C115.249 11.856 113.969 12.16 112.689 12.16C109.089 12.16 107.409 10.16 107.409 6.624C107.409 2.832 109.105 1.088 112.449 1.088C114.049 1.088 115.409 1.712 116.225 2.592L115.057 3.904C114.417 3.2 113.553 2.8 112.449 2.8C110.513 2.8 109.521 3.984 109.521 6.624C109.521 9.136 110.513 10.448 112.705 10.448ZM119.868 4.736C120.428 4.304 121.212 4.08 122.028 4.08C123.788 4.08 124.668 4.992 124.668 6.816V12H122.588V7.184C122.588 6.096 122.284 5.744 121.532 5.744C120.908 5.744 120.428 5.888 119.868 6.192V12H117.788V0.927999L119.868 0.704V4.736ZM132.891 12H131.339L131.067 11.408C130.507 11.872 129.755 12.16 128.859 12.16C127.051 12.16 126.187 11.264 126.187 9.616C126.187 7.952 127.195 7.152 129.675 7.152C129.979 7.152 130.363 7.152 130.811 7.2V7.072C130.811 6.112 130.459 5.728 129.371 5.728C128.683 5.728 127.867 5.92 127.051 6.352L126.459 4.896C127.419 4.4 128.427 4.096 129.563 4.096C132.059 4.096 132.891 4.88 132.891 7.36V12ZM129.307 10.528C129.755 10.528 130.379 10.288 130.811 9.984V8.752C130.475 8.704 130.107 8.688 129.611 8.688C128.603 8.688 128.267 8.928 128.267 9.568C128.267 10.192 128.619 10.528 129.307 10.528ZM134.902 4.256H136.982V12H134.902V4.256ZM134.902 0.927999H136.982V2.784H134.902V0.927999ZM140.685 4.256L140.877 5.072C141.469 4.448 142.221 4.096 143.069 4.096C143.501 4.096 143.885 4.176 144.317 4.384V6.112C143.917 5.904 143.517 5.76 143.005 5.76C142.285 5.76 141.629 6.096 141.165 6.528V12H139.085V4.256H140.685Z" fill="#F6F3EB"/>
</svg>
