<svg width="183" height="16" viewBox="0 0 183 16" fill="none" xmlns="http://www.w3.org/2000/svg">
<path d="M23.312 12H21.2V1.248H23.312V5.552H23.984L27.664 1.248H30.176L25.712 6.368L29.952 12H27.456L23.984 7.232H23.312V12ZM31.4798 4.256H33.5598V12H31.4798V4.256ZM31.4798 0.927999H33.5598V2.784H31.4798V0.927999ZM37.4711 4.736C38.1911 4.304 38.9431 4.08 39.7271 4.08C40.6231 4.08 41.2951 4.304 41.6951 4.928C42.3991 4.416 43.1991 4.08 44.1751 4.08C45.9831 4.08 46.6391 4.96 46.6391 6.832V12H44.5591V7.2C44.5591 6.112 44.3351 5.744 43.6791 5.744C43.1671 5.744 42.6551 5.92 42.1591 6.224C42.1751 6.4 42.1911 6.592 42.1911 6.832V12H40.1271V7.2C40.1271 6.112 39.8871 5.744 39.2311 5.744C38.7511 5.744 38.2551 5.888 37.7431 6.192V12H35.6631V4.256H37.2151L37.4711 4.736ZM52.1396 10.496C52.9716 10.496 53.6596 10.272 54.3636 9.888L54.8276 11.472C54.1076 11.904 53.1796 12.16 52.1396 12.16C49.3716 12.16 48.1556 10.928 48.1556 8.128C48.1556 5.328 49.3716 4.096 51.9796 4.096C53.2116 4.096 54.1876 4.464 54.9076 5.184L53.8516 6.544C53.3876 6.048 52.7636 5.76 52.0596 5.76C50.8916 5.76 50.2356 6.384 50.2356 8.128C50.2356 9.856 50.8596 10.496 52.1396 10.496ZM58.3525 4.736C58.9125 4.304 59.6965 4.08 60.5125 4.08C62.2725 4.08 63.1525 4.992 63.1525 6.816V12H61.0725V7.184C61.0725 6.096 60.7685 5.744 60.0165 5.744C59.3925 5.744 58.9125 5.888 58.3525 6.192V12H56.2725V0.927999L58.3525 0.704V4.736ZM65.1673 4.256H67.2473V12H65.1673V4.256ZM65.1673 0.927999H67.2473V2.784H65.1673V0.927999ZM76.187 2.96V6.064H78.219C79.323 6.064 79.963 5.552 79.963 4.512C79.963 3.472 79.323 2.96 78.219 2.96H76.187ZM74.075 12V1.248H78.235C80.811 1.248 82.155 2.32 82.155 4.512C82.155 5.856 81.419 6.944 80.203 7.44L82.571 12H80.331L78.139 7.776H76.187V12H74.075ZM87.6553 12.16C84.9033 12.16 83.6713 10.896 83.6713 8.128C83.6713 5.328 84.8073 4.096 87.2552 4.096C89.6873 4.096 90.8233 5.328 90.8233 8.128V8.752H85.8153C85.9273 9.92 86.4393 10.496 87.6553 10.496C88.5993 10.496 89.3033 10.256 90.1993 9.744L90.7593 11.312C89.9273 11.808 88.8713 12.16 87.6553 12.16ZM88.6793 7.2C88.5673 6.32 88.1673 5.76 87.2552 5.76C86.3593 5.76 85.9433 6.32 85.8313 7.2H88.6793ZM97.8368 4.256V5.92H95.2448V12H93.1648V5.92H91.7888V4.256H93.1488V3.616C93.1488 1.616 94.1728 0.704 96.4288 0.704C97.1168 0.704 97.6928 0.832 98.2688 1.072L97.8048 2.672C97.2928 2.464 96.8608 2.384 96.4928 2.384C95.6448 2.384 95.2448 2.8 95.2448 3.776V4.256H97.8368ZM100.669 4.256L100.861 5.072C101.453 4.448 102.205 4.096 103.053 4.096C103.485 4.096 103.869 4.176 104.301 4.384V6.112C103.901 5.904 103.501 5.76 102.989 5.76C102.269 5.76 101.613 6.096 101.149 6.528V12H99.0694V4.256H100.669ZM105.495 4.256H107.575V12H105.495V4.256ZM105.495 0.927999H107.575V2.784H105.495V0.927999ZM116.543 4.256V11.936C116.543 14.432 115.247 15.488 112.687 15.488C111.727 15.488 110.799 15.328 110.031 15.024L110.447 13.424C111.199 13.696 111.967 13.84 112.607 13.84C113.951 13.84 114.463 13.376 114.463 12.176V11.52C114.031 11.888 113.295 12.16 112.447 12.16C110.575 12.16 109.359 10.896 109.359 8.128C109.359 5.36 110.623 4.096 112.847 4.096C113.599 4.096 114.223 4.32 114.719 4.784L114.959 4.256H116.543ZM113.087 5.728C111.999 5.728 111.439 6.384 111.439 8.128C111.439 9.856 112.015 10.528 113.103 10.528C113.615 10.528 114.063 10.368 114.463 10.064V6.176C114.063 5.872 113.615 5.728 113.087 5.728ZM122.124 12.16C119.372 12.16 118.14 10.896 118.14 8.128C118.14 5.328 119.276 4.096 121.724 4.096C124.156 4.096 125.292 5.328 125.292 8.128V8.752H120.284C120.396 9.92 120.908 10.496 122.124 10.496C123.068 10.496 123.772 10.256 124.668 9.744L125.228 11.312C124.396 11.808 123.34 12.16 122.124 12.16ZM123.148 7.2C123.036 6.32 122.636 5.76 121.724 5.76C120.828 5.76 120.412 6.32 120.3 7.2H123.148ZM128.498 4.256L128.69 5.072C129.282 4.448 130.034 4.096 130.882 4.096C131.314 4.096 131.698 4.176 132.13 4.384V6.112C131.73 5.904 131.33 5.76 130.818 5.76C130.098 5.76 129.442 6.096 128.978 6.528V12H126.898V4.256H128.498ZM139.422 12H137.87L137.598 11.408C137.038 11.872 136.286 12.16 135.39 12.16C133.582 12.16 132.718 11.264 132.718 9.616C132.718 7.952 133.726 7.152 136.206 7.152C136.51 7.152 136.894 7.152 137.342 7.2V7.072C137.342 6.112 136.99 5.728 135.902 5.728C135.214 5.728 134.398 5.92 133.582 6.352L132.99 4.896C133.95 4.4 134.958 4.096 136.094 4.096C138.59 4.096 139.422 4.88 139.422 7.36V12ZM135.838 10.528C136.286 10.528 136.91 10.288 137.342 9.984V8.752C137.006 8.704 136.638 8.688 136.142 8.688C135.134 8.688 134.798 8.928 134.798 9.568C134.798 10.192 135.15 10.528 135.838 10.528ZM143.945 5.92V9.168C143.945 10.192 144.233 10.496 144.985 10.496C145.513 10.496 146.057 10.288 146.553 10.048L146.921 11.568C146.169 11.952 145.273 12.16 144.441 12.16C142.569 12.16 141.865 11.296 141.865 9.44V5.92H140.617V4.256H141.865V2.768L143.945 2.4V4.256H146.649V5.92H143.945ZM147.781 8.128C147.781 5.328 148.997 4.096 151.605 4.096C154.181 4.096 155.413 5.36 155.413 8.128C155.413 10.896 154.181 12.16 151.605 12.16C148.997 12.16 147.781 10.928 147.781 8.128ZM149.861 8.128C149.861 9.664 150.309 10.496 151.605 10.496C152.901 10.496 153.333 9.664 153.333 8.128C153.333 6.592 152.901 5.76 151.605 5.76C150.309 5.76 149.861 6.592 149.861 8.128ZM158.607 4.256L158.799 5.072C159.391 4.448 160.143 4.096 160.991 4.096C161.423 4.096 161.807 4.176 162.239 4.384V6.112C161.839 5.904 161.439 5.76 160.927 5.76C160.207 5.76 159.551 6.096 159.087 6.528V12H157.007V4.256H158.607Z" fill="#F6F3EB"/>
</svg>
