<svg width="183" height="16" viewBox="0 0 183 16" fill="none" xmlns="http://www.w3.org/2000/svg">
<g clip-path="url(#clip0_1329_18123)">
<path d="M99.8993 0.0195312V0.639949H98.7249V4.00524H97.9233V0.639949H96.7676V0.0195312H99.8993Z" fill="#231815"/>
<path d="M104.636 0.0195312V4.00524H103.834V0.621148H103.797L103.052 4.00524H101.97L101.206 0.621148H101.15V4.00524H100.367V0.0195312H101.765L102.511 3.38483H102.567L103.257 0.0195312H104.636Z" fill="#231815"/>
<path d="M0 15.9993V0H2.72164V15.9805H0V15.9993Z" fill="#231815"/>
<path d="M12.8614 15.9986V8.2528C12.8614 7.16237 12.414 6.59835 11.3701 6.59835H7.94004V15.9986H5.29297V4.30469H11.8734C14.2408 4.30469 15.5271 5.54552 15.5271 8.1776V15.9986H12.8614Z" fill="#231815"/>
<path d="M17.3008 15.9986L18.4193 13.799H23.0982C23.8812 13.799 24.3286 13.4229 24.3286 12.7085C24.3286 12.2385 24.0303 11.8625 23.4524 11.7309L19.9292 10.7721C18.2888 10.3209 17.4126 9.17402 17.4126 7.63238C17.4126 5.67713 18.6616 4.30469 20.7308 4.30469H26.2114L25.1302 6.44795H21.1223C20.4139 6.44795 20.0038 6.78636 20.0038 7.50078C20.0038 8.02719 20.302 8.3844 20.8613 8.53481L24.5709 9.55003C25.9131 9.92605 26.9011 11.0541 26.9011 12.6333C26.9011 14.6638 25.6335 15.9798 23.4338 15.9798H17.3194L17.3008 15.9986Z" fill="#231815"/>
<path d="M32.5289 16.0011C29.9377 16.0011 28.6328 14.6851 28.6328 12.1282V0.753906H31.2799V4.30721H35.8284L34.7099 6.61967H31.2799V12.1282C31.2799 13.1811 31.8205 13.7263 32.7526 13.7263H35.9402L34.7845 16.0011H32.5289Z" fill="#231815"/>
<path d="M40.4898 15.9998C38.0851 15.9998 36.7988 14.4206 36.7988 12.4653C36.7988 10.5101 38.1037 8.93084 40.4898 8.93084H44.7773V8.16002C44.7773 7.10719 44.2554 6.52437 43.1555 6.52437H37.675L38.7748 4.28711H43.1555C45.9145 4.28711 47.3685 5.65955 47.3685 8.16002V15.981H40.4898V15.9998ZM40.7135 11.0929C39.856 11.0929 39.4645 11.7321 39.4645 12.4465C39.4645 13.161 39.8747 13.7814 40.6949 13.7814H44.7773V11.0929H40.7135Z" fill="#231815"/>
<path d="M53.4075 15.9993L47.4609 0H50.4995L55.0666 13.104L59.6897 0H62.6723L56.7443 15.9805H53.3889L53.4075 15.9993Z" fill="#231815"/>
<path d="M63.9023 2.35007V0H66.5494V2.35007H63.9023ZM63.9023 15.9993V4.30532H66.5494V15.9993H63.9023Z" fill="#231815"/>
<path d="M73.7822 15.9979C70.259 15.9979 68.3203 13.3282 68.3203 10.0005C68.3203 6.67285 70.3522 3.98438 73.9873 3.98438C77.6224 3.98438 79.6543 6.44724 79.6543 10.0945V11.2978H71.042C71.2284 12.8018 72.4028 13.7418 73.8382 13.7418H78.9273L77.8088 15.9791H73.7636L73.7822 15.9979ZM76.9699 9.09812C76.8208 7.27447 75.8514 6.25924 74.0059 6.25924C72.2723 6.25924 71.0792 7.50007 71.0233 9.09812H76.9699Z" fill="#231815"/>
<path d="M96.749 4.30469L93.8596 15.9986H90.3178L88.5282 8.77921L86.7946 15.9986H83.2713L80.3633 4.30469H83.0104L85.0982 13.6109L87.3538 4.30469H89.7958L92.0514 13.6109L94.0833 4.30469H96.7677H96.749Z" fill="#231815"/>
</g>
<defs>
<clipPath id="clip0_1329_18123">
<rect width="183" height="16" fill="white"/>
</clipPath>
</defs>
</svg>
