<svg width="183" height="16" viewBox="0 0 183 16" fill="none" xmlns="http://www.w3.org/2000/svg">
<g clip-path="url(#clip0_1865_41859)">
<path d="M94.4776 0V0.505429H93.5452V3.19052H92.8973V0.505429H91.9492V0H94.4618H94.4776Z" fill="white"/>
<path d="M98.2707 0V3.17473H97.6228V0.489635H97.5912L96.9907 3.17473H96.1532L95.5369 0.489635H95.4895V3.17473H94.8574V0H95.9952L96.5957 2.68509H96.6273L97.2119 0H98.3023H98.2707Z" fill="white"/>
<path d="M51.6077 0L50.628 1.92695H45.7609C44.8444 1.92695 44.3387 2.57453 44.3387 3.2695C44.3387 3.96446 44.639 4.53307 45.4449 4.7542L49.2848 5.89141C51.2285 6.47581 52.0028 7.75518 52.0028 9.20829C52.0028 11.2458 50.8018 12.7305 48.3841 12.7305H42.0316L43.0113 10.8036H48.1312C49.0478 10.8036 49.7115 10.3297 49.7115 9.41362C49.7115 8.68707 49.3954 8.13426 48.6369 7.89734L44.5916 6.71274C42.9955 6.23889 42 5.08588 42 3.41165C42.079 1.62685 43.3116 0 45.7135 0H51.6077Z" fill="white"/>
<path d="M56.4119 12.7319C54.326 12.7319 53.2988 11.6894 53.2988 9.65191V0.601562H55.4163V3.42881H59.0666L58.1659 5.27678H55.4163V9.65191C55.4163 10.489 55.843 10.9313 56.5857 10.9313H59.1298L58.2133 12.7319H56.4119Z" fill="white"/>
<path d="M62.4477 15.9845L63.8067 12.7308L59.793 3.42773H62.0527L64.8655 10.2984L67.5518 3.42773H69.7799L64.5494 16.0003H62.4477V15.9845Z" fill="white"/>
<path d="M73.1141 12.7305C71.8025 12.7305 70.9492 11.925 70.9492 10.4719V0H73.0667V10.2349C73.0667 10.693 73.2879 10.9299 73.7146 10.9299H74.9314L74.0306 12.7305H73.1141Z" fill="white"/>
<path d="M79.6721 12.7296C76.8435 12.7296 75.2949 10.6131 75.2949 7.95961C75.2949 5.30611 76.9225 3.17383 79.8459 3.17383C82.7693 3.17383 84.4128 5.13237 84.4128 8.03859V9.00206H77.4914C77.6494 10.2025 78.5976 10.9448 79.7353 10.9448H83.8281L82.9274 12.7296H79.6879H79.6721ZM82.2321 7.23306C82.1215 5.77995 81.3313 4.97442 79.8617 4.97442C78.4712 4.97442 77.5072 5.95369 77.4598 7.23306H82.2321Z" fill="white"/>
<path d="M85.7715 12.7308V6.63405C85.7715 4.81766 86.9566 3.42773 89.0267 3.42773H91.6183L90.7018 5.27571H89.2954C88.4262 5.27571 87.9048 5.82852 87.9048 6.69723V12.7466H85.7873L85.7715 12.7308Z" fill="white"/>
<path d="M101.542 9.85338C101.4 9.77441 101.226 9.69543 101.052 9.63225C100.863 9.56907 100.689 9.4901 100.499 9.42692C100.309 9.36374 100.12 9.28477 99.9302 9.22159C99.7405 9.14262 99.5667 9.06365 99.3929 8.98467C99.1875 8.87411 98.9978 8.76355 98.8398 8.65298C98.6818 8.54242 98.5396 8.41606 98.429 8.25812C98.3184 8.11596 98.2393 7.94222 98.1761 7.73689C98.1129 7.54736 98.0971 7.31044 98.0971 7.04193C98.0971 6.71024 98.1603 6.41014 98.3026 6.14163C98.429 5.88892 98.6344 5.66779 98.8714 5.49405C99.1243 5.32031 99.4245 5.19395 99.7722 5.09918C100.12 5.00442 100.499 4.95703 100.926 4.95703C101.352 4.95703 101.763 5.00442 102.158 5.08339C102.569 5.16236 102.933 5.30451 103.28 5.49405L102.854 6.39435C102.617 6.26799 102.332 6.17322 102 6.07845C101.668 5.98368 101.305 5.9363 100.91 5.9363C100.388 5.9363 99.9776 6.03107 99.7089 6.2206C99.4403 6.41014 99.2981 6.66286 99.2981 6.97875C99.2981 7.23146 99.3613 7.43679 99.5035 7.59474C99.6457 7.75269 99.8196 7.87905 100.025 7.97381C100.167 8.03699 100.325 8.11596 100.483 8.17914C100.657 8.24232 100.831 8.3055 101.005 8.38447C101.179 8.44765 101.368 8.52663 101.558 8.58981C101.747 8.66878 101.921 8.74775 102.095 8.82673C102.269 8.92149 102.443 9.03206 102.585 9.12682C102.743 9.23739 102.869 9.36374 102.98 9.5059C103.091 9.64805 103.185 9.82179 103.249 10.0271C103.312 10.2325 103.343 10.4694 103.343 10.7537C103.343 11.0854 103.28 11.3855 103.138 11.654C102.996 11.9067 102.806 12.1278 102.569 12.3173C102.316 12.4911 102.032 12.6332 101.668 12.728C101.321 12.8228 100.926 12.8702 100.499 12.8702C100.072 12.8702 99.6299 12.8228 99.1875 12.728C98.745 12.6332 98.35 12.4911 97.9707 12.3016L98.4132 11.4013C98.7608 11.575 99.1085 11.7014 99.4245 11.7803C99.7564 11.8593 100.088 11.9067 100.467 11.9067C101.052 11.9067 101.479 11.8119 101.747 11.6066C102.016 11.4013 102.142 11.1485 102.142 10.8326C102.142 10.5957 102.079 10.4062 101.953 10.2482C101.826 10.0903 101.668 9.96394 101.495 9.86917L101.542 9.85338Z" fill="white"/>
<path d="M107.769 12.7286V9.49069C107.769 9.31695 107.769 9.14321 107.737 9.00106C107.721 8.84311 107.674 8.71675 107.611 8.60619C107.547 8.49563 107.453 8.40086 107.342 8.33768C107.215 8.2745 107.057 8.24291 106.868 8.24291C106.647 8.24291 106.441 8.2745 106.252 8.32189C106.062 8.38507 105.904 8.46404 105.762 8.55881L105.556 8.70096V12.7444H104.371V4.86286L105.556 4.7207V7.76907C105.714 7.65851 105.888 7.57954 106.078 7.53215C106.489 7.39 106.868 7.32682 107.215 7.32682C107.563 7.32682 107.848 7.37421 108.085 7.45318C108.306 7.54795 108.48 7.67431 108.622 7.83225C108.748 7.9902 108.843 8.19553 108.891 8.43245C108.938 8.66937 108.97 8.95367 108.97 9.25377V12.7444H107.784L107.769 12.7286Z" fill="white"/>
<path d="M112.303 12.8546C111.829 12.8546 111.434 12.7915 111.118 12.6651C110.801 12.5388 110.549 12.3492 110.375 12.1123C110.185 11.8754 110.059 11.5753 109.98 11.2278C109.901 10.8803 109.869 10.4854 109.869 10.059C109.869 9.11131 110.075 8.41634 110.501 7.97409C110.928 7.53184 111.607 7.29492 112.556 7.29492C113.014 7.29492 113.409 7.3581 113.725 7.48446C114.041 7.61082 114.294 7.80035 114.483 8.03727C114.673 8.27419 114.815 8.57429 114.894 8.92177C114.973 9.26926 115.021 9.66412 115.021 10.0906C115.021 11.0383 114.799 11.7174 114.373 12.1755C113.93 12.6177 113.251 12.8389 112.318 12.8389L112.303 12.8546ZM112.303 12.0175C112.587 12.0175 112.824 11.9701 113.03 11.8912C113.219 11.8122 113.377 11.6858 113.488 11.5121C113.598 11.3384 113.677 11.133 113.725 10.8803C113.772 10.6276 113.788 10.3433 113.788 10.0116C113.788 9.75889 113.772 9.52197 113.741 9.28505C113.709 9.04813 113.646 8.85859 113.551 8.68485C113.456 8.51111 113.33 8.36896 113.172 8.27419C113.014 8.17942 112.808 8.11624 112.556 8.11624C112.271 8.11624 112.034 8.16363 111.844 8.2426C111.655 8.33737 111.497 8.46373 111.386 8.63747C111.276 8.81121 111.197 9.01654 111.149 9.26926C111.102 9.52197 111.086 9.80627 111.086 10.138C111.086 10.4065 111.086 10.6434 111.133 10.8645C111.165 11.0856 111.228 11.291 111.323 11.4489C111.418 11.6227 111.544 11.749 111.702 11.8438C111.86 11.9386 112.066 11.9859 112.318 11.9859L112.303 12.0175Z" fill="white"/>
<path d="M118.292 12.8546C117.803 12.8546 117.407 12.7915 117.076 12.6809C116.744 12.5703 116.491 12.3966 116.285 12.1597C116.08 11.9228 115.938 11.6385 115.859 11.2752C115.78 10.9277 115.732 10.517 115.732 10.0432C115.732 8.21101 116.57 7.29492 118.261 7.29492C118.719 7.29492 119.098 7.3581 119.383 7.48446C119.667 7.61082 119.904 7.80035 120.062 8.02148C120.22 8.2584 120.347 8.52691 120.41 8.8428C120.473 9.15869 120.505 9.50618 120.505 9.88525V10.3591H116.949C116.949 10.8961 117.06 11.2752 117.249 11.5121C117.486 11.8122 117.897 11.9701 118.466 11.9701C118.861 11.9701 119.193 11.9228 119.462 11.828C119.73 11.7332 119.952 11.6385 120.157 11.5437L120.41 12.3018C120.315 12.365 120.189 12.4282 120.031 12.4914C119.873 12.5545 119.699 12.6177 119.509 12.6651C119.32 12.7125 119.114 12.7599 118.909 12.7915C118.687 12.8231 118.482 12.8389 118.277 12.8389L118.292 12.8546ZM119.272 9.55356C119.272 9.04813 119.193 8.68485 119.019 8.44793C118.845 8.22681 118.593 8.10045 118.245 8.10045C117.85 8.10045 117.565 8.19522 117.376 8.36896C117.186 8.5427 117.076 8.82701 117.012 9.19028L116.965 9.53777H119.272V9.55356Z" fill="white"/>
<path d="M124.708 12.8561C123.507 12.8561 122.638 12.5087 122.101 11.8611C121.564 11.1977 121.295 10.2184 121.295 8.92328C121.295 7.62811 121.595 6.58567 122.211 5.93808C122.812 5.3063 123.681 4.97461 124.803 4.97461C125.277 4.97461 125.735 5.05358 126.194 5.22732C126.652 5.38527 127.015 5.65378 127.3 5.98547L126.589 6.69623C126.367 6.45931 126.13 6.26977 125.846 6.14341C125.577 6.01706 125.23 5.93808 124.835 5.93808C124.044 5.93808 123.46 6.1908 123.096 6.71202C122.733 7.23325 122.543 7.99139 122.543 9.01804C122.543 9.94993 122.717 10.6449 123.065 11.1187C123.412 11.5926 123.981 11.8295 124.74 11.8295C125.198 11.8295 125.609 11.7821 125.972 11.6873C126.336 11.5926 126.668 11.482 126.952 11.3557L127.252 12.2875C126.936 12.4455 126.557 12.5876 126.099 12.6982C125.641 12.8088 125.166 12.8561 124.677 12.8561H124.708Z" fill="white"/>
<path d="M132.909 12.7441C132.783 12.7599 132.641 12.7757 132.467 12.7757C132.182 12.7757 131.961 12.7283 131.803 12.6335C131.645 12.5388 131.503 12.4124 131.408 12.2229C131.218 12.3966 130.965 12.5388 130.665 12.6651C130.365 12.7915 130.033 12.8546 129.701 12.8546C129.369 12.8546 129.053 12.8073 128.832 12.7283C128.611 12.6335 128.421 12.523 128.295 12.365C128.168 12.2071 128.074 12.0333 128.026 11.8438C127.979 11.6543 127.947 11.4331 127.947 11.212C127.947 10.8803 128.01 10.596 128.121 10.3749C128.232 10.1538 128.39 9.98002 128.595 9.85366C128.801 9.7273 129.038 9.64833 129.322 9.60094C129.606 9.55356 129.923 9.53777 130.27 9.53777C130.428 9.53777 130.586 9.53777 130.744 9.53777C130.902 9.53777 131.06 9.55356 131.218 9.56935V9.31664C131.218 9.11131 131.203 8.92177 131.171 8.77962C131.139 8.63747 131.076 8.51111 130.981 8.43214C130.886 8.33737 130.776 8.27419 130.618 8.22681C130.476 8.17942 130.286 8.16363 130.065 8.16363C129.749 8.16363 129.464 8.19522 129.18 8.27419C128.895 8.35316 128.658 8.44793 128.437 8.5585L128.168 7.80035C128.453 7.6582 128.785 7.54764 129.164 7.43707C129.543 7.34231 129.938 7.29492 130.365 7.29492C130.744 7.29492 131.076 7.32651 131.345 7.40548C131.613 7.48446 131.819 7.61082 131.977 7.78456C132.135 7.9583 132.245 8.19522 132.324 8.46373C132.388 8.74803 132.435 9.09551 132.435 9.50618V11.291C132.435 11.5437 132.482 11.7016 132.562 11.7964C132.641 11.8912 132.767 11.9228 132.925 11.9228V12.7441H132.909ZM130.239 10.3591C129.844 10.3591 129.559 10.4223 129.417 10.5644C129.259 10.7066 129.196 10.9119 129.196 11.1804C129.196 11.4489 129.259 11.67 129.369 11.8122C129.48 11.9543 129.701 12.0333 130.017 12.0333C130.207 12.0333 130.412 11.9859 130.634 11.907C130.855 11.8122 131.044 11.7016 131.218 11.5595V10.4381C131.044 10.4065 130.886 10.3907 130.728 10.3749C130.57 10.3749 130.412 10.3749 130.254 10.3749L130.239 10.3591Z" fill="white"/>
<path d="M134.584 7.42128L134.663 8.06886C134.837 7.84774 135.027 7.68979 135.248 7.59502C135.596 7.40548 135.959 7.29492 136.323 7.29492C136.497 7.29492 136.639 7.31072 136.781 7.34231C136.923 7.3739 137.034 7.40548 137.129 7.43707L136.828 8.41634C136.655 8.32158 136.433 8.27419 136.181 8.27419C135.864 8.27419 135.58 8.35316 135.327 8.5427C135.232 8.60588 135.153 8.65326 135.074 8.73224C134.995 8.79542 134.916 8.87439 134.822 8.95336V12.7283H133.636V8.90598L133.494 7.42128H134.584Z" fill="white"/>
<path d="M139.689 12.8546C139.199 12.8546 138.804 12.7915 138.472 12.6809C138.14 12.5703 137.887 12.3966 137.682 12.1597C137.477 11.9228 137.334 11.6385 137.255 11.2752C137.176 10.9277 137.129 10.517 137.129 10.0432C137.129 8.21101 137.966 7.29492 139.657 7.29492C140.116 7.29492 140.495 7.3581 140.779 7.48446C141.064 7.61082 141.301 7.80035 141.459 8.02148C141.617 8.2584 141.743 8.52691 141.806 8.8428C141.87 9.15869 141.901 9.50618 141.901 9.88525V10.3591H138.346C138.346 10.8961 138.456 11.2752 138.646 11.5121C138.883 11.8122 139.294 11.9701 139.863 11.9701C140.258 11.9701 140.59 11.9228 140.858 11.828C141.127 11.7332 141.348 11.6385 141.554 11.5437L141.806 12.3018C141.712 12.365 141.585 12.4282 141.427 12.4914C141.269 12.5545 141.095 12.6177 140.906 12.6651C140.716 12.7125 140.511 12.7599 140.305 12.7915C140.084 12.8231 139.878 12.8389 139.673 12.8389L139.689 12.8546ZM140.669 9.55356C140.669 9.04813 140.59 8.68485 140.416 8.44793C140.242 8.22681 139.989 8.10045 139.641 8.10045C139.246 8.10045 138.962 8.19522 138.772 8.36896C138.583 8.5427 138.472 8.82701 138.409 9.19028L138.361 9.53777H140.669V9.55356Z" fill="white"/>
</g>
<defs>
<clipPath id="clip0_1865_41859">
<rect width="183" height="16" fill="white"/>
</clipPath>
</defs>
</svg>
