<svg width="183" height="16" viewBox="0 0 183 16" fill="none" xmlns="http://www.w3.org/2000/svg">
<g clip-path="url(#clip0_1329_18112)">
<path d="M0 15.869V0H7.24394C10.4716 0 12.2322 1.92069 12.2322 5.12806C12.2322 8.33542 10.4716 10.2748 7.2256 10.2748H2.67751V15.869H0ZM2.67751 7.86923H7.09722C8.76608 7.86923 9.49964 6.75039 9.49964 5.12806C9.49964 3.50573 8.65604 2.40552 7.09722 2.40552H2.67751V7.86923Z" fill="white"/>
<path d="M16.5971 4.26953V11.8964C16.5971 12.9779 17.0372 13.5373 18.0642 13.5373H21.4386V4.26953H24.0428V15.8683H17.5691C15.24 15.8683 13.9746 14.6375 13.9746 12.0269V4.26953H16.5971Z" fill="white"/>
<path d="M26.3347 15.8683V8.26009C26.3347 6.00375 27.7835 4.26953 30.3327 4.26953H33.5053L32.3683 6.56317H30.6261C29.5624 6.56317 28.9206 7.25313 28.9206 8.33468V15.8683H26.3164H26.3347Z" fill="white"/>
<path d="M34.5312 2.33093V0H37.1354V2.33093H34.5312ZM34.5312 15.869V4.27027H37.1354V15.869H34.5312Z" fill="white"/>
<path d="M46.7833 0H51.8449L50.6345 2.42417H47.3152C43.9958 2.42417 42.2719 4.4381 42.2719 7.92518C42.2719 11.4123 43.9958 13.4262 47.3152 13.4262H51.8449L50.6345 15.8504H46.7833C42.7304 15.7944 39.4844 12.9786 39.4844 7.92518C39.4844 2.87171 42.7487 0.0559424 46.7833 0Z" fill="white"/>
<path d="M56.4671 15.8693C54.1013 15.8693 52.8359 14.3029 52.8359 12.3636C52.8359 10.4243 54.1197 8.85788 56.4671 8.85788H60.6851V8.09333C60.6851 7.04908 60.1716 6.471 59.0896 6.471H53.6979L54.7799 4.25195H59.0896C61.8037 4.25195 63.2342 5.61322 63.2342 8.09333V15.8507H56.4671V15.8693ZM56.6871 11.0023C55.8435 11.0023 55.4584 11.6364 55.4584 12.345C55.4584 13.0536 55.8619 13.6689 56.6688 13.6689H60.6851V11.0023H56.6871Z" fill="white"/>
<path d="M65.489 15.8683V8.26009C65.489 6.00375 66.9378 4.26953 69.487 4.26953H72.6596L71.5226 6.56317H69.7804C68.7167 6.56317 68.0748 7.25313 68.0748 8.33468V15.8683H65.4707H65.489Z" fill="white"/>
<path d="M77.7757 15.8689C74.3096 15.8689 72.4023 13.2209 72.4023 9.92032C72.4023 6.61971 74.4013 3.95312 77.9774 3.95312C81.5535 3.95312 83.5525 6.39594 83.5525 10.0136V11.207H75.0798C75.2632 12.6988 76.4186 13.6312 77.8307 13.6312H82.8373L81.7369 15.8502H77.7574L77.7757 15.8689ZM80.9117 9.02524C80.765 7.21643 79.8113 6.20947 77.9958 6.20947C76.2902 6.20947 75.1165 7.4402 75.0615 9.02524H80.9117Z" fill="white"/>
<path d="M83.5879 0H86.6688V0.634014H85.5318V3.97191H84.7616V0.634014H83.6062V0H83.5879Z" fill="white"/>
<path d="M87.1094 0H88.4848L89.2184 3.3379H89.255L89.9519 0H91.2907V3.97191H90.5204V0.615367H90.4654L89.7319 3.95327H88.7049L87.953 0.615367H87.898V3.95327H87.1094V0Z" fill="white"/>
<path d="M94.7578 0H94.4277V15.8504H94.7578V0Z" fill="white"/>
<path d="M102.387 6.90045L101.745 4.99841H98.9945L98.3526 6.90045H97.1973L99.6547 0.0195312H101.14L103.561 6.90045H102.387ZM100.333 0.877315L99.2879 4.12198H101.452L100.425 0.877315H100.333Z" fill="white"/>
<path d="M106.292 7.01315C105.87 7.01315 105.503 6.95721 105.21 6.86397C104.916 6.75208 104.678 6.6029 104.513 6.39778C104.348 6.19266 104.201 5.91295 104.128 5.61459C104.054 5.29758 104.018 4.92463 104.018 4.49574C104.018 2.83611 104.769 2.01562 106.255 2.01562C106.658 2.01562 106.989 2.07157 107.245 2.18345C107.502 2.29534 107.704 2.46316 107.85 2.66829C107.997 2.87341 108.089 3.13447 108.162 3.41419C108.217 3.6939 108.254 4.0109 108.254 4.34656V4.77545H105.118C105.118 5.26029 105.21 5.59594 105.375 5.81971C105.595 6.09942 105.943 6.22995 106.457 6.22995C106.805 6.22995 107.099 6.19266 107.337 6.09942C107.575 6.00619 107.777 5.9316 107.96 5.83836L108.181 6.52831C108.181 6.52831 107.979 6.6402 107.85 6.69614C107.704 6.75208 107.557 6.80803 107.392 6.86397C107.227 6.91991 107.044 6.95721 106.86 6.97585C106.677 6.9945 106.493 7.01315 106.31 7.01315H106.292ZM107.154 4.02955C107.154 3.58201 107.08 3.24636 106.933 3.04124C106.787 2.83611 106.548 2.72423 106.237 2.72423C105.888 2.72423 105.631 2.79882 105.466 2.96665C105.301 3.13447 105.191 3.37689 105.136 3.71255L105.1 4.02955H107.135H107.154Z" fill="white"/>
<path d="M110.071 2.12751L110.144 2.70558C110.291 2.50046 110.474 2.35128 110.658 2.27669C110.969 2.09021 111.281 2.01562 111.611 2.01562C111.758 2.01562 111.905 2.01562 112.015 2.05292C112.143 2.09021 112.235 2.10886 112.327 2.14616L112.07 3.02259C111.923 2.92935 111.721 2.89206 111.483 2.89206C111.208 2.89206 110.951 2.96665 110.731 3.13447C110.658 3.19042 110.566 3.24636 110.511 3.3023C110.456 3.35824 110.364 3.43283 110.291 3.50742V6.91991H109.246V3.47013L109.117 2.12751H110.089H110.071Z" fill="white"/>
<path d="M114.602 7.01333C114.18 7.01333 113.831 6.95739 113.556 6.84551C113.281 6.73362 113.061 6.5658 112.896 6.34203C112.731 6.11826 112.621 5.85719 112.548 5.54018C112.474 5.22318 112.438 4.86887 112.438 4.47728C112.438 3.61949 112.621 3.00413 113.006 2.59388C113.391 2.18364 113.996 1.97852 114.84 1.97852C115.243 1.97852 115.592 2.03446 115.867 2.14634C116.142 2.25823 116.362 2.42606 116.545 2.64982C116.729 2.87359 116.839 3.13466 116.912 3.45167C116.986 3.76867 117.022 4.12298 117.022 4.51457C117.022 5.35371 116.821 5.98772 116.435 6.37932C116.05 6.78957 115.445 6.97604 114.62 6.97604L114.602 7.01333ZM114.602 6.24879C114.858 6.24879 115.078 6.21149 115.243 6.1369C115.408 6.06231 115.555 5.95043 115.647 5.80125C115.757 5.65207 115.812 5.46559 115.867 5.24182C115.904 5.01805 115.922 4.75699 115.922 4.45863C115.922 4.23486 115.922 4.01109 115.867 3.80597C115.83 3.60085 115.775 3.41437 115.702 3.26519C115.61 3.11601 115.5 2.98548 115.372 2.89224C115.225 2.799 115.06 2.76171 114.822 2.76171C114.565 2.76171 114.363 2.799 114.18 2.87359C113.996 2.94818 113.868 3.06007 113.776 3.2279C113.666 3.37708 113.611 3.5822 113.556 3.80597C113.519 4.02974 113.501 4.2908 113.501 4.58916C113.501 4.83158 113.501 5.0367 113.538 5.24182C113.575 5.44695 113.611 5.61477 113.703 5.7826C113.776 5.93178 113.905 6.06231 114.033 6.1369C114.18 6.23014 114.363 6.26744 114.583 6.26744L114.602 6.24879Z" fill="white"/>
<path d="M98.959 15.8692H97.877V8.98828H101.93V9.86471H98.959V11.8973H101.71V12.7551H98.959V15.8692Z" fill="white"/>
<path d="M106.917 14.6004L107.009 15.8684H106.037L105.982 15.4954C105.982 15.4954 105.799 15.626 105.707 15.6633C105.615 15.7006 105.505 15.7565 105.414 15.7752C105.23 15.8497 105.065 15.887 104.9 15.9243C104.735 15.9616 104.57 15.9803 104.405 15.9803C104.093 15.9803 103.855 15.943 103.653 15.8684C103.451 15.7938 103.305 15.6819 103.195 15.5327C103.085 15.3836 102.993 15.1971 102.956 14.992C102.919 14.7682 102.883 14.5258 102.883 14.2461V11.1133H103.946V14.0409C103.946 14.2088 103.946 14.3579 103.965 14.4885C103.965 14.619 104.02 14.7495 104.075 14.8428C104.13 14.9547 104.203 15.0293 104.313 15.0852C104.423 15.1411 104.552 15.1784 104.735 15.1784C104.937 15.1784 105.102 15.1598 105.267 15.1038C105.432 15.0479 105.579 14.992 105.707 14.8987C105.762 14.8428 105.817 14.8055 105.872 14.7682V11.1133H106.936V14.619L106.917 14.6004Z" fill="white"/>
<path d="M108.971 11.0963L109.045 11.6743C109.191 11.4692 109.375 11.32 109.558 11.2454C109.87 11.059 110.182 10.9844 110.512 10.9844C110.658 10.9844 110.805 10.9844 110.915 11.0217C111.044 11.059 111.135 11.0776 111.227 11.1149L110.97 11.9913C110.823 11.8981 110.622 11.8608 110.383 11.8608C110.108 11.8608 109.851 11.9354 109.631 12.1032C109.558 12.1592 109.466 12.2151 109.411 12.2711C109.356 12.327 109.265 12.4016 109.191 12.4762V15.8887H108.146V12.4389L108.018 11.0963H108.99H108.971Z" fill="white"/>
<path d="M112.675 11.0963L112.712 11.4692C112.712 11.4692 112.895 11.3573 112.987 11.3014C113.079 11.2454 113.189 11.2081 113.299 11.1708C113.665 11.0403 113.996 10.9844 114.307 10.9844C114.619 10.9844 114.876 11.0217 115.078 11.0963C115.279 11.1708 115.426 11.2827 115.554 11.4319C115.664 11.5811 115.756 11.7676 115.793 11.9913C115.829 12.2151 115.866 12.4575 115.866 12.7372V15.87H114.821V12.961C114.821 12.7932 114.821 12.644 114.784 12.5135C114.784 12.3829 114.729 12.2524 114.674 12.1592C114.619 12.0659 114.527 11.9727 114.436 11.9167C114.326 11.8608 114.197 11.8235 114.014 11.8235C113.812 11.8235 113.629 11.8422 113.464 11.8981C113.299 11.954 113.152 12.0286 113.024 12.1032L112.84 12.2338V15.87H111.795V12.3643L111.703 11.0963H112.675Z" fill="white"/>
<path d="M117.002 9.0625H118.066V10.0135H117.002V9.0625ZM117.002 11.0764H118.047V15.8502H117.002V11.0764Z" fill="white"/>
<path d="M120.635 11.9168V14.0799C120.635 14.2477 120.635 14.3969 120.635 14.5274C120.635 14.658 120.672 14.7698 120.727 14.8631C120.782 14.9563 120.856 15.0309 120.947 15.0869C121.039 15.1428 121.186 15.1614 121.369 15.1614C121.534 15.1614 121.681 15.1428 121.846 15.1055C121.993 15.0682 122.139 15.0123 122.268 14.9563L122.451 15.6836C122.011 15.8887 121.534 16.0006 121.039 16.0006C120.727 16.0006 120.489 15.9633 120.305 15.8887C120.122 15.8141 119.975 15.7022 119.865 15.553C119.755 15.4039 119.682 15.236 119.645 15.0309C119.608 14.8258 119.59 14.602 119.59 14.3596V11.9354H118.783V11.2268L119.572 11.1336V10.1826L120.635 9.99609V11.1336H122.323V11.9541H120.635V11.9168Z" fill="white"/>
<path d="M127.199 14.6004L127.29 15.8684H126.318L126.263 15.4954C126.263 15.4954 126.08 15.626 125.988 15.6633C125.897 15.7006 125.787 15.7565 125.695 15.7752C125.511 15.8497 125.346 15.887 125.181 15.9243C125.016 15.9616 124.851 15.9803 124.686 15.9803C124.374 15.9803 124.136 15.943 123.934 15.8684C123.733 15.7938 123.586 15.6819 123.476 15.5327C123.366 15.3836 123.274 15.1971 123.237 14.992C123.201 14.7682 123.164 14.5258 123.164 14.2461V11.1133H124.228V14.0409C124.228 14.2088 124.228 14.3579 124.246 14.4885C124.246 14.619 124.301 14.7495 124.356 14.8428C124.411 14.9547 124.484 15.0293 124.595 15.0852C124.705 15.1411 124.833 15.1784 125.016 15.1784C125.218 15.1784 125.383 15.1598 125.548 15.1038C125.713 15.0479 125.86 14.992 125.988 14.8987C126.043 14.8428 126.098 14.8055 126.153 14.7682V11.1133H127.217V14.619L127.199 14.6004Z" fill="white"/>
<path d="M129.254 11.0963L129.328 11.6743C129.474 11.4692 129.658 11.32 129.841 11.2454C130.153 11.059 130.465 10.9844 130.795 10.9844C130.942 10.9844 131.088 10.9844 131.198 11.0217C131.327 11.059 131.418 11.0776 131.51 11.1149L131.253 11.9913C131.107 11.8981 130.905 11.8608 130.667 11.8608C130.391 11.8608 130.135 11.9354 129.915 12.1032C129.841 12.1592 129.75 12.2151 129.695 12.2711C129.64 12.327 129.548 12.4016 129.474 12.4762V15.8887H128.429V12.4389L128.301 11.0963H129.273H129.254Z" fill="white"/>
<path d="M133.876 15.9819C133.454 15.9819 133.087 15.926 132.794 15.8327C132.5 15.7208 132.262 15.5717 132.097 15.3665C131.932 15.1614 131.785 14.8817 131.712 14.5833C131.638 14.2663 131.602 13.8934 131.602 13.4645C131.602 11.8049 132.353 10.9844 133.839 10.9844C134.242 10.9844 134.572 11.0403 134.829 11.1522C135.086 11.2641 135.288 11.4319 135.434 11.637C135.581 11.8422 135.673 12.1032 135.746 12.3829C135.801 12.6626 135.838 12.9797 135.838 13.3153V13.7442H132.702C132.702 14.229 132.794 14.5647 132.959 14.7885C133.179 15.0682 133.527 15.1987 134.041 15.1987C134.389 15.1987 134.683 15.1614 134.921 15.0682C135.159 14.9749 135.361 14.9003 135.544 14.8071L135.765 15.4971C135.765 15.4971 135.563 15.6089 135.434 15.6649C135.288 15.7208 135.141 15.7768 134.976 15.8327C134.811 15.8887 134.628 15.926 134.444 15.9446C134.261 15.9633 134.077 15.9819 133.894 15.9819H133.876ZM134.738 12.9983C134.738 12.5508 134.664 12.2151 134.517 12.01C134.371 11.8049 134.132 11.693 133.821 11.693C133.472 11.693 133.215 11.7676 133.05 11.9354C132.885 12.1032 132.775 12.3456 132.72 12.6813L132.684 12.9983H134.719H134.738Z" fill="white"/>
</g>
<defs>
<clipPath id="clip0_1329_18112">
<rect width="183" height="16" fill="white"/>
</clipPath>
</defs>
</svg>
