<svg width="183" height="16" viewBox="0 0 183 16" fill="none" xmlns="http://www.w3.org/2000/svg">
<path d="M60.208 7.624C60.208 11.272 58.208 13 54.608 13H51.2V2.248H54.608C58.192 2.248 60.208 4.024 60.208 7.624ZM53.312 3.96V11.288H54.592C56.784 11.288 58.096 10.168 58.096 7.624C58.096 5.08 56.784 3.96 54.592 3.96H53.312ZM62.1048 5.256H64.1848V13H62.1048V5.256ZM62.1048 1.928H64.1848V3.784H62.1048V1.928ZM68.3041 7.336C68.3041 7.576 68.4481 7.784 68.9441 7.992C69.5041 8.232 70.1121 8.344 70.7361 8.584C71.8881 9.016 72.5441 9.608 72.5441 10.824C72.5441 12.36 71.5361 13.16 69.1681 13.16C67.9521 13.16 66.9281 12.904 65.9681 12.44L66.6561 10.872C67.3761 11.272 68.2081 11.496 69.1681 11.496C70.1121 11.496 70.4641 11.288 70.4641 10.856C70.4641 10.552 70.1601 10.28 69.5681 10.056C69.0561 9.88 68.5281 9.8 67.9361 9.56C66.8481 9.16 66.2241 8.616 66.2241 7.48C66.2241 5.96 67.2481 5.096 69.5681 5.096C70.7201 5.096 71.6481 5.384 72.4001 5.816L71.7121 7.368C71.0401 6.968 70.3841 6.76 69.7281 6.76C68.7201 6.76 68.3041 6.968 68.3041 7.336ZM76.2275 5.736C76.7875 5.304 77.5715 5.08 78.3875 5.08C80.1475 5.08 81.0275 5.992 81.0275 7.816V13H78.9475V8.184C78.9475 7.096 78.6435 6.744 77.8915 6.744C77.2675 6.744 76.7875 6.888 76.2275 7.192V13H74.1475V1.928L76.2275 1.704V5.736ZM88.7543 5.256L89.8103 9.176L90.1463 10.584H90.1783L90.4343 9.176L91.3463 5.256H93.3783L91.1543 13H89.1063L88.1303 9.272L87.7623 7.704H87.7303L87.3783 9.272L86.4023 13H84.3703L82.1303 5.256H84.1783L85.0903 9.176L85.3623 10.584H85.3943L85.7143 9.176L86.7543 5.256H88.7543ZM100.782 13H99.2295L98.9575 12.408C98.3975 12.872 97.6455 13.16 96.7495 13.16C94.9415 13.16 94.0775 12.264 94.0775 10.616C94.0775 8.952 95.0855 8.152 97.5655 8.152C97.8695 8.152 98.2535 8.152 98.7015 8.2V8.072C98.7015 7.112 98.3495 6.728 97.2615 6.728C96.5735 6.728 95.7575 6.92 94.9415 7.352L94.3495 5.896C95.3095 5.4 96.3175 5.096 97.4535 5.096C99.9495 5.096 100.782 5.88 100.782 8.36V13ZM97.1975 11.528C97.6455 11.528 98.2695 11.288 98.7015 10.984V9.752C98.3655 9.704 97.9975 9.688 97.5015 9.688C96.4935 9.688 96.1575 9.928 96.1575 10.568C96.1575 11.192 96.5095 11.528 97.1975 11.528ZM104.632 7.336C104.632 7.576 104.776 7.784 105.272 7.992C105.832 8.232 106.44 8.344 107.064 8.584C108.216 9.016 108.872 9.608 108.872 10.824C108.872 12.36 107.864 13.16 105.496 13.16C104.28 13.16 103.256 12.904 102.296 12.44L102.984 10.872C103.704 11.272 104.536 11.496 105.496 11.496C106.44 11.496 106.792 11.288 106.792 10.856C106.792 10.552 106.488 10.28 105.896 10.056C105.384 9.88 104.856 9.8 104.264 9.56C103.176 9.16 102.552 8.616 102.552 7.48C102.552 5.96 103.576 5.096 105.896 5.096C107.048 5.096 107.976 5.384 108.728 5.816L108.04 7.368C107.368 6.968 106.712 6.76 106.056 6.76C105.048 6.76 104.632 6.968 104.632 7.336ZM112.556 5.736C113.116 5.304 113.9 5.08 114.716 5.08C116.476 5.08 117.356 5.992 117.356 7.816V13H115.276V8.184C115.276 7.096 114.972 6.744 114.22 6.744C113.596 6.744 113.116 6.888 112.556 7.192V13H110.476V1.928L112.556 1.704V5.736ZM122.858 13.16C120.106 13.16 118.874 11.896 118.874 9.128C118.874 6.328 120.01 5.096 122.458 5.096C124.89 5.096 126.026 6.328 126.026 9.128V9.752H121.018C121.13 10.92 121.642 11.496 122.858 11.496C123.802 11.496 124.506 11.256 125.402 10.744L125.962 12.312C125.13 12.808 124.074 13.16 122.858 13.16ZM123.882 8.2C123.77 7.32 123.37 6.76 122.458 6.76C121.562 6.76 121.146 7.32 121.034 8.2H123.882ZM129.232 5.256L129.424 6.072C130.016 5.448 130.768 5.096 131.616 5.096C132.048 5.096 132.432 5.176 132.864 5.384V7.112C132.464 6.904 132.064 6.76 131.552 6.76C130.832 6.76 130.176 7.096 129.712 7.528V13H127.632V5.256H129.232Z" fill="#F6F3EB"/>
</svg>
