<svg width="183" height="16" viewBox="0 0 183 16" fill="none" xmlns="http://www.w3.org/2000/svg">
<g clip-path="url(#clip0_1865_41668)">
<path d="M28 15.9062V0H35.2083C38.4201 0 40.1719 1.92519 40.1719 5.14006C40.1719 8.35494 38.4201 10.2988 35.19 10.2988H30.6643V15.9062H28ZM30.6643 7.88766H35.0623C36.7229 7.88766 37.4529 6.76619 37.4529 5.14006C37.4529 3.51394 36.6134 2.41116 35.0623 2.41116H30.6643V7.88766Z" fill="white"/>
<path d="M44.5158 4.2793V11.924C44.5158 13.0081 44.9538 13.5688 45.9757 13.5688H49.3335V4.2793H51.9248V15.9052H45.483C43.1654 15.9052 41.9062 14.6716 41.9062 12.0548V4.2793H44.5158Z" fill="white"/>
<path d="M54.2057 15.9052V8.2792C54.2057 6.01757 55.6474 4.2793 58.184 4.2793H61.341L60.2096 6.57831H58.476C57.4175 6.57831 56.7788 7.26988 56.7788 8.35397V15.9052H54.1875H54.2057Z" fill="white"/>
<path d="M62.3613 2.33639V0H64.9527V2.33639H62.3613ZM62.3613 15.9062V4.28027H64.9527V15.9062H62.3613Z" fill="white"/>
<path d="M74.5521 0H79.5887L78.3843 2.42985H75.0813C71.7783 2.42985 70.0629 4.44849 70.0629 7.94374C70.0629 11.439 71.7783 13.4576 75.0813 13.4576H79.5887L78.3843 15.8875H74.5521C70.5191 15.8314 67.2891 13.009 67.2891 7.94374C67.2891 2.87844 70.5373 0.0560734 74.5521 0Z" fill="white"/>
<path d="M84.1875 15.9043C81.8334 15.9043 80.5742 14.3343 80.5742 12.3904C80.5742 10.4465 81.8516 8.87648 84.1875 8.87648H88.3847V8.11014C88.3847 7.06344 87.8737 6.48401 86.7971 6.48401H81.4319L82.5086 4.25977H86.7971C89.4979 4.25977 90.9213 5.62422 90.9213 8.11014V15.8857H84.1875V15.9043ZM84.4065 11.026C83.567 11.026 83.1838 11.6615 83.1838 12.3717C83.1838 13.082 83.5853 13.6988 84.3882 13.6988H88.3847V11.026H84.4065Z" fill="white"/>
<path d="M93.1667 15.9052V8.2792C93.1667 6.01757 94.6083 4.2793 97.1449 4.2793H100.302L99.1705 6.57831H97.4369C96.3785 6.57831 95.7398 7.26988 95.7398 8.35397V15.9052H93.1484H93.1667Z" fill="white"/>
<path d="M105.394 15.9046C101.945 15.9046 100.047 13.2504 100.047 9.9421C100.047 6.63377 102.036 3.96094 105.595 3.96094C109.153 3.96094 111.142 6.40948 111.142 10.0356V11.2318H102.711C102.894 12.7271 104.043 13.6616 105.449 13.6616H110.43L109.336 15.8859H105.376L105.394 15.9046ZM108.514 9.04493C108.368 7.23189 107.419 6.22257 105.613 6.22257C103.916 6.22257 102.748 7.45618 102.693 9.04493H108.514Z" fill="white"/>
<path d="M111.178 0H114.244V0.635499H113.112V3.98121H112.346V0.635499H111.196V0H111.178Z" fill="white"/>
<path d="M114.682 0H116.05L116.78 3.34571H116.817L117.51 0H118.842V3.98121H118.076V0.616808H118.021L117.291 3.96252H116.269L115.521 0.616808H115.466V3.96252H114.682V0Z" fill="white"/>
<path d="M122.291 0H121.963V15.8875H122.291V0Z" fill="white"/>
<path d="M130.541 6.89703L129.903 4.99054H127.165L126.527 6.89703H125.377L127.841 0H129.319L131.728 6.89703H130.56H130.541ZM128.497 0.859793L127.457 4.11205H129.611L128.589 0.859793H128.497Z" fill="white"/>
<path d="M132.385 0.0742188H133.443V1.02747H132.385V0.0742188ZM132.385 2.09286H133.425V6.8778H132.385V2.11155V2.09286Z" fill="white"/>
<path d="M135.488 2.11215L135.561 2.69157C135.707 2.48597 135.889 2.33644 136.072 2.26168C136.382 2.07476 136.692 2 137.021 2C137.167 2 137.313 2 137.422 2.03738C137.55 2.07476 137.641 2.09346 137.733 2.13084L137.477 3.00932C137.331 2.91587 137.13 2.87848 136.893 2.87848C136.619 2.87848 136.364 2.95325 136.145 3.12147C136.072 3.17754 135.981 3.23362 135.926 3.28969C135.871 3.34576 135.78 3.42053 135.707 3.49529V6.91577H134.667V3.45791L134.539 2.11215H135.506H135.488Z" fill="white"/>
<path d="M125.506 15.8873V8.99023H127.896C128.663 8.99023 129.229 9.15845 129.63 9.4949C130.032 9.83134 130.232 10.3547 130.232 11.065C130.232 11.4201 130.178 11.7378 130.068 12.0182C129.959 12.2986 129.813 12.5229 129.612 12.7098C129.411 12.8967 129.192 13.0462 128.918 13.1397C128.645 13.2331 128.353 13.2892 128.042 13.2892H126.583V15.8686H125.506V15.8873ZM127.86 12.4294C128.024 12.4294 128.188 12.4107 128.353 12.3546C128.517 12.2986 128.645 12.2238 128.754 12.1117C128.864 11.9995 128.955 11.8687 129.028 11.7005C129.101 11.5322 129.137 11.3266 129.137 11.0836C129.137 10.8593 129.101 10.6724 129.028 10.5229C128.955 10.3734 128.864 10.2425 128.736 10.1491C128.626 10.0556 128.48 9.98087 128.334 9.94348C128.188 9.9061 128.024 9.88741 127.86 9.88741H126.564V12.4481H127.86V12.4294Z" fill="white"/>
<path d="M135.067 14.6163L135.159 15.8873H134.192L134.137 15.5135C134.137 15.5135 133.954 15.6444 133.863 15.6817C133.772 15.7191 133.662 15.7752 133.571 15.7939C133.389 15.8686 133.224 15.906 133.06 15.9434C132.896 15.9808 132.732 15.9995 132.567 15.9995C132.257 15.9995 132.02 15.9621 131.819 15.8873C131.618 15.8126 131.472 15.7004 131.363 15.5509C131.253 15.4014 131.162 15.2145 131.126 15.0089C131.089 14.7846 131.053 14.5416 131.053 14.2612V11.1211H132.111V14.0556C132.111 14.2238 132.111 14.3734 132.129 14.5042C132.129 14.635 132.184 14.7659 132.239 14.8593C132.294 14.9715 132.367 15.0462 132.476 15.1023C132.586 15.1584 132.713 15.1958 132.896 15.1958C133.097 15.1958 133.261 15.1771 133.425 15.121C133.589 15.0649 133.735 15.0089 133.863 14.9154C133.918 14.8593 133.973 14.8219 134.027 14.7846V11.1211H135.086V14.635L135.067 14.6163Z" fill="white"/>
<path d="M137.113 11.1024L137.186 11.6818C137.332 11.4762 137.514 11.3267 137.697 11.2519C138.007 11.065 138.317 10.9902 138.646 10.9902C138.792 10.9902 138.938 10.9902 139.047 11.0276C139.175 11.065 139.266 11.0837 139.358 11.1211L139.102 11.9996C138.956 11.9061 138.755 11.8687 138.518 11.8687C138.244 11.8687 137.989 11.9435 137.77 12.1117C137.697 12.1678 137.606 12.2239 137.551 12.2799C137.496 12.336 137.405 12.4108 137.332 12.4855V15.906H136.292V12.4481L136.164 11.1024H137.131H137.113Z" fill="white"/>
<path d="M139.811 9.06641H140.869V10.0197H139.811V9.06641ZM139.811 11.085H140.851V15.87H139.811V11.085Z" fill="white"/>
<path d="M145.011 11.102V11.9244H143.368V15.9056H142.328V11.9244H141.635V11.102H142.328V10.5226C142.328 10.1674 142.365 9.86838 142.456 9.6067C142.547 9.36372 142.675 9.17681 142.839 9.02728C143.003 8.87775 143.186 8.7843 143.423 8.72822C143.66 8.67215 143.898 8.63477 144.19 8.63477C144.372 8.63477 144.555 8.63477 144.755 8.67215C144.938 8.69084 145.102 8.74691 145.248 8.80299L145.029 9.58801C144.92 9.53194 144.792 9.49456 144.664 9.47587C144.536 9.47587 144.409 9.43849 144.299 9.43849C143.971 9.43849 143.733 9.51325 143.587 9.68147C143.441 9.84969 143.387 10.1114 143.387 10.5039V11.0833H145.029L145.011 11.102Z" fill="white"/>
<path d="M145.707 9.06641H146.765V10.0197H145.707V9.06641ZM145.707 11.085H146.747V15.87H145.707V11.085Z" fill="white"/>
<path d="M149.993 15.9995C149.574 15.9995 149.209 15.9434 148.917 15.8499C148.625 15.7378 148.387 15.5883 148.223 15.3827C148.059 15.177 147.913 14.8967 147.84 14.5976C147.767 14.2799 147.73 13.9061 147.73 13.4762C147.73 11.8126 148.479 10.9902 149.957 10.9902C150.358 10.9902 150.687 11.0463 150.942 11.1585C151.198 11.2706 151.398 11.4388 151.544 11.6444C151.69 11.85 151.782 12.1117 151.855 12.3921C151.909 12.6724 151.946 12.9902 151.946 13.3266V13.7565H148.825C148.825 14.2425 148.917 14.5789 149.081 14.8032C149.3 15.0836 149.647 15.2144 150.158 15.2144C150.504 15.2144 150.796 15.177 151.033 15.0836C151.271 14.9901 151.471 14.9154 151.654 14.8219L151.873 15.5135C151.873 15.5135 151.672 15.6256 151.544 15.6817C151.398 15.7378 151.252 15.7939 151.088 15.8499C150.924 15.906 150.742 15.9434 150.559 15.9621C150.377 15.9808 150.194 15.9995 150.012 15.9995H149.993ZM150.851 13.0089C150.851 12.5603 150.778 12.2238 150.632 12.0182C150.486 11.8126 150.249 11.7005 149.939 11.7005C149.592 11.7005 149.336 11.7753 149.172 11.9435C149.008 12.1117 148.898 12.3547 148.844 12.6911L148.807 13.0089H150.833H150.851Z" fill="white"/>
<path d="M153.754 11.1024L153.827 11.6818C153.973 11.4762 154.155 11.3267 154.338 11.2519C154.648 11.065 154.958 10.9902 155.287 10.9902C155.433 10.9902 155.579 10.9902 155.688 11.0276C155.816 11.065 155.907 11.0837 155.998 11.1211L155.743 11.9996C155.597 11.9061 155.396 11.8687 155.159 11.8687C154.885 11.8687 154.63 11.9435 154.411 12.1117C154.338 12.1678 154.246 12.2239 154.192 12.2799C154.137 12.336 154.046 12.4108 153.973 12.4855V15.906H152.932V12.4481L152.805 11.1024H153.772H153.754Z" fill="white"/>
</g>
<defs>
<clipPath id="clip0_1865_41668">
<rect width="183" height="16" fill="white"/>
</clipPath>
</defs>
</svg>
