<svg width="183" height="16" viewBox="0 0 183 16" fill="none" xmlns="http://www.w3.org/2000/svg">
<path d="M3.95991 15.9862C1.32971 15.9862 0 14.6819 0 12.1167V0.740234H2.68865V4.29086H7.32072L6.18096 6.60964H2.68865V12.1167C2.68865 13.1747 3.2293 13.7254 4.17909 13.7254H7.40839L6.23941 16.0007H3.9453L3.95991 15.9862Z" fill="white"/>
<path d="M9.2207 2.34776V0H11.9093V2.34776H9.2207ZM9.2207 15.9996V4.28974H11.9093V15.9851H9.2207V15.9996Z" fill="white"/>
<path d="M14.6562 2.34776V0H17.3449V2.34776H14.6562ZM14.6562 15.9996V4.28974H17.3449V15.9851H14.6562V15.9996Z" fill="white"/>
<path d="M22.5187 4.28906V11.9845C22.5187 13.0714 22.9716 13.6366 24.0383 13.6366H27.516V4.28906H30.2047V15.9844H23.5123C21.1013 15.9844 19.8008 14.7525 19.8008 12.1149V4.28906H22.5187Z" fill="white"/>
<path d="M40.2407 15.9844V8.23098C40.2407 7.14406 39.7877 6.57886 38.721 6.57886H35.2433V15.9844H32.5547V4.28906H39.2471C41.6581 4.28906 42.9586 5.52091 42.9586 8.15852V15.9844H40.2407Z" fill="white"/>
</svg>
