<svg width="24" height="24" viewBox="0 0 24 24" fill="none" xmlns="http://www.w3.org/2000/svg">
<mask id="path-1-outside-1_851_691" maskUnits="userSpaceOnUse" x="1.01367" y="3.91797" width="23" height="18" fill="black">
<rect fill="white" x="1.01367" y="3.91797" width="23" height="18"/>
<path fill-rule="evenodd" clip-rule="evenodd" d="M21.4816 5.56752C20.6155 4.70145 19.2113 4.70145 18.3453 5.56752L10.5048 13.408L5.79954 8.70269C4.93347 7.83662 3.52929 7.83662 2.66322 8.70269C1.79715 9.56876 1.79716 10.9729 2.66322 11.839L7.3685 16.5443L7.36817 16.5446L10.5045 19.6809L21.4816 8.70384C22.3477 7.83777 22.3477 6.43359 21.4816 5.56752Z"/>
</mask>
<path fill-rule="evenodd" clip-rule="evenodd" d="M21.4816 5.56752C20.6155 4.70145 19.2113 4.70145 18.3453 5.56752L10.5048 13.408L5.79954 8.70269C4.93347 7.83662 3.52929 7.83662 2.66322 8.70269C1.79715 9.56876 1.79716 10.9729 2.66322 11.839L7.3685 16.5443L7.36817 16.5446L10.5045 19.6809L21.4816 8.70384C22.3477 7.83777 22.3477 6.43359 21.4816 5.56752Z" fill="#262626"/>
<path d="M18.3453 5.56752L17.6382 4.86041V4.86041L18.3453 5.56752ZM21.4816 5.56752L22.1887 4.86041V4.86041L21.4816 5.56752ZM10.5048 13.408L9.79771 14.1151L10.5048 14.8222L11.2119 14.1151L10.5048 13.408ZM5.79954 8.70269L5.09243 9.4098L5.79954 8.70269ZM2.66322 8.70269L1.95612 7.99558L2.66322 8.70269ZM2.66322 11.839L1.95612 12.5461H1.95612L2.66322 11.839ZM7.3685 16.5443L8.07611 17.2509L8.78222 16.5438L8.07561 15.8372L7.3685 16.5443ZM7.36817 16.5446L6.66056 15.838L5.95445 16.5451L6.66106 17.2517L7.36817 16.5446ZM10.5045 19.6809L9.79738 20.388L10.5045 21.0951L11.2116 20.388L10.5045 19.6809ZM21.4816 8.70384L20.7745 7.99673L20.7745 7.99673L21.4816 8.70384ZM19.0524 6.27463C19.5279 5.79908 20.2989 5.79908 20.7745 6.27463L22.1887 4.86041C20.9321 3.60382 18.8948 3.60382 17.6382 4.86041L19.0524 6.27463ZM11.2119 14.1151L19.0524 6.27463L17.6382 4.86041L9.79771 12.7009L11.2119 14.1151ZM5.09243 9.4098L9.79771 14.1151L11.2119 12.7009L6.50664 7.99558L5.09243 9.4098ZM3.37033 9.4098C3.84588 8.93425 4.61689 8.93425 5.09243 9.4098L6.50664 7.99558C5.25005 6.73899 3.21271 6.73899 1.95612 7.99558L3.37033 9.4098ZM3.37033 11.1319C2.89479 10.6564 2.89479 9.88534 3.37033 9.4098L1.95612 7.99558C0.699522 9.25218 0.699525 11.2895 1.95612 12.5461L3.37033 11.1319ZM8.07561 15.8372L3.37033 11.1319L1.95612 12.5461L6.6614 17.2514L8.07561 15.8372ZM8.07578 17.2512L8.07611 17.2509L6.6609 15.8377L6.66056 15.838L8.07578 17.2512ZM11.2116 18.9738L8.07527 15.8375L6.66106 17.2517L9.79738 20.388L11.2116 18.9738ZM20.7745 7.99673L9.79738 18.9738L11.2116 20.388L22.1887 9.41094L20.7745 7.99673ZM20.7745 6.27463C21.25 6.75017 21.25 7.52118 20.7745 7.99673L22.1887 9.41094C23.4453 8.15435 23.4453 6.11701 22.1887 4.86041L20.7745 6.27463Z" fill="#262626" mask="url(#path-1-outside-1_851_691)"/>
</svg>
