<svg width="40" height="40" viewBox="0 0 40 40" fill="none" xmlns="http://www.w3.org/2000/svg">
<g opacity="0.2">
<mask id="path-1-outside-1_865_1355" maskUnits="userSpaceOnUse" x="2.35742" y="7.19727" width="36" height="28" fill="black">
<rect fill="white" x="2.35742" y="7.19727" width="36" height="28"/>
<path fill-rule="evenodd" clip-rule="evenodd" d="M35.8033 9.27985C34.3598 7.8364 32.0195 7.8364 30.5761 9.27985L17.5087 22.3473L9.6672 14.5058C8.22375 13.0623 5.88346 13.0623 4.44001 14.5058C2.99656 15.9492 2.99656 18.2895 4.44001 19.733L12.2815 27.5745L12.2809 27.575L17.5081 32.8022L35.8033 14.507C37.2467 13.0636 37.2467 10.7233 35.8033 9.27985Z"/>
</mask>
<path fill-rule="evenodd" clip-rule="evenodd" d="M35.8033 9.27985C34.3598 7.8364 32.0195 7.8364 30.5761 9.27985L17.5087 22.3473L9.6672 14.5058C8.22375 13.0623 5.88346 13.0623 4.44001 14.5058C2.99656 15.9492 2.99656 18.2895 4.44001 19.733L12.2815 27.5745L12.2809 27.575L17.5081 32.8022L35.8033 14.507C37.2467 13.0636 37.2467 10.7233 35.8033 9.27985Z" fill="black"/>
<path d="M30.5761 9.27985L29.869 8.57275V8.57275L30.5761 9.27985ZM35.8033 9.27985L35.0962 9.98696V9.98696L35.8033 9.27985ZM17.5087 22.3473L16.8016 23.0544L17.5087 23.7615L18.2158 23.0544L17.5087 22.3473ZM4.44001 14.5058L5.14711 15.2129H5.14711L4.44001 14.5058ZM4.44001 19.733L3.7329 20.4401H3.7329L4.44001 19.733ZM12.2815 27.5745L12.9886 28.2816L13.6957 27.5745L12.9886 26.8674L12.2815 27.5745ZM12.2809 27.575L11.5738 26.8679L10.8667 27.575L11.5738 28.2821L12.2809 27.575ZM17.5081 32.8022L16.801 33.5093L17.5081 34.2164L18.2152 33.5093L17.5081 32.8022ZM35.8033 14.507L35.0962 13.7999V13.7999L35.8033 14.507ZM31.2832 9.98696C32.3361 8.93403 34.0433 8.93403 35.0962 9.98696L36.5104 8.57275C34.6764 6.73877 31.703 6.73877 29.869 8.57275L31.2832 9.98696ZM18.2158 23.0544L31.2832 9.98696L29.869 8.57275L16.8016 21.6402L18.2158 23.0544ZM8.96009 15.2129L16.8016 23.0544L18.2158 21.6402L10.3743 13.7987L8.96009 15.2129ZM5.14711 15.2129C6.20004 14.16 7.90717 14.16 8.96009 15.2129L10.3743 13.7987C8.54033 11.9647 5.56687 11.9647 3.7329 13.7987L5.14711 15.2129ZM5.14712 19.0259C4.09419 17.9729 4.09419 16.2658 5.14711 15.2129L3.7329 13.7987C1.89893 15.6327 1.89893 18.6061 3.7329 20.4401L5.14712 19.0259ZM12.9886 26.8674L5.14712 19.0259L3.7329 20.4401L11.5744 28.2816L12.9886 26.8674ZM12.988 28.2821L12.9886 28.2816L11.5744 26.8674L11.5738 26.8679L12.988 28.2821ZM18.2152 32.0951L12.988 26.8679L11.5738 28.2821L16.801 33.5093L18.2152 32.0951ZM35.0962 13.7999L16.801 32.0951L18.2152 33.5093L36.5104 15.2141L35.0962 13.7999ZM35.0962 9.98696C36.1491 11.0399 36.1491 12.747 35.0962 13.7999L36.5104 15.2142C38.3444 13.3802 38.3444 10.4067 36.5104 8.57274L35.0962 9.98696Z" fill="black" mask="url(#path-1-outside-1_865_1355)"/>
</g>
</svg>
