<svg width="24" height="24" viewBox="0 0 24 24" fill="none" xmlns="http://www.w3.org/2000/svg">
<path d="M11.3582 2.33782L11.0309 1.95986V1.95986L11.3582 2.33782ZM12.6675 2.33782L12.3402 2.71579V2.71579L12.6675 2.33782ZM1.92938 10.5034L1.60206 10.1255H1.60206L1.92938 10.5034ZM5.02236 12.2594H5.52236V11.7594H5.02236V12.2594ZM10.0009 21.0016V21.5016H10.5009V21.0016H10.0009ZM10.0009 15.9994V15.4994H9.50088V15.9994H10.0009ZM14.0009 15.9994H14.5009V15.4994H14.0009V15.9994ZM14.0009 21.0016H13.5009V21.5016H14.0009V21.0016ZM19.007 12.2594V11.7594H18.507V12.2594H19.007ZM22.0964 10.5034L22.4237 10.1255L22.0964 10.5034ZM11.6856 2.71579C11.8734 2.55307 12.1523 2.55307 12.3402 2.71579L12.9949 1.95986C12.4312 1.47171 11.5946 1.47171 11.0309 1.95986L11.6856 2.71579ZM2.25671 10.8814L11.6856 2.71579L11.0309 1.95986L1.60206 10.1255L2.25671 10.8814ZM2.58404 11.7594C2.12109 11.7594 1.90676 11.1845 2.25671 10.8814L1.60206 10.1255C0.552202 11.0347 1.19521 12.7594 2.58404 12.7594V11.7594ZM5.02236 11.7594H2.58404V12.7594H5.02236V11.7594ZM4.52236 12.2594V20.0016H5.52236V12.2594H4.52236ZM4.52236 20.0016C4.52236 20.83 5.19393 21.5016 6.02236 21.5016V20.5016C5.74622 20.5016 5.52236 20.2777 5.52236 20.0016H4.52236ZM6.02236 21.5016H10.0009V20.5016H6.02236V21.5016ZM10.5009 21.0016V15.9994H9.50088V21.0016H10.5009ZM10.0009 16.4994H14.0009V15.4994H10.0009V16.4994ZM13.5009 15.9994V21.0016H14.5009V15.9994H13.5009ZM14.0009 21.5016H18.007V20.5016H14.0009V21.5016ZM18.007 21.5016C18.8355 21.5016 19.507 20.83 19.507 20.0016H18.507C18.507 20.2777 18.2832 20.5016 18.007 20.5016V21.5016ZM19.507 20.0016V12.2594H18.507V20.0016H19.507ZM21.4417 11.7594H19.007V12.7594H21.4417V11.7594ZM21.7691 10.8814C22.119 11.1845 21.9047 11.7594 21.4417 11.7594V12.7594C22.8306 12.7594 23.4736 11.0347 22.4237 10.1255L21.7691 10.8814ZM12.3402 2.71579L21.7691 10.8814L22.4237 10.1255L12.9949 1.95986L12.3402 2.71579Z" fill="#262626"/>
</svg>
