<svg width="24" height="24" viewBox="0 0 24 24" fill="none" xmlns="http://www.w3.org/2000/svg">
<path d="M13.3451 2.5957C12.7949 1.48083 11.2051 1.48084 10.6549 2.5957L8.55148 6.85768C8.47865 7.00525 8.33787 7.10754 8.17502 7.1312L3.47164 7.81464C2.24131 7.99342 1.75005 9.50538 2.64032 10.3732L6.04371 13.6907C6.16156 13.8055 6.21533 13.971 6.18751 14.1332L5.38408 18.8176C5.17392 20.043 6.46006 20.9774 7.56051 20.3989L11.7673 18.1872C11.913 18.1106 12.087 18.1106 12.2327 18.1872L16.4395 20.3989C17.5399 20.9774 18.8261 20.043 18.6159 18.8176L17.8125 14.1332C17.7847 13.971 17.8384 13.8055 17.9563 13.6907L21.3597 10.3732C22.25 9.50538 21.7587 7.99342 20.5284 7.81464L15.825 7.1312C15.6621 7.10754 15.5213 7.00525 15.4485 6.85768L13.3451 2.5957Z" fill="#262626" stroke="#262626"/>
</svg>
