<svg width="40" height="40" viewBox="0 0 40 40" fill="none" xmlns="http://www.w3.org/2000/svg">
<mask id="path-1-outside-1_865_1354" maskUnits="userSpaceOnUse" x="1.35742" y="6.19727" width="37" height="29" fill="black">
<rect fill="white" x="1.35742" y="6.19727" width="37" height="29"/>
<path fill-rule="evenodd" clip-rule="evenodd" d="M35.803 9.27961C34.3596 7.83616 32.0193 7.83616 30.5759 9.27961L17.5084 22.347L9.66696 14.5055C8.22351 13.0621 5.88322 13.0621 4.43977 14.5055C2.99632 15.949 2.99632 18.2893 4.43977 19.7327L12.2812 27.5742L12.2807 27.5748L17.5079 32.802L35.803 14.5068C37.2465 13.0634 37.2465 10.7231 35.803 9.27961Z"/>
</mask>
<path fill-rule="evenodd" clip-rule="evenodd" d="M35.803 9.27961C34.3596 7.83616 32.0193 7.83616 30.5759 9.27961L17.5084 22.347L9.66696 14.5055C8.22351 13.0621 5.88322 13.0621 4.43977 14.5055C2.99632 15.949 2.99632 18.2893 4.43977 19.7327L12.2812 27.5742L12.2807 27.5748L17.5079 32.802L35.803 14.5068C37.2465 13.0634 37.2465 10.7231 35.803 9.27961Z" fill="#FD312E"/>
<path d="M30.5759 9.27961L29.8688 8.5725L29.8688 8.5725L30.5759 9.27961ZM35.803 9.27961L35.0959 9.98672L35.0959 9.98672L35.803 9.27961ZM17.5084 22.347L16.8013 23.0541L17.5084 23.7612L18.2155 23.0541L17.5084 22.347ZM4.43977 14.5055L5.14687 15.2127L5.14687 15.2127L4.43977 14.5055ZM4.43977 19.7327L3.73266 20.4398L3.73266 20.4398L4.43977 19.7327ZM12.2812 27.5742L12.9884 28.2813L13.6955 27.5742L12.9884 26.8671L12.2812 27.5742ZM12.2807 27.5748L11.5736 26.8677L10.8665 27.5748L11.5736 28.2819L12.2807 27.5748ZM17.5079 32.802L16.8008 33.5091L17.5079 34.2162L18.215 33.5091L17.5079 32.802ZM35.803 14.5068L35.0959 13.7997L35.0959 13.7997L35.803 14.5068ZM31.283 9.98672C32.3359 8.93379 34.043 8.93379 35.0959 9.98672L36.5102 8.5725C34.6762 6.73853 31.7027 6.73853 29.8688 8.5725L31.283 9.98672ZM18.2155 23.0541L31.283 9.98672L29.8688 8.5725L16.8013 21.6399L18.2155 23.0541ZM8.95985 15.2127L16.8013 23.0541L18.2155 21.6399L10.3741 13.7984L8.95985 15.2127ZM5.14687 15.2127C6.1998 14.1597 7.90693 14.1597 8.95985 15.2127L10.3741 13.7984C8.54009 11.9645 5.56663 11.9645 3.73266 13.7984L5.14687 15.2127ZM5.14688 19.0256C4.09395 17.9727 4.09395 16.2656 5.14687 15.2127L3.73266 13.7984C1.89869 15.6324 1.89869 18.6059 3.73266 20.4398L5.14688 19.0256ZM12.9884 26.8671L5.14688 19.0256L3.73266 20.4398L11.5741 28.2813L12.9884 26.8671ZM12.9878 28.2819L12.9884 28.2813L11.5741 26.8671L11.5736 26.8677L12.9878 28.2819ZM18.215 32.0949L12.9878 26.8677L11.5736 28.2819L16.8008 33.5091L18.215 32.0949ZM35.0959 13.7997L16.8008 32.0949L18.215 33.5091L36.5102 15.2139L35.0959 13.7997ZM35.0959 9.98672C36.1489 11.0396 36.1489 12.7468 35.0959 13.7997L36.5102 15.2139C38.3441 13.3799 38.3441 10.4065 36.5102 8.5725L35.0959 9.98672Z" fill="#FD312E" mask="url(#path-1-outside-1_865_1354)"/>
</svg>
