<svg width="375" height="64" viewBox="0 0 375 64" fill="none" xmlns="http://www.w3.org/2000/svg">
<path d="M375 27H302V32H375V27Z" fill="#A50034"/>
<path d="M51.849 9.4707H46.9733L52.5093 23.3609H45.9406L48.3023 17.4225L45.856 11.2718L37.4336 31.644H42.6394L44.3493 27.3453H54.1006L55.8105 31.644H61.0163L51.849 9.4707Z" fill="#1D1D1B"/>
<path d="M151.014 13.1328C145.055 13.1328 141.322 17.3551 141.322 22.5713C141.322 27.7876 145.055 32.0099 151.014 32.0099C155.526 32.0099 157.515 30.2513 158.743 28.7306L156.026 25.9356C154.239 27.6262 152.817 27.949 151.014 27.949C148.196 27.949 146.426 25.3324 146.426 22.5713C146.426 19.8103 148.196 17.2022 151.014 17.2022C153.935 17.2022 154.79 18.9522 155.018 21.0506H148.543C148.382 21.5179 148.297 22.0276 148.297 22.5713C148.297 23.1405 148.399 23.6843 148.577 24.1685H159.826V22.5713C159.826 17.3636 156.974 13.1328 151.014 13.1328Z" fill="#1D1D1B"/>
<path d="M120.607 31.6448H125.779V13.5068V7.37305H120.607V31.6448Z" fill="#1D1D1B"/>
<path d="M131.841 13.1406C129.733 13.1406 128.21 13.9052 127.439 14.415V18.3229C127.947 17.6093 128.997 17.2015 129.86 17.2015C131.528 17.2015 133.145 18.2464 133.145 20.9395V31.6439H138.317V19.6057C138.317 16.6323 136.556 13.1406 131.841 13.1406Z" fill="#1D1D1B"/>
<path d="M63.3438 31.6439H68.5157V13.5059H63.3438V31.6439ZM74.4241 13.1406C72.5026 13.1406 71.1144 13.6928 70.1748 14.296V17.8641C70.6488 17.4648 71.2244 17.193 71.9439 17.193C73.5861 17.193 75.5837 18.3739 75.5837 21.1859V31.6439H80.7557V19.6057C80.7557 16.6408 79.1389 13.1406 74.4241 13.1406Z" fill="#1D1D1B"/>
<path d="M93.5216 13.1406C87.5201 13.1406 83.7617 17.3629 83.7617 22.5707C83.7617 23.8875 84.0072 25.1448 84.4558 26.2832H90.1018C89.3484 25.3147 88.9337 24.0149 88.9337 22.5707C88.9337 19.6057 90.7028 17.2015 93.5216 17.2015C96.3403 17.2015 98.1094 19.6057 98.1094 22.5707C98.1094 25.5356 96.3403 27.9398 93.5216 27.9398H85.3362C86.9783 30.395 89.8225 32.0007 93.5216 32.0007C99.523 32.0007 103.281 27.7784 103.281 22.5707C103.281 17.3629 99.523 13.1406 93.5216 13.1406Z" fill="#1D1D1B"/>
<path d="M162.949 31.6439H168.121V13.5059H162.949V31.6439ZM172.667 13.1406C171.05 13.1406 169.738 14.4574 169.738 16.0801C169.738 17.7027 171.05 19.0195 172.667 19.0195C174.283 19.0195 175.596 17.7027 175.596 16.0801C175.596 14.4574 174.283 13.1406 172.667 13.1406Z" fill="#1D1D1B"/>
<path d="M116.603 13.5048V17.5657H104.719V13.5048H107.275V9.46094H112.396V13.4963H116.603V13.5048ZM112.396 19.2223V25.0587C112.396 26.5539 112.946 27.31 114.038 27.31C114.766 27.31 115.604 27.0467 116.519 26.5794L117.585 30.6658C116.933 31.0821 116.197 31.4559 115.367 31.6597C114.555 31.8976 113.725 31.9996 112.938 31.9996C111.27 31.9996 109.882 31.4983 108.841 30.4534C107.8 29.4339 107.275 27.9387 107.275 25.9932V19.2138H112.396V19.2223Z" fill="#1D1D1B"/>
<path d="M225.273 31.6455H230.445V14.9943H225.273V31.637V31.6455ZM227.855 12.8789C229.471 12.8789 230.783 11.5621 230.783 9.93945C230.783 8.31681 229.471 7 227.855 7C226.238 7 224.926 8.31681 224.926 9.93945C224.926 11.5621 226.238 12.8789 227.855 12.8789Z" fill="#1D1D1B"/>
<path d="M221.711 31.6458V19.854C221.711 16.0141 218.731 13.1426 213.517 13.1426C210.393 13.1426 207.338 13.9072 205.645 16.9656L208.87 19.081C208.87 19.081 209.996 17.1949 212.831 17.1949C215.667 17.1949 216.539 18.8091 216.539 20.4487V20.7886H211.299C207.481 20.7886 204.857 22.717 204.857 26.2427C204.857 29.0547 206.466 32.0026 210.673 32.0026C211.824 32.0026 214.228 31.6373 214.888 31.357V27.5255C214.236 27.9333 212.857 28.3581 212.002 28.3581C210.148 28.3581 209.268 27.0413 209.268 25.8944C209.268 24.5521 210.588 23.8469 212.103 23.8469H216.539V31.6288H221.711V31.6458Z" fill="#1D1D1B"/>
<path d="M245.945 13.5072L245.928 21.408V21.4675C245.928 24.288 244.464 26.157 241.992 26.157C239.52 26.157 238.318 24.288 238.318 21.4675V21.408C238.318 18.5535 239.529 16.7185 241.992 16.7185C242.889 16.7185 243.66 16.9734 244.269 17.4236V13.9065C243.296 13.4392 242.077 13.1504 240.646 13.1504C237.48 13.1504 233.146 14.8665 233.146 21.442C233.146 28.0176 237.48 29.7337 240.646 29.7337C243.084 29.7337 244.904 28.8926 245.945 27.7882V29.3938C245.945 30.5492 245.116 33.1319 241.433 33.1319C239.529 33.1319 237.988 32.4947 236.278 31.2629L234.332 34.9329C235.373 35.638 237.404 37.1842 241.747 37.1842C248.967 37.1842 251.126 32.877 251.126 29.2409V13.5072H245.954H245.945ZM245.945 21.4165C245.945 21.4165 245.945 21.442 245.945 21.459C245.945 21.459 245.945 21.442 245.937 21.4335C245.937 21.4335 245.937 21.4165 245.945 21.408V21.4165Z" fill="#1D1D1B"/>
<path d="M275.951 31.6458H281.123V13.5079H275.951V31.6458ZM287.031 13.1426C285.11 13.1426 283.722 13.6948 282.782 14.298V17.8661C283.256 17.4668 283.832 17.1949 284.551 17.1949C286.193 17.1949 288.191 18.3758 288.191 21.1878V31.6458H293.363V19.6077C293.363 16.6427 291.746 13.1426 287.031 13.1426Z" fill="#1D1D1B"/>
<path d="M263.533 13.1426C257.532 13.1426 253.773 17.3649 253.773 22.5726C253.773 23.8894 254.019 25.1468 254.468 26.2852H260.114C259.36 25.3167 258.945 24.0169 258.945 22.5726C258.945 19.6077 260.715 17.2034 263.533 17.2034C266.352 17.2034 268.121 19.6077 268.121 22.5726C268.121 25.5376 266.352 27.9418 263.533 27.9418H255.348C256.99 30.397 259.834 32.0026 263.533 32.0026C269.535 32.0026 273.293 27.7804 273.293 22.5726C273.293 17.3649 269.535 13.1426 263.533 13.1426Z" fill="#1D1D1B"/>
<path d="M198.559 19.4379C198.102 19.2765 197.475 19.0981 196.942 18.9367L192.938 22.8531C195.35 23.5582 197.805 24.1614 197.805 25.5547C197.805 26.7865 196.451 27.789 193.937 27.789C189.984 27.789 187.986 25.4272 187.986 25.4272L184.414 28.9274C184.414 28.9274 187.859 32.1727 193.937 32.1727C200.015 32.1727 203.113 28.8679 203.113 25.5122C203.113 22.1565 201.428 20.4573 198.55 19.4294L198.559 19.4379ZM189.535 21.5278C190.026 21.8166 190.61 22.0545 191.22 22.2754L195.181 18.4014C192.87 17.6963 190.678 16.8807 190.678 15.5724C190.678 13.593 192.93 13.4655 194.394 13.4655C195.858 13.4655 197.898 14.3321 198.728 14.9353L201.97 11.7664C200.319 10.0928 197.517 9.13281 194.242 9.13281C189.84 9.13281 185.176 10.9169 185.176 15.5979C185.176 19.8457 188.638 20.9926 189.544 21.5278H189.535Z" fill="#1D1D1B"/>
<path d="M250.412 52.7073V40.5332H252.799V44.5006C253.451 43.9059 254.314 43.5576 255.33 43.5576C257.734 43.5576 259.571 45.4606 259.571 48.2471C259.571 51.0337 257.726 52.9791 255.33 52.9791C254.23 52.9791 253.324 52.5799 252.655 51.8747L252.528 52.7073H250.412ZM254.958 50.8977C256.507 50.8977 257.218 50.2096 257.218 48.2556C257.218 46.3017 256.515 45.6305 254.958 45.6305C253.4 45.6305 252.698 46.3356 252.698 48.2556C252.698 50.1756 253.4 50.8977 254.958 50.8977Z" fill="#1D1D1B"/>
<path d="M268.882 43.8281L265.293 53.4875C264.701 55.0847 263.795 56.0022 261.772 56.0022H260.722V53.8274H262.22C262.635 53.8274 262.889 53.6829 263.033 53.3346L263.304 52.7399L259.842 43.8281H262.28L263.922 48.5346C264.066 48.9339 264.21 49.4607 264.37 50.0044L266.444 43.8281H268.882Z" fill="#1D1D1B"/>
<path d="M273.479 40.5332H275.916V50.5664H281.655V52.7073H273.479V40.5332Z" fill="#1D1D1B"/>
<path d="M287.834 42.3915C285.362 42.3915 284.168 43.5299 284.168 46.5967C284.168 49.6636 285.362 50.836 287.834 50.836C290 50.836 290.796 49.876 291.05 49.2983C291.16 49.0435 291.177 48.8311 291.177 48.5592V47.9645H287.656V45.9936H293.361V48.6357C293.361 49.035 293.327 49.4173 293.183 49.8335C292.768 50.9719 290.965 52.9854 287.842 52.9854C284.253 52.9854 281.756 50.3942 281.756 46.6052C281.756 42.8162 284.338 40.2676 287.842 40.2676C290.618 40.2676 292.735 41.7543 293.369 44.4899H291.059C290.644 42.9097 289.814 42.4084 287.842 42.4084L287.834 42.3915Z" fill="#1D1D1B"/>
</svg>
