<svg width="340" height="58" viewBox="0 0 340 58" fill="none" xmlns="http://www.w3.org/2000/svg">
<path d="M339.999 24.4688H273.812V29H339.999V24.4688Z" fill="white"/>
<path d="M47.0094 8.58203H42.5888L47.6081 21.17H41.6525L43.7938 15.7884L41.5758 10.2142L33.9395 28.6766H38.6594L40.2097 24.7809H49.0509L50.6012 28.6766H55.3211L47.0094 8.58203Z" fill="white"/>
<path d="M136.92 11.9004C131.517 11.9004 128.133 15.7268 128.133 20.4541C128.133 25.1813 131.517 29.0077 136.92 29.0077C141.011 29.0077 142.814 27.414 143.927 26.0359L141.464 23.5029C139.844 25.035 138.555 25.3276 136.92 25.3276C134.365 25.3276 132.761 22.9563 132.761 20.4541C132.761 17.9519 134.365 15.5882 136.92 15.5882C139.568 15.5882 140.343 17.1743 140.55 19.0759H134.679C134.533 19.4994 134.457 19.9613 134.457 20.4541C134.457 20.9699 134.549 21.4626 134.71 21.9015H144.91V20.4541C144.91 15.7345 142.323 11.9004 136.92 11.9004Z" fill="white"/>
<path d="M109.35 28.6779H114.039V12.2404V6.68164H109.35V28.6779Z" fill="white"/>
<path d="M119.536 11.9082C117.625 11.9082 116.243 12.6011 115.545 13.0631V16.6046C116.005 15.9579 116.957 15.5884 117.74 15.5884C119.252 15.5884 120.718 16.5353 120.718 18.9759V28.6768H125.407V17.7672C125.407 15.0725 123.811 11.9082 119.536 11.9082Z" fill="white"/>
<path d="M57.4316 28.6768H62.1209V12.2393H57.4316V28.6768ZM67.4778 11.9082C65.7357 11.9082 64.477 12.4086 63.6251 12.9553V16.1889C64.0549 15.827 64.5768 15.5807 65.2291 15.5807C66.718 15.5807 68.5292 16.6508 68.5292 19.1992V28.6768H73.2185V17.7672C73.2185 15.0802 71.7526 11.9082 67.4778 11.9082Z" fill="white"/>
<path d="M84.7923 11.9082C79.3509 11.9082 75.9434 15.7346 75.9434 20.4542C75.9434 21.6475 76.1659 22.787 76.5727 23.8187H81.6917C81.0087 22.941 80.6326 21.763 80.6326 20.4542C80.6326 17.7672 82.2366 15.5884 84.7923 15.5884C87.3479 15.5884 88.952 17.7672 88.952 20.4542C88.952 23.1411 87.3479 25.32 84.7923 25.32H77.3709C78.8597 27.545 81.4384 29.0001 84.7923 29.0001C90.2336 29.0001 93.6412 25.1737 93.6412 20.4542C93.6412 15.7346 90.2336 11.9082 84.7923 11.9082Z" fill="white"/>
<path d="M147.74 28.6768H152.429V12.2393H147.74V28.6768ZM156.551 11.9082C155.085 11.9082 153.895 13.1016 153.895 14.5721C153.895 16.0426 155.085 17.236 156.551 17.236C158.017 17.236 159.206 16.0426 159.206 14.5721C159.206 13.1016 158.017 11.9082 156.551 11.9082Z" fill="white"/>
<path d="M105.721 12.239V15.9191H94.9453V12.239H97.2631V8.57422H101.906V12.2313H105.721V12.239ZM101.906 17.4205V22.7097C101.906 24.0647 102.405 24.75 103.395 24.75C104.055 24.75 104.815 24.5113 105.644 24.0878L106.611 27.7911C106.02 28.1684 105.352 28.5071 104.6 28.6919C103.863 28.9075 103.111 28.9999 102.397 28.9999C100.886 28.9999 99.6269 28.5456 98.6829 27.5986C97.7389 26.6747 97.2631 25.3197 97.2631 23.5566V17.4128H101.906V17.4205Z" fill="white"/>
<path d="M204.248 28.6788H208.937V13.5886H204.248V28.6711V28.6788ZM206.589 11.6715C208.055 11.6715 209.244 10.4782 209.244 9.00763C209.244 7.53711 208.055 6.34375 206.589 6.34375C205.123 6.34375 203.934 7.53711 203.934 9.00763C203.934 10.4782 205.123 11.6715 206.589 11.6715Z" fill="white"/>
<path d="M201.019 28.6787V17.9924C201.019 14.5124 198.317 11.9102 193.589 11.9102C190.758 11.9102 187.987 12.6031 186.452 15.3747L189.376 17.2918C189.376 17.2918 190.397 15.5826 192.968 15.5826C195.539 15.5826 196.329 17.0454 196.329 18.5314V18.8393H191.579C188.117 18.8393 185.738 20.587 185.738 23.7821C185.738 26.3305 187.196 29.0021 191.011 29.0021C192.055 29.0021 194.234 28.671 194.833 28.417V24.9447C194.242 25.3142 192.991 25.6992 192.216 25.6992C190.535 25.6992 189.737 24.5058 189.737 23.4665C189.737 22.25 190.934 21.611 192.308 21.611H196.329V28.6633H201.019V28.6787Z" fill="white"/>
<path d="M222.991 12.2413L222.975 19.4015V19.4554C222.975 22.0115 221.648 23.7052 219.407 23.7052C217.166 23.7052 216.076 22.0115 216.076 19.4554V19.4015C216.076 16.8146 217.173 15.1516 219.407 15.1516C220.22 15.1516 220.919 15.3826 221.471 15.7906V12.6032C220.589 12.1797 219.484 11.918 218.186 11.918C215.316 11.918 211.387 13.4732 211.387 19.4323C211.387 25.3913 215.316 26.9466 218.186 26.9466C220.397 26.9466 222.047 26.1843 222.991 25.1835V26.6386C222.991 27.6857 222.239 30.0262 218.9 30.0262C217.173 30.0262 215.777 29.4488 214.226 28.3324L212.461 31.6584C213.405 32.2974 215.247 33.6986 219.184 33.6986C225.731 33.6986 227.688 29.7952 227.688 26.5V12.2413H222.999H222.991ZM222.991 19.4092C222.991 19.4092 222.991 19.4323 222.991 19.4477C222.991 19.4477 222.991 19.4323 222.983 19.4246C222.983 19.4246 222.983 19.4092 222.991 19.4015V19.4092Z" fill="white"/>
<path d="M250.197 28.6787H254.887V12.2412H250.197V28.6787ZM260.243 11.9102C258.501 11.9102 257.243 12.4106 256.391 12.9572V16.1908C256.821 15.829 257.342 15.5826 257.995 15.5826C259.484 15.5826 261.295 16.6528 261.295 19.2012V28.6787H265.984V17.7691C265.984 15.0822 264.518 11.9102 260.243 11.9102Z" fill="white"/>
<path d="M238.939 11.9102C233.497 11.9102 230.09 15.7366 230.09 20.4561C230.09 21.6495 230.312 22.7889 230.719 23.8206H235.838C235.155 22.9429 234.779 21.765 234.779 20.4561C234.779 17.7691 236.383 15.5903 238.939 15.5903C241.494 15.5903 243.098 17.7691 243.098 20.4561C243.098 23.1431 241.494 25.3219 238.939 25.3219H231.517C233.006 27.547 235.585 29.0021 238.939 29.0021C244.38 29.0021 247.788 25.1757 247.788 20.4561C247.788 15.7366 244.38 11.9102 238.939 11.9102Z" fill="white"/>
<path d="M180.028 17.6163C179.613 17.47 179.045 17.3084 178.562 17.1621L174.932 20.7113C177.119 21.3504 179.344 21.897 179.344 23.1596C179.344 24.276 178.117 25.1845 175.837 25.1845C172.253 25.1845 170.442 23.0442 170.442 23.0442L167.203 26.2162C167.203 26.2162 170.327 29.1572 175.837 29.1572C181.348 29.1572 184.156 26.1623 184.156 23.1212C184.156 20.08 182.629 18.5402 180.02 17.6086L180.028 17.6163ZM171.846 19.5103C172.291 19.7721 172.821 19.9876 173.374 20.1878L176.965 16.677C174.87 16.038 172.882 15.2989 172.882 14.1132C172.882 12.3194 174.924 12.2039 176.252 12.2039C177.579 12.2039 179.429 12.9892 180.181 13.5358L183.12 10.6641C181.624 9.14734 179.084 8.27734 176.113 8.27734C172.123 8.27734 167.894 9.89415 167.894 14.1363C167.894 17.9859 171.033 19.0252 171.854 19.5103H171.846Z" fill="white"/>
<path d="M227.039 47.7652V36.7324H229.203V40.3279C229.794 39.789 230.577 39.4733 231.498 39.4733C233.678 39.4733 235.343 41.1979 235.343 43.7232C235.343 46.2485 233.67 48.0116 231.498 48.0116C230.5 48.0116 229.679 47.6497 229.073 47.0107L228.958 47.7652H227.039ZM231.16 46.1253C232.565 46.1253 233.21 45.5017 233.21 43.7309C233.21 41.9601 232.573 41.3519 231.16 41.3519C229.748 41.3519 229.111 41.9909 229.111 43.7309C229.111 45.4709 229.748 46.1253 231.16 46.1253Z" fill="white"/>
<path d="M243.786 39.7188L240.532 48.4726C239.995 49.92 239.174 50.7515 237.34 50.7515H236.388V48.7806H237.746C238.122 48.7806 238.353 48.6497 238.483 48.334L238.729 47.7951L235.59 39.7188H237.8L239.289 43.984C239.42 44.3459 239.55 44.8232 239.696 45.316L241.576 39.7188H243.786Z" fill="white"/>
<path d="M247.953 36.7324H250.163V45.825H255.367V47.7652H247.953V36.7324Z" fill="white"/>
<path d="M260.967 38.417C258.726 38.417 257.644 39.4486 257.644 42.228C257.644 45.0074 258.726 46.0698 260.967 46.0698C262.932 46.0698 263.654 45.1998 263.884 44.6763C263.984 44.4453 263.999 44.2528 263.999 44.0065V43.4675H260.806V41.6814H265.979V44.0758C265.979 44.4376 265.948 44.7841 265.818 45.1613C265.442 46.193 263.807 48.0177 260.975 48.0177C257.721 48.0177 255.457 45.6695 255.457 42.2357C255.457 38.8019 257.798 36.4922 260.975 36.4922C263.492 36.4922 265.411 37.8395 265.987 40.3186H263.892C263.515 38.8866 262.763 38.4324 260.975 38.4324L260.967 38.417Z" fill="white"/>
</svg>
