<svg width="57" height="56" viewBox="0 0 57 56" fill="none" xmlns="http://www.w3.org/2000/svg">
<circle cx="28.5" cy="28" r="28" fill="#262626"/>
<g clip-path="url(#clip0_962_7513)">
<path d="M40.1731 21.3372V25.6922C40.1731 25.6922 36.4092 25.8973 33.4295 23.4122V33.3888C33.4295 33.7748 33.3933 34.1488 33.3209 34.5348C32.959 36.3082 31.4511 40.7959 25.5158 41.3146C25.2142 41.3387 24.9126 41.3387 24.611 41.3146C22.9221 41.1698 17.8674 40.2289 16.8661 34.1488C16.7455 33.4491 16.7334 32.7373 16.842 32.0377C17.1436 29.9627 19.2909 24.2566 26.3481 24.9442V29.2751C26.3481 29.2751 23.3202 28.5513 21.8484 30.8916C21.0763 32.1221 20.9919 33.6662 21.6433 34.9571C22.1379 35.9463 23.1392 36.9596 25.0935 37.032C25.9139 37.032 28.5196 36.7425 29.0987 33.5215V14.666H33.4295C33.4295 14.666 33.4295 20.915 40.1851 21.3372H40.1731Z" fill="white"/>
</g>
<defs>
<clipPath id="clip0_962_7513">
<rect width="32" height="32" fill="white" transform="translate(12.5 12)"/>
</clipPath>
</defs>
</svg>
