<svg width="57" height="56" viewBox="0 0 57 56" fill="none" xmlns="http://www.w3.org/2000/svg">
<circle cx="28.5" cy="28" r="28" fill="#262626"/>
<path fill-rule="evenodd" clip-rule="evenodd" d="M39.9644 18.2869C41.2269 18.6233 42.2204 19.6219 42.5567 20.8948C43.1673 23.1974 43.1621 27.9992 43.1621 27.9992C43.1621 27.9992 43.1621 32.801 42.5516 35.1035C42.2152 36.3713 41.2218 37.3699 39.9592 37.7114C37.6722 38.3272 28.4981 38.3272 28.4981 38.3272C28.4981 38.3272 19.324 38.3272 17.0369 37.7114C15.7744 37.3751 14.7809 36.3764 14.4446 35.1035C13.834 32.801 13.834 27.9992 13.834 27.9992C13.834 27.9992 13.834 23.1974 14.4497 20.8896C14.7861 19.6219 15.7795 18.6233 17.0421 18.2818C19.3291 17.666 28.5032 17.666 28.5032 17.666C28.5032 17.666 37.6722 17.666 39.9644 18.2869ZM33.1705 27.9992L25.5021 23.6372V32.3612L33.1705 27.9992Z" fill="white"/>
</svg>
