<svg width="57" height="56" viewBox="0 0 57 56" fill="none" xmlns="http://www.w3.org/2000/svg">
<circle cx="28.5" cy="28" r="28" fill="#262626"/>
<path d="M28.4996 23.7773C26.2173 23.7773 24.2773 25.7173 24.2773 27.9996C24.2773 30.2818 26.2173 32.2218 28.4996 32.2218C30.7818 32.2218 32.7218 30.2818 32.7218 27.9996C32.7218 25.7173 30.7818 23.7773 28.4996 23.7773Z" fill="white"/>
<path d="M33.9128 15.334H23.2037C19.0582 15.334 15.834 18.5582 15.834 22.5885V33.2976C15.834 37.4431 19.0582 40.6673 23.2037 40.6673H33.9128C37.9431 40.6673 41.1673 37.4431 41.1673 33.2976V22.5885C41.1673 18.5582 37.9431 15.334 33.9128 15.334ZM28.5007 34.6794C24.8158 34.6794 21.937 31.6855 21.937 28.1158C21.937 24.5461 24.8158 21.437 28.5007 21.437C32.1855 21.437 35.0643 24.431 35.0643 28.0007C35.0643 31.5703 32.1855 34.6794 28.5007 34.6794ZM35.2946 22.8188C34.4885 22.8188 33.7976 22.1279 33.7976 21.3219C33.7976 20.5158 34.4885 19.8249 35.2946 19.8249C36.1007 19.8249 36.7916 20.5158 36.7916 21.3219C36.7916 22.1279 36.1007 22.8188 35.2946 22.8188Z" fill="white"/>
</svg>
