<svg width="57" height="10" viewBox="0 0 57 10" fill="none" xmlns="http://www.w3.org/2000/svg">
<path d="M9.93616 0.179688V9.63222H8.50111V2.35329L5.83645 9.63222H4.4747L1.81005 2.35329V9.63222H0.375V0.179688H2.32213L5.14784 7.8526L7.97458 0.179688H9.93616Z" fill="#231916"/>
<path d="M11.209 6.17401C11.209 3.97264 12.483 2.52734 14.6789 2.52734C16.8749 2.52734 18.1489 3.97264 18.1489 6.17401C18.1489 8.37538 16.8749 9.82171 14.6789 9.82171C12.483 9.82171 11.209 8.33321 11.209 6.17401ZM12.5707 6.17401C12.5707 7.61931 13.3172 8.62535 14.6789 8.62535C16.0407 8.62535 16.7871 7.50306 16.7871 6.17401C16.7871 4.67111 16.0407 3.7093 14.6789 3.7093C13.3172 3.7093 12.5707 4.67111 12.5707 6.17401Z" fill="#231916"/>
<path d="M19.1738 6.17401C19.1738 3.97264 20.4478 2.52734 22.6438 2.52734C24.8397 2.52734 26.1137 3.97264 26.1137 6.17401C26.1137 8.37538 24.8397 9.82171 22.6438 9.82171C20.4478 9.82171 19.1738 8.33321 19.1738 6.17401ZM20.5356 6.17401C20.5356 7.61931 21.282 8.62535 22.6438 8.62535C24.0055 8.62535 24.7519 7.50306 24.7519 6.17401C24.7519 4.67111 24.0055 3.7093 22.6438 3.7093C21.282 3.7093 20.5356 4.67111 20.5356 6.17401Z" fill="#231916"/>
<path d="M32.9793 0.179688V9.63222H30.3146C28.4542 9.63222 26.9902 8.31962 26.9902 6.16043C26.9902 4.00123 28.3809 2.71744 30.3146 2.71744H31.632V0.179688H32.9793ZM31.632 3.88499H30.4168C29.0695 3.88499 28.352 4.92087 28.352 6.16043C28.352 7.39999 29.1284 8.46467 30.4168 8.46467H31.632V3.88396V3.88499Z" fill="#231916"/>
<path d="M42.1759 0.179688V6.84553C42.1759 8.4945 41.2829 9.63222 39.4235 9.63222H37.5786C35.7337 9.63222 34.8262 8.4945 34.8262 6.84553V0.179688H36.2612V6.99263C36.2612 7.92564 36.8177 8.40706 37.6519 8.40706H39.3502C40.1844 8.40706 40.7563 7.92564 40.7563 6.99263V0.179688H42.1769H42.1759Z" fill="#231916"/>
<path d="M48.0444 0.179688C49.9915 0.179688 51.0167 1.30198 51.0167 3.18446C51.0167 5.06694 50.0503 6.18923 48 6.18923H45.2331V9.63222H43.8125V0.179688H48.0444ZM47.9711 4.94967C49.084 4.94967 49.5816 4.23474 49.5816 3.18446C49.5816 2.13418 49.084 1.41925 47.9711 1.41925H45.2331V4.94967H47.9711Z" fill="#231916"/>
<path d="M53.7967 0.179688V0.546926H53.0978V2.53845H52.6218V0.546926H51.9219V0.179688H53.7967Z" fill="#231916"/>
<path d="M56.6255 0.179688V2.53845H56.1434V0.545897H56.1124L55.6592 2.53845H55.0366L54.5741 0.545897H54.5483V2.53845H54.0703V0.179688H54.9138L55.3526 2.17327H55.3804L55.8099 0.179688H56.6255Z" fill="#231916"/>
</svg>
