<svg width="168" height="60" viewBox="0 0 168 60" fill="none" xmlns="http://www.w3.org/2000/svg">
<g filter="url(#filter0_d_828_2193)">
<rect x="10" y="10" width="148" height="32" rx="16" fill="white"/>
<path d="M37.5548 20.608V22.672C37.5548 23.904 37.1388 24.864 36.1948 25.696C35.2348 26.528 33.7628 27.248 31.6028 28L30.7548 26.432C33.8268 25.392 35.5388 24.288 35.5388 22.864V22.256H31.2348V20.608H37.5548ZM41.3468 29.616H39.3468V19.808H41.3468V23.12H43.1868V24.8H41.3468V29.616ZM41.5708 31.856V33.504H34.0188C33.0748 33.504 32.7708 33.28 32.7708 32.256V28.8H34.7708V31.568C34.7708 31.808 34.8188 31.856 35.0588 31.856H41.5708ZM43.6856 27.648V26.032H44.9176V22.112H43.7816V20.48H51.3496V22.064H52.7256V19.808H54.7096V30.064H52.7256V26.016H51.7176L51.9096 27.056C51.3176 27.424 50.1656 27.648 49.1416 27.648H43.6856ZM54.9176 31.856V33.504H47.3976C46.4536 33.504 46.1496 33.28 46.1496 32.256V28.816H48.1496V31.568C48.1496 31.808 48.1976 31.856 48.4376 31.856H54.9176ZM46.8536 22.112V26.032H48.1496V22.112H46.8536ZM50.0856 22.112V26L50.5176 25.936C50.6456 25.92 50.7736 25.888 50.9016 25.856V24.352H52.7256V23.728H50.9016V22.112H50.0856ZM58.2643 21.632V20H62.7763V21.632H58.2643ZM64.3123 23.904H56.6003V22.272H64.3123V23.904ZM60.5203 30.88C58.5363 30.88 57.2723 29.856 57.2723 27.632C57.2723 25.408 58.5363 24.368 60.5203 24.368C62.5043 24.368 63.7683 25.408 63.7683 27.632C63.7683 29.856 62.5043 30.88 60.5203 30.88ZM60.5203 29.264C61.4003 29.264 61.8963 28.736 61.8963 27.632C61.8963 26.48 61.4003 25.968 60.5203 25.968C59.6243 25.968 59.1443 26.48 59.1443 27.632C59.1443 28.736 59.6243 29.264 60.5203 29.264ZM65.1443 33.568V19.808H67.1443V25.424H68.9843V27.104H67.1443V33.568H65.1443ZM76.3471 33.136V25.712H74.8431L74.7471 26.176C74.6351 26.672 74.4271 27.152 74.1071 27.616C73.4671 28.528 72.3631 29.392 70.5071 30.432L69.4991 28.976C71.0351 28.032 71.9151 27.344 72.3791 26.72C72.8751 26.08 72.9711 25.504 72.9711 24.8V22.304H69.6751V20.656H74.9231V24.032H76.3471V19.984H78.1391V33.136H76.3471ZM79.0031 33.568V19.808H80.9231V33.568H79.0031ZM93.6342 29.92C92.3542 29.088 91.2022 27.872 90.5622 26.72C89.9062 27.888 88.7862 29.152 87.4422 30.032L86.2262 28.736C88.3382 27.264 89.5382 25.472 89.5382 23.936V20.416H91.5702V23.936C91.5702 25.424 92.5942 27.152 94.7542 28.56L93.6342 29.92ZM95.5702 33.568V19.808H97.5702V33.568H95.5702ZM106.725 22.048H104.309V22.176C104.309 23.52 105.445 24.96 107.317 25.968L106.277 27.408C105.109 26.88 103.941 25.664 103.317 24.736C102.629 25.824 101.493 26.848 100.101 27.568L99.0609 26.128C101.093 24.992 102.293 23.568 102.293 22.176V22.048H99.7489V20.432H106.725V22.048ZM111.845 22.848V24.48H110.005V27.664H108.005V19.808H110.005V22.848H111.845ZM110.005 28.368V33.712H108.005V30.016H101.269V28.368H110.005ZM114.024 21.632V20H118.536V21.632H114.024ZM120.072 23.904H112.36V22.272H120.072V23.904ZM116.28 30.88C114.296 30.88 113.032 29.856 113.032 27.632C113.032 25.408 114.296 24.368 116.28 24.368C118.264 24.368 119.528 25.408 119.528 27.632C119.528 29.856 118.264 30.88 116.28 30.88ZM116.28 29.264C117.16 29.264 117.656 28.736 117.656 27.632C117.656 26.48 117.16 25.968 116.28 25.968C115.384 25.968 114.904 26.48 114.904 27.632C114.904 28.736 115.384 29.264 116.28 29.264ZM120.904 33.568V19.808H122.904V25.424H124.744V27.104H122.904V33.568H120.904ZM126.746 30.24L125.834 28.672C129.77 26.752 130.138 25.808 130.138 24.432V22.288H125.946V20.624H132.186V24.32C132.186 26.928 131.178 28.064 126.746 30.24ZM134.266 33.568V19.808H136.266V33.568H134.266Z" fill="black"/>
<path d="M84 50L77.9378 41L90.0622 41L84 50Z" fill="white"/>
</g>
<defs>
<filter id="filter0_d_828_2193" x="0" y="0" width="168" height="60" filterUnits="userSpaceOnUse" color-interpolation-filters="sRGB">
<feFlood flood-opacity="0" result="BackgroundImageFix"/>
<feColorMatrix in="SourceAlpha" type="matrix" values="0 0 0 0 0 0 0 0 0 0 0 0 0 0 0 0 0 0 127 0" result="hardAlpha"/>
<feOffset/>
<feGaussianBlur stdDeviation="5"/>
<feComposite in2="hardAlpha" operator="out"/>
<feColorMatrix type="matrix" values="0 0 0 0 0 0 0 0 0 0 0 0 0 0 0 0 0 0 0.1 0"/>
<feBlend mode="normal" in2="BackgroundImageFix" result="effect1_dropShadow_828_2193"/>
<feBlend mode="normal" in="SourceGraphic" in2="effect1_dropShadow_828_2193" result="shape"/>
</filter>
</defs>
</svg>
