<svg width="375" height="37" viewBox="0 0 375 37" fill="none" xmlns="http://www.w3.org/2000/svg">
<path d="M375 15H288V19H375V15Z" fill="#A50034"/>
<path d="M98.2669 2.10156H94.5744L98.7669 12.5192H93.7923L95.5808 8.06542L93.7282 3.45235L87.3496 18.7316H91.2921L92.5871 15.5075H99.9721L101.267 18.7316H105.21L98.2669 2.10156Z" fill="#1D1D1B"/>
<path d="M173.368 4.84961C168.854 4.84961 166.027 8.01632 166.027 11.9285C166.027 15.8407 168.854 19.0074 173.368 19.0074C176.784 19.0074 178.291 17.6885 179.22 16.5479L177.163 14.4517C175.81 15.7196 174.733 15.9618 173.368 15.9618C171.233 15.9618 169.893 13.9993 169.893 11.9285C169.893 9.85772 171.233 7.90163 173.368 7.90163C175.579 7.90163 176.227 9.21419 176.4 10.788H171.496C171.374 11.1384 171.31 11.5207 171.31 11.9285C171.31 12.3554 171.387 12.7632 171.521 13.1264H180.041V11.9285C180.041 8.02269 177.881 4.84961 173.368 4.84961Z" fill="#1D1D1B"/>
<path d="M150.34 18.7331H154.257V5.12962V0.529297H150.34V18.7331Z" fill="#1D1D1B"/>
<path d="M158.847 4.85547C157.251 4.85547 156.097 5.42892 155.514 5.81122V8.74217C155.898 8.20695 156.693 7.90111 157.347 7.90111C158.61 7.90111 159.834 8.68483 159.834 10.7046V18.7329H163.751V9.70429C163.751 7.47421 162.418 4.85547 158.847 4.85547Z" fill="#1D1D1B"/>
<path d="M106.973 18.7329H110.89V5.12945H106.973V18.7329ZM115.364 4.85547C113.909 4.85547 112.858 5.26963 112.146 5.72201V8.3981C112.505 8.09864 112.941 7.89474 113.486 7.89474C114.73 7.89474 116.242 8.7804 116.242 10.8894V18.7329H120.159V9.70429C120.159 7.48059 118.935 4.85547 115.364 4.85547Z" fill="#1D1D1B"/>
<path d="M129.827 4.85547C125.282 4.85547 122.436 8.02218 122.436 11.928C122.436 12.9156 122.621 13.8586 122.961 14.7124H127.237C126.667 13.986 126.352 13.0112 126.352 11.928C126.352 9.70429 127.692 7.90111 129.827 7.90111C131.962 7.90111 133.302 9.70429 133.302 11.928C133.302 14.1517 131.962 15.9549 129.827 15.9549H123.628C124.872 17.7963 127.026 19.0005 129.827 19.0005C134.372 19.0005 137.218 15.8338 137.218 11.928C137.218 8.02218 134.372 4.85547 129.827 4.85547Z" fill="#1D1D1B"/>
<path d="M182.406 18.7329H186.323V5.12945H182.406V18.7329ZM189.766 4.85547C188.541 4.85547 187.548 5.84307 187.548 7.06006C187.548 8.27704 188.541 9.26465 189.766 9.26465C190.99 9.26465 191.984 8.27704 191.984 7.06006C191.984 5.84307 190.99 4.85547 189.766 4.85547Z" fill="#1D1D1B"/>
<path d="M147.307 5.12861V8.17425H138.307V5.12861H140.243V2.0957H144.121V5.12223H147.307V5.12861ZM144.121 9.41672V13.794C144.121 14.9155 144.538 15.4825 145.365 15.4825C145.916 15.4825 146.551 15.285 147.243 14.9346L148.051 17.9993C147.557 18.3115 146.999 18.5919 146.371 18.7448C145.756 18.9232 145.128 18.9997 144.531 18.9997C143.268 18.9997 142.217 18.6237 141.429 17.84C140.64 17.0754 140.243 15.954 140.243 14.4949V9.41035H144.121V9.41672Z" fill="#1D1D1B"/>
<path d="M229.607 18.7341H233.523V6.24572H229.607V18.7278V18.7341ZM231.562 4.65918C232.786 4.65918 233.78 3.67157 233.78 2.45459C233.78 1.2376 232.786 0.25 231.562 0.25C230.337 0.25 229.344 1.2376 229.344 2.45459C229.344 3.67157 230.337 4.65918 231.562 4.65918Z" fill="#1D1D1B"/>
<path d="M226.908 18.7349V9.89102C226.908 7.01104 224.652 4.85742 220.703 4.85742C218.337 4.85742 216.023 5.43087 214.741 7.72466L217.183 9.3112C217.183 9.3112 218.036 7.8967 220.183 7.8967C222.331 7.8967 222.991 9.10731 222.991 10.337V10.5919H219.023C216.132 10.5919 214.145 12.0383 214.145 14.6825C214.145 16.7915 215.363 19.0025 218.549 19.0025C219.42 19.0025 221.241 18.7285 221.741 18.5182V15.6446C221.248 15.9505 220.203 16.269 219.555 16.269C218.151 16.269 217.484 15.2814 217.484 14.4213C217.484 13.4145 218.485 12.8857 219.632 12.8857H222.991V18.7221H226.908V18.7349Z" fill="#1D1D1B"/>
<path d="M245.261 5.13089L245.248 11.0565V11.1011C245.248 13.2165 244.139 14.6183 242.267 14.6183C240.396 14.6183 239.485 13.2165 239.485 11.1011V11.0565C239.485 8.91565 240.402 7.53937 242.267 7.53937C242.947 7.53937 243.53 7.73052 243.992 8.06822V5.43036C243.255 5.07992 242.332 4.86328 241.248 4.86328C238.851 4.86328 235.568 6.15035 235.568 11.082C235.568 16.0137 238.851 17.3007 241.248 17.3007C243.094 17.3007 244.473 16.6699 245.261 15.8416V17.0459C245.261 17.9124 244.633 19.8494 241.844 19.8494C240.402 19.8494 239.235 19.3715 237.94 18.4476L236.466 21.2002C237.254 21.729 238.793 22.8887 242.082 22.8887C247.55 22.8887 249.185 19.6582 249.185 16.9312V5.13089H245.268H245.261ZM245.261 11.0629C245.261 11.0629 245.261 11.082 245.261 11.0948C245.261 11.0948 245.261 11.082 245.255 11.0756C245.255 11.0756 245.255 11.0629 245.261 11.0565V11.0629Z" fill="#1D1D1B"/>
<path d="M267.986 18.7349H271.903V5.1314H267.986V18.7349ZM276.378 4.85742C274.923 4.85742 273.871 5.27158 273.16 5.72397V8.40006C273.519 8.10059 273.955 7.8967 274.5 7.8967C275.743 7.8967 277.256 8.78236 277.256 10.8914V18.7349H281.173V9.70624C281.173 7.48254 279.949 4.85742 276.378 4.85742Z" fill="#1D1D1B"/>
<path d="M258.581 4.85742C254.036 4.85742 251.189 8.02413 251.189 11.9299C251.189 12.9176 251.375 13.8606 251.715 14.7144H255.991C255.42 13.988 255.106 13.0131 255.106 11.9299C255.106 9.70624 256.446 7.90307 258.581 7.90307C260.716 7.90307 262.055 9.70624 262.055 11.9299C262.055 14.1537 260.716 15.9568 258.581 15.9568H252.382C253.625 17.7982 255.779 19.0025 258.581 19.0025C263.126 19.0025 265.972 15.8358 265.972 11.9299C265.972 8.02413 263.126 4.85742 258.581 4.85742Z" fill="#1D1D1B"/>
<path d="M209.374 9.57841C209.028 9.45735 208.554 9.32355 208.15 9.20249L205.118 12.1398C206.945 12.6687 208.804 13.121 208.804 14.166C208.804 15.0899 207.778 15.8417 205.874 15.8417C202.88 15.8417 201.367 14.0704 201.367 14.0704L198.662 16.6955C198.662 16.6955 201.271 19.1295 205.874 19.1295C210.477 19.1295 212.823 16.6509 212.823 14.1341C212.823 11.6173 211.547 10.343 209.368 9.57204L209.374 9.57841ZM202.541 11.1458C202.912 11.3625 203.355 11.5409 203.816 11.7065L206.816 8.80107C205.066 8.27223 203.406 7.66055 203.406 6.67932C203.406 5.19472 205.111 5.09915 206.22 5.09915C207.329 5.09915 208.874 5.74906 209.502 6.20144L211.958 3.82482C210.708 2.56961 208.586 1.84961 206.105 1.84961C202.771 1.84961 199.239 3.18765 199.239 6.69843C199.239 9.88425 201.861 10.7444 202.547 11.1458H202.541Z" fill="#1D1D1B"/>
<path d="M248.645 34.531V25.4004H250.452V28.3759C250.946 27.9299 251.6 27.6687 252.369 27.6687C254.19 27.6687 255.581 29.0959 255.581 31.1858C255.581 33.2757 254.183 34.7348 252.369 34.7348C251.536 34.7348 250.85 34.4354 250.343 33.9065L250.247 34.531H248.645ZM252.087 33.1738C253.26 33.1738 253.799 32.6577 253.799 31.1922C253.799 29.7267 253.267 29.2234 252.087 29.2234C250.907 29.2234 250.375 29.7522 250.375 31.1922C250.375 32.6322 250.907 33.1738 252.087 33.1738Z" fill="#1D1D1B"/>
<path d="M262.632 27.8711L259.914 35.1157C259.465 36.3135 258.779 37.0017 257.247 37.0017H256.452V35.3705H257.587C257.901 35.3705 258.093 35.2622 258.202 35.001L258.407 34.555L255.785 27.8711H257.631L258.875 31.401C258.984 31.7005 259.093 32.0955 259.215 32.5033L260.785 27.8711H262.632Z" fill="#1D1D1B"/>
<path d="M266.113 25.4004H267.96V32.9253H272.306V34.531H266.113V25.4004Z" fill="#1D1D1B"/>
<path d="M276.986 26.7941C275.114 26.7941 274.21 27.6479 274.21 29.948C274.21 32.2482 275.114 33.1275 276.986 33.1275C278.627 33.1275 279.229 32.4075 279.422 31.9742C279.505 31.7831 279.518 31.6238 279.518 31.4199V30.9739H276.851V29.4957H281.172V31.4772C281.172 31.7767 281.146 32.0634 281.037 32.3756C280.723 33.2294 279.358 34.7395 276.992 34.7395C274.274 34.7395 272.383 32.7962 272.383 29.9544C272.383 27.1127 274.338 25.2012 276.992 25.2012C279.095 25.2012 280.697 26.3162 281.178 28.3679H279.428C279.114 27.1828 278.486 26.8068 276.992 26.8068L276.986 26.7941Z" fill="#1D1D1B"/>
</svg>
