<svg width="32" height="32" viewBox="0 0 32 32" fill="none" xmlns="http://www.w3.org/2000/svg">
<path d="M27.7442 16.2701C27.7442 15.48 27.6742 14.73 27.5542 14H16.2539V18.5101H22.7241C22.4341 19.9902 21.584 21.2402 20.324 22.0902V25.0903H24.1841C26.4442 23.0002 27.7442 19.9202 27.7442 16.2701Z" fill="#4285F4"/>
<path d="M16.2533 27.9993C19.4933 27.9993 22.2034 26.9193 24.1835 25.0892L20.3234 22.0892C19.2433 22.8092 17.8733 23.2492 16.2533 23.2492C13.1232 23.2492 10.4731 21.1391 9.52308 18.2891H5.54297V21.3791C7.51302 25.2992 11.5631 27.9993 16.2533 27.9993Z" fill="#34A853"/>
<path d="M9.52405 18.2913C9.27404 17.5713 9.14403 16.8013 9.14403 16.0012C9.14403 15.2012 9.28404 14.4312 9.52405 13.7112V10.6211H5.54394C4.72392 12.2411 4.25391 14.0612 4.25391 16.0012C4.25391 17.9413 4.72392 19.7613 5.54394 21.3814L9.52405 18.2913Z" fill="#FBBC05"/>
<path d="M16.2533 8.75012C18.0233 8.75012 19.6033 9.36014 20.8534 10.5502L24.2735 7.13008C22.2034 5.19003 19.4933 4 16.2533 4C11.5631 4 7.51302 6.70007 5.54297 10.6202L9.52308 13.7103C10.4731 10.8602 13.1232 8.75012 16.2533 8.75012Z" fill="#EA4335"/>
</svg>
