<svg width="56" height="56" viewBox="0 0 56 56" fill="none" xmlns="http://www.w3.org/2000/svg">
<circle cx="28" cy="28" r="28" fill="white"/>
<path d="M45.6183 28.4051C45.6183 27.2201 45.5133 26.095 45.3333 25H28.3828V31.7652H38.0881C37.6531 33.9852 36.378 35.8603 34.488 37.1353V41.6354H40.2781C43.6682 38.5004 45.6183 33.8802 45.6183 28.4051Z" fill="#4285F4"/>
<path d="M28.3818 46.0009C33.242 46.0009 37.3071 44.3809 40.2771 41.6358L34.487 37.1357C32.867 38.2157 30.8119 38.8757 28.3818 38.8757C23.6867 38.8757 19.7116 35.7107 18.2866 31.4355H12.3164V36.0707C15.2715 41.9508 21.3466 46.0009 28.3818 46.0009Z" fill="#34A853"/>
<path d="M18.288 31.4389C17.913 30.3589 17.718 29.2038 17.718 28.0038C17.718 26.8038 17.928 25.6487 18.288 24.5687V19.9336H12.3179C11.0878 22.3637 10.3828 25.0937 10.3828 28.0038C10.3828 30.9139 11.0878 33.644 12.3179 36.074L18.288 31.4389Z" fill="#FBBC05"/>
<path d="M28.3818 17.1252C31.0369 17.1252 33.407 18.0402 35.282 19.8253L40.4121 14.6951C37.3071 11.785 33.242 10 28.3818 10C21.3466 10 15.2715 14.0501 12.3164 19.9303L18.2866 24.5654C19.7116 20.2903 23.6867 17.1252 28.3818 17.1252Z" fill="#EA4335"/>
</svg>
