<svg width="56" height="56" viewBox="0 0 56 56" fill="none" xmlns="http://www.w3.org/2000/svg">
<circle cx="28" cy="28" r="28" fill="white"/>
<path d="M40.0845 38.6648C26.4647 45.1466 18.0122 39.7235 12.6014 36.4295C12.2666 36.2219 11.6975 36.4781 12.1913 37.0452C13.9939 39.2309 19.9014 44.499 27.6123 44.499C35.3286 44.499 39.9191 40.2886 40.4933 39.5542C41.0637 38.8259 40.6608 38.4242 40.0843 38.6648H40.0845ZM43.9095 36.5524C43.5438 36.0761 41.6856 35.9873 40.5161 36.131C39.3448 36.2705 37.5868 36.9863 37.7396 37.4161C37.818 37.5771 37.9781 37.5049 38.7828 37.4326C39.5896 37.3521 41.8498 37.0668 42.3208 37.6825C42.7939 38.3024 41.5999 41.2556 41.3818 41.7318C41.1711 42.2081 41.4623 42.3309 41.8581 42.0137C42.2484 41.6966 42.9551 40.8754 43.4293 39.7134C43.9002 38.5449 44.1874 36.915 43.9094 36.5524H43.9095Z" fill="#FF9900"/>
<path fill-rule="evenodd" clip-rule="evenodd" d="M30.9277 25.4377C30.9277 27.1385 30.9707 28.5568 30.1111 30.0672C29.4172 31.2953 28.3182 32.0504 27.0902 32.0504C25.4139 32.0504 24.4377 30.7733 24.4377 28.8884C24.4377 25.1675 27.7716 24.4922 30.9277 24.4922V25.4377ZM35.33 36.0783C35.0414 36.3361 34.6239 36.3546 34.2985 36.1826C32.8495 34.9793 32.5916 34.4205 31.7934 33.2723C29.3989 35.7161 27.7042 36.4466 24.5974 36.4466C20.9257 36.4466 18.0645 34.181 18.0645 29.6436C18.0645 26.1009 19.9864 23.6878 22.7185 22.509C25.0886 21.4651 28.398 21.281 30.9277 20.9925V20.4275C30.9277 19.3898 31.0074 18.1619 30.3997 17.2655C29.8654 16.4611 28.8462 16.1296 27.9497 16.1296C26.2859 16.1296 24.8 16.983 24.4377 18.7513C24.3639 19.1443 24.0755 19.5312 23.6825 19.5495L19.4459 19.0953C19.0899 19.0153 18.6969 18.7268 18.7952 18.1803C19.7714 13.0474 24.4069 11.5 28.5575 11.5C30.6819 11.5 33.4572 12.0649 35.1334 13.6736C37.2579 15.6568 37.0552 18.3031 37.0552 21.1827V27.9858C37.0552 30.0304 37.9025 30.9268 38.7007 32.0321C38.9831 32.425 39.0446 32.8979 38.6884 33.1925C37.7981 33.9353 36.214 35.3169 35.3422 36.0906L35.3299 36.0783" fill="black"/>
</svg>
