<svg width="56" height="56" viewBox="0 0 56 56" fill="none" xmlns="http://www.w3.org/2000/svg">
<circle cx="28" cy="28" r="28" fill="white"/>
<path d="M40.6377 21.7622C40.4453 21.9175 37.0492 23.9083 37.0492 28.3351C37.0492 33.4554 41.3707 35.2669 41.5 35.3117C41.4801 35.4221 40.8135 37.7925 39.2215 40.2078C37.8021 42.3332 36.3196 44.4551 34.0643 44.4551C31.8091 44.4551 31.2287 43.0923 28.6252 43.0923C26.088 43.0923 25.1859 44.5 23.123 44.5C21.0601 44.5 19.6207 42.5333 17.9658 40.1181C16.0488 37.2819 14.5 32.8758 14.5 28.694C14.5 21.9865 18.6921 18.4292 22.8179 18.4292C25.0101 18.4292 26.8376 19.9266 28.2139 19.9266C29.524 19.9266 31.5669 18.3395 34.061 18.3395C35.0062 18.3395 38.4023 18.4292 40.6377 21.7622ZM32.877 15.4998C33.9084 14.2267 34.6381 12.4601 34.6381 10.6935C34.6381 10.4485 34.6182 10.2001 34.5751 10C32.8969 10.0656 30.9003 11.1628 29.6964 12.6154C28.7512 13.7333 27.869 15.4998 27.869 17.2906C27.869 17.5597 27.9121 17.8288 27.932 17.9151C28.0381 17.9358 28.2106 17.9599 28.3831 17.9599C29.8888 17.9599 31.7825 16.911 32.877 15.4998Z" fill="black"/>
</svg>
