<svg width="375" height="370" viewBox="0 0 375 370" fill="none" xmlns="http://www.w3.org/2000/svg">
<g clip-path="url(#clip0_1640_12365)">
<path d="M293.74 21.665H374.86" stroke="#BE0738" stroke-width="4.00048" stroke-miterlimit="10"/>
<path d="M0.871094 235.728H140.495L98.1314 204.973H167.527L188.963 139L210.399 204.973H279.772L236.784 236.214L223.649 245.764L245.086 311.738L188.963 270.97L132.818 311.738L154.277 245.764H374.858" stroke="#BE0738" stroke-width="4.00048" stroke-linejoin="round"/>
<path d="M52.1815 2.35742H47.4642L52.8058 15.7232H46.4698L48.7591 10.0115L46.4005 4.09174L38.2607 23.6779H43.2787L44.9436 19.5387H54.3552L55.997 23.6779H61.0149L52.1815 2.35742Z" fill="#1D1D1B"/>
<path d="M147.845 5.89844C142.111 5.89844 138.503 9.96829 138.503 14.9631C138.503 19.9579 142.111 24.0278 147.845 24.0278C152.193 24.0278 154.112 22.3397 155.314 20.8829L152.701 18.2005C150.99 19.8192 149.603 20.1429 147.868 20.1429C145.14 20.1429 143.452 17.6224 143.452 14.9862C143.452 12.3501 145.163 9.82955 147.868 9.82955C150.69 9.82955 151.522 11.5176 151.73 13.5294H145.487C145.325 13.9688 145.255 14.4775 145.255 14.9862C145.255 15.5412 145.348 16.05 145.533 16.5124H156.378V14.9862C156.378 9.96829 153.626 5.92156 147.892 5.92156L147.845 5.89844Z" fill="#1D1D1B"/>
<path d="M118.5 23.68H123.495V6.24432V0.347656H118.5V23.68Z" fill="#1D1D1B"/>
<path d="M129.349 5.8991C127.314 5.8991 125.857 6.63907 125.094 7.12468V10.8708C125.579 10.1771 126.597 9.80709 127.429 9.78396C129.048 9.78396 130.597 10.8014 130.597 13.3682V23.6585H135.592V12.0964C135.592 9.25211 133.881 5.87598 129.349 5.87598V5.8991Z" fill="#1D1D1B"/>
<path d="M63.2817 23.6809H68.2766V6.2453H63.2817V23.6809ZM73.9651 5.89844C72.1152 5.89844 70.774 6.43029 69.8721 7.0084V10.4308C70.3346 10.0377 70.8896 9.7833 71.5833 9.7833C73.1558 9.7833 75.0982 10.9164 75.0982 13.6219V23.6809H80.093V12.1188C80.093 9.27457 78.5437 5.89844 73.9882 5.89844H73.9651Z" fill="#1D1D1B"/>
<path d="M92.3715 5.89844C86.5905 5.89844 82.96 9.96829 82.96 14.9631C82.96 16.2349 83.1912 17.4374 83.6306 18.5242H89.0647C88.3479 17.5993 87.9317 16.3506 87.9317 14.9631C87.9317 12.1188 89.6429 9.80642 92.3484 9.80642C95.0539 9.80642 96.7651 12.1188 96.7651 14.9631C96.7651 17.8074 95.0539 20.1198 92.3484 20.1198H84.463C86.0355 22.4785 88.7873 24.0278 92.3484 24.0278C98.1294 24.0278 101.76 19.9579 101.76 14.9631C101.76 9.96829 98.1294 5.89844 92.3484 5.89844H92.3715Z" fill="#1D1D1B"/>
<path d="M159.36 23.6809H164.355V6.2453H159.36V23.6809ZM168.725 5.89844C167.176 5.89844 165.904 7.17027 165.904 8.71959C165.904 10.2689 167.176 11.5407 168.725 11.5407C170.275 11.5407 171.547 10.2689 171.547 8.71959C171.547 7.17027 170.275 5.89844 168.725 5.89844Z" fill="#1D1D1B"/>
<path d="M114.641 6.24228V10.1503H103.171V6.24228H105.645V2.35742H110.594V6.24228H114.641ZM110.594 11.7458V17.365C110.594 18.7987 111.126 19.5387 112.19 19.5387C112.883 19.5387 113.693 19.2843 114.594 18.845L115.635 22.7761C115.011 23.1692 114.294 23.5392 113.485 23.7242C112.698 23.9554 111.889 24.0479 111.149 24.0479C109.53 24.0479 108.212 23.5623 107.195 22.568C106.177 21.5967 105.692 20.1399 105.692 18.29V11.769H110.64L110.594 11.7458Z" fill="#1D1D1B"/>
<path d="M219.509 23.6792H224.504V7.67723H219.509V23.6792ZM222.006 5.6423C223.556 5.6423 224.828 4.37047 224.828 2.82115C224.828 1.27183 223.556 0 222.006 0C220.457 0 219.185 1.27183 219.185 2.82115C219.185 4.37047 220.457 5.6423 222.006 5.6423Z" fill="#1D1D1B"/>
<path d="M216.062 23.6809V12.3501C216.062 8.65022 213.194 5.89844 208.153 5.89844C205.147 5.89844 202.187 6.63841 200.569 9.57518L203.69 11.6101C203.69 11.6101 204.777 9.80642 207.506 9.80642C210.234 9.80642 211.09 11.3557 211.09 12.9282V13.2519H206.026C202.349 13.2519 199.805 15.1019 199.805 18.5011C199.805 21.2066 201.355 24.0509 205.425 24.0509C206.535 24.0509 208.847 23.7041 209.494 23.4266V19.7498C208.87 20.1429 207.529 20.5592 206.72 20.5592C204.939 20.5592 204.083 19.2873 204.083 18.2005C204.083 16.9055 205.355 16.2349 206.812 16.2349H211.09V23.7272H216.085L216.062 23.6809Z" fill="#1D1D1B"/>
<path d="M239.441 6.24108V13.8258V13.8489C239.441 16.6007 238.031 18.3813 235.649 18.3813C233.267 18.3813 232.111 16.5776 232.111 13.8721V13.8027C232.111 11.0509 233.267 9.29347 235.649 9.29347C236.528 9.29347 237.268 9.52471 237.846 9.96407V6.58794C236.898 6.14858 235.742 5.87109 234.354 5.87109C231.302 5.87109 227.116 7.51291 227.116 13.8489C227.116 20.185 231.302 21.8268 234.354 21.8268C236.713 21.8268 238.47 21.0174 239.465 19.9537V21.503C239.465 22.613 238.678 25.0873 235.117 25.0873C233.267 25.0873 231.787 24.4629 230.145 23.2836L228.272 26.7985C229.29 27.4691 231.232 28.9721 235.418 28.9721C242.378 28.9721 244.459 24.8329 244.459 21.3412V6.24108H239.465H239.441ZM239.441 13.8489C239.441 13.8489 239.441 13.8721 239.441 13.8952V13.8489Z" fill="#1D1D1B"/>
<path d="M268.392 23.6809H273.387V6.2453H268.392V23.6809ZM279.075 5.89844C277.226 5.89844 275.884 6.43029 274.982 7.0084V10.4308C275.445 10.0377 276 9.7833 276.694 9.7833C278.266 9.7833 280.209 10.9164 280.209 13.6219V23.6809H285.203V12.1188C285.203 9.27457 283.654 5.89844 279.099 5.89844H279.075Z" fill="#1D1D1B"/>
<path d="M256.414 5.89844C250.633 5.89844 247.002 9.96829 247.002 14.9631C247.002 16.2349 247.233 17.4374 247.673 18.5242H253.107C252.39 17.5993 251.974 16.3506 251.974 14.9631C251.974 12.1188 253.685 9.80642 256.391 9.80642C259.096 9.80642 260.807 12.1188 260.807 14.9631C260.807 17.8074 259.096 20.1198 256.391 20.1198H248.505C250.078 22.4785 252.829 24.0278 256.391 24.0278C262.172 24.0278 265.802 19.9579 265.802 14.9631C265.802 9.96829 262.172 5.89844 256.391 5.89844H256.414Z" fill="#1D1D1B"/>
<path d="M193.725 11.9574C193.286 11.7955 192.685 11.6336 192.176 11.4718L188.314 15.241C190.65 15.9116 193.008 16.4897 193.008 17.8309C193.008 19.0103 191.713 19.9815 189.262 19.9815C185.447 19.9815 183.528 17.7153 183.528 17.7153L180.082 21.0683C180.082 21.0683 183.412 24.1901 189.262 24.1901C195.113 24.1901 198.119 21.0221 198.119 17.7847C198.119 14.5473 196.5 12.9286 193.725 11.9343V11.9574ZM185.007 13.9692C185.493 14.2467 186.048 14.4779 186.626 14.686L190.442 10.963C188.199 10.2924 186.094 9.50622 186.094 8.25751C186.094 6.36133 188.268 6.22259 189.679 6.22259C191.089 6.22259 193.055 7.05506 193.864 7.63316L196.986 4.58077C195.39 2.96208 192.685 2.03711 189.54 2.03711C185.285 2.03711 180.799 3.7483 180.799 8.25751C180.799 12.3274 184.129 13.4373 185.007 13.9692Z" fill="#1D1D1B"/>
<path d="M243.743 43.9342V32.2334H246.032V36.0489C246.657 35.4708 247.489 35.147 248.46 35.147C250.773 35.147 252.553 36.9739 252.553 39.6563C252.553 42.3387 250.773 44.2117 248.46 44.2117C247.397 44.2117 246.518 43.8186 245.893 43.148L245.778 43.9574H243.743V43.9342ZM248.137 42.1999C249.64 42.1999 250.31 41.5293 250.31 39.6563C250.31 37.7832 249.64 37.1357 248.137 37.1357C246.633 37.1357 245.963 37.8063 245.963 39.6563C245.963 41.5062 246.633 42.1999 248.137 42.1999Z" fill="#1D1D1B"/>
<path d="M261.571 35.4043L258.102 44.6771C257.524 46.2033 256.646 47.1051 254.703 47.1051H253.686V45.024H255.142C255.536 45.024 255.79 44.8852 255.929 44.5615L256.183 43.9834L252.83 35.4043H255.189L256.784 39.9366C256.923 40.3297 257.062 40.8154 257.224 41.3472L259.235 35.4043H261.594H261.571Z" fill="#1D1D1B"/>
<path d="M266.013 32.2334H268.372V41.8762H273.922V43.9342H266.037V32.2334H266.013Z" fill="#1D1D1B"/>
<path d="M279.864 34.0161C277.482 34.0161 276.326 35.1029 276.326 38.0628C276.326 41.0227 277.482 42.1326 279.864 42.1326C281.945 42.1326 282.731 41.2077 282.962 40.6527C283.078 40.3983 283.078 40.1902 283.078 39.9359V39.3577H279.679V37.4616H285.182V40.0052C285.182 40.3983 285.159 40.7452 284.997 41.1614C284.604 42.2483 282.847 44.1907 279.841 44.1907C276.372 44.1907 273.967 41.6933 273.967 38.0628C273.967 34.4323 276.464 31.958 279.841 31.958C282.523 31.958 284.558 33.3917 285.159 36.0047H282.939C282.546 34.4785 281.737 33.9929 279.841 33.9929L279.864 34.0161Z" fill="#1D1D1B"/>
</g>
<defs>
<clipPath id="clip0_1640_12365">
<rect width="373.987" height="370.01" fill="white" transform="translate(0.871094)"/>
</clipPath>
</defs>
</svg>
