<svg width="353" height="22" viewBox="0 0 353 22" fill="none" xmlns="http://www.w3.org/2000/svg">
<path d="M271.934 21.4592C275.333 21.4592 277.322 19.8405 277.322 16.6957C277.322 14.7301 276.212 13.0883 274.038 12.2096L272.096 11.4002C270.847 10.8915 270.315 10.2209 270.315 9.20345C270.315 8.13974 271.147 7.6541 272.003 7.6541C273.252 7.6541 274.223 8.55597 275.842 10.614C276.027 10.8221 276.212 10.7527 276.212 10.4753V7.6541C276.212 7.4691 276.119 7.35349 275.98 7.26099C275.148 6.96038 273.714 6.75226 272.419 6.75226C269.483 6.75226 267.239 8.53284 267.239 11.2152C267.239 12.9958 268.095 14.6607 270.153 15.4932L272.234 16.3488C273.645 16.9269 274.154 17.5744 274.154 18.6381C274.154 19.7712 273.344 20.5112 272.188 20.5112C270.777 20.5112 269.529 19.3318 267.679 16.8344C267.517 16.6032 267.309 16.6957 267.332 16.9732L267.609 20.5343C267.609 20.7193 267.702 20.8349 267.887 20.9043C268.696 21.1586 269.945 21.3899 271.957 21.3899M264.904 7.70036C267.147 7.02975 268.28 5.29546 268.28 3.16804C268.28 1.24873 267.101 0.0693697 265.644 0.0693697C264.187 0.0693697 262.985 1.2487 262.985 2.70552C262.985 4.16235 264.141 5.36483 265.575 5.36483C266.037 5.36483 266.407 5.2492 266.569 5.17983C266.638 5.1567 266.684 5.20296 266.684 5.29546C266.476 6.15105 265.598 6.8679 264.788 7.35351C264.534 7.49225 264.673 7.79285 264.927 7.70036M256.718 12.2096C256.764 8.90281 257.389 7.60787 258.36 7.60787C259.331 7.60787 259.909 8.9953 259.909 12.2096H256.718ZM258.591 21.3899C261.805 21.3899 263.609 19.4474 264.118 17.0888C264.187 16.7882 264.025 16.6725 263.794 16.8807C262.846 17.7131 261.62 18.06 260.557 18.06C258.267 18.06 256.88 16.6725 256.741 13.1114H263.794C263.956 13.1114 264.095 13.0189 264.118 12.8339C264.141 12.6258 264.141 12.4177 264.141 12.1865C264.141 9.34218 262.106 6.65978 258.776 6.65978C255.099 6.65978 252.116 9.61968 252.116 14.2908C252.116 18.9618 254.961 21.3436 258.591 21.3436M243.468 8.13972H245.04V17.4357C245.04 20.1643 244.023 20.4187 244.023 20.8118C244.023 20.9505 244.115 21.0661 244.323 21.0661H250.567C250.775 21.0661 250.868 20.9505 250.868 20.8118C250.868 20.3724 249.642 20.1412 249.642 17.4357V8.13972H251.977C252.186 8.13972 252.278 8.02409 252.278 7.8391V7.23788C252.278 7.02976 252.162 6.93725 251.977 6.93725H250.243C249.642 6.93725 249.272 6.72915 248.809 6.08167L248.416 5.52668C247.676 4.50921 247.33 3.58426 247.33 2.79804C247.33 1.78058 248 1.22558 248.856 1.22558C249.943 1.22558 250.706 2.08118 252.324 3.83862C252.509 4.04674 252.671 3.95424 252.671 3.72299V0.601251C252.671 0.416258 252.579 0.32375 252.463 0.300626C251.7 0.092508 251.099 0 250.243 0C246.775 0 245.11 2.65929 245.11 5.57294V6.68289L243.445 7.7235C243.237 7.86225 243.283 8.13972 243.537 8.13972M236.646 2.63616C236.646 4.09298 237.825 5.29546 239.305 5.29546C240.785 5.29546 241.942 4.1161 241.942 2.63616C241.942 1.15621 240.762 0 239.305 0C237.849 0 236.646 1.17933 236.646 2.63616ZM236.299 21.043H242.335C242.543 21.043 242.635 20.9274 242.635 20.7887C242.635 20.3724 241.618 20.118 241.618 17.4125V6.61352C241.618 6.61352 241.572 6.52104 241.525 6.52104L236.322 7.6541C236.114 7.70035 236.022 7.79285 236.022 7.95472C236.022 8.37096 237.039 8.46344 237.039 10.5446V17.3894C237.039 20.118 236.022 20.3724 236.022 20.7655C236.022 20.9043 236.114 21.0199 236.322 21.0199M222.147 21.0199H233.802C234.056 21.0199 234.195 20.9043 234.241 20.6499L235.143 15.7013C235.189 15.4701 234.981 15.3776 234.796 15.5626L232.183 18.2219C230.819 19.6093 230.356 20.0487 228.807 20.0487H227.836V5.22609C227.836 2.49743 228.853 2.24305 228.853 1.84994C228.853 1.7112 228.761 1.59557 228.553 1.59557H222.147C221.939 1.59557 221.847 1.7112 221.847 1.84994C221.847 2.26618 222.864 2.52056 222.864 5.22609V17.3663C222.864 20.0949 221.847 20.3493 221.847 20.7424C221.847 20.8811 221.939 20.9968 222.147 20.9968" fill="#1D1D1B"/>
<path d="M349.583 21.4599C351.04 21.4599 352.219 20.2806 352.219 18.8007C352.219 17.3207 351.04 16.1645 349.583 16.1645C348.126 16.1645 346.924 17.3439 346.924 18.8007C346.924 20.2575 348.103 21.4599 349.583 21.4599ZM335.708 13.4127C335.708 9.31977 336.656 7.67796 337.974 7.67796C338.576 7.67796 339.108 7.97856 339.686 8.53354V19.0782C339.246 19.2632 338.876 19.2863 338.553 19.2863C336.888 19.2863 335.708 17.6907 335.708 13.3896M339.801 21.4368L345.12 20.0263C345.305 19.98 345.397 19.9107 345.397 19.7488C345.397 19.3094 344.264 19.2169 344.264 17.1126V0.208857C344.264 0.208857 344.218 0.116328 344.172 0.139452L338.853 1.55003C338.668 1.59628 338.576 1.66567 338.576 1.82754C338.576 2.2669 339.709 2.3594 339.709 4.4637V6.89174C339.108 6.79925 338.414 6.75297 337.882 6.75297C333.65 6.75297 330.945 10.0598 330.945 14.7308C330.945 18.8932 332.725 21.4368 336.286 21.4368C337.674 21.4368 338.529 20.9281 339.686 19.8413V21.3675C339.686 21.3675 339.732 21.46 339.778 21.4368M321.094 14.1065C321.094 9.2504 321.695 7.65481 322.944 7.65481C324.308 7.65481 324.817 9.2504 324.817 14.1065C324.817 18.9626 324.285 20.5581 322.944 20.5581C321.695 20.5581 321.094 18.9394 321.094 14.1065ZM322.944 21.4368C326.967 21.4368 329.58 18.292 329.58 14.1065C329.58 9.921 326.944 6.75297 322.944 6.75297C318.943 6.75297 316.33 9.921 316.33 14.1065C316.33 18.292 319.036 21.4368 322.944 21.4368ZM306.502 14.1065C306.502 9.2504 307.104 7.65481 308.352 7.65481C309.717 7.65481 310.225 9.2504 310.225 14.1065C310.225 18.9626 309.694 20.5581 308.352 20.5581C307.104 20.5581 306.502 18.9394 306.502 14.1065ZM308.352 21.4368C312.376 21.4368 314.989 18.292 314.989 14.1065C314.989 9.921 312.353 6.75297 308.352 6.75297C304.352 6.75297 301.739 9.921 301.739 14.1065C301.739 18.292 304.444 21.4368 308.352 21.4368ZM292.281 21.4368C294.617 21.4368 297.16 20.7893 299.635 19.4019C299.658 19.4019 299.681 19.3557 299.681 19.3094V15.1471C299.681 12.4184 300.444 12.1409 300.444 11.7709C300.444 11.6322 300.351 11.5166 300.143 11.5166H294.2C293.992 11.5166 293.9 11.6322 293.9 11.7709C293.9 12.1872 294.917 12.4415 294.917 15.1471V19.8182C294.339 20.2806 293.738 20.5119 292.697 20.5119C289.853 20.5119 288.304 17.737 288.304 11.401C288.304 5.06493 289.784 2.45187 292.559 2.45187C294.154 2.45187 295.218 3.42311 298.039 6.45238C298.201 6.63737 298.386 6.56801 298.386 6.31364V2.89124C298.386 2.63687 298.27 2.475 298.039 2.3825C296.837 1.94314 295.218 1.52692 293.137 1.52692C287.379 1.52692 283.008 5.45803 283.008 11.4241C283.008 17.8295 286.153 21.4831 292.281 21.4831" fill="#1D1D1B"/>
<path d="M0.871094 19.1953H213.174" stroke="#BE0738" stroke-width="4.00048" stroke-miterlimit="10"/>
</svg>
